<?xml version="1.0" encoding="utf-8"?>
<!-- Generator: Adobe Illustrator 16.0.0, SVG Export Plug-In . SVG Version: 6.00 Build 0)  -->
<!DOCTYPE svg PUBLIC "-//W3C//DTD SVG 1.1//EN" "http://www.w3.org/Graphics/SVG/1.1/DTD/svg11.dtd">


<svg  x="0px" y="0px" viewBox="0 0 1140 1355" enable-background="new 0 0 1140 1355" xml:space="preserve">
	<g id="fade">
		<circle fill="none" stroke="#A1519F" stroke-width="1.5" stroke-miterlimit="10" cx="1046.549" cy="596.605" r="21.949"/>
		<circle fill="none" stroke="#A1519F" stroke-width="1.5" stroke-miterlimit="10" cx="740.357" cy="482.685" r="24.334"/>
		<path fill="none" stroke="#A1519F" stroke-width="1.5" stroke-miterlimit="10" d="M110.615,332.41
			c11.555-5.992,24.68-9.376,38.594-9.376c31.391,0,59.01,16.448,73.416,41.966"/>
		<path fill="none" stroke="#A1519F" stroke-width="1.5" stroke-miterlimit="10" d="M462.689,654.543
			c-4.047,4.689-10.029,7.657-16.706,7.657c-12.182,0-22.055-9.871-22.055-22.049c0-12.182,9.873-22.056,22.055-22.056
			c12.177,0,22.05,9.874,22.05,22.056c0,4.952-1.633,9.521-4.393,13.202"/>
		<circle fill="none" stroke="#A1519F" stroke-width="1.5" stroke-miterlimit="10" cx="98.049" cy="903.395" r="14.588"/>
		<path fill="none" stroke="#A1519F" stroke-width="1.5" stroke-miterlimit="10" d="M757.844,433.525
			c23.287,0,42.167,18.879,42.167,42.167s-18.88,42.168-42.167,42.168c-21.438,0-39.145-16.002-41.816-36.714"/>
		<path fill="none" stroke="#A1519F" stroke-width="1.5" stroke-miterlimit="10" d="M724.467,442.734
			c-4.483,1.59-9.311,2.457-14.339,2.457c-23.683,0-42.88-19.198-42.88-42.879c0-23.685,19.197-42.88,42.88-42.88
			c5.463,0,10.689,1.021,15.494,2.886"/>
		<circle fill="none" stroke="#A1519F" stroke-width="1.5" stroke-miterlimit="10" cx="708.92" cy="320.582" r="13.124"/>
		<circle fill="none" stroke="#A1519F" stroke-width="1.5" stroke-miterlimit="10" cx="716.834" cy="566.984" r="14.79"/>
		<circle fill="none" stroke="#A1519F" stroke-width="1.5" stroke-miterlimit="10" cx="416.479" cy="325.709" r="35.458"/>
		<circle fill="none" stroke="#A1519F" stroke-width="1.6388" stroke-miterlimit="10" cx="708.92" cy="393.302" r="34.03"/>
		<path fill="none" stroke="#A1519F" stroke-width="1.5" stroke-miterlimit="10" d="M706.988,356.505"/>
		<path fill="none" stroke="#A1519F" stroke-width="1.5" stroke-miterlimit="10" d="M750.648,408.834
			c0,11.246-5.498,21.566-13.648,28.083"/>
		<path fill="none" stroke="#A1519F" stroke-width="1.5" stroke-miterlimit="10" d="M396.892,494.188
			c0,20.564-16.671,37.233-37.231,37.233c-20.562,0-37.232-16.669-37.232-37.232c0-20.562,16.67-37.231,37.232-37.231"/>
		<circle fill="none" stroke="#A1519F" stroke-width="1.5" stroke-miterlimit="10" cx="1003.64" cy="364.507" r="26.949"/>
		<path fill="none" stroke="#A1519F" stroke-width="1.5" stroke-miterlimit="10" d="M754.7,433.602
			c1.042-0.05,2.09-0.072,3.144-0.072c35.869,0,64.95,29.077,64.95,64.947c0,35.873-29.081,64.953-64.95,64.953
			c-35.872,0-64.951-29.08-64.951-64.953C692.893,463.659,720.289,435.24,754.7,433.602"/>
		<path fill="none" stroke="#A1519F" stroke-width="1.5" stroke-miterlimit="10" d="M724.094,604.744
			c1.353-0.429,2.717-0.824,4.102-1.191c47.054-12.46,95.302,15.583,107.761,62.642c6.76,25.525,1.6,51.402-12.05,71.729"/>
		<path fill="none" stroke="#A1519F" stroke-width="1.5" stroke-miterlimit="10" d="M357.101,641.247
			c1.082-0.052,2.171-0.077,3.266-0.077c37.223,0,67.396,30.174,67.396,67.398c0,37.224-30.176,67.397-67.396,67.397
			c-37.228,0-67.398-30.176-67.398-67.397C292.966,672.438,321.395,642.948,357.101,641.247"/>
		<path fill="none" stroke="#A1519F" stroke-width="1.5" stroke-miterlimit="10" d="M693.624,493.27
			c0,75.631-61.31,136.937-136.932,136.937c-75.627,0-128.021-47.51-134.688-116.788"/>
		<path fill="none" stroke="#A1519F" stroke-width="1.5" stroke-miterlimit="10" d="M384.913,446.686
			c25.266,21.387,39.807,53.82,38.57,89.474c-2.146,61.776-53.962,110.122-115.738,107.979c-0.541-0.019-1.082-0.041-1.621-0.064"/>
		<path fill="none" stroke="#A1519F" stroke-width="1.5" stroke-miterlimit="10" d="M478.626,521.036"/>
		<path fill="none" stroke="#A1519F" stroke-width="1.5" stroke-miterlimit="10" d="M518.333,464.916
			c-6.468-10.691-3.227-24.909,7.464-31.375"/>
		<path fill="none" stroke="#A1519F" stroke-width="1.5" stroke-miterlimit="10" d="M518.073,465.639
			c8.371-7.583,21.305-6.941,28.889,1.429"/>
		<path fill="none" stroke="#A1519F" stroke-width="1.5" stroke-miterlimit="10" d="M581.039,471.078
			c6.327-7.609,17.623-8.648,25.229-2.322"/>
		<path fill="none" stroke="#A1519F" stroke-width="1.5" stroke-miterlimit="10" d="M547.374,305.307
			c18.122,38.892,14.61,67.692-7.868,113.352"/>
		<path fill="none" stroke="#A1519F" stroke-width="1.5" stroke-miterlimit="10" d="M500.609,542.762"/>
		<path fill="none" stroke="#A1519F" stroke-width="1.5" stroke-miterlimit="10" d="M612.021,542.762"/>
		<path fill="none" stroke="#A1519F" stroke-width="1.5" stroke-miterlimit="10" d="M501.333,543.417
			c-0.744,14.208,14.396,25.106,32.583,25.711"/>
		<path fill="none" stroke="#A1519F" stroke-width="1.5" stroke-miterlimit="10" d="M533.438,568.938
			c12.243,10.909,32.79,10.817,45.875,0"/>
		<path fill="none" stroke="#A1519F" stroke-width="1.5" stroke-miterlimit="10" d="M500.609,542.762
			c13.583,0.646,32.057-3.845,36.974-9.262"/>
		<path fill="none" stroke="#A1519F" stroke-width="1.5" stroke-miterlimit="10" d="M536.917,534.166
			c1.918-2.169,4.814-3.447,8.398-3.448c5.854,0,10.599,3.78,10.599,8.443l0.002,38.256"/>
		<path fill="none" stroke="#A1519F" stroke-width="1.5" stroke-miterlimit="10" d="M611.312,543.125
			c0.74,14.208-14.29,25.354-32.479,25.958"/>
		<path fill="none" stroke="#A1519F" stroke-width="1.5" stroke-miterlimit="10" d="M612.021,542.762
			c-13.584,0.646-27.187-2.598-38.104-10.596"/>
		<path fill="none" stroke="#A1519F" stroke-width="1.5" stroke-miterlimit="10" d="M574.333,532.458
			c-1.875-1.5-4.072-1.74-7.018-1.74c-5.257,0-10.562,3.371-11.398,7.366"/>
		<circle fill="none" stroke="#A1519F" stroke-width="1.5" stroke-miterlimit="10" cx="416.479" cy="430.341" r="26.116"/>
		<path fill="none" stroke="#A1519F" stroke-width="1.5" stroke-miterlimit="10" d="M750.625,409.25
			c0-16.037,13.445-30.179,29.485-30.179c16.036,0,29.038,13.004,29.038,29.042s-13.002,29.039-29.038,29.039"/>
		<path fill="none" stroke="#A1519F" stroke-width="1.4902" stroke-miterlimit="10" d="M447.909,309.373
			c5.617,7.851,8.922,17.468,8.922,27.855c0,26.473-21.461,47.932-47.932,47.932"/>
		<path fill="none" stroke="#A1519F" stroke-width="1.5" stroke-miterlimit="10" d="M412.413,456.186
			c-24.668-0.332-38.846-15.957-38.846-35.547s15.879-35.47,35.469-35.47"/>
		<path fill="none" stroke="#A1519F" stroke-width="1.5" stroke-miterlimit="10" d="M903.34,316.753
			c9.705,9.653,15.034,23.51,13.297,38.157c-3,25.296-25.938,43.372-51.231,40.372s-43.372-25.938-40.373-51.234
			c3.001-25.297,25.938-43.372,51.233-40.372c8.771,1.04,16.668,4.477,23.125,9.574"/>
		<path fill="none" stroke="#A1519F" stroke-width="1.5" stroke-miterlimit="10" d="M870.834,511.191"/>
		<circle fill="none" stroke="#A1519F" stroke-width="1.5" stroke-miterlimit="10" cx="374.972" cy="371.152" r="24.451"/>
		<path fill="none" stroke="#A1519F" stroke-width="1.5" stroke-miterlimit="10" d="M723.819,604.801
			c-10.133,5.737-23.151,5.125-32.833-2.557c-12.743-10.111-14.876-28.638-4.77-41.38c10.111-12.742,28.641-14.876,41.38-4.769"/>
		<path fill="none" stroke="#A1519F" stroke-width="1.5" stroke-miterlimit="10" d="M424.278,423.896c0,4.307-3.49,7.799-7.804,7.799
			c-4.307,0-7.798-3.492-7.798-7.799c0-4.312,3.491-7.803,7.798-7.803C420.788,416.097,424.278,419.588,424.278,423.896z"/>
		<path fill="none" stroke="#A1519F" stroke-width="1.5" stroke-miterlimit="10" d="M293.477,521.227
			c-11.949-1.884-21.087-12.228-21.087-24.704c0-13.813,11.198-25.013,25.011-25.013c13.814,0,25.012,11.196,25.012,25.013"/>
		<path fill="none" stroke="#A1519F" stroke-width="1.5" stroke-miterlimit="10" d="M1080.454,899.418
			c0,18.725-15.181,33.906-33.907,33.906c-18.723,0-33.902-15.185-33.902-33.906c0-18.721,15.183-33.902,33.902-33.902
			C1065.274,865.516,1080.454,880.697,1080.454,899.418z"/>
		<path fill="none" stroke="#A1519F" stroke-width="1.5" stroke-miterlimit="10" d="M983.896,1053.947
			c1.73-0.229,3.513-0.294,5.319-0.188c15.388,0.92,27.111,14.142,26.191,29.521c-0.92,15.383-14.14,27.106-29.523,26.188
			c-8.599-0.515-16.055-4.871-20.798-11.302"/>
		<path fill="none" stroke="#A1519F" stroke-width="1.5" stroke-miterlimit="10" d="M1079.971,898.105
			c0,29.575-23.979,53.553-53.553,53.553c-29.573,0-53.55-23.978-53.55-53.553c0-20.744,11.795-38.732,29.046-47.63"/>
		<path fill="none" stroke="#A1519F" stroke-width="1.5" stroke-miterlimit="10" d="M1035.015,782.729
			c0.668,3.693,1.021,7.5,1.021,11.39c0,25.746-15.327,47.915-37.354,57.875"/>
		<path fill="none" stroke="#A1519F" stroke-width="1.5" stroke-miterlimit="10" d="M1004.512,315.688
			c0,3.813-3.092,6.907-6.91,6.907c-3.812,0-6.903-3.094-6.903-6.907c0-3.817,3.092-6.908,6.903-6.908
			C1001.42,308.778,1004.512,311.869,1004.512,315.688z"/>
		<path fill="none" stroke="#A1519F" stroke-width="1.5" stroke-miterlimit="10" d="M871.24,517.869
			c8.041,0.293,14.463,6.896,14.463,15.008c0,8.291-6.721,15.018-15.021,15.018c-8.292,0-15.013-6.727-15.013-15.018
			c0-8.195,6.558-14.852,14.711-15.014"/>
		<path fill="none" stroke="#A1519F" stroke-width="1.5" stroke-miterlimit="10" d="M1138.633,752.264
			c0,30.902-25.048,55.949-55.947,55.949c-30.898,0-55.946-25.047-55.946-55.949c0-15.446,6.263-29.438,16.387-39.562"/>
		<path fill="none" stroke="#A1519F" stroke-width="1.5" stroke-miterlimit="10" d="M404.843,657.688
			c-7.752-7.297-12.59-17.648-12.59-29.137c0-22.096,17.911-40.01,40.008-40.01c22.1,0,40.011,17.914,40.011,40.01
			c0,10.238-3.847,19.58-10.173,26.656"/>
		<path fill="none" stroke="#A1519F" stroke-width="1.5" stroke-miterlimit="10" d="M364.805,1183.59
			c6.652-6.018,15.476-9.682,25.15-9.682c20.717,0,37.51,16.793,37.51,37.508"/>
		<circle fill="none" stroke="#A1519F" stroke-width="1.5" stroke-miterlimit="10" cx="153.664" cy="1123.957" r="44.683"/>
		
			<circle fill="none" stroke="#A1519F" stroke-width="1.5" stroke-linecap="round" stroke-miterlimit="10" cx="250.495" cy="552.643" r="20.5"/>
		<path fill="none" stroke="#A1519F" stroke-width="1.5" stroke-miterlimit="10" d="M91.919,379.224
			c-1.303-3.873-2.009-8.02-2.009-12.331c0-21.354,17.312-38.667,38.668-38.667c21.354,0,38.666,17.312,38.666,38.667
			c0,17.809-11.695,32.786-28.078,37.275"/>
		<circle fill="none" stroke="#A1519F" stroke-width="1.5" stroke-miterlimit="10" cx="296.412" cy="509.56" r="12"/>
		<circle fill="none" stroke="#A1519F" stroke-width="1.5" stroke-miterlimit="10" cx="358.745" cy="476.893" r="20"/>
		<path fill="none" stroke="#A1519F" stroke-width="1.5" stroke-miterlimit="10" d="M775.958,436.371
			c-9.238-2.507-14.695-12.029-12.188-21.269c2.51-9.238,12.03-14.695,21.271-12.188s14.696,12.03,12.188,21.269
			c-2.396,8.829-12.067,14.039-20.907,12.312"/>
		<path fill="none" stroke="#A1519F" stroke-width="1.5" stroke-linecap="round" stroke-miterlimit="10" d="M243.371,521.977
			c-14.193,26.082-41.843,43.783-73.626,43.783c-46.263,0-83.767-37.504-83.767-83.767c0-35.336,22.239-65.521,53.188-77.825"/>
		<path fill="none" stroke="#A1519F" stroke-width="1.5" stroke-linecap="round" stroke-miterlimit="10" d="M211.043,536.804
			c-10.6-3.402-18.271-13.346-18.271-25.075c0-14.545,11.79-26.334,26.334-26.334s26.334,11.789,26.334,26.334
			c0,3.638-0.736,7.102-2.068,10.248"/>
		<path fill="none" stroke="#A1519F" stroke-width="1.5" stroke-miterlimit="10" d="M194.696,425.306
			c5.911,8.395,9.382,18.626,9.382,29.671c0,28.488-23.096,51.584-51.583,51.584c-28.489,0-51.584-23.096-51.584-51.584
			c0-14.532,4.041-26.351,13.714-35.727"/>
		
			<circle fill="none" stroke="#A1519F" stroke-width="1.5" stroke-linecap="round" stroke-miterlimit="10" cx="214.483" cy="525.125" r="12.1"/>
		<path fill="none" stroke="#A1519F" stroke-width="1.5" stroke-miterlimit="10" d="M217.714,359.551
			c4.752,4.232,8.265,9.934,9.76,16.58"/>
		<path fill="none" stroke="#A1519F" stroke-width="1.5" stroke-miterlimit="10" d="M217.719,406.566
			c-4.062,3.634-9.125,6.259-14.861,7.394c-17.065,3.376-33.639-7.722-37.015-24.788c-3.376-17.064,7.722-33.639,24.788-37.015
			c10.069-1.992,19.966,1.055,27.083,7.394"/>
		<circle fill="none" stroke="#A1519F" stroke-width="1.5" stroke-miterlimit="10" cx="214.411" cy="383.06" r="14.833"/>
		<circle fill="none" stroke="#A1519F" stroke-width="1.5" stroke-miterlimit="10" cx="167.58" cy="445.726" r="34"/>
		<path fill="none" stroke="#A1519F" stroke-width="1.5" stroke-miterlimit="10" d="M357.507,657.558
			c0.947-0.044,1.9-0.064,2.857-0.064c32.594,0,59.018,26.423,59.018,59.018c0,32.599-26.424,59.021-59.018,59.021
			c-32.6,0-59.02-26.424-59.02-59.021C301.347,684.871,326.24,659.047,357.507,657.558"/>
		<path fill="none" stroke="#A1519F" stroke-width="1.5" stroke-miterlimit="10" d="M827.206,732.348
			c-7.617,13.429-20.419,23.896-36.521,28.158c-31.769,8.412-64.338-10.52-72.747-42.287c-8.411-31.766,10.521-64.336,42.283-72.747
			c4.417-1.17,8.853-1.811,13.23-1.962"/>
		<path fill="none" stroke="#A1519F" stroke-width="1.5" stroke-miterlimit="10" d="M107.16,537.186
			c4.174,9.92,5.532,21.149,3.281,32.5c-4.854,24.459-24.985,41.997-48.506,44.66"/>
		<path fill="none" stroke="#A1519F" stroke-width="1.5" stroke-miterlimit="10" d="M20.768,807.764
			c-11.751-8.472-19.401-22.274-19.4-37.871c0-25.766,20.888-46.65,46.653-46.65c2.211,0,4.386,0.15,6.515,0.451"/>
		<circle fill="none" stroke="#A1519F" stroke-width="1.5" stroke-miterlimit="10" cx="776.806" cy="689.349" r="45.538"/>
		<path fill="none" stroke="#A1519F" stroke-width="1.5" stroke-miterlimit="10" d="M947.474,757.834
			c9.258,8.066,15.104,19.941,15.104,33.184c0,24.303-19.7,44-44,44c-24.301,0-44-19.697-44-44c0-13.6,6.17-25.76,15.864-33.83"/>
		<path fill="none" stroke="#A1519F" stroke-width="1.5" stroke-linecap="round" stroke-miterlimit="10" d="M274.125,579.75
			c-5.156,5.376-11.176,7.601-19.213,7.601c-15.648,0-28.334-12.686-28.334-28.333c0-8.985,4.187-17,10.715-22.188"/>
		<circle fill="none" stroke="#A1519F" stroke-width="1.5" stroke-miterlimit="10" cx="994.102" cy="366.013" r="36.495"/>
		<path fill="none" stroke="#A1519F" stroke-width="1.5" stroke-miterlimit="10" d="M1067.8,789.413
			c-8.92-7.79-14.555-19.247-14.555-32.021c0-23.473,19.028-42.5,42.5-42.5s42.5,19.027,42.5,42.5"/>
		<circle fill="none" stroke="#A1519F" stroke-width="1.5" stroke-miterlimit="10" cx="1089.245" cy="764.018" r="33"/>
		<path fill="none" stroke="#A1519F" stroke-width="1.5" stroke-miterlimit="10" d="M1036.212,720.854
			c-13.364,20.607-37.159,33.604-63.42,31.953c-38.745-2.432-68.182-35.812-65.751-74.556c1.344-21.403,12.956-40.498,28.876-52.417"
			/>
		<circle fill="none" stroke="#A1519F" stroke-width="1.5" stroke-miterlimit="10" cx="1046.549" cy="596.604" r="5.333"/>
		<circle fill="none" stroke="#A1519F" stroke-width="1.5" stroke-miterlimit="10" cx="112.549" cy="370.605" r="21.949"/>
		<circle fill="none" stroke="#A1519F" stroke-width="1.5" stroke-miterlimit="10" cx="103.549" cy="361.604" r="9.333"/>
		<path fill="none" stroke="#A1519F" stroke-width="1.5" stroke-miterlimit="10" d="M936.251,625.5
			c-4.562,2.642-9.688,4.185-15.339,4.185c-17.121,0-31-13.879-31-31c0-17.118,13.879-31,31-31c10.7,0,20.135,5.424,25.705,13.667"/>
		<circle fill="none" stroke="#A1519F" stroke-width="1.5" stroke-miterlimit="10" cx="931.745" cy="590.018" r="17.333"/>
		<path fill="none" stroke="#A1519F" stroke-width="1.5" stroke-miterlimit="10" d="M919.625,506.125
			c24.75,11.25,39.62,36.746,39.62,65.56c0,22.041-8.04,40.595-23.328,54.149"/>
		<path fill="none" stroke="#A1519F" stroke-width="1.5" stroke-miterlimit="10" d="M920.25,506.375
			c-10.875-4.25-20.171-16.451-20.171-30.524c0-18.313,14.851-33.166,33.166-33.166c18.317,0,33.167,14.853,33.167,33.166
			c0,8.073-2.884,15.477-7.68,21.228"/>
		<path fill="none" stroke="#A1519F" stroke-width="1.5" stroke-miterlimit="10" d="M958.702,497.044
			c-4.21,4.666-10.304,7.599-17.082,7.599c-12.702,0-23-10.298-23-23c0-12.7,10.298-23,23-23s23,10.3,23,23
			c0,5.29-1.786,10.162-4.786,14.051"/>
		<path fill="none" stroke="#A1519F" stroke-width="1.5" stroke-miterlimit="10" d="M908.75,498.125
			c6.339,7.906,8.268,17.221,8.268,28.143c0,25.509-20.677,46.186-46.183,46.186c-25.508,0-46.185-20.677-46.185-46.186
			c0-25.506,20.677-46.184,46.185-46.184"/>
		<circle fill="none" stroke="#A1519F" stroke-width="1.5" stroke-miterlimit="10" cx="961.078" cy="642.956" r="11.167"/>
		<path fill="none" stroke="#A1519F" stroke-width="1.5" stroke-miterlimit="10" d="M954.902,633.748
			c7.167-5.757,16.27-9.2,26.177-9.2c20.814,0,38.08,15.206,41.297,35.113"/>
		<circle fill="none" stroke="#A1519F" stroke-width="1.5" stroke-miterlimit="10" cx="986.745" cy="816.518" r="16.5"/>
		<path fill="none" stroke="#A1519F" stroke-width="1.5" stroke-miterlimit="10" d="M971.216,822.373
			c-1.905-4.098-2.971-8.664-2.971-13.48c0-17.674,14.327-32,32-32s32,14.326,32,32c0,6.498-1.938,12.543-5.265,17.594"/>
		<circle fill="none" stroke="#A1519F" stroke-width="1.5" stroke-miterlimit="10" cx="776.245" cy="831.393" r="30"/>
		<path fill="none" stroke="#A1519F" stroke-width="1.5" stroke-miterlimit="10" d="M851.245,806.518c0,32.86-26.64,59.5-59.5,59.5
			c-13.864,0-26.621-4.739-36.737-12.69"/>
		<path fill="none" stroke="#A1519F" stroke-width="1.5" stroke-miterlimit="10" d="M298.537,842.458
			c-39.254-20.083-64.035-62.892-58.992-109.337c1.913-17.621,7.906-33.811,16.938-47.729"/>
		<circle fill="none" stroke="#A1519F" stroke-width="1.5" stroke-miterlimit="10" cx="264.952" cy="670.498" r="16.5"/>
		
			<circle fill="none" stroke="#A1519F" stroke-width="1.5" stroke-linecap="round" stroke-miterlimit="10" cx="180.313" cy="617.364" r="20.333"/>
		<path fill="none" stroke="#A1519F" stroke-width="1.5" stroke-miterlimit="10" d="M60.26,723.902
			C40.668,722.379,25.245,706,25.245,686.018c0-20.984,17.013-38,38-38c15.387,0,28.638,9.146,34.613,22.299"/>
		<circle fill="none" stroke="#A1519F" stroke-width="1.5" stroke-miterlimit="10" cx="60.579" cy="705.352" r="18.667"/>
		<path fill="none" stroke="#A1519F" stroke-width="1.5" stroke-miterlimit="10" d="M732.452,780.268
			c-46.617-23.774-78.541-72.237-78.541-128.158c0-34.002,11.804-65.248,31.538-89.863"/>
		<path fill="none" stroke="#A1519F" stroke-width="1.5" stroke-miterlimit="10" d="M544.461,765.08
			c20.352-23.396,50.341-38.188,83.784-38.188c20.666,0,40.012,5.646,56.58,15.482"/>
		<circle fill="none" stroke="#A1519F" stroke-width="1.5" stroke-miterlimit="10" cx="555.245" cy="771.018" r="12"/>
		<path fill="none" stroke="#A1519F" stroke-width="1.5" stroke-miterlimit="10" d="M560.042,782.361
			c-12.897,7.416-27.852,11.653-43.797,11.653c-48.604,0-88-39.396-88-88"/>
		<path fill="none" stroke="#A1519F" stroke-width="1.5" stroke-miterlimit="10" d="M911.77,1144.133
			c-1-4.883-1.521-9.938-1.521-15.115c0-41.422,33.578-75,75-75c1.095,0,2.185,0.023,3.268,0.069"/>
		<circle fill="none" stroke="#A1519F" stroke-width="1.5" stroke-miterlimit="10" cx="982.468" cy="1088.827" r="18.897"/>
		<path fill="none" stroke="#A1519F" stroke-width="1.5" stroke-miterlimit="10" d="M1009.485,973.732
			c7.924,8.633,12.76,20.145,12.76,32.782c0,26.785-21.714,48.5-48.5,48.5"/>
		<circle fill="none" stroke="#A1519F" stroke-width="1.5" stroke-miterlimit="10" cx="1013.578" cy="979.35" r="7.333"/>
		<circle fill="none" stroke="#A1519F" stroke-width="1.5" stroke-miterlimit="10" cx="250.245" cy="885.018" r="24"/>
		<path fill="none" stroke="#A1519F" stroke-width="1.5" stroke-miterlimit="10" d="M47.221,722.279
			c28.635,2.754,51.024,26.881,51.024,56.235"/>
		<circle fill="none" stroke="#A1519F" stroke-width="1.5" stroke-miterlimit="10" cx="98.049" cy="790.018" r="10"/>
		<path fill="none" stroke="#A1519F" stroke-width="1.5" stroke-miterlimit="10" d="M321.401,783.359
			c-4.854,1.213-9.931,1.854-15.157,1.854c-34.425,0-62.332-27.908-62.332-62.333c0-14.083,4.669-27.073,12.545-37.51"/>
		<circle fill="none" stroke="#A1519F" stroke-width="1.5" stroke-miterlimit="10" cx="320.579" cy="798.684" r="15.333"/>
		<path fill="none" stroke="#A1519F" stroke-width="1.5" stroke-miterlimit="10" d="M171.745,703.018
			c-33.966,0-61.5-27.531-61.5-61.5c0-26.719,17.038-49.457,40.843-57.941"/>
		<path fill="none" stroke="#A1519F" stroke-width="1.5" stroke-miterlimit="10" d="M687.438,650.963
			c4.481-27.211,27.584-48.439,56.217-49.549"/>
		<circle fill="none" stroke="#A1519F" stroke-width="1.5" stroke-miterlimit="10" cx="701.998" cy="657.54" r="16"/>
		<path fill="none" stroke="#A1519F" stroke-width="1.5" stroke-miterlimit="10" d="M62.074,614.148
			c-10.376,0.224-20.676-4.543-27.121-13.654c-10.313-14.578-6.856-34.756,7.721-45.069c14.578-10.312,34.758-6.854,45.07,7.724
			c3.344,4.727,5.241,10.043,5.779,15.419"/>
		<circle fill="none" stroke="#A1519F" stroke-width="1.5" stroke-miterlimit="10" cx="77.208" cy="579.158" r="16.655"/>
		<path fill="none" stroke="#A1519F" stroke-width="1.5" stroke-miterlimit="10" d="M185.776,846.27
			c9.263-11.224,23.28-18.377,38.969-18.377c27.891,0,50.5,22.609,50.5,50.5c0,3.486-0.354,6.893-1.026,10.18"/>
		<circle fill="none" stroke="#A1519F" stroke-width="1.5" stroke-miterlimit="10" cx="195.745" cy="852.518" r="11.5"/>
		<path fill="none" stroke="#A1519F" stroke-width="1.5" stroke-miterlimit="10" d="M141.986,921.783
			c5.598-2.424,11.771-3.769,18.259-3.769c25.405,0,46,20.597,46,46c0,25.404-20.595,46-46,46c-14.699,0-27.788-6.895-36.21-17.626"
			/>
		<circle fill="none" stroke="#A1519F" stroke-width="1.5" stroke-miterlimit="10" cx="154.745" cy="951.518" r="32.5"/>
		<path fill="none" stroke="#A1519F" stroke-width="1.5" stroke-miterlimit="10" d="M125.176,995.002
			c8.041,7.486,13.069,18.164,13.069,30.016c0,22.646-18.356,41-41,41"/>
		<path fill="none" stroke="#A1519F" stroke-width="1.5" stroke-linecap="round" stroke-miterlimit="10" d="M249.732,622.592
			c-2.358,1.024-4.961,1.593-7.696,1.593c-10.677,0-19.333-8.653-19.333-19.333c0-10.679,8.656-19.334,19.333-19.334
			c1.335,0,2.638,0.138,3.896,0.396"/>
		<path fill="none" stroke="#A1519F" stroke-width="1.5" stroke-linecap="round" stroke-miterlimit="10" d="M247.732,623.305
			c-0.691,0.166-1.412,0.254-2.154,0.254c-5.062,0-9.166-4.104-9.166-9.166c0-5.062,4.104-9.167,9.166-9.167s9.167,4.104,9.167,9.167
			c0,3.791-2.301,7.043-5.583,8.438"/>
		<circle fill="none" stroke="#A1519F" stroke-width="1.5" stroke-miterlimit="10" cx="903.245" cy="777.017" r="23.333"/>
		<circle fill="none" stroke="#A1519F" stroke-width="1.5" stroke-miterlimit="10" cx="40.745" cy="774.518" r="38.5"/>
		<circle fill="none" stroke="#A1519F" stroke-width="1.5" stroke-miterlimit="10" cx="98.049" cy="1041.018" r="25"/>
		<path fill="none" stroke="#A1519F" stroke-width="1.5" stroke-miterlimit="10" d="M353.245,1040.518
			c0,21.266-17.237,38.5-38.5,38.5c-21.263,0-38.5-17.234-38.5-38.5c0-13.121,6.562-24.709,16.584-31.656"/>
		<circle fill="none" stroke="#A1519F" stroke-width="1.5" stroke-miterlimit="10" cx="351.245" cy="1050.018" r="10"/>
		<circle fill="none" stroke="#A1519F" stroke-width="1.5" stroke-miterlimit="10" cx="292.912" cy="969.35" r="20"/>
		<path fill="none" stroke="#A1519F" stroke-width="1.5" stroke-miterlimit="10" d="M308.208,1119.133
			c18.434,6.238,31.703,23.678,31.704,44.217c0,25.773-20.896,46.668-46.667,46.668c-25.773,0-46.667-20.895-46.667-46.668
			c0-9.661,2.938-18.643,7.971-26.09"/>
		<path fill="none" stroke="#A1519F" stroke-width="1.5" stroke-miterlimit="10" d="M231.578,1079.35
			c18.594,0,33.667,15.074,33.667,33.668c0,10.47-4.777,19.819-12.271,25.994"/>
		<path fill="none" stroke="#A1519F" stroke-width="1.5" stroke-miterlimit="10" d="M209.862,1138.744
			c-7.31-6.176-11.951-15.408-11.95-25.729c0-18.594,15.072-33.668,33.666-33.668"/>
		<path fill="none" stroke="#A1519F" stroke-width="1.5" stroke-miterlimit="10" d="M234.912,1079.35
			c-11.967,0-21.667-9.696-21.667-21.666c0-11.967,9.7-21.666,21.667-21.666c11.966,0,21.666,9.699,21.666,21.666"/>
		<circle fill="none" stroke="#A1519F" stroke-width="1.5" stroke-miterlimit="10" cx="222.245" cy="1121.352" r="21"/>
		<circle fill="none" stroke="#A1519F" stroke-width="1.5" stroke-miterlimit="10" cx="242.912" cy="1056.018" r="14"/>
		<circle fill="none" stroke="#A1519F" stroke-width="1.5" stroke-miterlimit="10" cx="302.745" cy="1146.518" r="27.5"/>
		<circle fill="none" stroke="#A1519F" stroke-width="1.5" stroke-miterlimit="10" cx="359.245" cy="582.893" r="12"/>
		<path fill="none" stroke="#A1519F" stroke-width="1.5" stroke-linecap="round" stroke-miterlimit="10" d="M870.368,472.006
			c-5.031-0.243-9.034-4.396-9.034-9.489c0-5.247,4.253-9.5,9.5-9.5s9.5,4.253,9.5,9.5c0,5.105-4.027,9.271-9.078,9.491"/>
		
			<circle fill="none" stroke="#A1519F" stroke-width="1.5" stroke-linecap="round" stroke-miterlimit="10" cx="870.834" cy="352.018" r="19"/>
		
			<circle fill="none" stroke="#A1519F" stroke-width="1.5" stroke-linecap="round" stroke-miterlimit="10" cx="1003.619" cy="439.018" r="13"/>
		<path fill="none" stroke="#A1519F" stroke-width="1.5" stroke-miterlimit="10" d="M85.032,742.23
			c-5.429-5.433-8.787-12.933-8.787-21.216c0-16.565,13.432-30,30-30c16.568,0,30,13.435,30,30c0,10.613-5.513,19.94-13.831,25.273"
			/>
		<circle fill="none" stroke="#A1519F" stroke-width="1.5" stroke-miterlimit="10" cx="117.245" cy="734.018" r="13"/>
		<path fill="none" stroke="#A1519F" stroke-width="1.5" stroke-miterlimit="10" d="M133.547,803.715
			c-7.601-7.6-12.302-18.1-12.302-29.697c0-22.188,17.209-40.358,39.009-41.896"/>
		<circle fill="none" stroke="#A1519F" stroke-width="1.5" stroke-miterlimit="10" cx="161.245" cy="754.018" r="22"/>
		<path fill="none" stroke="#A1519F" stroke-width="1.5" stroke-miterlimit="10" d="M150.245,918.018c-11.599,0-21-9.399-21-21
			c0-11.599,9.401-21,21-21c7.586,0,14.231,4.021,17.923,10.052"/>
		<circle fill="none" stroke="#A1519F" stroke-width="1.5" stroke-miterlimit="10" cx="158.245" cy="891.018" r="11"/>
		<circle fill="none" stroke="#A1519F" stroke-width="1.5" stroke-miterlimit="10" cx="154.745" cy="1113.018" r="33"/>
		<circle fill="none" stroke="#A1519F" stroke-width="1.5" stroke-miterlimit="10" cx="155.245" cy="1046.893" r="10"/>
		<circle fill="none" stroke="#A1519F" stroke-width="1.5" stroke-miterlimit="10" cx="154.912" cy="1130.518" r="15.5"/>
		<path fill="none" stroke="#A1519F" stroke-width="1.5" stroke-miterlimit="10" d="M279.244,1250.017
			c-32.4,0-58.666-26.267-58.666-58.667c0-23.127,13.383-43.129,32.828-52.684"/>
		<circle fill="none" stroke="#A1519F" stroke-width="1.5" stroke-miterlimit="10" cx="278.578" cy="1235.351" r="15"/>
		<circle fill="none" stroke="#A1519F" stroke-width="1.5" stroke-miterlimit="10" cx="405.244" cy="1212.017" r="22.333"/>
		<path fill="none" stroke="#A1519F" stroke-width="1.5" stroke-miterlimit="10" d="M95.427,835.562
			c-5.003,1.223-10.202,1.964-15.548,2.166c-37.053,1.405-69.016-23.437-77.958-57.906"/>
		<circle fill="none" stroke="#A1519F" stroke-width="1.5" stroke-miterlimit="10" cx="504.579" cy="1163.018" r="60.667"/>
		<circle fill="none" stroke="#A1519F" stroke-width="1.5" stroke-miterlimit="10" cx="676.245" cy="1259.35" r="13"/>
		<path fill="none" stroke="#A1519F" stroke-width="1.5" stroke-miterlimit="10" d="M625.788,1272.158
			c15.217,2.629,26.791,15.893,26.791,31.856c0,6.104-1.691,11.812-4.632,16.687"/>
		<path fill="none" stroke="#A1519F" stroke-width="1.5" stroke-miterlimit="10" d="M495.923,1223.561
			c-40.665-4.317-72.345-38.73-72.345-80.543c0-44.733,36.266-81,81-81"/>
		<circle fill="none" stroke="#A1519F" stroke-width="1.5" stroke-miterlimit="10" cx="511.412" cy="1061.85" r="6.833"/>
		<circle fill="none" stroke="#A1519F" stroke-width="1.5" stroke-miterlimit="10" cx="676.245" cy="1115.018" r="27"/>
		<path fill="none" stroke="#A1519F" stroke-width="1.5" stroke-miterlimit="10" d="M650.662,1106.064
			c3.161-24.289,23.932-43.05,49.083-43.05c27.338,0,49.5,22.162,49.5,49.5c0,19.771-11.591,36.835-28.349,44.771"/>
		<path fill="none" stroke="#A1519F" stroke-width="1.5" stroke-miterlimit="10" d="M771.044,1048.348
			c10.144,14.836,16.075,32.778,16.075,52.106c0,51.052-41.386,92.437-92.438,92.437"/>
		<circle fill="none" stroke="#A1519F" stroke-width="1.5" stroke-miterlimit="10" cx="676.245" cy="1192.518" r="17.5"/>
		<circle fill="none" stroke="#A1519F" stroke-width="1.5" stroke-miterlimit="10" cx="480.246" cy="1162.016" r="35.667"/>
		<circle fill="none" stroke="#A1519F" stroke-width="1.5" stroke-miterlimit="10" cx="865.245" cy="1167.018" r="24"/>
		<path fill="none" stroke="#A1519F" stroke-width="1.5" stroke-miterlimit="10" d="M775.244,580.047
			c56.561,1.328,102.001,47.593,102.001,104.471c0,57.716-46.786,104.5-104.5,104.5c-15.929,0-31.024-3.562-44.534-9.938"/>
		<circle fill="none" stroke="#A1519F" stroke-width="1.5" stroke-miterlimit="10" cx="776.245" cy="623.018" r="11"/>
		<path fill="none" stroke="#A1519F" stroke-width="1.5" stroke-miterlimit="10" d="M434.322,1253.576
			c8.711-15.643,25.414-26.229,44.59-26.229c28.167,0,51,22.834,51,51c0,7.043-1.428,13.75-4.008,19.854"/>
		<circle fill="none" stroke="#A1519F" stroke-width="1.5" stroke-miterlimit="10" cx="460.245" cy="1265.684" r="28.667"/>
		<circle fill="none" stroke="#A1519F" stroke-width="1.5" stroke-miterlimit="10" cx="558.245" cy="1241.547" r="10"/>
		
			<circle id="ADDTOFADE" fill="none" stroke="#A1519F" stroke-width="1.5" stroke-miterlimit="10" cx="643.245" cy="1329.047" r="10"/>
		<path fill="none" stroke="#A1519F" stroke-width="1.5" stroke-miterlimit="10" d="M1025.595,1171.672
			c-9.044,6.109-19.945,9.678-31.684,9.678c-31.295,0-56.666-25.369-56.666-56.666c0-25.928,17.414-47.79,41.185-54.523"/>
		<circle fill="none" stroke="#A1519F" stroke-width="1.5" stroke-miterlimit="10" cx="1003.995" cy="1147.268" r="32.25"/>
		<path fill="none" stroke="#A1519F" stroke-width="1.5" stroke-miterlimit="10" d="M1012.674,950.403
			c34.52,6.726,60.571,37.128,60.571,73.611c0,14.583-4.162,28.195-11.364,39.714"/>
		<circle fill="none" stroke="#A1519F" stroke-width="1.5" stroke-miterlimit="10" cx="1046.495" cy="1050.268" r="20.25"/>
		<path fill="none" stroke="#A1519F" stroke-width="1.5" stroke-miterlimit="10" d="M880.585,1149.16
			c7.988,10.469,12.733,23.545,12.733,37.729c0,34.379-27.869,62.248-62.247,62.248c-12.241,0-23.657-3.535-33.283-9.637"/>
		<circle fill="none" stroke="#A1519F" stroke-width="1.5" stroke-miterlimit="10" cx="786.284" cy="1257.551" r="21.039"/>
		<path fill="none" stroke="#A1519F" stroke-width="1.5" stroke-miterlimit="10" d="M773.167,1203.938
			c8.807-8.807,20.973-14.254,34.412-14.254c18.465,0,34.526,10.283,42.771,25.438"/>
		<circle fill="none" stroke="#A1519F" stroke-width="1.5" stroke-miterlimit="10" cx="834.579" cy="1221.35" r="16.667"/>
		<path fill="none" stroke="#A1519F" stroke-width="1.5" stroke-miterlimit="10" d="M856.118,1189.366
			c-15.703-5.915-26.873-21.077-26.873-38.852c0-22.92,18.58-41.5,41.5-41.5c21.877,0,39.8,16.929,41.387,38.396"/>
		<circle fill="none" stroke="#A1519F" stroke-width="1.5" stroke-miterlimit="10" cx="911.578" cy="1155.35" r="8"/>
		<path fill="none" stroke="#A1519F" stroke-width="1.5" stroke-miterlimit="10" d="M964.58,881.351c-17.121,0-31-13.88-31-31
			c0-10.439,5.163-19.679,13.075-25.296"/>
		<circle fill="none" stroke="#A1519F" stroke-width="1.5" stroke-miterlimit="10" cx="964.247" cy="868.684" r="12.333"/>
		<path fill="none" stroke="#A1519F" stroke-width="1.5" stroke-miterlimit="10" d="M1030.535,845.172
			c10.562-18.52,28.668-32.178,50.134-36.789"/>
		<circle fill="none" stroke="#A1519F" stroke-width="1.5" stroke-miterlimit="10" cx="1025.245" cy="854.018" r="9.667"/>
		<circle fill="none" stroke="#A1519F" stroke-width="1.5" stroke-miterlimit="10" cx="1042.245" cy="914.352" r="18.333"/>
		<path fill="none" stroke="#A1519F" stroke-width="1.5" stroke-miterlimit="10" d="M728.583,892.021
			c-1.709-3.411-2.671-7.264-2.671-11.34c0-13.987,11.342-25.333,25.333-25.333c13.992,0,25.334,11.346,25.334,25.333
			c0,5.99-2.08,11.496-5.558,15.832"/>
		<circle fill="none" stroke="#A1519F" stroke-width="1.5" stroke-miterlimit="10" cx="735.246" cy="887.018" r="8.333"/>
		<path fill="none" stroke="#A1519F" stroke-width="1.5" stroke-miterlimit="10" d="M920.412,245.285
			c7.479,2.299,11.681,10.225,9.382,17.706c-2.299,7.479-10.225,11.679-17.706,9.379c-7.479-2.298-11.68-10.225-9.381-17.704
			c2.012-6.545,8.332-10.579,14.891-9.945"/>
		<path fill="none" stroke="#A1519F" stroke-width="1.5" stroke-miterlimit="10" d="M697.398,314.29
			c5.936-11.258,18.197-18.465,31.679-17.314c17.972,1.535,31.295,17.346,29.761,35.315c-1.535,17.972-17.346,31.295-35.315,29.761"
			/>
		<path fill="none" stroke="#A1519F" stroke-width="1.5" stroke-miterlimit="10" d="M191.838,239.223
			c16.094,6.807,27.387,22.742,27.387,41.314c0,24.763-20.076,44.838-44.839,44.838c-24.761,0-44.837-20.075-44.837-44.838
			c0-8.509,2.37-16.465,6.486-23.243"/>
		<path fill="none" stroke="#A1519F" stroke-width="1.5" stroke-miterlimit="10" d="M449.205,311.603
			c-0.708-1.883-1.114-3.917-1.161-6.042c-0.223-10.125,7.803-18.513,17.929-18.737c10.122-0.223,18.513,7.804,18.733,17.928
			c0.223,10.123-7.803,18.511-17.925,18.735c-5.57,0.122-10.614-2.251-14.063-6.098"/>
		<path fill="none" stroke="#A1519F" stroke-width="1.5" stroke-miterlimit="10" d="M259.75,400.583
			c-20.956-13.055-33.811-37.627-30.771-63.777c4.2-36.138,36.9-62.028,73.038-57.827c36.138,4.2,62.028,36.9,57.827,73.038"/>
		<path fill="none" stroke="#A1519F" stroke-width="1.5" stroke-linecap="round" stroke-miterlimit="10" d="M1029.062,354.908
			c4.703,22.454-4.601,46.468-25.11,59.491c-26.426,16.774-61.45,8.953-78.229-17.475c-16.776-26.426-8.958-61.452,17.473-78.229
			c18.812-11.945,41.981-11.422,59.827-0.595"/>
		<path fill="none" stroke="#A1519F" stroke-width="1.5" stroke-miterlimit="10" d="M192.399,239.52
			c-6.257-3.039-10.571-9.453-10.571-16.876c0-10.356,8.395-18.75,18.75-18.75s18.75,8.394,18.75,18.75
			c0,10.355-8.395,18.749-18.75,18.749c-2.561,0-5.002-0.514-7.226-1.443"/>
		<path fill="none" stroke="#A1519F" stroke-width="1.5" stroke-miterlimit="10" d="M253.481,219.75
			c1.818,0.376,3.185,1.987,3.185,3.917c0,2.209-1.791,4-4,4s-4-1.791-4-4s1.791-4,4-4"/>
		<path fill="none" stroke="#A1519F" stroke-width="1.5" stroke-miterlimit="10" d="M252.667,219.667
			c0.279,0,0.552,0.029,0.815,0.083"/>
		<path fill="none" stroke="#A1519F" stroke-width="1.5" stroke-miterlimit="10" d="M136.089,257.265
			c3.974-6.367,11.043-10.603,19.101-10.603c12.426,0,22.499,10.073,22.499,22.499c0,12.426-10.073,22.499-22.499,22.499
			c-12.425,0-22.499-10.073-22.499-22.499c0-3.587,0.84-6.979,2.333-9.988"/>
		<path fill="none" stroke="#A1519F" stroke-width="1.5" stroke-miterlimit="10" d="M949.623,315.065
			c20.702-8.757,35.226-29.253,35.226-53.145c0-31.853-25.819-57.676-57.675-57.676c-31.854,0-57.679,25.823-57.679,57.676
			c0,18.35,8.567,34.697,21.923,45.261l-2.467-2.271c6.389,5.896,14.925,9.497,24.303,9.496c19.791,0,35.839-16.045,35.839-35.84
			c0-19.793-15.048-33.84-34.839-33.84"/>
		<path fill="none" stroke="#A1519F" stroke-width="1.5" stroke-miterlimit="10" d="M255.628,220.019
			c1.708-2.527,2.705-5.573,2.705-8.852c0-8.744-7.089-15.833-15.833-15.833s-15.833,7.089-15.833,15.833l-0.224,0.487
			c0,19.229,15.591,34.821,34.821,34.821c3.255,0,6.405-0.446,9.394-1.282"/>
		<path fill="none" stroke="#A1519F" stroke-width="1.5" stroke-miterlimit="10" d="M202.076,241.226
			c-13.715,0-24.833-11.118-24.833-24.833s11.118-24.833,24.833-24.833c12.479,0,22.807,9.202,24.568,21.19"/>
	</g>
	<g id="vertical-lines">
		<line fill="none" stroke="#A1519F" stroke-width="1.5301" stroke-miterlimit="10" x1="708.919" y1="307.459" x2="708.919" y2="427.236"/>

		<line fill="none" stroke="#A1519F" stroke-width="1.5" stroke-linecap="round" stroke-miterlimit="10" x1="870.834" y1="303.355" x2="870.834" y2="547.894"/>

		<line fill="none" stroke="#A1519F" stroke-width="1.5" stroke-linecap="round" stroke-miterlimit="10" x1="1003.619" y1="337.893" x2="1003.619" y2="646.704"/>
		<path fill="none" stroke="#A1519F" stroke-width="1.5" stroke-miterlimit="10" d="M214.411,513.025V368.851"/>
		<path fill="none" stroke="#A1519F" stroke-width="1.5046" stroke-miterlimit="10" d="M359.245,657.49V457.668"/>
		
			<line fill="none" stroke="#A1519F" stroke-width="1.5" stroke-miterlimit="10" x1="776.245" y1="861.49" x2="776.245" y2="580.018"/>
		
			<line fill="none" stroke="#A1519F" stroke-width="1.5" stroke-linecap="round" stroke-miterlimit="10" x1="416.479" y1="139.976" x2="416.479" y2="430.34"/>
	</g>
	<g id="moar-lines">
		
			<line fill="none" stroke="#A1519F" stroke-width="1.5" stroke-miterlimit="10" x1="558.245" y1="1230.684" x2="558.245" y2="1353.352"/>
		
			<line fill="none" stroke="#A1519F" stroke-width="1.5" stroke-miterlimit="10" x1="97.912" y1="942.156" x2="97.912" y2="780.018"/>
		
			<line fill="none" stroke="#A1519F" stroke-width="1.5" stroke-miterlimit="10" x1="154.912" y1="1114.156" x2="154.912" y2="919.518"/>
		
			<line fill="none" stroke="#A1519F" stroke-width="1.5" stroke-miterlimit="10" x1="676.245" y1="1272.351" x2="676.245" y2="1087.518"/>
	</g>
	<g id="draw-08">
		<path id="combo" fill="none" stroke="#A1519F" stroke-width="1.5" stroke-miterlimit="10" d="M132.041,1001.176
			c-9.24-11.845-23.272-19.879-39.438-21.033c-30.275-2.157-56.57,20.636-58.729,50.91c-2.161,30.275,20.632,56.57,50.907,58.73
			l-0.005,0.104c70.254,5.015,131.269-47.877,136.281-118.131c5.013-70.254-47.877-131.268-118.131-136.283l0.687,0.17
			c-29.22-1.218-53.895,21.483-55.112,50.703c-1.218,29.222,21.482,53.896,50.702,55.11"/>
		<path id="curveunderpic" fill="none" stroke="#A1519F" stroke-width="1.5" stroke-miterlimit="10" d="M911.879,1147.361
			c0-29.922-24.257-54.181-54.18-54.181c-29.922,0-54.18,24.259-54.18,54.181"/>
		<path fill="none" stroke="#A1519F" stroke-width="1.5" stroke-miterlimit="10" d="M403.16,1116.666
			c7.863-42.906,45.442-75.42,90.62-75.42c50.884,0,92.132,41.249,92.132,92.135c0,39.691-25.1,73.521-60.292,86.482"/>
		<path fill="none" stroke="#A1519F" stroke-width="1.5" stroke-miterlimit="10" d="M364.082,1011.216
			c24.999,20.576,40.939,51.759,40.939,86.665c0,61.957-50.229,112.188-112.188,112.188"/>
		<path fill="none" stroke="#A1519F" stroke-width="1.5" stroke-miterlimit="10" d="M803.697,1141.943
			c-7.196,53.336-52.899,94.455-108.206,94.455c-60.306,0-109.192-48.89-109.192-109.193s48.889-109.191,109.192-109.191"/>
		<path id="currrrrve" fill="none" stroke="#A1519F" stroke-width="1.5" stroke-miterlimit="10" d="M661.14,1024.072
			c0.688-0.3,1.384-0.589,2.083-0.868c37.452-14.925,79.912,3.338,94.837,40.79c14.926,37.453-3.338,79.913-40.788,94.838
			c-37.453,14.924-79.914-3.338-94.839-40.79c-14.48-36.335,2.277-77.385,37.49-93.43"/>
		<path fill="none" stroke="#A1519F" stroke-width="1.5" stroke-miterlimit="10" d="M292.928,1009.017
			c9.703-6.398,21.325-10.124,33.817-10.124c33.966,0,61.5,27.535,61.5,61.5c0,33.967-27.534,61.5-61.5,61.5
			c-33.966,0-61.5-27.533-61.5-61.5c0-20.755,10.281-39.108,26.029-50.245"/>
		<path id="wompwomp" fill="none" stroke="#A1519F" stroke-width="1.5" stroke-miterlimit="10" d="M313.245,971.018
			c0-25.402-20.595-46-46-46c-25.405,0-46,20.598-46,46c0,25.404,20.595,46,46,46c8.309,0,16.102-2.201,22.83-6.057"/>
		<path id="reversedisss" fill="none" stroke="#A1519F" stroke-width="1.5" stroke-miterlimit="10" d="M580.311,1166.203
			c-4.324,9.72-6.729,20.486-6.729,31.813c0,43.265,35.071,78.332,78.333,78.332c8.658,0,16.988-1.401,24.772-3.999"/>
		<path fill="none" stroke="#A1519F" stroke-width="1.5" stroke-miterlimit="10" d="M586.284,1241.314
			c9.93,11.182,15.961,25.901,15.961,42.032c0,22.574-11.812,42.394-29.59,53.605"/>
		<path fill="none" stroke="#A1519F" stroke-width="1.5" stroke-miterlimit="10" d="M574.027,1335.717
			c-4.698,2.53-10.073,3.966-15.782,3.966c-18.409,0-33.333-14.923-33.333-33.333c0-18.408,14.924-33.333,33.333-33.333
			s33.333,14.925,33.333,33.333c0,11.788-6.117,22.146-15.353,28.071"/>
	</g>
	<g id="draw-07">
		<path id="changednow" fill="none" stroke="#FF6D00" stroke-width="1.5" stroke-miterlimit="10" d="M962.14,784.045
			c-6.367-24.187-28.392-42.028-54.58-42.028c-31.169,0-56.438,25.272-56.438,56.438c0,27.27,19.344,50.027,45.062,55.29"/>
		<path id="shucks" fill="none" stroke="#FF6D00" stroke-width="1.5" stroke-miterlimit="10" d="M984.239,556.655
			c5.409-11.225,8.439-23.81,8.439-37.103c0-47.24-38.298-85.536-85.532-85.536c-47.241,0-85.539,38.296-85.539,85.536
			c0,23.452,10.164,46.003,27.143,62.071 M848.75,581.625c29.646,22.108,51.536,55.832,51.536,96.283
			c0,63.838-51.749,115.588-115.588,115.588c-28.968,0-55.445-10.654-75.729-28.26"/>
		<path id="circlenatpic" fill="none" stroke="#FF6D00" stroke-width="1.5" stroke-miterlimit="10" d="M895.553,853.955
			c65.215,16.244,104.916,82.284,88.666,147.499c-16.245,65.215-82.283,104.913-147.496,88.666
			c-65.217-16.244-104.914-82.281-88.668-147.496C764.299,877.406,830.339,837.709,895.553,853.955z"/>
		<path id="tswift" fill="none" stroke="#FF6D00" stroke-width="1.5" stroke-linecap="round" stroke-miterlimit="10" d="
			M169.313,600.144c-11.721,6.717-19.618,19.347-19.618,33.822c0,21.516,17.438,38.952,38.95,38.952
			c21.513,0,38.951-17.437,38.951-38.952c0-0.542-0.011-1.081-0.033-1.617"/>
		<path id="ughagain" fill="none" stroke="#FF6D00" stroke-width="1.5" stroke-linecap="round" stroke-miterlimit="10" d="
			M227.686,632.34c-1.201-37.458-31.945-67.457-69.697-67.457c-38.513,0-69.734,31.219-69.734,69.734
			c0,38.511,31.22,69.73,69.734,69.73c4.161,0,8.236-0.361,12.197-1.062"/>
		<path fill="none" stroke="#FF6D00" stroke-width="1.5" stroke-miterlimit="10" d="M296.279,841.586
			c13.505,8.682,21.996,24.262,20.82,41.412c-1.717,25.07-23.433,44.002-48.501,42.285c-17.303-1.188-31.681-11.896-38.366-26.662"/>
		<path fill="none" stroke="#FF6D00" stroke-width="1.5" stroke-miterlimit="10" d="M168.293,703.792
			c3.395-0.591,6.888-0.899,10.452-0.899c33.413,0,60.5,27.086,60.5,60.5c0,33.412-27.087,60.5-60.5,60.5
			c-25.5,0-47.315-15.774-56.219-38.102"/>
		<path fill="none" stroke="#FF6D00" stroke-width="1.5" stroke-miterlimit="10" d="M167.285,718.602
			c0.979-0.057,1.967-0.084,2.96-0.084c28.167,0,51,22.833,51,51c0,28.166-22.833,51-51,51s-51-22.834-51-51
			C119.245,742.344,140.496,720.135,167.285,718.602"/>
	</g>
	<g id="draw-06">
		<path fill="none" stroke="#1EE00E" stroke-width="1.5" stroke-miterlimit="10" d="M306.672,644.026
			c-20.936,2.697-40.1-12.082-42.8-33.021c-2.7-20.937,12.083-40.098,33.02-42.798s40.1,12.082,42.8,33.018
			c2.647,20.535-11.521,39.36-31.815,42.626"/>
		<path fill="none" stroke="#1EE00E" stroke-width="1.4959" stroke-miterlimit="10" d="M396.999,495.17
			c0,35.925-29.122,65.046-65.045,65.046c-35.921,0-65.044-29.121-65.044-65.046c0-25.196,14.329-47.046,35.279-57.849"/>
		<path fill="none" stroke="#1EE00E" stroke-width="1.5" stroke-miterlimit="10" d="M1064.449,609.484
			c3.805-6.859,5.972-14.753,5.972-23.152c0-26.391-21.395-47.787-47.788-47.787c-26.391,0-47.787,21.396-47.787,47.787
			c0,14.659,7.001,29.315,18.886,38.055c11.611,8.547,26.547,6.976,38.67,14.121c14.627,8.623,22.463,25.687,22.463,42.294
			c0,12.434-4.746,23.751-12.524,32.251"/>
		<path fill="none" stroke="#1EE00E" stroke-width="1.5" stroke-miterlimit="10" d="M357.302,442.146
			c17.468,12.587,31.496,30.34,39.498,52.062c21.369,58.006-8.334,122.349-66.337,143.717c-6.217,2.29-17.486,4.955-23.791,6.102"/>
		<path id="changewoo" fill="none" stroke="#1EE00E" stroke-width="1.5" stroke-miterlimit="10" d="M332.025,334.659
			c-6.205-13.241-19.653-22.412-35.243-22.412c-21.482,0-38.899,17.416-38.899,38.9c0,21.481,17.417,38.898,38.899,38.898"/>
		<path id="testchange" fill="none" stroke="#1EE00E" stroke-width="1.5" stroke-miterlimit="10" d="M299.569,438.714
			c24.713-12.426,41.67-38.014,41.67-67.561c0-13.207-3.389-25.623-9.341-36.427"/>
		<path id="watagain" fill="none" stroke="#1EE00E" stroke-width="1.5" stroke-miterlimit="10" d="M296.109,390.062
			c12.395,0,22.424-10.039,22.424-22.419c0-12.386-10.029-22.418-22.424-22.418c-12.378,0-22.412,10.032-22.412,22.418
			c0,11.549,8.731,21.06,19.953,22.285"/>
		<path fill="none" stroke="#1EE00E" stroke-width="1.5" stroke-miterlimit="10" d="M1039.814,716.125
			c-7.918,10.963-20.81,18.098-35.362,18.098c-24.075,0-43.593-19.518-43.593-43.592c0-24.076,19.518-43.593,43.593-43.593"/>
		<path fill="none" stroke="#1EE00E" stroke-width="1.5" stroke-miterlimit="10" d="M1003.619,647.018c11.046,0,20,8.954,20,20
			c0,11.049-8.954,20-20,20s-20-8.951-20-20c0-10.274,7.752-18.741,17.727-19.873"/>
		<path fill="none" stroke="#1EE00E" stroke-width="1.5" stroke-miterlimit="10" d="M961.245,696.684
			c0-12.887-10.446-23.333-23.333-23.333s-23.333,10.446-23.333,23.333c0,9.664,5.877,17.957,14.251,21.499"/>
		<path id="okthisonetoo" fill="none" stroke="#1EE00E" stroke-width="1.5" stroke-miterlimit="10" d="M928.464,718.084
			c1.675,0.708,3.517,1.1,5.448,1.1c7.73,0,14-6.268,14-14c0-7.73-6.27-14-14-14c-7.732,0-14,6.27-14,14
			c0,4.824,2.438,9.078,6.152,11.597"/>
		<path fill="none" stroke="#1EE00E" stroke-width="1.5" stroke-miterlimit="10" d="M911.986,328.938
			c-16.611-30.137-54.511-41.101-84.646-24.486c-30.138,16.611-41.101,54.51-24.486,84.646c16.61,30.138,53.887,41.518,84.021,24.903
			c4.917-2.5,17.402-3.812,26.568-3.812c49.867,0,90.299,40.729,90.299,90.974c0,22.672-8.231,43.401-21.852,59.334"/>
		<g id="wat">
			<path fill="none" stroke="#1EE00E" stroke-width="1.5" stroke-miterlimit="10" d="M345.469,423.878
				c-0.091-0.56-0.139-1.133-0.139-1.718c0-5.855,4.746-10.604,10.602-10.604s10.603,4.747,10.603,10.604
				c0,5.855-4.747,10.602-10.603,10.602c-4.392,0-8.159-2.67-9.768-6.475"/>
			<path fill="none" stroke="#1EE00E" stroke-width="1.5" stroke-miterlimit="10" d="M357.464,442.271
				c-7.258-4.223-12.462-12.739-12.075-21.709"/>
		</g>
	</g>
	<g id="draw-03">
		<path fill="none" stroke="#A1519F" stroke-width="1.5" stroke-miterlimit="10" d="M868.424,241.151
			c-6.013,40.148-40.646,70.938-82.47,70.938c-30.472,0-50.584-13.946-64.959-30.759l-0.75-1.062l1.102,1.415
			c-13.893-17.783-31.355-29.453-56.683-29.453c-23.648,0-44.536,11.816-57.082,29.867"/>
		<path fill="none" stroke="#A1519F" stroke-width="1.5093" stroke-miterlimit="10" d="M217.719,406.566
			c6.867-5.355,16.302-9.016,25.682-9.179c22.516-0.391,40.502,18.136,40.502,40.502c0,22.368-18.134,40.503-40.502,40.503
			c-2.796,0-5.526-0.282-8.163-0.821"/>
		<path fill="none" stroke="#A1519F" stroke-width="1.5" stroke-miterlimit="10" d="M236.507,477.765
			c-12.77-2.315-21.244-14.546-18.927-27.316c2.317-12.771,14.547-21.244,27.318-18.929c12.77,2.317,21.244,14.549,18.927,27.317
			c-2.177,12-13.105,20.205-25.01,19.231"/>
		<path fill="none" stroke="#A1519F" stroke-width="1.5" stroke-miterlimit="10" d="M296.4,192.068
			c-3.131-0.348-5.386-3.17-5.038-6.302c0.348-3.133,3.167-5.39,6.298-5.042c3.137,0.349,5.392,3.169,5.043,6.303
			c-0.309,2.782-2.568,4.874-5.267,5.063"/>
		<path fill="none" stroke="#A1519F" stroke-width="1.5" stroke-miterlimit="10" d="M469.726,234.4
			c-4.169,6.357-11.356,10.555-19.525,10.555c-12.893,0-23.338-10.447-23.338-23.336c0-12.89,10.445-23.337,23.338-23.337
			c12.887,0,23.336,10.447,23.336,23.337c0,4.315-1.171,8.357-3.213,11.824"/>
		<path fill="none" stroke="#A1519F" stroke-width="1.5" stroke-miterlimit="10" d="M280.5,163.167
			c4.333-3.167,10.502-5.409,16.549-5.409c13.811,0,25.004,10.638,25.004,23.759c0,13.12-11.193,23.757-25.004,23.757v-24.026"/>
		<path fill="none" stroke="#A1519F" stroke-width="1.5" stroke-miterlimit="10" d="M380.999,247.651
			c-12.5-8.445-21.379-21.843-23.822-37.377l-0.051,0.07c-0.495-3.146-0.752-6.372-0.752-9.659c0-34.065,27.616-61.68,61.681-61.68
			c34.065,0,61.684,27.616,61.684,61.68c0,12.765-3.877,24.623-10.521,34.462"/>
		<path fill="none" stroke="#A1519F" stroke-width="1.5" stroke-miterlimit="10" d="M798.686,234.515
			c-3.53,10.608-12.83,18.846-24.652,20.459c-16.57,2.261-31.838-9.341-34.102-25.913c-2.263-16.573,9.34-31.839,25.911-34.1
			c16.57-2.261,31.839,9.341,34.103,25.913c0.353,2.585,0.365,5.139,0.08,7.616"/>
		<path fill="none" stroke="#A1519F" stroke-width="1.5" stroke-miterlimit="10" d="M766.081,103.246
			c0.56-14.222-10.51-26.204-24.739-26.764c-14.22-0.56-26.204,10.515-26.764,24.737c-0.562,14.224,10.517,26.206,24.736,26.766
			c14,0.55,25.817-10.163,26.729-24.056"/>
		<path fill="none" stroke="#A1519F" stroke-width="1.5" stroke-miterlimit="10" d="M800.258,222.776
			c0,25.474-20.649,46.124-46.124,46.124c-16.366,0-29.78-6.884-37.967-19.733l-4.667-12.833c-1.334-4-3.833-17.867-3.833-23
			c0-46.06,36.674-85.82,82.731-85.82c46.057,0,83.396,37.337,83.396,83.396c0,46.059-37.34,83.396-83.396,83.396
			c-25.653,0-48.604-11.583-63.899-29.805l1.517,1.805c-13.475-17.246-32.08-31.305-56.642-31.305
			c-30.889,0-56.924,20.788-64.874,49.139"/>
		<path fill="none" stroke="#A1519F" stroke-width="1.5" stroke-miterlimit="10" d="M714,244.401
			c-3.081-7.786-4.775-16.273-4.775-25.155c0-37.772,30.621-68.392,68.395-68.392c37.771,0,68.392,30.62,68.392,68.392
			c0,37.771-30.62,68.392-68.392,68.392c-27.033,0-50.403-15.685-61.507-38.45"/>
	</g>
	<g id="draw-02">
		<path fill="none" stroke="#A1519F" stroke-width="1.5" stroke-miterlimit="10" d="M337.611,109.69
			c-2.779-1.168-5.833-1.814-9.036-1.814c-12.892,0-23.338,10.448-23.338,23.337c0,9.679,5.333,17.962,13.919,21.255l-0.188-0.062
			c20.257,4.145,34.437,21.812,34.437,43.293c0,24.552-19.904,44.454-44.453,44.454c-24.551,0-44.454-19.902-44.454-44.454
			c0-15.294,4.368-24.617,16.129-32.616"/>
		<path fill="none" stroke="#A1519F" stroke-width="1.4945" stroke-miterlimit="10" d="M766.02,99.248
			c-1.64-23.736-21.413-42.483-45.565-42.483c-25.228,0-45.675,20.449-45.675,45.675c0,25.228,20.447,45.677,45.675,45.677
			c25.227,0,45.677-20.449,45.677-45.677"/>
		<path fill="none" stroke="#A1519F" stroke-width="1.5" stroke-miterlimit="10" d="M370.662,88.101
			c22.611-13.164,50.308-18.346,77.934-12.571c28.335,5.924,51.812,22.287,67.251,44.229l-0.45-0.697
			c11.827,17.506,18.733,38.609,18.733,61.327c0,60.581-49.111,109.69-109.69,109.69c-28.943,0-55.271-11.214-74.877-29.533
			l0.311,0.284c-14.631-12.567-33.552-19.58-54.352-19.58c-46.188,0-84.473,37.45-83.63,83.628
			c0.611,33.497,20.567,62.455,47.861,75.706"/>
		<path fill="none" stroke="#A1519F" stroke-width="1.5" stroke-miterlimit="10" d="M515.458,120.274
			c20.363-20.362,48.496-32.957,79.568-32.957c62.142,0,113.141,50.683,112.808,116.016"/>
		<path fill="none" stroke="#A1519F" stroke-width="1.5" stroke-miterlimit="10" d="M523.579,133.018
			c19.627-19.627,44.547-30.882,74.495-30.882c59.895,0,109.76,48.969,109.76,108.864"/>
		<path fill="none" stroke="#A1519F" stroke-width="1.5" stroke-miterlimit="10" d="M353.084,182.667
			c1.477-39.978,33.796-72.016,74.135-72.016c41.277,0,74.741,33.462,74.741,74.739"/>
	</g>
	<g id="draw-01">
		<path fill="none" stroke="#260526" stroke-width="1.5" stroke-miterlimit="10" d="M346.705,77.889
			c5.714,0,10.345,4.631,10.345,10.345c0,5.713-4.631,10.346-10.345,10.346s-10.345-4.633-10.345-10.346
			c0-5.305,3.99-9.676,9.137-10.275"/>
		<path fill="none" stroke="#260526" stroke-width="1.5" stroke-miterlimit="10" d="M689.913,37.76
			c-3.233-3.737-8.264-5.77-13.504-4.943c-8.068,1.272-13.576,8.845-12.304,16.914c1.271,8.069,8.846,13.579,16.912,12.306
			c8.069-1.273,13.578-8.847,12.308-16.916c-0.312-1.972-0.999-3.792-1.979-5.397"/>
		<path fill="none" stroke="#260526" stroke-width="1.5" stroke-miterlimit="10" d="M652.174,65.194
			c4.809,7.721,13.916,12.234,23.464,10.728c12.729-2.008,21.425-13.958,19.414-26.689c-0.812-5.166-3.265-9.669-6.744-13.061"/>
		<path fill="none" stroke="#260526" stroke-width="1.5" stroke-miterlimit="10" d="M364.5,101
			c-2.336,6.922-9.218,11.854-16.926,11.854c-9.667,0-17.503-7.835-17.503-17.501c0-9.667,7.836-17.503,17.503-17.503"/>
		<path fill="none" stroke="#260526" stroke-width="1.5" stroke-miterlimit="10" d="M356.334,201.833
			c-3.92-13.447-3.617-26.517-3.617-42.038c0-84.605,68.587-153.19,153.192-153.19c64.608,0,120.028,38.101,142.521,93.976"/>
		<path fill="none" stroke="#260526" stroke-width="1.5" stroke-miterlimit="10" d="M443.245,19.986
			c22.841-11.884,48.75-18.337,76.178-18.338c70.535,0,130.8,41.216,155.358,103.157"/>
	</g>
	<g id="PortfolioImg">
		<text transform="matrix(1 0 0 1 315.2256 726.4014)" fill="#A1519F" font-family="'JosefinSans'" font-size="26">ABOUT</text>
		<rect x="353.516" y="810.985" fill="none" width="376.998" height="182.503"/>
		<text transform="matrix(1 0 0 1 353.5161 821.5557)" fill="#A1519F" font-family="'Lora-Regular'" font-size="14">Hello! Im Nat Cooper. I build visually compelling  </text>
		<text transform="matrix(1 0 0 1 353.5161 841.5557)" fill="#A1519F" font-family="'Lora-Regular'" font-size="14">applications and clean digital experiences.</text>
		<text transform="matrix(1 0 0 1 353.5161 881.5557)" fill="#A1519F" font-family="'Lora-Regular'" font-size="14">I have a passion for public speaking, teaching, and </text>
		<text transform="matrix(1 0 0 1 353.5161 901.5557)" fill="#A1519F" font-family="'Lora-Regular'" font-size="14">helping others realize they can become powerful  </text>
		<text transform="matrix(1 0 0 1 353.5161 921.5557)" fill="#A1519F" font-family="'Lora-Regular'" font-size="14">creators of technology.</text>
		<text transform="matrix(1 0 0 1 353.5161 961.5557)" fill="#A1519F" font-family="'Lora-Regular'" font-size="14">Curious &amp; committed to life-long learning, I always  </text>
		<text transform="matrix(1 0 0 1 353.5161 981.5557)" fill="#A1519F" font-family="'Lora-Regular'" font-size="14">have a list of things I want to learn or improve on.</text>
		<g>
			<g>
				<g>
					<defs>
						<circle id="SVGID_1_" cx="866.138" cy="972.038" r="111.192"/>
					</defs>
					<clipPath id="SVGID_2_">
						<use xlink:href="#SVGID_1_"  overflow="visible"/>
					</clipPath>
					<g transform="matrix(1 0 0 1 0 -6.103516e-05)" clip-path="url(#SVGID_2_)">
						
							<image overflow="visible" enable-background="new    " width="960" height="960" xlink:href="nat-curls.jpg"  transform="matrix(1 0 0 1 -8276 -8366)">
						</image>
					</g>
				</g>
			</g>
		</g>
	</g>
</svg>
