<?xml version="1.0" encoding="utf-8"?>
<!-- Generator: Adobe Illustrator 16.0.0, SVG Export Plug-In . SVG Version: 6.00 Build 0)  -->
<!DOCTYPE svg PUBLIC "-//W3C//DTD SVG 1.1//EN" "http://www.w3.org/Graphics/SVG/1.1/DTD/svg11.dtd">
<svg version="1.1" xmlns="http://www.w3.org/2000/svg" xmlns:xlink="http://www.w3.org/1999/xlink" x="0px" y="0px" width="1205px"
	 height="37px" viewBox="0 0 1205 37" enable-background="new 0 0 1205 37" xml:space="preserve">
<g id="Layer_1">
</g>
<g id="PortfolioImg">
	<line fill="none" stroke="#E0E1E0" stroke-width="1.5" stroke-miterlimit="10" x1="602.5" y1="18.5" x2="6.002" y2="18.5"/>
	<path fill="none" stroke="#E0E1E0" stroke-width="1.5" stroke-miterlimit="10" d="M28.999,18.782
		c-0.156,6.35-5.43,11.37-11.779,11.214C10.871,29.84,5.85,24.567,6.005,18.218c0.156-6.348,5.43-11.37,11.779-11.214
		c6.12,0.15,11.006,5.057,11.21,11.095"/>
	<line fill="none" stroke="#E0E1E0" stroke-width="1.5" stroke-miterlimit="10" x1="602.002" y1="18.5" x2="1198.5" y2="18.5"/>
	<path fill="none" stroke="#E0E1E0" stroke-width="1.5" stroke-miterlimit="10" d="M1175.504,18.218
		c0.156-6.35,5.43-11.37,11.778-11.214c6.349,0.156,11.37,5.429,11.214,11.779c-0.155,6.348-5.43,11.37-11.778,11.214
		c-6.12-0.15-11.006-5.057-11.21-11.095"/>
</g>
</svg>
