<?xml version="1.0" encoding="utf-8"?>
<!-- Generator: Adobe Illustrator 16.0.0, SVG Export Plug-In . SVG Version: 6.00 Build 0)  -->
<!DOCTYPE svg PUBLIC "-//W3C//DTD SVG 1.1//EN" "http://www.w3.org/Graphics/SVG/1.1/DTD/svg11.dtd">
<svg version="1.1" xmlns="http://www.w3.org/2000/svg" xmlns:xlink="http://www.w3.org/1999/xlink" x="0px" y="0px" width="320px"
	 height="537.167px" viewBox="0 0 320 537.167" enable-background="new 0 0 320 537.167" xml:space="preserve">
<g id="Layer_1">
</g>
<g id="PortfolioImg">
	<g>
		<path fill="none" stroke="#E0E1E0" stroke-width="1.5" stroke-miterlimit="10" d="M193.938,111.729
			c-25.719-5.262-45.064-28.018-45.064-55.289C148.873,25.271,174.141,0,205.311,0c26.188,0,48.211,17.842,54.58,42.029"/>
		<path fill="none" stroke="#E0E1E0" stroke-width="1.5" stroke-miterlimit="10" d="M322.451,183.328
			c-7.371-6.219-12.055-15.525-12.055-25.926c0-10.396,4.682-19.703,12.051-25.922"/>
		<path fill="none" stroke="#E0E1E0" stroke-width="1.5" stroke-miterlimit="10" d="M281.648,311.93
			c1.732-0.227,3.512-0.293,5.322-0.186c15.385,0.92,27.111,14.139,26.191,29.52c-0.92,15.385-14.139,27.109-29.523,26.189
			c-8.6-0.514-16.055-4.871-20.799-11.301"/>
		<path fill="none" stroke="#E0E1E0" stroke-width="1.5" stroke-miterlimit="10" d="M324.17,209.643
			c-29.572,0-53.549-23.977-53.549-53.553c0-20.744,11.795-38.732,29.045-47.629"/>
		<path fill="none" stroke="#E0E1E0" stroke-width="1.5" stroke-miterlimit="10" d="M320.898,90.447
			c-6.365,8.385-14.766,15.141-24.467,19.527"/>
		<path fill="none" stroke="#E0E1E0" stroke-width="1.5" stroke-miterlimit="10" d="M285.568,231.924
			c-1.051,67.201-56.381,120.828-123.582,119.775C94.785,350.648,41.16,295.32,42.213,228.119
			c1.049-67.201,56.377-120.826,123.578-119.775S286.617,164.723,285.568,231.924z"/>
		<path fill="none" stroke="#E0E1E0" stroke-width="1.5" stroke-miterlimit="10" d="M101.271,405.346
			c0-29.922,24.256-54.18,54.178-54.18c29.924,0,54.18,24.258,54.18,54.18"/>
		<path fill="none" stroke="#E0E1E0" stroke-width="1.5" stroke-miterlimit="10" d="M101.449,399.928
			C94.549,451.074,52.234,490.988,0,494.176"/>
		<path fill="none" stroke="#E0E1E0" stroke-width="1.5" stroke-miterlimit="10" d="M245.227,15.818
			C254.482,23.885,260.33,35.76,260.33,49c0,24.301-19.699,44-44,44s-44-19.699-44-44c0-13.6,6.17-25.758,15.865-33.83"/>
		<circle fill="none" stroke="#E0E1E0" stroke-width="1.5" stroke-miterlimit="10" cx="284.498" cy="74.5" r="16.5"/>
		<path fill="none" stroke="#E0E1E0" stroke-width="1.5" stroke-miterlimit="10" d="M268.969,80.355
			c-1.906-4.096-2.971-8.664-2.971-13.48c0-17.672,14.326-32,32-32c8.836,0,16.836,3.582,22.627,9.373"/>
		<circle fill="none" stroke="#E0E1E0" stroke-width="1.5" stroke-miterlimit="10" cx="73.998" cy="89.375" r="30"/>
		<path fill="none" stroke="#E0E1E0" stroke-width="1.5" stroke-miterlimit="10" d="M148.998,64.5c0,32.861-26.639,59.5-59.5,59.5
			c-13.865,0-26.621-4.742-36.738-12.691"/>
		<path fill="none" stroke="#E0E1E0" stroke-width="1.5" stroke-miterlimit="10" d="M209.521,402.115
			c-1-4.883-1.523-9.938-1.523-15.115c0-41.422,33.578-75,75-75c1.094,0,2.184,0.023,3.268,0.07"/>
		<circle fill="none" stroke="#E0E1E0" stroke-width="1.5" stroke-miterlimit="10" cx="280.221" cy="346.81" r="18.897"/>
		<path fill="none" stroke="#E0E1E0" stroke-width="1.5" stroke-miterlimit="10" d="M307.238,231.715
			c7.924,8.633,12.76,20.145,12.76,32.785c0,26.785-21.715,48.5-48.5,48.5"/>
		<circle fill="none" stroke="#E0E1E0" stroke-width="1.5" stroke-miterlimit="10" cx="311.331" cy="237.334" r="7.333"/>
		<path fill="none" stroke="#E0E1E0" stroke-width="1.5" stroke-miterlimit="10" d="M2.453,277.432
			c33.393,6.707,58.545,36.201,58.545,71.568c0,35.369-25.154,64.865-58.551,71.57"/>
		<circle fill="none" stroke="#E0E1E0" stroke-width="1.5" stroke-miterlimit="10" cx="200.997" cy="35" r="23.333"/>
		<path fill="none" stroke="#E0E1E0" stroke-width="1.5" stroke-miterlimit="10" d="M2.441,321.244
			c25.018,2.48,44.557,23.588,44.557,49.256c0,19.771-11.592,36.836-28.35,44.768"/>
		<path fill="none" stroke="#E0E1E0" stroke-width="1.5" stroke-miterlimit="10" d="M68.797,306.33
			c10.143,14.836,16.074,32.779,16.074,52.107c0,47.668-36.082,86.908-82.424,91.9"/>
		<circle fill="none" stroke="#E0E1E0" stroke-width="1.5" stroke-miterlimit="10" cx="162.998" cy="425" r="24"/>
		<path fill="none" stroke="#E0E1E0" stroke-width="1.5" stroke-miterlimit="10" d="M323.348,429.654
			c-9.045,6.111-19.947,9.68-31.684,9.68c-31.295,0-56.666-25.371-56.666-56.668c0-25.928,17.414-47.789,41.184-54.525"/>
		<path fill="none" stroke="#E0E1E0" stroke-width="1.5" stroke-miterlimit="10" d="M320.889,431.207
			c-5.354,3.955-11.975,6.293-19.141,6.293c-17.812,0-32.25-14.439-32.25-32.25S283.936,373,301.748,373
			c6.844,0,13.191,2.133,18.41,5.77"/>
		<path fill="none" stroke="#E0E1E0" stroke-width="1.5" stroke-miterlimit="10" d="M178.338,407.145
			c7.988,10.467,12.732,23.543,12.732,37.729c0,34.377-27.869,62.246-62.246,62.246c-12.242,0-23.658-3.533-33.283-9.637"/>
		<circle fill="none" stroke="#E0E1E0" stroke-width="1.5" stroke-miterlimit="10" cx="84.037" cy="515.533" r="21.039"/>
		<path fill="none" stroke="#E0E1E0" stroke-width="1.5" stroke-miterlimit="10" d="M70.92,461.92
			c8.807-8.807,20.973-14.254,34.412-14.254c18.465,0,34.527,10.285,42.773,25.438"/>
		<circle fill="none" stroke="#E0E1E0" stroke-width="1.5" stroke-miterlimit="10" cx="132.331" cy="479.334" r="16.667"/>
		<path fill="none" stroke="#E0E1E0" stroke-width="1.5" stroke-miterlimit="10" d="M153.871,447.35
			c-15.703-5.914-26.873-21.078-26.873-38.85c0-22.92,18.58-41.5,41.5-41.5c21.877,0,39.799,16.928,41.387,38.398"/>
		<circle fill="none" stroke="#E0E1E0" stroke-width="1.5" stroke-miterlimit="10" cx="209.33" cy="413.334" r="8"/>
		<g>
			<defs>
				<path id="SVGID_1_" d="M275.07,231.76c-0.959,61.402-51.518,110.404-112.92,109.441c-61.402-0.961-110.4-51.516-109.439-112.918
					c0.959-61.402,51.516-110.4,112.916-109.441C227.031,119.805,276.029,170.357,275.07,231.76z"/>
			</defs>
			<clipPath id="SVGID_2_">
				<use xlink:href="#SVGID_1_"  overflow="visible"/>
			</clipPath>
			<g transform="matrix(1 0 0 1 -3.814697e-06 -7.629395e-06)" clip-path="url(#SVGID_2_)">
				
					<image overflow="visible" width="960" height="960" xlink:href="AC63519DF17A1300.jpg"  transform="matrix(0.2527 0 0 0.2527 45.7637 117.6875)">
				</image>
			</g>
		</g>
		<path fill="none" stroke="#E0E1E0" stroke-width="1.5" stroke-miterlimit="10" d="M262.332,139.334c-17.121,0-31-13.879-31-31
			c0-10.441,5.164-19.68,13.076-25.297"/>
		<circle fill="none" stroke="#E0E1E0" stroke-width="1.5" stroke-miterlimit="10" cx="261.999" cy="126.668" r="12.333"/>
		<path fill="none" stroke="#E0E1E0" stroke-width="1.5" stroke-miterlimit="10" d="M322.998,121.668
			c-5.34,0-9.668-4.328-9.668-9.668c0-5.338,4.328-9.666,9.668-9.666"/>
		<path fill="none" stroke="#E0E1E0" stroke-width="1.5" stroke-miterlimit="10" d="M26.336,150.004
			c-1.709-3.41-2.672-7.262-2.672-11.336c0-13.992,11.342-25.334,25.334-25.334s25.334,11.342,25.334,25.334
			c0,5.99-2.08,11.494-5.557,15.832"/>
		<circle fill="none" stroke="#E0E1E0" stroke-width="1.5" stroke-miterlimit="10" cx="32.998" cy="145" r="8.334"/>
	</g>
</g>
</svg>
