<svg x="0px" y="0px" width="320px" height="1455px" viewBox="0 0 320 1455" enable-background="new 0 0 320 1455" xml:space="preserve">
<g id="PortfolioImg">
	<g>
		<g>
			<path fill="none" stroke="#E0E1E0" stroke-miterlimit="10" d="M3.859,79.399c13.279-13.279,31.627-21.493,51.89-21.493
				c40.525,0,73.382,32.854,73.382,73.381"/>
			<path fill="none" stroke="#E0E1E0" stroke-miterlimit="10" d="M9.155,87.709C21.956,74.91,38.206,67.57,57.737,67.57
				c39.06,0,71.036,31.876,71.036,70.936"/>
			<path fill="none" stroke="#E0E1E0" stroke-miterlimit="10" d="M116.582,24.553c2.269,2.211,3.866,5.148,4.397,8.517
				c1.312,8.303-4.358,16.095-12.66,17.405c-6.227,0.982-12.168-1.961-15.302-6.996"/>
			<circle fill="none" stroke="#E0E1E0" stroke-miterlimit="10" cx="150.526" cy="315.741" r="15.869"/>
			<circle fill="none" stroke="#E0E1E0" stroke-miterlimit="10" cx="264.581" cy="169.919" r="9.24"/>
			<path fill="none" stroke="#E0E1E0" stroke-miterlimit="10" d="M263.931,160.56c12.906,0,22.72,9.16,22.72,22.068
				c0,12.909-10.466,23.373-23.372,23.373c-6.116,0.001-11.683-2.348-15.849-6.193"/>
			<path fill="none" stroke="#E0E1E0" stroke-miterlimit="10" d="M156.795,284.16c1.663-0.313,3.38-0.478,5.134-0.478
				c15.187,0,27.499,12.312,27.499,27.499c0,15.188-12.312,27.499-27.499,27.499c-13.981,0-25.527-10.435-27.271-23.942"/>
			<path fill="none" stroke="#E0E1E0" stroke-miterlimit="10" d="M249.038,201.289c-8.709-6.889-14.297-17.549-14.297-29.517
				c0-20.772,16.84-37.612,37.614-37.612c20.772,0,37.612,16.84,37.612,37.612c0,15.58-9.471,28.948-22.972,34.658"/>
			<path fill="none" stroke="#E0E1E0" stroke-miterlimit="10" d="M147.2,285.986c-4.606,3.336-10.268,5.303-16.389,5.303
				c-15.444,0-27.964-12.52-27.964-27.963c0-15.443,12.52-27.963,27.964-27.963c3.562,0,6.972,0.666,10.104,1.881"/>
			<circle fill="none" stroke="#E0E1E0" stroke-miterlimit="10" cx="130.024" cy="210.027" r="8.559"/>
			<circle fill="none" stroke="#E0E1E0" stroke-miterlimit="10" cx="135.186" cy="370.716" r="9.646"/>
			<circle fill="none" stroke="#E0E1E0" stroke-miterlimit="10" cx="110.325" cy="31.892" r="9.645"/>
			<circle fill="none" stroke="#E0E1E0" stroke-miterlimit="10" cx="130.023" cy="256.224" r="20.313"/>
			<path fill="none" stroke="#E0E1E0" stroke-miterlimit="10" d="M128.765,233.454"/>
			<path fill="none" stroke="#E0E1E0" stroke-miterlimit="10" d="M122.511,205.924c3.87-7.341,11.868-12.042,20.658-11.291
				c11.721,1,20.409,11.312,19.409,23.03c-1.002,11.72-11.312,20.409-23.033,19.408"/>
			<path fill="none" stroke="#E0E1E0" stroke-miterlimit="10" d="M157.237,267.58c0,12.809-10.384,23.192-23.192,23.192"/>
			<circle fill="none" stroke="#E0E1E0" stroke-miterlimit="10" cx="169.924" cy="147.239" r="19.75"/>
			<path fill="none" stroke="#E0E1E0" stroke-miterlimit="10" d="M319.797,256.083c-5.93-0.832-11.286-4.677-13.776-10.599
				c-3.761-8.947,0.444-19.25,9.392-23.013c1.438-0.604,2.91-1.003,4.384-1.209"/>
			<circle fill="none" stroke="#E0E1E0" stroke-miterlimit="10" cx="137.654" cy="67.877" r="29.896"/>
			<path fill="none" stroke="#E0E1E0" stroke-miterlimit="10" d="M319.796,410.483c-1.395-0.626-2.746-1.384-4.035-2.333
				c-7.749-5.7-12.315-15.258-12.315-24.817c0-11.849,6.613-22.154,16.35-27.424"/>
			<circle fill="none" stroke="#E0E1E0" stroke-miterlimit="10" cx="183.159" cy="138.506" r="54.386"/>
			<path fill="none" stroke="#E0E1E0" stroke-miterlimit="10" d="M220.982,380.33c-10.757-10.169-17.47-24.572-17.47-40.545
				c0-30.807,24.975-55.781,55.782-55.781c30.806,0,55.781,24.974,55.781,55.781c0,8.669-1.978,16.876-5.506,24.195"/>
			<path fill="none" stroke="#E0E1E0" stroke-miterlimit="10" d="M-0.204,5.292c41.208,0.835,76.363,25.451,90.781,61.263"/>
			<path fill="none" stroke="#E0E1E0" stroke-miterlimit="10" d="M-0.205,2.233c2.2-0.13,4.418-0.195,6.65-0.195
				c45.999,0,85.3,26.879,101.315,67.273"/>
			<path fill="none" stroke="#E0E1E0" stroke-miterlimit="10" d="M237.867,274.314c7.725-3.75,16.386-5.853,25.534-5.853
				c32.522,0,58.888,26.562,58.888,59.327c0,14.785-5.368,28.305-14.248,38.694"/>
			<path fill="none" stroke="#E0E1E0" stroke-miterlimit="10" d="M159.879,283.732c0.68-0.033,1.363-0.048,2.05-0.048
				c23.393,0,42.357,18.962,42.357,42.356c0,23.394-18.965,42.358-42.357,42.358c-23.394,0-42.356-18.964-42.356-42.358
				C119.572,303.334,137.438,284.801,159.879,283.732"/>
			<path fill="none" stroke="#E0E1E0" stroke-miterlimit="10" d="M139.919,395.341c0.881-0.279,1.771-0.538,2.673-0.776
				c30.687-8.126,62.15,10.162,70.275,40.849c4.408,16.648,1.044,33.524-7.858,46.778"/>
			<path fill="none" stroke="#E0E1E0" stroke-miterlimit="10" d="M120.049,322.644c0,49.32-39.982,89.3-89.299,89.3
				c-11.146,0-21.52-1.583-30.949-4.554"/>
			<path fill="none" stroke="#E0E1E0" stroke-miterlimit="10" d="M5.565,304.625c5.459-4.945,13.894-4.529,18.839,0.93"/>
			<path fill="none" stroke="#E0E1E0" stroke-miterlimit="10" d="M46.627,308.172c4.127-4.962,11.493-5.641,16.455-1.515"/>
			<path fill="none" stroke="#E0E1E0" stroke-miterlimit="10" d="M24.674,200.066c11.817,25.363,9.527,44.145-5.132,73.921"/>
			<path fill="none" stroke="#E0E1E0" stroke-miterlimit="10" d="M66.832,354.92"/>
			<path fill="none" stroke="#E0E1E0" stroke-miterlimit="10" d="M-0.204,365.613c3.75,3.773,9.521,6.282,16.102,6.501"/>
			<path fill="none" stroke="#E0E1E0" stroke-miterlimit="10" d="M16.282,372.198c8.146,6.623,21.625,6.625,30.104,0.006"/>
			<path fill="none" stroke="#E0E1E0" stroke-miterlimit="10" d="M-0.204,354.813c6.997-0.599,13.859-2.943,19.479-7.058"/>
			<path fill="none" stroke="#E0E1E0" stroke-miterlimit="10" d="M17.677,349.405c1.251-1.415,3.316-2.339,5.654-2.339
				c3.817,0,6.911,2.465,6.911,5.506v25.258"/>
			<path fill="none" stroke="#E0E1E0" stroke-miterlimit="10" d="M65.71,354.624c0.484,9.266-8.738,17.096-20.599,17.491"/>
			<path fill="none" stroke="#E0E1E0" stroke-miterlimit="10" d="M66.832,354.92c-8.859,0.421-17.977-1.949-25.099-7.165"/>
			<path fill="none" stroke="#E0E1E0" stroke-miterlimit="10" d="M42.588,348.698c-1.253-1.008-2.989-1.632-4.91-1.632
				c-3.427,0-6.269,1.986-6.816,4.591"/>
			<path fill="none" stroke="#E0E1E0" stroke-miterlimit="10" d="M157.511,267.11c0-10.459,8.479-18.939,18.939-18.939
				c10.458,0,18.938,8.48,18.938,18.939c0,10.458-8.479,18.937-18.938,18.937"/>
			<path fill="none" stroke="#E0E1E0" stroke-miterlimit="10" d="M3.819,78.608c7.714,11.417,12.217,25.179,12.217,39.994
				c0,17.23-6.092,33.038-16.239,45.386"/>
			<path fill="none" stroke="#E0E1E0" stroke-miterlimit="10" d="M63.231,186.263c5.185-18.488,22.163-32.045,42.308-32.045
				c16.016,0,28.15,9.167,36.938,20.415"/>
			<path fill="none" stroke="#E0E1E0" stroke-miterlimit="10" d="M63.938,184.93c8.182-11.771,21.804-19.478,37.226-19.478
				c16.515,0,27.904,7.61,36.965,19.208"/>
			<path fill="none" stroke="#E0E1E0" stroke-miterlimit="10" d="M137.409,183.736l0.489,0.693
				c9.375,10.964,22.492,20.06,42.362,20.06c27.274,0,49.861-20.079,53.782-46.262"/>
			<circle fill="none" stroke="#E0E1E0" stroke-miterlimit="10" cx="235.614" cy="228.873" r="30.079"/>
			<path fill="none" stroke="#E0E1E0" stroke-miterlimit="10" d="M189.589,146.245c0,16.612-13.467,30.079-30.079,30.079
				s-30.08-13.467-30.08-30.079"/>
			<path fill="none" stroke="#E0E1E0" stroke-miterlimit="10" d="M235.615,334.332"/>
			<path fill="none" stroke="#E0E1E0" stroke-miterlimit="10" d="M246.552,270.544c-19.652,10.834-44.367,3.684-55.2-15.969
				c-10.835-19.653-3.685-44.367,15.969-55.201c19.651-10.834,44.367-3.684,55.199,15.969"/>
			<path fill="none" stroke="#E0E1E0" stroke-miterlimit="10" d="M220.75,379.99c20.521,13.468,34.071,36.683,34.071,63.063
				c0,41.632-33.748,75.379-75.38,75.379c-18.891,0-36.157-6.948-49.386-18.429"/>
			<path fill="none" stroke="#E0E1E0" stroke-miterlimit="10" d="M139.74,395.378c-6.607,3.741-15.098,3.342-21.412-1.668
				c-8.31-6.594-9.701-18.675-3.108-26.986c6.595-8.309,18.676-9.701,26.985-3.107"/>
			<line fill="none" stroke="#E0E1E0" stroke-miterlimit="10" x1="130.023" y1="201.47" x2="130.023" y2="276.538"/>
			
				<line fill="none" stroke="#E0E1E0" stroke-linecap="round" stroke-miterlimit="10" x1="235.615" y1="198.793" x2="235.615" y2="358.266"/>
			<path fill="none" stroke="#E0E1E0" stroke-miterlimit="10" d="M167.828,70.079c0,9.283-7.521,16.807-16.807,16.807
				c-9.28,0-16.806-7.524-16.806-16.807c0-9.282,7.525-16.806,16.806-16.806C160.308,53.272,167.828,60.796,167.828,70.079z"/>
			<circle fill="none" stroke="#E0E1E0" stroke-miterlimit="10" cx="174.824" cy="143.942" r="44.601"/>
			<path fill="none" stroke="#E0E1E0" stroke-miterlimit="10" d="M319.8,479.627c-14.312-1.476-25.477-13.573-25.477-28.276
				c0-14.703,11.16-26.797,25.473-28.276"/>
			<path fill="none" stroke="#E0E1E0" stroke-linecap="round" stroke-miterlimit="10" d="M319.795,272.733
				c-16.86,8.877-37.991,3.454-48.385-12.917c-10.943-17.233-5.843-40.075,11.392-51.018c11.569-7.344,25.663-7.461,36.989-1.531"/>
			<path fill="none" stroke="#E0E1E0" stroke-miterlimit="10" d="M319.796,211.08c-0.472,0.168-0.98,0.26-1.511,0.26
				c-2.487,0-4.504-2.017-4.504-4.505c0-2.489,2.017-4.505,4.504-4.505c0.53,0,1.039,0.091,1.512,0.259"/>
			<path fill="none" stroke="#E0E1E0" stroke-miterlimit="10" d="M245.312,348.474c0,5.407-4.383,9.792-9.796,9.792
				c-5.408,0-9.79-4.386-9.79-9.792c0-5.41,4.382-9.793,9.79-9.793C240.929,338.68,245.312,343.063,245.312,348.474z"/>
			
				<line fill="none" stroke="#E0E1E0" stroke-width="0.9179" stroke-miterlimit="10" x1="173.93" y1="518.391" x2="173.93" y2="379.215"/>
			<circle fill="none" stroke="#E0E1E0" stroke-miterlimit="10" cx="174.582" cy="274.14" r="11.304"/>
			<path fill="none" stroke="#E0E1E0" stroke-miterlimit="10" d="M207.163,478.557c-4.968,8.755-13.315,15.583-23.816,18.363
				c-20.717,5.486-41.956-6.86-47.442-27.577c-5.485-20.716,6.861-41.957,27.576-47.442c2.881-0.763,5.771-1.181,8.628-1.279"/>
			<circle fill="none" stroke="#E0E1E0" stroke-miterlimit="10" cx="174.295" cy="450.515" r="29.697"/>
			<path fill="none" stroke="#E0E1E0" stroke-miterlimit="10" d="M319.796,263.154c-1.235,0.198-2.503,0.301-3.795,0.301
				c-13.143,0-23.799-10.656-23.799-23.801c0-13.144,10.656-23.8,23.799-23.8c1.292,0,2.56,0.103,3.796,0.301"/>
			<path fill="none" stroke="#E0E1E0" stroke-miterlimit="10" d="M319.796,489.539c-5.523,1.889-11.502,2.747-17.69,2.359
				c-25.268-1.585-44.464-23.354-42.879-48.62c0.876-13.958,7.911-26.063,18.294-33.836"/>
			<path fill="none" stroke="#E0E1E0" stroke-miterlimit="10" d="M319.791,449.423c-6.048-1.134-10.625-6.442-10.625-12.819
				c0-6.379,4.579-11.688,10.63-12.821"/>
			<path fill="none" stroke="#E0E1E0" stroke-miterlimit="10" d="M273.436,469.319c-5.461-2.311-9.293-7.718-9.293-14.021
				c0-8.404,6.812-15.216,15.216-15.216s15.217,6.812,15.217,15.216"/>
			<circle fill="none" stroke="#E0E1E0" stroke-miterlimit="10" cx="276.533" cy="460.516" r="9.13"/>
			<path fill="none" stroke="#E0E1E0" stroke-miterlimit="10" d="M278.387,408.897c-2.975,1.723-6.43,2.708-10.114,2.708
				c-11.166,0-20.216-9.051-20.216-20.216s9.05-20.216,20.216-20.216c6.978,0,13.13,3.535,16.763,8.913"/>
			<circle fill="none" stroke="#E0E1E0" stroke-miterlimit="10" cx="275.337" cy="385.737" r="11.304"/>
			<path fill="none" stroke="#E0E1E0" stroke-miterlimit="10" d="M266.856,330.738c15.676,7.971,26.415,24.252,26.415,43.043
				c0,14.374-6.285,27.28-16.254,36.121"/>
			<path fill="none" stroke="#E0E1E0" stroke-miterlimit="10" d="M268.469,331.446c-8.066-3.141-13.782-10.984-13.782-20.161
				c0-11.945,9.685-21.629,21.629-21.629c11.946,0,21.629,9.684,21.629,21.629c0,5.265-1.881,10.09-5.008,13.841"/>
			<circle fill="none" stroke="#E0E1E0" stroke-miterlimit="10" cx="281.533" cy="314.654" r="15"/>
			<path fill="none" stroke="#E0E1E0" stroke-miterlimit="10" d="M259.126,325.339c4.134,5.156,6.606,11.702,6.606,18.824
				c0,16.634-13.484,30.118-30.117,30.118c-16.635,0-30.119-13.484-30.119-30.118c0-16.633,13.484-30.118,30.119-30.118"/>
			<circle fill="none" stroke="#E0E1E0" stroke-miterlimit="10" cx="294.466" cy="420.261" r="7.282"/>
			<path fill="none" stroke="#E0E1E0" stroke-miterlimit="10" d="M290.439,414.255c4.674-3.754,10.609-6,17.07-6
				c4.42,0,8.594,1.051,12.286,2.917"/>
			<path fill="none" stroke="#E0E1E0" stroke-miterlimit="10" d="M145.371,509.807c-30.402-15.506-51.221-47.111-51.221-83.579
				c0-22.174,7.697-42.551,20.567-58.604"/>
			<path fill="none" stroke="#E0E1E0" stroke-miterlimit="10" d="M116.016,425.482c2.922-17.746,17.988-31.592,36.659-32.312"/>
			<circle fill="none" stroke="#E0E1E0" stroke-miterlimit="10" cx="125.51" cy="429.771" r="10.435"/>
			<circle fill="none" stroke="#E0E1E0" stroke-linecap="round" stroke-miterlimit="10" cx="235.614" cy="302.589" r="6.195"/>
			<circle fill="none" stroke="#E0E1E0" stroke-linecap="round" stroke-miterlimit="10" cx="235.614" cy="230.528" r="12.391"/>
			<path fill="none" stroke="#E0E1E0" stroke-linecap="round" stroke-miterlimit="10" d="M319.794,295.393
				c-3.506-1.04-6.062-4.285-6.062-8.128c0-3.844,2.558-7.09,6.064-8.129"/>
			<path fill="none" stroke="#E0E1E0" stroke-miterlimit="10" d="M173.276,379.235c36.886,0.866,66.519,31.038,66.519,68.129
				c0,37.638-30.511,68.148-68.148,68.148c-10.388,0-20.232-2.324-29.042-6.481"/>
			<circle fill="none" stroke="#E0E1E0" stroke-miterlimit="10" cx="173.929" cy="407.258" r="7.173"/>
		</g>
		<g>
			<path fill="none" stroke="#E0E1E0" stroke-width="1.5" stroke-miterlimit="10" d="M191.648,1028.118
				c-25.719-5.262-45.064-28.018-45.064-55.289c0-31.168,25.268-56.439,56.438-56.439c26.188,0,48.211,17.842,54.58,42.029"/>
			<path fill="none" stroke="#E0E1E0" stroke-width="1.5" stroke-miterlimit="10" d="M320.162,1099.718
				c-7.371-6.219-12.055-15.525-12.055-25.926c0-10.396,4.682-19.703,12.051-25.922"/>
			<path fill="none" stroke="#E0E1E0" stroke-width="1.5" stroke-miterlimit="10" d="M279.359,1228.319
				c1.732-0.227,3.512-0.293,5.322-0.186c15.385,0.92,27.111,14.139,26.191,29.52c-0.92,15.385-14.139,27.109-29.523,26.189
				c-8.6-0.514-16.055-4.871-20.799-11.301"/>
			<path fill="none" stroke="#E0E1E0" stroke-width="1.5" stroke-miterlimit="10" d="M321.881,1126.032
				c-29.572,0-53.549-23.977-53.549-53.553c0-20.744,11.795-38.732,29.045-47.629"/>
			<path fill="none" stroke="#E0E1E0" stroke-width="1.5" stroke-miterlimit="10" d="M318.609,1006.837
				c-6.365,8.385-14.766,15.141-24.467,19.527"/>
			<path fill="none" stroke="#E0E1E0" stroke-width="1.5" stroke-miterlimit="10" d="M283.279,1148.313
				c-1.051,67.201-56.381,120.828-123.582,119.775c-67.201-1.051-120.826-56.379-119.773-123.58
				c1.049-67.201,56.377-120.826,123.578-119.775S284.328,1081.112,283.279,1148.313z"/>
			<path fill="none" stroke="#E0E1E0" stroke-width="1.5" stroke-miterlimit="10" d="M98.982,1321.735
				c0-29.922,24.256-54.18,54.178-54.18c29.924,0,54.18,24.258,54.18,54.18"/>
			<path fill="none" stroke="#E0E1E0" stroke-width="1.5" stroke-miterlimit="10" d="M99.16,1316.317
				c-6.9,51.146-49.215,91.061-101.449,94.248"/>
			<path fill="none" stroke="#E0E1E0" stroke-width="1.5" stroke-miterlimit="10" d="M242.938,932.208
				c9.256,8.066,15.104,19.941,15.104,33.182c0,24.301-19.699,44-44,44s-44-19.699-44-44c0-13.6,6.17-25.758,15.865-33.83"/>
			<circle fill="none" stroke="#E0E1E0" stroke-width="1.5" stroke-miterlimit="10" cx="282.209" cy="990.89" r="16.5"/>
			<path fill="none" stroke="#E0E1E0" stroke-width="1.5" stroke-miterlimit="10" d="M266.68,996.745
				c-1.906-4.096-2.971-8.664-2.971-13.48c0-17.672,14.326-32,32-32c8.836,0,16.836,3.582,22.627,9.373"/>
			<circle fill="none" stroke="#E0E1E0" stroke-width="1.5" stroke-miterlimit="10" cx="71.709" cy="1005.765" r="30"/>
			<path fill="none" stroke="#E0E1E0" stroke-width="1.5" stroke-miterlimit="10" d="M146.709,980.89
				c0,32.861-26.639,59.5-59.5,59.5c-13.865,0-26.621-4.742-36.738-12.691"/>
			<path fill="none" stroke="#E0E1E0" stroke-width="1.5" stroke-miterlimit="10" d="M207.232,1318.505
				c-1-4.883-1.523-9.938-1.523-15.115c0-41.422,33.578-75,75-75c1.094,0,2.184,0.023,3.268,0.07"/>
			<circle fill="none" stroke="#E0E1E0" stroke-width="1.5" stroke-miterlimit="10" cx="277.932" cy="1263.199" r="18.897"/>
			<path fill="none" stroke="#E0E1E0" stroke-width="1.5" stroke-miterlimit="10" d="M304.949,1148.104
				c7.924,8.633,12.76,20.145,12.76,32.785c0,26.785-21.715,48.5-48.5,48.5"/>
			<circle fill="none" stroke="#E0E1E0" stroke-width="1.5" stroke-miterlimit="10" cx="309.042" cy="1153.724" r="7.333"/>
			<path fill="none" stroke="#E0E1E0" stroke-width="1.5" stroke-miterlimit="10" d="M0.164,1193.821
				c33.393,6.707,58.545,36.201,58.545,71.568c0,35.369-25.154,64.865-58.551,71.57"/>
			<circle fill="none" stroke="#E0E1E0" stroke-width="1.5" stroke-miterlimit="10" cx="198.708" cy="951.39" r="23.333"/>
			<path fill="none" stroke="#E0E1E0" stroke-width="1.5" stroke-miterlimit="10" d="M0.152,1237.634
				c25.018,2.48,44.557,23.588,44.557,49.256c0,19.771-11.592,36.836-28.35,44.768"/>
			<path fill="none" stroke="#E0E1E0" stroke-width="1.5" stroke-miterlimit="10" d="M66.508,1222.72
				c10.143,14.836,16.074,32.779,16.074,52.107c0,47.668-36.082,86.908-82.424,91.9"/>
			<circle fill="none" stroke="#E0E1E0" stroke-width="1.5" stroke-miterlimit="10" cx="160.709" cy="1341.39" r="24"/>
			<path fill="none" stroke="#E0E1E0" stroke-width="1.5" stroke-miterlimit="10" d="M321.059,1346.044
				c-9.045,6.111-19.947,9.68-31.684,9.68c-31.295,0-56.666-25.371-56.666-56.668c0-25.928,17.414-47.789,41.184-54.525"/>
			<path fill="none" stroke="#E0E1E0" stroke-width="1.5" stroke-miterlimit="10" d="M318.6,1347.597
				c-5.354,3.955-11.975,6.293-19.141,6.293c-17.812,0-32.25-14.439-32.25-32.25s14.438-32.25,32.25-32.25
				c6.844,0,13.191,2.133,18.41,5.77"/>
			<path fill="none" stroke="#E0E1E0" stroke-width="1.5" stroke-miterlimit="10" d="M176.049,1323.534
				c7.988,10.467,12.732,23.543,12.732,37.729c0,34.377-27.869,62.246-62.246,62.246c-12.242,0-23.658-3.533-33.283-9.637"/>
			<circle fill="none" stroke="#E0E1E0" stroke-width="1.5" stroke-miterlimit="10" cx="81.748" cy="1431.923" r="21.039"/>
			<path fill="none" stroke="#E0E1E0" stroke-width="1.5" stroke-miterlimit="10" d="M68.631,1378.31
				c8.807-8.807,20.973-14.254,34.412-14.254c18.465,0,34.527,10.285,42.773,25.438"/>
			<circle fill="none" stroke="#E0E1E0" stroke-width="1.5" stroke-miterlimit="10" cx="130.042" cy="1395.724" r="16.667"/>
			<path fill="none" stroke="#E0E1E0" stroke-width="1.5" stroke-miterlimit="10" d="M151.582,1363.739
				c-15.703-5.914-26.873-21.078-26.873-38.85c0-22.92,18.58-41.5,41.5-41.5c21.877,0,39.799,16.928,41.387,38.398"/>
			<circle fill="none" stroke="#E0E1E0" stroke-width="1.5" stroke-miterlimit="10" cx="207.041" cy="1329.724" r="8"/>
			<g>
				<defs>
					<path id="SVGID_1_" d="M272.781,1148.149c-0.959,61.402-51.518,110.404-112.92,109.441
						c-61.402-0.961-110.4-51.516-109.439-112.918c0.959-61.402,51.516-110.4,112.916-109.441
						C224.742,1036.194,273.74,1086.747,272.781,1148.149z"/>
				</defs>
				<clipPath id="SVGID_2_">
					<use xlink:href="#SVGID_1_"  overflow="visible"/>
				</clipPath>
				<g clip-path="url(#SVGID_2_)">
					
						<image overflow="visible" width="960" height="960" xlink:href="120E0EE15BAF84C9.jpg"  transform="matrix(0.2527 0 0 0.2527 43.4746 1034.0771)">
					</image>
				</g>
			</g>
			<path fill="none" stroke="#E0E1E0" stroke-width="1.5" stroke-miterlimit="10" d="M260.043,1055.724c-17.121,0-31-13.879-31-31
				c0-10.441,5.164-19.68,13.076-25.297"/>
			<circle fill="none" stroke="#E0E1E0" stroke-width="1.5" stroke-miterlimit="10" cx="259.71" cy="1043.058" r="12.333"/>
			<path fill="none" stroke="#E0E1E0" stroke-width="1.5" stroke-miterlimit="10" d="M320.709,1038.058
				c-5.34,0-9.668-4.328-9.668-9.668c0-5.338,4.328-9.666,9.668-9.666"/>
			<path fill="none" stroke="#E0E1E0" stroke-width="1.5" stroke-miterlimit="10" d="M24.047,1066.394
				c-1.709-3.41-2.672-7.262-2.672-11.336c0-13.992,11.342-25.334,25.334-25.334s25.334,11.342,25.334,25.334
				c0,5.99-2.08,11.494-5.557,15.832"/>
			<circle fill="none" stroke="#E0E1E0" stroke-width="1.5" stroke-miterlimit="10" cx="30.709" cy="1061.39" r="8.334"/>
		</g>
		
			<text transform="matrix(1 0 0 1 37.3452 586.1626)" fill="#DDDDDD" font-family="'JosefinSans'" font-size="26" letter-spacing="1">ABOUT</text>
		<rect x="37.346" y="620.747" fill="none" width="248.998" height="241.502"/>
		<text transform="matrix(1 0 0 1 37.3457 631.3169)"><tspan x="0" y="0" fill="#DCDCDA" font-family="'Lora-Regular'" font-size="14">Hello! I’m Nat Cooper. I build  </tspan><tspan x="0" y="20" fill="#DCDCDA" font-family="'Lora-Regular'" font-size="14">visually compelling applications and </tspan><tspan x="0" y="40" fill="#DCDCDA" font-family="'Lora-Regular'" font-size="14">clean digital experiences.</tspan><tspan x="0" y="80" fill="#DCDCDA" font-family="'Lora-Regular'" font-size="14">I have a passion for public speaking, </tspan><tspan x="0" y="100" fill="#DCDCDA" font-family="'Lora-Regular'" font-size="14">teaching, and helping others realize </tspan><tspan x="0" y="120" fill="#DCDCDA" font-family="'Lora-Regular'" font-size="14">they can become powerful creators </tspan><tspan x="0" y="140" fill="#DCDCDA" font-family="'Lora-Regular'" font-size="14">of technology.</tspan><tspan x="0" y="180" fill="#DCDCDA" font-family="'Lora-Regular'" font-size="14">Curious &amp; committed to life-long </tspan><tspan x="0" y="200" fill="#DCDCDA" font-family="'Lora-Regular'" font-size="14">learning, I always have a list of </tspan><tspan x="0" y="220" fill="#DCDCDA" font-family="'Lora-Regular'" font-size="14">things I want to learn or improve on.</tspan></text>
	</g>
</g>
</svg>
