<svg x="0px" y="0px" width="320px" height="537.167px" viewBox="0 0 320 537.167" enable-background="new 0 0 320 537.167" xml:space="preserve"> 
<g id="PortfolioImg">
	<g>
		<path fill="none" stroke="#E0E1E0" stroke-miterlimit="10" d="M3.859,79.399c13.279-13.279,31.627-21.493,51.89-21.493
			c40.525,0,73.382,32.854,73.382,73.381"/>
		<path fill="none" stroke="#E0E1E0" stroke-miterlimit="10" d="M9.155,87.709C21.956,74.91,38.206,67.57,57.737,67.57
			c39.06,0,71.036,31.876,71.036,70.936"/>
		<path fill="none" stroke="#E0E1E0" stroke-miterlimit="10" d="M116.582,24.553c2.269,2.211,3.866,5.148,4.397,8.517
			c1.312,8.303-4.358,16.095-12.66,17.405c-6.227,0.982-12.168-1.961-15.302-6.996"/>
		<circle fill="none" stroke="#E0E1E0" stroke-miterlimit="10" cx="150.526" cy="315.741" r="15.869"/>
		<circle fill="none" stroke="#E0E1E0" stroke-miterlimit="10" cx="264.581" cy="169.919" r="9.24"/>
		<path fill="none" stroke="#E0E1E0" stroke-miterlimit="10" d="M263.931,160.56c12.906,0,22.72,9.16,22.72,22.068
			c0,12.909-10.466,23.373-23.372,23.373c-6.116,0.001-11.683-2.348-15.849-6.193"/>
		<path fill="none" stroke="#E0E1E0" stroke-miterlimit="10" d="M156.795,284.16c1.663-0.313,3.38-0.478,5.134-0.478
			c15.187,0,27.499,12.312,27.499,27.499c0,15.188-12.312,27.499-27.499,27.499c-13.981,0-25.527-10.435-27.271-23.942"/>
		<path fill="none" stroke="#E0E1E0" stroke-miterlimit="10" d="M249.038,201.289c-8.709-6.889-14.297-17.549-14.297-29.517
			c0-20.772,16.84-37.612,37.614-37.612c20.772,0,37.612,16.84,37.612,37.612c0,15.58-9.471,28.948-22.972,34.658"/>
		<path fill="none" stroke="#E0E1E0" stroke-miterlimit="10" d="M147.2,285.986c-4.606,3.336-10.268,5.303-16.389,5.303
			c-15.444,0-27.964-12.52-27.964-27.963c0-15.443,12.52-27.963,27.964-27.963c3.562,0,6.972,0.666,10.104,1.881"/>
		<circle fill="none" stroke="#E0E1E0" stroke-miterlimit="10" cx="130.024" cy="210.027" r="8.559"/>
		<circle fill="none" stroke="#E0E1E0" stroke-miterlimit="10" cx="135.186" cy="370.716" r="9.646"/>
		<circle fill="none" stroke="#E0E1E0" stroke-miterlimit="10" cx="110.325" cy="31.892" r="9.645"/>
		<circle fill="none" stroke="#E0E1E0" stroke-miterlimit="10" cx="130.023" cy="256.224" r="20.313"/>
		<path fill="none" stroke="#E0E1E0" stroke-miterlimit="10" d="M128.765,233.454"/>
		<path fill="none" stroke="#E0E1E0" stroke-miterlimit="10" d="M122.511,205.924c3.87-7.341,11.868-12.042,20.658-11.291
			c11.721,1,20.409,11.312,19.409,23.03c-1.002,11.72-11.312,20.409-23.033,19.408"/>
		<path fill="none" stroke="#E0E1E0" stroke-miterlimit="10" d="M157.237,267.58c0,12.809-10.384,23.192-23.192,23.192"/>
		<circle fill="none" stroke="#E0E1E0" stroke-miterlimit="10" cx="169.924" cy="147.239" r="19.75"/>
		<path fill="none" stroke="#E0E1E0" stroke-miterlimit="10" d="M319.797,256.083c-5.93-0.832-11.286-4.677-13.776-10.599
			c-3.761-8.947,0.444-19.25,9.392-23.013c1.438-0.604,2.91-1.003,4.384-1.209"/>
		<circle fill="none" stroke="#E0E1E0" stroke-miterlimit="10" cx="137.654" cy="67.877" r="29.896"/>
		<path fill="none" stroke="#E0E1E0" stroke-miterlimit="10" d="M319.796,410.483c-1.395-0.626-2.746-1.384-4.035-2.333
			c-7.749-5.7-12.315-15.258-12.315-24.817c0-11.849,6.613-22.154,16.35-27.424"/>
		<circle fill="none" stroke="#E0E1E0" stroke-miterlimit="10" cx="183.159" cy="138.506" r="54.386"/>
		<path fill="none" stroke="#E0E1E0" stroke-miterlimit="10" d="M220.982,380.33c-10.757-10.169-17.47-24.572-17.47-40.545
			c0-30.807,24.975-55.781,55.782-55.781c30.806,0,55.781,24.974,55.781,55.781c0,8.669-1.978,16.876-5.506,24.195"/>
		<path fill="none" stroke="#E0E1E0" stroke-miterlimit="10" d="M-0.204,5.292c41.208,0.835,76.363,25.451,90.781,61.263"/>
		<path fill="none" stroke="#E0E1E0" stroke-miterlimit="10" d="M-0.205,2.233c2.2-0.13,4.418-0.195,6.65-0.195
			c45.999,0,85.3,26.879,101.315,67.273"/>
		<path fill="none" stroke="#E0E1E0" stroke-miterlimit="10" d="M237.867,274.314c7.725-3.75,16.386-5.853,25.534-5.853
			c32.522,0,58.888,26.562,58.888,59.327c0,14.785-5.368,28.305-14.248,38.694"/>
		<path fill="none" stroke="#E0E1E0" stroke-miterlimit="10" d="M159.879,283.732c0.68-0.033,1.363-0.048,2.05-0.048
			c23.393,0,42.357,18.962,42.357,42.356c0,23.394-18.965,42.358-42.357,42.358c-23.394,0-42.356-18.964-42.356-42.358
			C119.572,303.334,137.438,284.801,159.879,283.732"/>
		<path fill="none" stroke="#E0E1E0" stroke-miterlimit="10" d="M139.919,395.341c0.881-0.279,1.771-0.538,2.673-0.776
			c30.687-8.126,62.15,10.162,70.275,40.849c4.408,16.648,1.044,33.524-7.858,46.778"/>
		<path fill="none" stroke="#E0E1E0" stroke-miterlimit="10" d="M120.049,322.644c0,49.32-39.982,89.3-89.299,89.3
			c-11.146,0-21.52-1.583-30.949-4.554"/>
		<path fill="none" stroke="#E0E1E0" stroke-miterlimit="10" d="M5.565,304.625c5.459-4.945,13.894-4.529,18.839,0.93"/>
		<path fill="none" stroke="#E0E1E0" stroke-miterlimit="10" d="M46.627,308.172c4.127-4.962,11.493-5.641,16.455-1.515"/>
		<path fill="none" stroke="#E0E1E0" stroke-miterlimit="10" d="M24.674,200.066c11.817,25.363,9.527,44.145-5.132,73.921"/>
		<path fill="none" stroke="#E0E1E0" stroke-miterlimit="10" d="M66.832,354.92"/>
		<path fill="none" stroke="#E0E1E0" stroke-miterlimit="10" d="M-0.204,365.613c3.75,3.773,9.521,6.282,16.102,6.501"/>
		<path fill="none" stroke="#E0E1E0" stroke-miterlimit="10" d="M16.282,372.198c8.146,6.623,21.625,6.625,30.104,0.006"/>
		<path fill="none" stroke="#E0E1E0" stroke-miterlimit="10" d="M-0.204,354.813c6.997-0.599,13.859-2.943,19.479-7.058"/>
		<path fill="none" stroke="#E0E1E0" stroke-miterlimit="10" d="M17.677,349.405c1.251-1.415,3.316-2.339,5.654-2.339
			c3.817,0,6.911,2.465,6.911,5.506v25.258"/>
		<path fill="none" stroke="#E0E1E0" stroke-miterlimit="10" d="M65.71,354.624c0.484,9.266-8.738,17.096-20.599,17.491"/>
		<path fill="none" stroke="#E0E1E0" stroke-miterlimit="10" d="M66.832,354.92c-8.859,0.421-17.977-1.949-25.099-7.165"/>
		<path fill="none" stroke="#E0E1E0" stroke-miterlimit="10" d="M42.588,348.698c-1.253-1.008-2.989-1.632-4.91-1.632
			c-3.427,0-6.269,1.986-6.816,4.591"/>
		<path fill="none" stroke="#E0E1E0" stroke-miterlimit="10" d="M157.511,267.11c0-10.459,8.479-18.939,18.939-18.939
			c10.458,0,18.938,8.48,18.938,18.939c0,10.458-8.479,18.937-18.938,18.937"/>
		<path fill="none" stroke="#E0E1E0" stroke-miterlimit="10" d="M3.819,78.608c7.714,11.417,12.217,25.179,12.217,39.994
			c0,17.23-6.092,33.038-16.239,45.386"/>
		<path fill="none" stroke="#E0E1E0" stroke-miterlimit="10" d="M63.231,186.263c5.185-18.488,22.163-32.045,42.308-32.045
			c16.016,0,28.15,9.167,36.938,20.415"/>
		<path fill="none" stroke="#E0E1E0" stroke-miterlimit="10" d="M63.938,184.93c8.182-11.771,21.804-19.478,37.226-19.478
			c16.515,0,27.904,7.61,36.965,19.208"/>
		<path fill="none" stroke="#E0E1E0" stroke-miterlimit="10" d="M137.409,183.736l0.489,0.693
			c9.375,10.964,22.492,20.06,42.362,20.06c27.274,0,49.861-20.079,53.782-46.262"/>
		<circle fill="none" stroke="#E0E1E0" stroke-miterlimit="10" cx="235.614" cy="228.873" r="30.079"/>
		<path fill="none" stroke="#E0E1E0" stroke-miterlimit="10" d="M189.589,146.245c0,16.612-13.467,30.079-30.079,30.079
			s-30.08-13.467-30.08-30.079"/>
		<path fill="none" stroke="#E0E1E0" stroke-miterlimit="10" d="M235.615,334.332"/>
		<path fill="none" stroke="#E0E1E0" stroke-miterlimit="10" d="M246.552,270.544c-19.652,10.834-44.367,3.684-55.2-15.969
			c-10.835-19.653-3.685-44.367,15.969-55.201c19.651-10.834,44.367-3.684,55.199,15.969"/>
		<path fill="none" stroke="#E0E1E0" stroke-miterlimit="10" d="M220.75,379.99c20.521,13.468,34.071,36.683,34.071,63.063
			c0,41.632-33.748,75.379-75.38,75.379c-18.891,0-36.157-6.948-49.386-18.429"/>
		<path fill="none" stroke="#E0E1E0" stroke-miterlimit="10" d="M139.74,395.378c-6.607,3.741-15.098,3.342-21.412-1.668
			c-8.31-6.594-9.701-18.675-3.108-26.986c6.595-8.309,18.676-9.701,26.985-3.107"/>
		<line fill="none" stroke="#E0E1E0" stroke-miterlimit="10" x1="130.023" y1="201.47" x2="130.023" y2="276.538"/>
		
			<line fill="none" stroke="#E0E1E0" stroke-linecap="round" stroke-miterlimit="10" x1="235.615" y1="198.793" x2="235.615" y2="358.266"/>
		<path fill="none" stroke="#E0E1E0" stroke-miterlimit="10" d="M167.828,70.079c0,9.283-7.521,16.807-16.807,16.807
			c-9.28,0-16.806-7.524-16.806-16.807c0-9.282,7.525-16.806,16.806-16.806C160.308,53.272,167.828,60.796,167.828,70.079z"/>
		<circle fill="none" stroke="#E0E1E0" stroke-miterlimit="10" cx="174.824" cy="143.942" r="44.601"/>
		<path fill="none" stroke="#E0E1E0" stroke-miterlimit="10" d="M319.8,479.627c-14.312-1.476-25.477-13.573-25.477-28.276
			c0-14.703,11.16-26.797,25.473-28.276"/>
		<path fill="none" stroke="#E0E1E0" stroke-linecap="round" stroke-miterlimit="10" d="M319.795,272.733
			c-16.86,8.877-37.991,3.454-48.385-12.917c-10.943-17.233-5.843-40.075,11.392-51.018c11.569-7.344,25.663-7.461,36.989-1.531"/>
		<path fill="none" stroke="#E0E1E0" stroke-miterlimit="10" d="M319.796,211.08c-0.472,0.168-0.98,0.26-1.511,0.26
			c-2.487,0-4.504-2.017-4.504-4.505c0-2.489,2.017-4.505,4.504-4.505c0.53,0,1.039,0.091,1.512,0.259"/>
		<path fill="none" stroke="#E0E1E0" stroke-miterlimit="10" d="M245.312,348.474c0,5.407-4.383,9.792-9.796,9.792
			c-5.408,0-9.79-4.386-9.79-9.792c0-5.41,4.382-9.793,9.79-9.793C240.929,338.68,245.312,343.063,245.312,348.474z"/>
		
			<line fill="none" stroke="#E0E1E0" stroke-width="0.9179" stroke-miterlimit="10" x1="173.93" y1="518.391" x2="173.93" y2="379.215"/>
		<circle fill="none" stroke="#E0E1E0" stroke-miterlimit="10" cx="174.582" cy="274.14" r="11.304"/>
		<path fill="none" stroke="#E0E1E0" stroke-miterlimit="10" d="M207.163,478.557c-4.968,8.755-13.315,15.583-23.816,18.363
			c-20.717,5.486-41.956-6.86-47.442-27.577c-5.485-20.716,6.861-41.957,27.576-47.442c2.881-0.763,5.771-1.181,8.628-1.279"/>
		<circle fill="none" stroke="#E0E1E0" stroke-miterlimit="10" cx="174.295" cy="450.515" r="29.697"/>
		<path fill="none" stroke="#E0E1E0" stroke-miterlimit="10" d="M319.796,263.154c-1.235,0.198-2.503,0.301-3.795,0.301
			c-13.143,0-23.799-10.656-23.799-23.801c0-13.144,10.656-23.8,23.799-23.8c1.292,0,2.56,0.103,3.796,0.301"/>
		<path fill="none" stroke="#E0E1E0" stroke-miterlimit="10" d="M319.796,489.539c-5.523,1.889-11.502,2.747-17.69,2.359
			c-25.268-1.585-44.464-23.354-42.879-48.62c0.876-13.958,7.911-26.063,18.294-33.836"/>
		<path fill="none" stroke="#E0E1E0" stroke-miterlimit="10" d="M319.791,449.423c-6.048-1.134-10.625-6.442-10.625-12.819
			c0-6.379,4.579-11.688,10.63-12.821"/>
		<path fill="none" stroke="#E0E1E0" stroke-miterlimit="10" d="M273.436,469.319c-5.461-2.311-9.293-7.718-9.293-14.021
			c0-8.404,6.812-15.216,15.216-15.216s15.217,6.812,15.217,15.216"/>
		<circle fill="none" stroke="#E0E1E0" stroke-miterlimit="10" cx="276.533" cy="460.516" r="9.13"/>
		<path fill="none" stroke="#E0E1E0" stroke-miterlimit="10" d="M278.387,408.897c-2.975,1.723-6.43,2.708-10.114,2.708
			c-11.166,0-20.216-9.051-20.216-20.216s9.05-20.216,20.216-20.216c6.978,0,13.13,3.535,16.763,8.913"/>
		<circle fill="none" stroke="#E0E1E0" stroke-miterlimit="10" cx="275.337" cy="385.737" r="11.304"/>
		<path fill="none" stroke="#E0E1E0" stroke-miterlimit="10" d="M266.856,330.738c15.676,7.971,26.415,24.252,26.415,43.043
			c0,14.374-6.285,27.28-16.254,36.121"/>
		<path fill="none" stroke="#E0E1E0" stroke-miterlimit="10" d="M268.469,331.446c-8.066-3.141-13.782-10.984-13.782-20.161
			c0-11.945,9.685-21.629,21.629-21.629c11.946,0,21.629,9.684,21.629,21.629c0,5.265-1.881,10.09-5.008,13.841"/>
		<circle fill="none" stroke="#E0E1E0" stroke-miterlimit="10" cx="281.533" cy="314.654" r="15"/>
		<path fill="none" stroke="#E0E1E0" stroke-miterlimit="10" d="M259.126,325.339c4.134,5.156,6.606,11.702,6.606,18.824
			c0,16.634-13.484,30.118-30.117,30.118c-16.635,0-30.119-13.484-30.119-30.118c0-16.633,13.484-30.118,30.119-30.118"/>
		<circle fill="none" stroke="#E0E1E0" stroke-miterlimit="10" cx="294.466" cy="420.261" r="7.282"/>
		<path fill="none" stroke="#E0E1E0" stroke-miterlimit="10" d="M290.439,414.255c4.674-3.754,10.609-6,17.07-6
			c4.42,0,8.594,1.051,12.286,2.917"/>
		<path fill="none" stroke="#E0E1E0" stroke-miterlimit="10" d="M145.371,509.807c-30.402-15.506-51.221-47.111-51.221-83.579
			c0-22.174,7.697-42.551,20.567-58.604"/>
		<path fill="none" stroke="#E0E1E0" stroke-miterlimit="10" d="M116.016,425.482c2.922-17.746,17.988-31.592,36.659-32.312"/>
		<circle fill="none" stroke="#E0E1E0" stroke-miterlimit="10" cx="125.51" cy="429.771" r="10.435"/>
		<circle fill="none" stroke="#E0E1E0" stroke-linecap="round" stroke-miterlimit="10" cx="235.614" cy="302.589" r="6.195"/>
		<circle fill="none" stroke="#E0E1E0" stroke-linecap="round" stroke-miterlimit="10" cx="235.614" cy="230.528" r="12.391"/>
		<path fill="none" stroke="#E0E1E0" stroke-linecap="round" stroke-miterlimit="10" d="M319.794,295.393
			c-3.506-1.04-6.062-4.285-6.062-8.128c0-3.844,2.558-7.09,6.064-8.129"/>
		<path fill="none" stroke="#E0E1E0" stroke-miterlimit="10" d="M173.276,379.235c36.886,0.866,66.519,31.038,66.519,68.129
			c0,37.638-30.511,68.148-68.148,68.148c-10.388,0-20.232-2.324-29.042-6.481"/>
		<circle fill="none" stroke="#E0E1E0" stroke-miterlimit="10" cx="173.929" cy="407.258" r="7.173"/>
	</g>
</g>
</svg>
