<?xml version="1.0" encoding="utf-8"?>
<!-- Generator: Adobe Illustrator 16.0.0, SVG Export Plug-In . SVG Version: 6.00 Build 0)  -->
<!DOCTYPE svg PUBLIC "-//W3C//DTD SVG 1.1//EN" "http://www.w3.org/Graphics/SVG/1.1/DTD/svg11.dtd">
<svg version="1.1" id="selected-work" xmlns="http://www.w3.org/2000/svg" xmlns:xlink="http://www.w3.org/1999/xlink" x="0px"
	 y="0px" width="1280px" height="755.564px" viewBox="0 0 1280 755.564" enable-background="new 0 0 1280 755.564"
	 xml:space="preserve">
<path fill="none" stroke="#E0E1E0" stroke-width="1.5" stroke-miterlimit="10" d="M425.702,256.616
	c0,76.868-62.315,139.185-139.186,139.185s-139.186-62.316-139.186-139.185c0-76.873,62.315-139.187,139.186-139.187
	S425.702,179.743,425.702,256.616z"/>
<path fill="none" stroke="#E0E1E0" stroke-width="1.5" stroke-miterlimit="10" d="M779.685,256.616
	c0,76.868-62.314,139.185-139.184,139.185c-76.87,0-139.187-62.316-139.187-139.185c0-76.873,62.316-139.187,139.187-139.187
	C717.37,117.429,779.685,179.743,779.685,256.616z"/>
<path fill="none" stroke="#E0E1E0" stroke-width="1.5" stroke-miterlimit="10" d="M1132.669,256.616
	c0,76.868-62.314,139.185-139.186,139.185c-76.869,0-139.185-62.316-139.185-139.185c0-76.873,62.315-139.187,139.185-139.187
	C1070.354,117.429,1132.669,179.743,1132.669,256.616z"/>
<path fill="none" stroke="#E0E1E0" stroke-width="1.5" stroke-miterlimit="10" d="M425.702,583.1
	c0,76.866-62.315,139.183-139.186,139.183S147.331,659.966,147.331,583.1c0-76.875,62.315-139.189,139.186-139.189
	S425.702,506.225,425.702,583.1z"/>
<path fill="none" stroke="#E0E1E0" stroke-width="1.5" stroke-miterlimit="10" d="M779.186,583.1
	c0,76.866-62.315,139.183-139.185,139.183c-76.87,0-139.187-62.316-139.187-139.183c0-76.875,62.316-139.189,139.187-139.189
	C716.87,443.91,779.186,506.225,779.186,583.1z"/>
<path fill="none" stroke="#E0E1E0" stroke-width="1.5" stroke-miterlimit="10" d="M1132.669,583.1
	c0,76.866-62.314,139.183-139.186,139.183c-76.869,0-139.185-62.316-139.185-139.183c0-76.875,62.315-139.189,139.185-139.189
	C1070.354,443.91,1132.669,506.225,1132.669,583.1z"/>
<g id="codemobile">
	<defs>
		<path id="SVGID_1_" d="M415.516,256.616c0,71.257-57.755,129.024-128.999,129.024c-71.243,0-129-57.768-129-129.024
			c0-71.261,57.757-129.027,129-129.027C357.761,127.589,415.516,185.355,415.516,256.616z"/>
	</defs>
	<use xlink:href="#SVGID_1_"  overflow="visible" fill="#684120"/>
	<clipPath id="SVGID_2_">
		<use xlink:href="#SVGID_1_"  overflow="visible"/>
	</clipPath>
	<g id="aY7FX7_1_" clip-path="url(#SVGID_2_)">
		
			<image overflow="visible" width="640" height="640" id="aY7FX7_3_" xlink:href="FDE0FECF1E759F26.png"  transform="matrix(0.4062 0 0 0.4062 156.5166 126.6152)">
		</image>
	</g>
</g>
<g id="bitediabetes">
	<defs>
		<path id="SVGID_3_" d="M1122.483,256.616c0,71.257-57.756,129.024-128.999,129.024c-71.244,0-129-57.768-129-129.024
			c0-71.261,57.756-129.027,129-129.027C1064.728,127.589,1122.483,185.355,1122.483,256.616z"/>
	</defs>
	<use xlink:href="#SVGID_3_"  overflow="visible" fill="#684120"/>
	<clipPath id="SVGID_4_">
		<use xlink:href="#SVGID_3_"  overflow="visible"/>
	</clipPath>
	<g id="S1A4oX_1_" clip-path="url(#SVGID_4_)">
		
			<image overflow="visible" width="1805" height="1805" id="S1A4oX_2_" xlink:href="FDE0FECF1E759F2A.jpg"  transform="matrix(0.1452 0 0 0.1452 862.4844 125.6152)">
		</image>
	</g>
</g>
<g id="hackeryou">
	<defs>
		<path id="SVGID_5_" d="M769.499,256.616c0,71.257-57.756,129.024-128.999,129.024c-71.244,0-129-57.768-129-129.024
			c0-71.261,57.756-129.027,129-129.027C711.743,127.589,769.499,185.355,769.499,256.616z"/>
	</defs>
	<use xlink:href="#SVGID_5_"  overflow="visible" fill="#684120"/>
	<clipPath id="SVGID_6_">
		<use xlink:href="#SVGID_5_"  overflow="visible"/>
	</clipPath>
	<g id="OwMzvu_1_" clip-path="url(#SVGID_6_)">
		
			<image overflow="visible" width="1800" height="1800" id="OwMzvu_2_" xlink:href="FDE0FECF1E759F2B.jpg"  transform="matrix(0.1444 0 0 0.1444 510.5 126.6152)">
		</image>
	</g>
</g>
<g id="indigo">
	<defs>
		<path id="SVGID_7_" d="M769.499,583.098c0,71.257-57.756,129.024-128.999,129.024c-71.244,0-129-57.768-129-129.024
			c0-71.262,57.756-129.027,129-129.027C711.743,454.07,769.499,511.836,769.499,583.098z"/>
	</defs>
	<use xlink:href="#SVGID_7_"  overflow="visible" fill="#684120"/>
	<clipPath id="SVGID_8_">
		<use xlink:href="#SVGID_7_"  overflow="visible"/>
	</clipPath>
	<g id="q8rpun_1_" clip-path="url(#SVGID_8_)">
		
			<image overflow="visible" width="2056" height="2056" id="q8rpun_2_" xlink:href="FDE0FECF1E759F26.jpg"  transform="matrix(0.1265 0 0 0.1265 510.5 453.0977)">
		</image>
	</g>
</g>
<g id="casa-loma">
	<defs>
		<path id="SVGID_9_" d="M1122.483,583.098c0,71.257-57.756,129.024-129,129.024s-128.999-57.768-128.999-129.024
			c0-71.262,57.755-129.027,128.999-129.027S1122.483,511.836,1122.483,583.098z"/>
	</defs>
	<use xlink:href="#SVGID_9_"  overflow="visible" fill="#684120"/>
	<clipPath id="SVGID_10_">
		<use xlink:href="#SVGID_9_"  overflow="visible"/>
	</clipPath>
	<g id="she0Hz_1_" clip-path="url(#SVGID_10_)">
		
			<image overflow="visible" width="1800" height="1800" id="she0Hz_2_" xlink:href="FDE0FECF1E759F27.jpg"  transform="matrix(0.1444 0 0 0.1444 863.4844 453.0957)">
		</image>
	</g>
</g>
<g id="mothers-day">
	<defs>
		<path id="SVGID_11_" d="M415.517,583.098c0,71.257-57.756,129.024-129,129.024s-128.999-57.768-128.999-129.024
			c0-71.262,57.755-129.027,128.999-129.027S415.517,511.836,415.517,583.098z"/>
	</defs>
	<use xlink:href="#SVGID_11_"  overflow="visible" fill="#684120"/>
	<clipPath id="SVGID_12_">
		<use xlink:href="#SVGID_11_"  overflow="visible"/>
	</clipPath>
	<g id="DDFY31_1_" clip-path="url(#SVGID_12_)">
		
			<image overflow="visible" width="1875" height="1875" id="DDFY31_2_" xlink:href="FDE0FECF1E759F3A.jpg"  transform="matrix(0.1489 0 0 0.1489 158.5234 438.2344)">
		</image>
	</g>
</g>
<g id="curl-sides">
	<path fill="#E0E1E0" d="M1280,710.767c-7.248,5.275-16.158,8.398-25.788,8.398c-24.225,0-43.933-19.709-43.933-43.934
		c0-17.607,10.418-32.819,25.409-39.821c-9.767,5.92-16.308,16.651-16.308,28.882c0,18.496,14.96,33.561,33.415,33.74
		c0.057,0.002,0.111,0.01,0.168,0.01c0.019,0,0.037-0.004,0.056-0.004c0.037,0,0.074,0.004,0.111,0.004
		c10.952,0,20.699-5.248,26.869-13.357v-2.592c-4.197,6.311-10.554,11.066-18.009,13.201c4.352-2.92,7.223-7.881,7.223-13.502
		c0-8.961-7.29-16.25-16.25-16.25s-16.25,7.289-16.25,16.25c0,5.523,2.776,10.406,7.002,13.344
		c-13.203-4.039-22.835-16.336-22.835-30.844c0-17.474,13.975-31.737,31.333-32.226v33.364h1.5v-33.374
		c10.96,0.197,20.604,5.885,26.286,14.424v-2.551c-3.904-5.137-9.228-9.141-15.4-11.379c0.536,0.131,1.068,0.275,1.597,0.424
		c2.146,0.867,4.319,1.674,6.517,2.426c2.575,1.201,5.012,2.648,7.287,4.305v-1.838c-0.171-0.119-0.334-0.246-0.506-0.363
		c0.168,0.047,0.338,0.088,0.506,0.133v-1.574c-2.281-0.639-4.546-1.316-6.776-2.078c-2.086-0.965-4.257-1.773-6.498-2.418
		c-4.463-1.803-8.808-3.852-13.012-6.135v-16.568c5.421-0.545,9.667-5.133,9.667-10.695s-4.246-10.15-9.667-10.695v-25.836
		c8.515-1.1,16.472-4.486,23.11-9.812c-5.105,7.07-7.943,15.646-7.943,24.469c0,10.928,4.223,20.883,11.119,28.33v-2.252
		c-5.995-7.027-9.619-16.137-9.619-26.078c0-9.576,3.466-18.852,9.619-26.092v-3.295c-7.075,7.26-16.275,11.877-26.286,13.217
		v-24.096c10.79-0.188,20.341-5.537,26.286-13.68v-2.678c-5.53,8.768-15.223,14.656-26.286,14.857v-63.471
		c2.366,0.043,4.669,0.346,6.882,0.881c1.692,0.506,3.361,1.102,4.996,1.809l0.056-0.127c5.941,2.559,10.937,6.893,14.353,12.314
		v-2.699c-4.57-6.256-11.27-10.865-19.023-12.748c-0.598-0.178-1.197-0.352-1.801-0.506c11.274-0.795,20.205-10.217,20.205-21.689
		c0-11.992-9.757-21.75-21.75-21.75c-7.634,0-14.572,3.891-18.562,10.408l0.085,0.053c-0.808,1.592-1.272,3.385-1.272,5.289
		c0,6.479,5.271,11.75,11.75,11.75s11.75-5.271,11.75-11.75s-5.271-11.75-11.75-11.75c-0.73,0-1.442,0.076-2.136,0.205
		c3.021-1.746,6.491-2.705,10.136-2.705c11.166,0,20.25,9.084,20.25,20.25s-9.084,20.252-20.25,20.252v1.078
		c-3.261-0.711-6.601-1.078-10-1.078c-25.778,0-46.75,20.971-46.75,46.75c0,25.777,20.972,46.75,46.75,46.75
		c1.542,0,3.068-0.09,4.583-0.236v25.633c-5.733,0.221-10.333,4.941-10.333,10.729s4.6,10.508,10.333,10.729v15.699
		c-35.985-20.178-61.499-57.479-64.647-101.617c-4.359-61.109,35.563-115.338,92.434-131.162v-1.553
		c-57.756,15.867-98.351,70.846-93.93,132.822c3.207,44.963,29.346,82.914,66.144,103.232v3.533
		c-24.128,1.049-43.435,20.999-43.435,45.38c0,25.053,20.381,45.434,45.433,45.434c9.572,0,18.456-2.982,25.788-8.059V710.767z
		 M1238.214,681.792c0-8.133,6.617-14.75,14.75-14.75s14.75,6.617,14.75,14.75c0,8.113-6.587,14.717-14.694,14.746
		c-0.074,0-0.148-0.004-0.224-0.006C1244.741,696.442,1238.214,689.868,1238.214,681.792z M1249.631,432.041
		c5.652,0,10.25,4.598,10.25,10.25s-4.598,10.25-10.25,10.25s-10.25-4.598-10.25-10.25S1243.979,432.041,1249.631,432.041z
		 M1253.714,588.986c4.591,0.539,8.167,4.447,8.167,9.182c0,4.732-3.576,8.643-8.167,9.18V588.986z M1253.714,627.135
		c1.974,1.055,3.978,2.059,6.008,3.012c-1.808-0.221-3.644-0.346-5.51-0.346c-0.167,0-0.331,0.01-0.498,0.012V627.135z
		 M1252.214,471.066v63.453c-17.083-0.488-30.833-14.527-30.833-31.727S1235.131,471.555,1252.214,471.066z M1247.631,560.543
		c-24.951,0-45.25-20.299-45.25-45.25c0-24.871,20.17-45.115,45.011-45.244c-15.607,2.729-27.511,16.367-27.511,32.744
		c0,18.025,14.423,32.738,32.333,33.227v24.281C1250.7,560.453,1249.173,560.543,1247.631,560.543z M1243.381,598.168
		c0-4.961,3.927-9.01,8.833-9.229v18.457C1247.308,607.176,1243.381,603.127,1243.381,598.168z"/>
	<g>
		<path fill="#E0E1E0" d="M1280,304.147v-2.782c-6.401-9.429-16.461-16.227-28.182-18.22c-1.668-0.391-3.402-0.604-5.188-0.604
			c-12.544,0-22.75,10.205-22.75,22.75s10.206,22.75,22.75,22.75s22.75-10.205,22.75-22.75c0-7.386-3.54-13.957-9.01-18.116
			C1268.599,290.595,1275.468,296.607,1280,304.147z M1267.881,305.292c0,11.717-9.532,21.25-21.25,21.25s-21.25-9.533-21.25-21.25
			s9.532-21.25,21.25-21.25c0.317,0,0.627,0.033,0.941,0.048l-0.004,0.055c1.288,0.091,2.559,0.244,3.811,0.451
			C1260.814,286.761,1267.881,295.208,1267.881,305.292z"/>
		<path fill="#E0E1E0" d="M1280,346.054c-4.801,7.818-11.252,14.314-18.807,19.105c-7.033,3.75-15.052,5.883-23.562,5.883
			c-27.708,0-50.25-22.541-50.25-50.25c0-27.708,22.542-50.25,50.25-50.25c0.97,0,1.951,0.027,2.917,0.082
			c13.377,0.766,25.288,6.747,33.818,15.895c1.46,2.797,3.362,5.355,5.634,7.602v-3.006c-0.157-0.225-0.31-0.453-0.471-0.676
			c-0.729-1.567-1.148-3.307-1.148-5.146c0-2.206,0.595-4.272,1.619-6.062v-2.646c-1.947,2.373-3.119,5.406-3.119,8.709
			c0,0.672,0.064,1.327,0.158,1.973c-0.463-0.543-0.939-1.075-1.425-1.6c-2.089-4.066-3.233-8.627-3.233-13.373
			c0-7.566,2.888-14.47,7.619-19.669v-2.152c-5.624,5.576-9.119,13.295-9.119,21.821c0,3.644,0.648,7.18,1.846,10.49
			c-8.518-7.876-19.69-12.945-32.093-13.655c-0.995-0.056-2.005-0.085-3.003-0.085c-28.535,0-51.75,23.215-51.75,51.75
			s23.215,51.75,51.75,51.75c3.307,0,6.537-0.324,9.672-0.92c-5.763,1.822-11.874,2.795-18.172,2.795
			c-32.946,0-59.75-26.803-59.75-59.75c0-32.946,26.804-59.75,59.75-59.75c3.464,0,6.938,0.3,10.324,0.89l0.036-0.209
			c3.427,0.506,6.912,0.777,10.396,0.777c10.771,0,20.975-2.447,30.112-6.788v-1.644c-9.104,4.437-19.321,6.932-30.112,6.932
			c-2.112,0-4.226-0.102-6.325-0.292c14.14-1.69,26.83-8.146,36.438-17.698v-2.134c-11.066,11.566-26.635,18.791-43.869,18.791
			v0.285c-2.32-0.265-4.661-0.41-7-0.41c-33.773,0-61.25,27.477-61.25,61.25s27.477,61.25,61.25,61.25
			c11.951,0,23.25-3.4,32.83-9.467c7.192-3.85,13.374-9.348,18.039-15.986V346.054z"/>
		<path fill="#E0E1E0" d="M1257.041,134.142l-0.504,1.413c9.094,3.242,17.062,8.531,23.463,15.234v-2.131
			C1273.633,142.31,1265.856,137.285,1257.041,134.142z"/>
		<path fill="#E0E1E0" d="M1179.529,185.241c0,21.891,17.81,39.702,39.701,39.702c21.891,0,39.7-17.811,39.7-39.702
			c0-14.199-7.662-27.408-19.995-34.473c-0.122-0.07-0.254-0.089-0.385-0.087c-3.204-1.968-6.959-3.125-10.988-3.125
			c-11.625,0-21.083,9.458-21.083,21.084c0,11.625,9.458,21.083,21.083,21.083c11.626,0,21.084-9.458,21.084-21.083
			c0-4.116-1.203-7.948-3.252-11.198c7.563,7.141,12.036,17.175,12.036,27.798c0,21.064-17.137,38.202-38.2,38.202
			c-21.064,0-38.201-17.137-38.201-38.202c0-0.532,0.012-1.061,0.032-1.586c0.006-0.141-0.038-0.267-0.102-0.383
			c0.664-17.811,8.071-34.452,20.896-46.895c12.939-12.556,29.998-19.47,48.032-19.47c10.791,0,21.008,2.496,30.112,6.932v-1.66
			c-9.137-4.336-19.344-6.771-30.112-6.771c-18.426,0-35.855,7.065-49.077,19.894c-13.192,12.8-20.782,29.95-21.371,48.29
			c-0.005,0.148,0.045,0.28,0.116,0.399C1179.542,184.405,1179.529,184.821,1179.529,185.241z M1247.146,168.64
			c0,10.798-8.785,19.583-19.584,19.583c-10.798,0-19.583-8.785-19.583-19.583c0-10.799,8.785-19.584,19.583-19.584
			C1238.361,149.056,1247.146,157.841,1247.146,168.64z"/>
	</g>
	<path fill="none" stroke="#E0E1E0" stroke-width="1.5" stroke-miterlimit="10" d="M99.066,231.492
		c-1.098,3.653-4.949,5.725-8.605,4.625c-3.653-1.098-5.724-4.951-4.625-8.604c1.099-3.656,4.949-5.726,8.603-4.627
		C98.095,223.986,100.166,227.836,99.066,231.492z"/>
	<g>
		<path fill="#E0E1E0" d="M32.486,198.356c-8.039,4.821-17.473,6.222-26.563,3.948c-2.047-0.512-4.025-1.201-5.918-2.054v1.629
			c1.786,0.767,3.64,1.401,5.554,1.88c2.965,0.742,5.965,1.108,8.943,1.108c6.547,0,12.995-1.771,18.756-5.226
			c8.381-5.027,14.304-13.018,16.676-22.499c4.863-19.443-6.126-37.188-26.131-42.192l-0.059,0.236
			c-0.879-0.159-1.764-0.266-2.65-0.266c-6.85,0-12.797,4.647-14.461,11.301c-0.967,3.866-0.371,7.876,1.679,11.293
			c2.05,3.417,5.308,5.832,9.173,6.799c1.191,0.298,2.414,0.449,3.631,0.449c6.852,0,12.798-4.646,14.462-11.3
			c0.968-3.866,0.371-7.877-1.679-11.294c-0.561-0.936-1.22-1.787-1.949-2.563c13.631,7.076,20.438,21.552,16.529,37.173
			C46.203,185.873,40.523,193.535,32.486,198.356z M32.612,142.941c1.844,3.074,2.38,6.681,1.51,10.159
			c-1.497,5.984-6.845,10.164-13.007,10.164c-1.095,0-2.193-0.136-3.268-0.404c-3.477-0.87-6.406-3.042-8.25-6.115
			s-2.38-6.681-1.51-10.158c1.497-5.985,6.846-10.165,13.006-10.165c1.096,0,2.194,0.136,3.268,0.404
			C27.838,137.696,30.77,139.868,32.612,142.941z"/>
		<path fill="#E0E1E0" d="M118.167,682.507c2.733-21.414-10.949-42.034-32.4-47.401c-11.208-2.805-22.835-1.076-32.742,4.867
			c-9.907,5.941-16.907,15.386-19.711,26.593c-3.031,12.115-0.676,24.947,6.461,35.207l1.23-0.857
			c-6.889-9.904-9.162-22.291-6.236-33.986c2.707-10.818,9.464-19.933,19.027-25.669c9.562-5.736,20.787-7.406,31.606-4.699
			c22.333,5.588,35.956,28.302,30.37,50.634l0.143,0.035c-4.246,12.141-12.512,22.328-23.678,29.025
			c-12.645,7.584-27.488,9.787-41.788,6.211c-14.304-3.578-26.358-12.512-33.941-25.156c-7.583-12.643-9.79-27.484-6.212-41.789
			c3.578-14.302,12.513-26.354,25.156-33.938l-0.185-0.309c9.796-6.707,16.77-16.705,19.658-28.252
			c4.413-17.639-0.081-35.725-11.729-47.197c-4.72-4.65-10.539-7.627-16.166-10.508c-6.405-3.277-13.028-6.668-17.87-12.52
			c-4.495-5.432-7.599-12.016-9.157-19.008v5.537c1.801,5.268,4.492,10.188,8.003,14.428c5.038,6.09,11.801,9.551,18.341,12.898
			c5.526,2.828,11.241,5.752,15.797,10.24c11.1,10.934,15.546,28.898,11.326,45.766c-2.86,11.432-9.844,21.307-19.663,27.805
			l0.18,0.271c-12.616,7.812-21.537,19.998-25.146,34.423c-3.675,14.693-1.409,29.938,6.381,42.924
			c6.723,11.209,16.869,19.568,28.965,24.014c-15.959,0.334-31.406,5.684-44.183,15.141v1.852
			c13.753-10.504,30.8-16.07,48.241-15.469l0.008-0.203c0.608,0.174,1.215,0.352,1.832,0.506c4.596,1.148,9.245,1.719,13.863,1.719
			c10.144,0,20.135-2.746,29.06-8.098c12.986-7.789,22.164-20.172,25.84-34.865L118.167,682.507z"/>
		<path fill="#E0E1E0" d="M71.621,235.461c-17.102,0-31.949,11.603-36.105,28.215c-4.983,19.923,7.17,40.186,27.092,45.17
			c2.976,0.744,6.027,1.122,9.067,1.122c10.514,0,20.17-4.39,27.019-11.628c-6.787,10.592-17.078,18.879-29.469,22.993
			c-17.582,5.839-36.043,2.419-50.093-7.583c-1.443-1.213-2.917-2.387-4.432-3.506c-6.236-5.463-11.33-12.365-14.694-20.422v3.614
			c2.229,4.572,5.005,8.752,8.238,12.466c-2.658-1.627-5.411-3.109-8.238-4.46v1.669c4.831,2.355,9.428,5.116,13.728,8.287
			c1.459,1.275,2.973,2.48,4.546,3.6c7.526,6.354,14.037,13.986,19.233,22.723c12.273,20.637,15.812,44.877,9.963,68.255
			c-4.526,18.096-14.5,34.279-28.417,46.389c6.915-9.191,11.85-19.551,14.679-30.863c8.857-35.41-5.654-71.28-33.731-91.28v1.857
			c2.934,2.146,5.714,4.469,8.325,6.953c-2.458-2.168-5.251-4-8.325-5.4v1.652c13.573,6.523,21.192,21.916,17.397,37.084
			c-0.562,2.25-1.365,4.418-2.38,6.475c0.174-0.533,0.341-1.072,0.479-1.623c1.539-6.156,0.59-12.541-2.673-17.98
			c-2.942-4.906-7.456-8.496-12.824-10.285v1.568c4.823,1.727,8.868,5.035,11.538,9.488c3.057,5.096,3.946,11.078,2.504,16.844
			c-1.845,7.371-7.216,13.085-14.042,15.54v1.58c1.966-0.658,3.83-1.553,5.538-2.682l0.43,0.588
			c6.387-4.662,10.963-11.462,12.885-19.147c2.809-11.225-0.362-22.564-7.48-30.656c19.341,20.352,28.207,49.864,20.904,79.062
			c-3.127,12.498-8.86,23.818-17.043,33.645l0.453,0.379c-1.15,0.906-2.32,1.791-3.518,2.645l0.278,0.393
			c-5.502,5.209-9.84,11.75-12.447,19.285v5.502c0.077-0.344,0.14-0.688,0.225-1.029c6.294-25.162,31.888-40.51,57.046-34.217
			c12.188,3.049,22.459,10.662,28.922,21.438s8.343,23.422,5.294,35.611c-0.605,2.416-1.421,4.766-2.393,7.045
			c1.342-11.18-5.822-21.908-17.025-24.711c-1.812-0.453-3.672-0.684-5.523-0.684c-10.423,0-19.471,7.07-22.003,17.195
			c-3.037,12.141,4.369,24.49,16.511,27.527c1.814,0.453,3.674,0.684,5.526,0.684c5.551,0,10.7-2.02,14.695-5.424l0.076,0.072
			c0.164-0.176,0.312-0.361,0.472-0.539c1.983-1.803,3.646-3.965,4.899-6.402c2.822-4.414,4.939-9.279,6.221-14.4
			c3.146-12.576,1.207-25.627-5.463-36.746c-6.668-11.119-17.268-18.975-29.844-22.121c-11.956-2.99-24.003-1.236-34.159,4.055
			c12.35-11.906,21.23-27.135,25.449-43.998c5.946-23.765,2.349-48.407-10.129-69.386c-3.925-6.6-8.582-12.584-13.855-17.877
			c8.147,4.271,17.3,6.608,26.701,6.608c5.982,0,12.068-0.944,18.05-2.93c16.365-5.435,29.16-17.961,35.322-33.49
			c1.166-2.36,2.1-4.873,2.76-7.514c0.045-0.183,0.08-0.365,0.123-0.548c0.855-2.979,1.205-6.093,1.017-9.238
			c0.032-0.504,0.068-1.006,0.088-1.512c0.009-0.213-0.075-0.406-0.212-0.548c-0.427-5.714-2.174-11.293-5.207-16.351
			c-5.117-8.532-13.251-14.56-22.902-16.975C77.709,235.839,74.66,235.461,71.621,235.461z M87.131,514.287
			c-0.399,1.596-0.984,3.102-1.706,4.516c-1.379,2.15-2.937,4.182-4.65,6.08c-3.79,3.424-8.791,5.463-14.191,5.463
			c-1.73,0-3.466-0.215-5.162-0.639c-11.339-2.836-18.256-14.369-15.42-25.709c2.365-9.455,10.814-16.059,20.548-16.059
			c1.729,0,3.465,0.215,5.16,0.639C83.05,491.416,89.968,502.949,87.131,514.287z M107.378,271.531
			c0.009,0.251,0.017,0.503,0.02,0.754c-0.303,4.142-1.07,8.184-2.252,12.071c-0.744,1.64-1.66,3.217-2.75,4.703
			c-4.137,5.645-10.225,9.34-17.142,10.405c-1.332,0.205-2.685,0.31-4.022,0.31c-12.792,0-23.91-9.551-25.859-22.215
			c-1.066-6.916,0.625-13.834,4.763-19.478c4.138-5.645,10.225-9.34,17.141-10.406c1.332-0.205,2.686-0.309,4.021-0.309
			c12.793,0,23.91,9.549,25.861,22.213C107.259,270.231,107.328,270.882,107.378,271.531z M102.3,254.329
			c0.797,1.327,1.49,2.694,2.103,4.089c-5.011-7.583-13.62-12.551-23.104-12.551c-1.412,0-2.842,0.11-4.25,0.327
			c-7.312,1.127-13.748,5.034-18.123,11.001s-6.163,13.28-5.035,20.593c2.062,13.389,13.816,23.486,27.341,23.486
			c1.414,0,2.844-0.11,4.251-0.327c6.114-0.941,11.611-3.833,15.808-8.243c-6.492,9.65-17.458,15.765-29.616,15.765
			c-2.917,0-5.845-0.362-8.702-1.077c-19.121-4.783-30.785-24.23-26.002-43.352c3.988-15.943,18.237-27.079,34.65-27.079
			c2.916,0,5.844,0.362,8.7,1.077C89.583,240.355,97.39,246.141,102.3,254.329z"/>
		<path fill="#E0E1E0" d="M0.005,108.403c0.88-0.596,1.774-1.176,2.694-1.727c13.039-7.821,28.346-10.096,43.098-6.405
			c14.75,3.69,27.181,12.903,35.001,25.943s10.096,28.345,6.406,43.095c-5.564,22.245-23.8,38.907-46.458,42.447l0.015,0.095
			c-2.432,0.474-4.855,1.1-7.255,1.896c-14.559,4.833-26.364,15.047-33.241,28.76c-0.068,0.138-0.129,0.279-0.196,0.418
			c0.569-1.557,1.071-3.151,1.481-4.789c1.838-7.351,1.811-14.734,0.24-21.663l0.071-0.019c-0.117-0.444-0.257-0.878-0.384-1.318
			c-0.408-1.585-0.903-3.141-1.474-4.667v4.973c0.008,0.026,0.017,0.052,0.024,0.079c1.821,7.072,1.959,14.681,0.066,22.25
			c-0.028,0.111-0.062,0.22-0.091,0.331v8.598c0.497-1.185,1.021-2.362,1.603-3.522c6.697-13.354,18.193-23.302,32.372-28.009
			c20.335-6.752,42.334-1.478,57.415,13.759c0.291,0.295,0.766,0.297,1.061,0.006c0.294-0.292,0.297-0.767,0.006-1.061
			c-11.244-11.36-26.232-17.319-41.592-17.082c18.561-6.326,32.917-21.631,37.792-41.121c3.787-15.139,1.452-30.848-6.574-44.231
			c-8.027-13.383-20.785-22.84-35.924-26.627c-15.142-3.789-30.851-1.453-44.233,6.574c-0.653,0.392-1.289,0.804-1.923,1.218
			V108.403z"/>
	</g>
	<path fill="none" stroke="#E0E1E0" stroke-width="2" stroke-miterlimit="10" d="M0.004,541.109
		c4.646-1.828,9.707-2.832,15.001-2.832c22.644,0,41,18.357,41,41c0,22.645-18.356,41-41,41c-5.296,0-10.357-1.004-15.005-2.832"/>
</g>
</svg>
