<?xml version="1.0" encoding="utf-8"?>
<!-- Generator: Adobe Illustrator 16.0.0, SVG Export Plug-In . SVG Version: 6.00 Build 0)  -->
<!DOCTYPE svg PUBLIC "-//W3C//DTD SVG 1.1//EN" "http://www.w3.org/Graphics/SVG/1.1/DTD/svg11.dtd">
<svg version="1.1" xmlns="http://www.w3.org/2000/svg" xmlns:xlink="http://www.w3.org/1999/xlink" x="0px" y="0px" width="356px"
	 height="347.5px" viewBox="0 0 356 347.5" enable-background="new 0 0 356 347.5" xml:space="preserve">
<g id="Layer_1">
</g>
<g id="work_-_bitediabetes">
	<g id="HEADER">
		<g>
			<path fill="#583F2D" d="M223.851,11.672c0,0-1.699-11.178,13.793-9.668c0,0,5.668,0.095,4.348,5.195"/>
			<path fill="#583F2D" d="M11.177,242.777c0,0-10.486-3.592-4.033-17.76c0,0,3.189-2.896,5.684-0.846"/>
			<g>
				<path fill="#4B5C33" d="M174.068,175.732c-2.27-4.785-0.502-55.166-0.502-55.166c7.561-95.729,51.391-110.342,51.391-110.342
					c10.076-0.504,17.131-4.032,17.131-4.032s22.668-8.059,44.838,34.262c22.17,42.322,24.688,42.827,28.719,47.36
					c4.031,4.535,51.211,50.947,29.73,120.92c-17.639,57.437-82.319,58.067-82.319,58.067s8.125-78.976-91.258-90.689
					L174.068,175.732z"/>
			</g>
			<g>
				<path fill="#5C7140" d="M210.644,154.548c-0.758-5.479,0.025-42.251,0.025-42.251c7.252-91.888,17.244-102.072,17.244-102.072
					c9.674-0.485,14.424-5.04,14.424-5.04s22.973-6.754,44.254,33.873c21.28,40.624,23.698,41.107,27.569,45.462
					c3.869,4.354,54.129,50.64,28.529,116.07c-17.469,44.674-60.473,38.613-68.061,28.779c-7.584-9.841-5.287-34.518-55.166-56.433
					C209.886,167.018,210.644,154.548,210.644,154.548z"/>
			</g>
			<g>
				<path fill="#C5CA70" d="M176.67,341.494c-13.298,0-22.793-2.012-22.887-2.032c-25.748-5.534-53.309-16.355-54.709-16.908
					c-44.028-19.083-64.883-39.848-74.63-53.911c-9.182-13.249-10.439-23.146-10.609-25.389c2.468-9.031,1.9-16.456,1.72-18.173
					c0.114-1.941,2.286-20.714,43.422-27.037c42.885-6.591,48.541-9.152,53.532-11.413c0.509-0.23,1.008-0.457,1.551-0.685
					c0.268-0.111,0.652-0.282,1.146-0.502c16.802-7.482,34.136-11.276,51.521-11.276c24.224,0,46.875,7.527,67.324,22.373
					c45.634,33.125,26.995,90.187,26.801,90.759c-7.153,20.502-19.959,35.458-38.049,44.417c-16.318,8.081-34.09,9.777-46.126,9.777
					C176.673,341.494,176.672,341.494,176.67,341.494z"/>
				<g>
					<path fill="#5C7140" d="M166.727,178.31c23.332,0,45.164,7.262,64.892,21.583c17.895,12.989,27.633,31.203,28.946,54.136
						c0.996,17.413-3.426,31.301-3.628,31.924c-6.8,19.452-18.902,33.6-35.971,42.053c-15.602,7.727-32.699,9.348-44.295,9.348
						c-12.793,0-21.927-1.921-22.021-1.94c-25.123-5.4-52.077-15.932-53.99-16.686c-42.531-18.446-62.799-38.31-72.311-51.729
						c-8.323-11.742-9.991-20.642-10.319-23.398c2.259-8.722,1.928-15.876,1.693-18.472c0.148-1.034,0.911-4.484,4.714-8.5
						c4.593-4.85,14.423-11.301,35.17-14.49c43.447-6.677,49.123-9.247,54.611-11.732c0.473-0.215,0.938-0.426,1.438-0.636
						c0.29-0.122,0.704-0.305,1.235-0.541C133.159,181.982,149.926,178.31,166.727,178.31 M166.727,170.026
						c-29.308,0-50.987,10.728-54.268,12.101c-5.594,2.344-6.887,4.565-54.111,11.823c-47.219,7.259-46.939,31.317-46.939,31.317
						s1.047,7.816-1.74,17.51c0,0-0.295,45.431,87.82,83.603c0,0,28.463,11.336,55.42,17.13c0,0,9.797,2.126,23.762,2.126
						c27.47,0,71.083-8.219,88.105-57.009c0,0,20.338-60.139-28.291-95.438C211.959,175.386,187.438,170.026,166.727,170.026
						L166.727,170.026z"/>
				</g>
			</g>
			<g>
				<path fill="#F0ED82" d="M241.792,282.254c0,0,14.023-41.467-19.305-65.736c-40.6-29.565-81.256-9.107-85.094-7.482
					c-3.846,1.619-4.738,3.149-37.146,8.205c-32.414,5.053-32.254,21.635-32.254,21.635s-1.242,4.373-1.209,12.075
					c0,0-0.316,31.837,60.109,58.044c0,0,34.461,11.625,38.072,11.209C164.966,320.203,224.091,333,241.792,282.254z"/>
			</g>
			<g>
				<path fill="#996A34" d="M125.3,254.961c0,0,9.383-24.686,46.572-31.048c37.191-6.357,46.027,22.764,46.23,32.085
					c0.348,15.523-5.518,46.23-41.051,46.23C177.052,302.229,133.58,304.642,125.3,254.961z"/>
			</g>
			<g>
				<path fill="#D49443" d="M133.939,254.98c0,0,7.969-20.973,39.559-26.373c31.596-5.402,39.094,19.338,39.268,27.254
					c0.293,13.185-4.689,39.268-34.871,39.268C177.894,295.129,140.97,297.182,133.939,254.98z"/>
			</g>
			<path fill="#F3AC5D" d="M154.496,243.02c0,0,31.988-22.201,42.498-1.937c0,0-5.74,6.856-10.83,5.427
				C181.076,245.084,176.505,237.027,154.496,243.02z"/>
			<path fill="#4B5C33" d="M251.533,24.204c0,1.774-1.443,3.213-3.213,3.213c-1.773,0-3.211-1.438-3.211-3.213
				c0-1.772,1.438-3.21,3.211-3.21C250.089,20.994,251.533,22.432,251.533,24.204z"/>
			<path fill="#4B5C33" d="M260.32,19.672c0,1.098-0.891,1.983-1.988,1.983c-1.096,0-1.98-0.886-1.98-1.983
				c0-1.099,0.885-1.984,1.98-1.984C259.429,17.688,260.32,18.573,260.32,19.672z"/>
			<path fill="#4B5C33" d="M246.996,15.514c0,1.461-1.186,2.646-2.643,2.646c-1.463,0-2.648-1.185-2.648-2.646
				s1.186-2.646,2.648-2.646C245.81,12.867,246.996,14.053,246.996,15.514z"/>
		</g>
	</g>
</g>
</svg>
