<?xml version="1.0" encoding="utf-8"?>
<!-- Generator: Adobe Illustrator 16.0.0, SVG Export Plug-In . SVG Version: 6.00 Build 0)  -->
<!DOCTYPE svg PUBLIC "-//W3C//DTD SVG 1.1//EN" "http://www.w3.org/Graphics/SVG/1.1/DTD/svg11.dtd">
<svg version="1.1" xmlns="http://www.w3.org/2000/svg" xmlns:xlink="http://www.w3.org/1999/xlink" x="0px" y="0px" width="359px"
	 height="238px" viewBox="0 0 359 238" enable-background="new 0 0 359 238" xml:space="preserve">
<g id="Layer_1">
</g>
<g id="Isolation_Mode">
	<g>
		<path fill="#2E8F84" d="M303.373,9.252c0,0-47.814,46.194-59.21,36.276C229.446,32.72,232.618,13.812,232.521,0
			c0,0-20.141,49.175-37.845,49.107c-20.222-0.079-42.976-31.435-42.976-31.435s7.107,46.53-17.18,36.595
			c-14.093-5.769-27.504-25.807-27.504-25.807s4.978,28.117-6.467,32.173c-13.219,4.686-33.157-18.872-34.369-22.053
			c-1.21-3.181,3.384,31.092-54.912-1.955c0,0,27.206,28.391,15.319,45.792C21.822,89.399,0,90.849,0,90.849
			s53.146,27.711,26.024,43.429L1.072,148.65c0,0,64.596-19.569,23.093,28.847L10.721,200.98c0,0,54.097-48.042,80.01-34.102
			c0,0,20.447,16.052,3.239,46.901c0,0,18.05-40.785,52.379-23.271c0,0,20.412,14.384,21.436,44.619c0,0,18.601-52.48,45.784-41.807
			c0,0,16.731-5.088,28.346,44.104c0,0-13.264-64.459,57.149-34.434l35.748,20.108c-2.922-4.475-7.928-13.108-10.201-18.053
			c-4.008-8.707-8.527-19.238-9.152-29.178c-0.346-5.476,0.934-13.19,3.801-17.669c3.332-5.199,6.219-5.472,11.348-6.676
			c9.01-2.119,18.004-4.326,27.012-6.458c0,0-45.801-14.701-35.887-40.749l35.852-51.92c0,0-36.146,17.55-52.375,6.253
			C305.209,58.651,273.962,51.599,303.373,9.252z"/>
		<path fill="#EBD23E" d="M300.092,2.687c0,0-46.188,44.633-57.199,35.051c-11.011-9.583-11.962-35.002-11.962-35.002
			s-18.742,38.521-35.845,38.455c-19.533-0.072-41.512-30.36-41.512-30.36s6.862,44.944-16.597,35.346
			c-13.61-5.566-26.571-24.927-26.571-24.927s4.812,27.165-6.245,31.078c-12.772,4.527-32.031-18.232-33.199-21.305
			c-1.166-3.073-1.403,37.678-57.724,5.75c0,0,42.535,33.322,21.134,39.809c-19.485,5.903-27.889,8.434-27.889,8.434
			s51.88,23.266,25.683,38.461L8.06,137.352c0,0,62.408-18.904,22.313,27.867l-11.657,14.286c0,0,44.243-32.072,69.274-18.609
			c0,0,23.507,18.554,6.888,48.356c0,0,19.253-46.685,52.42-29.765c0,0,20.562,15.794,21.553,44.999c0,0,24.166-47.022,50.42-36.714
			c0,0,11.086-1.619,22.311,45.904c0,0-7.804-63.246,54.355-43.828l32.31,15.744c-2.822-4.32-5.443-8.985-7.643-13.759
			c-3.869-8.412-8.234-18.583-8.844-28.188c-0.33-5.288,0.906-12.744,3.678-17.07c3.213-5.019,6.004-5.285,10.961-6.448
			c8.705-2.044,12.875-3.941,21.58-5.997c0,0-36.951-15.258-26.838-35.443l26.207-43.484c0,0-29.809,6.122-45.481-4.788
			C301.868,50.414,271.678,43.597,300.092,2.687z"/>
		<g>
			<path fill="#010101" d="M311.152,41.479l0.076,0.1C311.228,41.579,311.228,41.531,311.152,41.479z"/>
		</g>
		<g>
			<g>
				<g>
					<path fill="#98247F" d="M323.912,117.583c-0.564-7.268-1.947-17.161-4.867-20.095c-0.082-0.081-0.178-0.154-0.277-0.221
						c0.08,0.026,0.135,0.054,0.174,0.079l-0.438-0.596c-2.428-4.298-6.561-7.426-10.811-9.481c-0.26-0.126-0.524-0.252-0.779-0.376
						c-4.08-2.402-8.641-4.361-13.298-6.015c-6.867-2.811-14.028-5.147-21.226-6.177c-0.355-0.096-0.709-0.194-1.054-0.285
						c-14.084-11.086-28.226-21.863-42.678-32.454c-10.628-8.183-24.065-13.039-37.658-12.708
						c-21.622-0.049-41.289,4.811-55.589,9.359c0,0-8.343,3.495-11.047,5.272c-18.715,12.265-37.553,32.329-54.499,47.428
						c-0.399,0.729-0.713,1.397-0.967,2.029l-0.524,0.506l-6.149-2.556l3.658,4.461l-7.274-3.161l7.674,10.538L38.227,91.176
						l1.772,2.618l-7.618-1.676l18.127,17.106l-38.833-10.32l2.163,2.364l-8.917-1.564l70.623,32.104l0.373,0.914
						c3.313,8.027,7.015,19.79,15.79,23.471c4.744,1.99,12.471-1.27,14.171-6.341c0.003-0.372,0-0.749-0.005-1.13
						c20.675,2.938,35.922,14.557,58.741,23.211c3.422,11.756,9.324,22.306,22.096,25.512c7.973,2,19.296,1.746,24.97-5.188
						c2.518-3.079,3.034-6.9,3.812-10.656c0.932,0.698,2.265,1.342,3.047,2.227c2.849,3.217,20.421,1.72,29.744,1.17
						c16.139-0.942,36.085-3.89,50.537-13.629c0.856,3.91,1.155,7.544,1.571,7.602c4.233,0.586,16.924-11.789,21.391-17.857
						c0.574-0.785,0.074-4.025-0.973-6.986c0.688-0.484,1.82-1.507,3.582-3.693c4.85-6.018,2.871-17.801,3.635-23.549
						C328.613,122.44,324.763,118.417,323.912,117.583z M124.347,89.081c0.26,1.429,0.708,2.746,1.319,3.92
						c-0.669-1.174-1.152-2.518-1.426-4.029c-0.249-1.379-0.608-2.879-1.013-4.454C123.696,86.16,124.098,87.709,124.347,89.081z
						 M99.346,134.411c-0.02-0.025-0.038-0.05-0.055-0.07c0.763,0,1.515,0,2.269,0.007c0.501,0.005,0.998,0.009,1.496,0.011
						c0.595,0.009,1.189,0.016,1.781,0.024c0.54,0.009,1.094,0.014,1.63,0.028c0.797,0.018,1.584,0.04,2.372,0.061
						c3.954,0.111,7.759,0.297,11.466,0.54c1.282,0.086,2.552,0.179,3.819,0.278c0.972,0.077,1.942,0.15,2.91,0.233
						c0.146,0.016,0.289,0.03,0.438,0.044C118.641,134.821,109.615,134.396,99.346,134.411z M137.915,98.779
						c0.797,0,1.624,0.023,2.486,0.057c0.002,0.017,0.01,0.031,0.012,0.042C139.598,98.854,138.763,98.818,137.915,98.779z
						 M323.656,124.412c0.199-0.573,0.338-1.159,0.416-1.751c0.014,0.219,0.029,0.441,0.047,0.681
						C323.974,123.705,323.818,124.063,323.656,124.412z"/>
					<path fill="#FDFEFF" d="M70.06,88.343l-6.128-2.409l2.452,3.969l-7.015-3.089l6.146,9.529l-26.8-11.269l2.833,4.237
						l-8.695-3.145l16.898,16.885L9.342,92.23l4.228,3.245L3.495,94.748l73.868,32.434l0.375,0.913
						c2.639,7.791,8.647,22.219,17.626,24.313c3.744,0.875,9.711-1.948,9.788-6.343c0.008-0.37,0.007-0.747-0.005-1.129
						c20.593,2.933,38.422,13.732,61.167,22.363c3.07,10.554,8.422,20.834,19.286,25.018c8.11,3.12,18.865,3.071,25.414-3.367
						c2.613-2.57,7.073-8.117,6.11-12.089c0.885,0.914,2.208,1.392,3.044,2.331c2.847,3.221,20.396,1.72,29.705,1.174
						c16.12-0.941,36.041-3.89,50.472-13.631c0.855,3.906,1.151,7.545,1.568,7.602c4.229,0.586,15.953-10.418,20.41-16.489
						c0.574-0.782-0.24-4.85-1.289-7.812c0.686-0.482,3.09-2.049,4.85-4.233c4.844-6.021,2.867-17.803,3.629-23.55
						c0.588-4.447-3.252-8.471-4.109-9.305c-0.559-7.27-1.939-17.158-4.855-20.094c-0.084-0.08-0.18-0.154-0.279-0.223
						c0.082,0.027,0.133,0.055,0.178,0.08l-0.441-0.592c-2.424-4.301-6.547-7.429-10.797-9.483
						c-0.258-0.128-0.521-0.251-0.777-0.377c-4.076-2.403-8.629-4.362-13.279-6.017c-6.857-2.811-14.007-5.144-21.196-6.174
						c-0.354-0.094-0.705-0.19-1.052-0.285c-14.07-11.087-28.19-21.865-42.623-32.459c-10.612-8.177-24.032-13.036-37.606-12.703
						c-21.593-0.047-41.236,4.812-55.517,9.362c0,0-8.335,3.495-11.039,5.271c-18.69,12.267-37.501,32.329-54.426,47.432
						 M126.104,84.453c0.261,1.426,0.707,2.743,1.319,3.919c-0.665-1.176-1.152-2.519-1.426-4.029
						c-0.25-1.379-0.608-2.881-1.007-4.455C125.456,81.53,125.854,83.075,126.104,84.453z M101.134,129.782
						c-0.017-0.025-0.034-0.048-0.051-0.075c0.758,0.002,1.514,0.006,2.263,0.011c0.502,0.005,1,0.009,1.493,0.01
						c0.595,0.012,1.188,0.02,1.781,0.026c0.542,0.009,1.091,0.015,1.628,0.028c0.796,0.015,1.583,0.041,2.368,0.061
						c3.953,0.114,7.748,0.296,11.453,0.541c1.28,0.085,2.549,0.175,3.814,0.272c0.971,0.079,1.941,0.154,2.904,0.238
						c0.147,0.017,0.294,0.03,0.439,0.046C120.406,130.191,111.392,129.769,101.134,129.782z M139.654,94.149
						c0.793,0.003,1.621,0.02,2.48,0.058c0.008,0.015,0.012,0.028,0.018,0.046C141.334,94.226,140.501,94.188,139.654,94.149z
						 M325.152,119.782c0.199-0.577,0.34-1.165,0.414-1.754c0.014,0.217,0.031,0.438,0.043,0.677
						C325.47,119.071,325.316,119.426,325.152,119.782z"/>
					<path fill="#FDFEFF" d="M321.22,92.724l0.102,0.145C321.322,92.868,321.324,92.797,321.22,92.724z"/>
				</g>
				<path fill="#EAEAE8" d="M178.927,100.194c0.918-1.734-26.386-41.973-34.408-44.01c-0.226-0.062-3.453-3.168-12.007-0.752
					c-8.56,2.416-9.879,3.343-10.492,4.563c-2.787,5.526,2.921,17.794,4.275,25.136c1.068,5.788,5.245,9.748,11.553,9.508
					C151.092,94.138,178.927,100.194,178.927,100.194z"/>
				<path fill="#EAEAE8" d="M270.781,70.91c-2.957-0.313-19.368-14.812-42.924-31.421c-0.186-0.133-29.26-3.778-37.764-1.38
					c-8.51,2.399-25.253,2.703-25.416,3.201c-1.921,5.833-19.062,0.155-17.714,7.44c1.062,5.752,31.164,39.745,37.429,39.508
					C197.563,87.765,270.781,70.91,270.781,70.91z"/>
				<path fill="#2E8F84" d="M142.729,54.669c1.091,6.811,1.354,14.688,3.432,20.49c2.443,6.803,6.726,19.303,11.009,21.622
					c3.885,2.106,22.586,3.472,22.586,3.472c1.24-1.719-19.883-30.459-31.975-42.809C146.469,56.17,144.379,55.287,142.729,54.669"
					/>
				<path fill="#2E8F84" d="M168.707,147.681c2.462-7.99,10.468-12.062,18.568-10.812c11.537,1.785,19.33,10.818,23.074,21.383
					c3.895,11,4.483,29.392-11.459,33.291c-8.694,0.904-14.412-1.826-20.158-8.019"/>
				<path fill="#525353" d="M198.12,149.634c-3.563-6.544-11.734-13.012-19.577-12.33c-6.954,0.605-11.818,7.416-11.758,14.626
					c0.115,13.649,5.066,30.572,17.953,37.422c12.154,5.134,18.983-3.376,19.394-14.683
					C204.464,165.746,202.123,156.984,198.12,149.634z"/>
				<path fill="#2E8F84" d="M85.345,135.725c0,0-0.752-5.57,2.29-7.272c10.128-5.689,16.385,6.434,16.24,15.43
					c0,0-0.704,5.698-6.818,6.742c-4.052,0.478-7.826-5.742-7.826-5.742"/>
				<path fill="#525353" d="M89.504,128.13c8.028-0.998,12.525,10.923,11.748,16.846c-0.563,2.846-3.521,6.145-6.233,5.156
					c-4.524-1.645-10.041-10.915-9.571-16.563C85.711,131.37,86.184,129.39,89.504,128.13z"/>
				<path fill="#525353" d="M318.683,93.382c-3.199-3.176-19.034,4.571-24.997,6.336c-8.195,2.427-20.332,5.847-27.465,11.756
					c0,0,0.515,2.344,4.604,7.659c2.906,3.777,6.206,10.812,9.038,15.971c0,0,2.199,5.263,2.36,5.458
					c1.5,1.768,21.614-3.924,28.848-8.696c5.801-3.824,12.945-9.134,12.65-15.241C323.386,109.697,322.101,96.774,318.683,93.382z"
					/>
				<path fill="#2E8F84" d="M317.095,99.142c-2.668-0.434-11.375,4.196-11.97,6.148c-0.135,0.432,1.037,5.197,1.564,5.639
					c0.486,0.404,0.683,0.753,2.769,0.197c0.717-0.197,9.346-4.949,9.328-5.517C318.769,105.038,317.798,99.253,317.095,99.142z"/>
				<path fill="#2E8F84" d="M299.532,106.719c-7.085,1.179-22.97,7.432-23.017,8.854c-0.051,1.422,2.568,6.275,3.547,6.078
					c6.856-1.364,13.784-4.145,21.142-7.004c0,0,1.028-0.467,0.105-3.416C301.31,111.231,300.066,106.633,299.532,106.719z"/>
				<path fill="#2E8F84" d="M319.929,111.355c0,0,1.514,4.604-1.443,8.109c0,0-6.99,5.731-8.098,5.405
					c-0.699-0.211-1.248-3.654-1.248-3.654s-0.697-2.42-0.574-4.094C308.623,116.303,319.273,109.247,319.929,111.355z"/>
				<path fill="#2E8F84" d="M303.581,119.084c0.489,0.2,2.789,7.399,2.373,7.839c-0.726,0.762-2.488,1.407-4.003,1.943
					c-10.739,3.831-12.264,5.242-16.2,4.37c-0.753-0.169-3.902-5.963-3.537-6.335c0.357-0.373,8.973-3.504,10.59-4.194
					C294.418,122.015,303.093,118.89,303.581,119.084z"/>
				<path fill="#010101" d="M83.334,134.553c0.221,1.579,0.786,3.304,1.752,5.179c-1.788-1.52-3.519-5.373-3.519-5.373
					C82.277,134.436,82.627,134.474,83.334,134.553z"/>
				<path fill="#010101" d="M104.625,136.057c22.312,1.947,37.688,5.854,59.516,10.798c-1.139,4.619-0.406,12.38,0.121,17.125
					c-23.199-8.653-37.312-18.049-58.455-20.747C105.585,140.894,105.39,138.871,104.625,136.057z"/>
				<path fill="#4CBAB6" d="M79.552,129.122c0,0,1.709,1.215,3.944,0.91c0.864-1.567,2.94-3.189,4.542-4.053
					c2.686-1.443,6.104-1.262,9.152,0.521c0.771,0.391,1.507,0.91,2.144,1.595c0.612,0.564,0.686,0.574,1.227,1.284
					c23.866-0.078,40.333,2.272,63.971,5.44c0,0,0.885,2.118,4.076,2.715c5.201-3.876,10.966-3.934,17.188-3.563
					c6.212,0.408,12.675,2.592,16.876,7.363c4.395,0.667,6.599,1.009,11.02,1.71c10.341,1.981,21.049,4.199,31.616,4.088
					c12.474-1.154,24.755-3.434,36.841-6.701c-3.434-9.638-8.914-18.364-14.353-25.375c0,0-3.888-4.846,1.54-6.598
					c14.935-5.468,32.707-14.364,48.615-15.588c-9.254-13.406-32.055-18.15-46.413-22.059
					c-13.888-10.815-27.929-21.409-42.178-31.744c-10.502-8-23.779-12.753-37.212-12.429c-21.366-0.051-40.799,4.696-54.926,9.142
					c0,0-8.247,3.418-10.922,5.154c-18.489,11.992-38.215,32.944-54.957,47.708c-2.864,5.151,2.324,0.21,0.327,11.957
					c1.448,8.253,1.676,7.141,3.057,15.401C76.126,120.519,78.062,124.634,79.552,129.122z M182.817,87.667
					c-11.036-12.799-20.64-21.85-30.753-35.366c0,0-2.246-2.407-2.312-4.214c24.591-5.816,52.53-12.904,77.755-8.232
					c13.999,9.982,29.492,20.719,42.473,32.002C241.244,77.778,212.014,84.699,182.817,87.667z M129.406,86.739
					c-3.562-6.548-4.054-14.715-4.666-22.684c-0.179-2.336,1.171-6.686,6.736-7.795c8.865-1.769,10.925-0.668,11.154-0.654
					c7.68,0.388,16.711,18.689,28.598,34.629c1.355,1.165-19.264,3.858-32.46,2.777C133.348,92.569,131.84,91.226,129.406,86.739z"
					/>
				<path fill="#2E8F84" d="M10.441,95.972c0.515,1.668,69.138,28.4,69.11,33.15c3.737-0.034,0.804,1.05,1.701-0.395
					c0.29,0.01,2.128-1.395,2.221-1.432c0.223-0.114,0.446-0.23,0.662-0.344c1.826-0.98,2.91-3.91,5.065-3.398
					c0.098,0.01,1.454-0.637,1.562-0.621c0.132-0.289,1.105-2.154,1.199-2.311c1.999,0.879,9.156,5.737,11.664,7.039
					c2.829,0.023,2.164,2.774,4.816,2.86c-0.322-1.295-0.868-3.405-1.04-4.112c4.517,1.25,8.527,3.169,13.084,4.538
					c1.598,0.164,3.085,0.358,4.531,0.568c3.719,0.317,7.404,0.698,11.14,1.128c-0.346-1.251-0.822-2.982-1.121-4.031
					c0,0,3.891,2.784,6.957,4.727c3.178,0.428,4.426,0.546,7.623,1.004c0,0,0.47-0.146,1.744,0.21
					c2.984,0.394,6.059,0.808,9.271,1.24c0,0,0.351,0.832,1.403,1.605c1.291,0.318,2.415,0.576,3.214,0.731
					c1.035-0.714,0.514-0.062,1.594-0.512c3.963-1.966,6.258-5.385,9.177-5.57c0.791,0.031,2.681,1.148,3.471,1.217
					c0.712,0.027,1.624-1.043,2.347-0.999c6.147,0.401,12.689-1.431,16.9,3.247c0.052,0.045,4.431,2.996,4.479,3.044
					c1.43,0.218-0.114,1.916,1.005,2.087c1.363,0.098,0.283,2.316,3.54,2.724c0,0,5.522,1.064,12.659,2.242
					c-1.902-1.267-2.854-1.896-4.747-3.149c-14.021-9.544-30.831-22.399-45.346-31.34c1.805,4.085,7.422,9.894,9.249,14.1
					c-10.523-6.657-29.325-15.759-40.179-21.965l8.512,13.982c-12.512-5.541-36.7-16.752-49.539-21.619l5.422,13.09
					c-7.433-3.82-34.278-16.189-41.869-19.746l11.084,14.99c0,0-29.204-12.896-34.896-14.915
					c0.493,2.169,16.995,17.541,16.995,17.541"/>
				<path fill="#53438F" d="M14.344,94.999c0.516,1.674,65.236,29.373,65.208,34.123c3.737-0.034,4.708,0.08,5.601-1.362
					c0.289,0.004,2.126-1.4,2.221-1.437c0.223-0.114,0.448-0.228,0.664-0.344c1.825-0.98,3.988-1.209,6.14-0.699
					c0.1,0.015,0.2,0.021,0.308,0.033c0.132-0.286,0.47-0.863,0.564-1.018c2,0.878,6.578,3.79,9.085,5.092
					c2.829,0.02,5.554,0.072,8.211,0.16c-0.324-1.293-0.871-3.408-1.044-4.112c4.519,1.251,8.53,3.17,13.085,4.536
					c1.596,0.167,3.085,0.36,4.532,0.57c3.716,0.319,7.402,0.702,11.142,1.129c-0.349-1.252-0.824-2.983-1.123-4.033
					c0,0,3.891,2.787,6.955,4.73c3.178,0.425,4.426,0.543,7.626,1c0,0,0.466-0.143,1.743,0.209c2.984,0.394,6.057,0.813,9.27,1.242
					c0,0,0.352,0.833,1.404,1.604c1.291,0.319,2.414,0.581,3.212,0.737c1.034-0.718,0.518-0.064,1.594-0.516
					c3.964-1.966,7.614-2.753,10.532-2.938c0.793,0.036,1.588,0.092,2.377,0.161c0.712,0.024,1.425,0.064,2.146,0.104
					c6.147,0.404,12.538,2.549,16.744,7.22c0.052,0.053,0.106,0.098,0.154,0.144c1.428,0.22,2.629,0.4,3.746,0.574
					c1.362,0.097,1.965,0.079,5.222,0.485c0,0,5.521,1.066,12.654,2.244c-1.902-1.271-2.847-1.896-4.739-3.146
					c-14.025-9.544-30.833-22.407-45.351-31.345c1.808,4.084,7.421,9.897,9.251,14.099c-10.523-6.656-29.325-15.756-40.181-21.962
					l8.514,13.979c-12.512-5.539-36.7-16.749-49.539-21.615l11.998,14.552c-7.435-3.822-40.854-17.653-48.445-21.211l18.986,18.416
					c0,0-37.107-16.32-42.796-18.34c0.489,2.171,24.899,20.966,24.899,20.966"/>
				<path fill="#6F7072" d="M202.672,141.334c0,0,3.139,0.233,11.702,1.364c9.43,1.25,20.555,4.342,30.555,3.883
					c12.646-0.575,25.487-3.115,37.899-6.521c1.652-0.357,2.479-0.538,4.129-0.903c9.043,0.446,17.717-4.167,25.238-8.438
					c4.781-2.718,9.436-6.774,11.502-12.057c-0.154-2.319-0.232-3.476-0.373-5.793c0,0,4.889,4.377,4.236,9.264
					c-0.75,5.619,1.207,17.137-3.586,23.023c-3.295,4.055-4.395,4.035-4.395,4.035s0.154-1.112-0.756-1.402
					c-0.855-0.275-3.414,1.24-5.967,3.218c-3.75,2.905-8.003,5.374-12.153,7.801c0,0-1.826,0.95-1.444,2.421
					c0.197,1.474,0.301,2.216,0.508,3.7c-14.346,10.093-34.651,13.071-50.994,14.015c-9.211,0.531-26.381-0.145-29.196-3.291
					C215.564,171.17,212.455,150.352,202.672,141.334z"/>
				<path fill="#6F7072" d="M104.539,136.57c-0.094-0.816-0.466-1.783-0.943-2.74c-0.125-0.315-0.251-0.621-0.385-0.935
					c-0.562-1.3-1.238-2.449-1.993-3.446c23.884-0.053,40.901,2.269,64.563,5.444c0,0,3.74,0.522,5.428,1.583
					c0,0-5.651,4.376-7.081,11.156c-21.829-4.938-37.209-8.85-59.515-10.796C104.59,136.747,104.562,136.656,104.539,136.57z"/>
				<path fill="#010101" d="M318.683,93.382c0,0,0.084-1.627-12.999,2.721c-12.396,4.118-28.641,7.699-38.653,14.841
					c-1.787,1.277,4.146,8.239,4.146,8.239c-4.889,0.479-7.33,0.713-12.22,1.17c-6.372-7.307-19.346-8.618-26.272-10.575
					c-13.25-3.745-32.46-18.289-49.989-22.331c29.729-5.825,59.59-10.962,89.388-16.431c12.322,1.643,24.558,7.181,35.382,12.37
					c4.201,2.012,8.283,5.074,10.684,9.277"/>
				<path fill="#EAEAE8" d="M264.168,129.521c0.724-2.371-7.441-16.593-17.075-19.619c-9.507-2.996-21.468-2.248-24.267,0.28
					c-1.659,1.504-0.194,10.016,2.968,13.841c3.46,4.183,8.745,9.061,13.867,9.756C247.796,134.89,263.688,131.111,264.168,129.521z
					"/>
				<path fill="#6F7072" d="M79.552,129.122c1.902-0.198,2.855-0.297,4.768-0.473c-0.907,1.635-1.309,3.614-0.985,5.903
					c-0.707-0.079-1.057-0.117-1.767-0.194C80.094,131.707,79.552,129.122,79.552,129.122z"/>
				<path fill="#53438F" d="M160.379,83.191c0,0,2.298-2.684,3.684,1.448c0,0,0.461,3.041-2.904,1.854c0,0,0.918,7.757-1.156,8.994
					c-4.529,2.703-10.977,4.574-16.341,2.732c-3.074-4.953-2.554-12.951-1.691-18.436c0,0-0.218-3.742,9.26-5.854
					c0,0,5.049-1.037,6.46,0.934C159.098,76.831,160.379,83.191,160.379,83.191z"/>
				<path fill="#525353" d="M325.681,125.174c-3.031,2.286-12.537,10.833-22.767,15.6c-18.803,8.765-36.625,11.196-57.114,14.666
					c0,0-1.759,0.649-1.141,1.689c2.072,3.505,13.646,8.897,18.896,8.956c10.504,0.129,24.397-3.503,35.051-8.828
					c8.992-4.492,18.505-10.558,25.578-17.885C324.183,139.372,326.337,124.678,325.681,125.174z"/>
				<path fill="#2E8F84" d="M318.228,149.19c-5.838,3.891-11.712,7.742-17.608,11.559c0,0,2.26,11.226,2.863,11.304
					c3.382,0.463,13.534-9.329,17.104-14.137C321.335,156.915,318.228,149.19,318.228,149.19z"/>
			</g>
			<path fill="#4CBAB6" d="M91.295,133.667c3.972-0.493,6.195,5.402,5.809,8.332c-0.277,1.406-1.739,3.038-3.081,2.549
				c-2.236-0.815-4.963-5.396-4.735-8.186C89.421,135.271,89.655,134.292,91.295,133.667z"/>
			<path fill="#4CBAB6" d="M189.77,158.928c-1.742-3.196-5.734-6.36-9.571-6.027c-3.397,0.295-5.775,3.628-5.746,7.151
				c0.056,6.674,2.476,14.951,8.774,18.294c5.943,2.511,9.281-1.652,9.484-7.179C192.871,166.807,191.727,162.521,189.77,158.928z"
				/>
			<path fill="#2E8F84" d="M230.791,40.354c0,0-32.35-7.89-81.039,7.732c-0.925-0.807-19.829-10.783-71.872,34.825
				c0,0,22.571-24.085,48.215-41.464c10.605-7.19,37.126-12.65,54.669-14.578C180.764,26.87,215.029,23.052,230.791,40.354"/>
			<polygon fill="#FFFFFF" points="198.112,39.146 237.69,77.196 252.443,74.492 209.484,38.755 			"/>
			<polygon fill="#FFFFFF" points="216.181,38.888 256.839,73.766 259.675,73.183 219.279,39.091 			"/>
			<path fill="#FFFFFF" d="M226.017,112.042c0,0,17.499-0.571,22.046,2.691c4.551,3.262,8.976,10.016,8.976,10.016L226.017,112.042z
				"/>
		</g>
	</g>
</g>
</svg>
