<?xml version="1.0" encoding="utf-8"?>
<!-- Generator: Adobe Illustrator 16.0.0, SVG Export Plug-In . SVG Version: 6.00 Build 0)  -->
<!DOCTYPE svg PUBLIC "-//W3C//DTD SVG 1.1//EN" "http://www.w3.org/Graphics/SVG/1.1/DTD/svg11.dtd">
<svg version="1.1" xmlns="http://www.w3.org/2000/svg" xmlns:xlink="http://www.w3.org/1999/xlink" x="0px" y="0px" width="570px"
	 height="135px" viewBox="0 0 570 135" enable-background="new 0 0 570 135" xml:space="preserve">
<g id="Layer_1">
</g>
<g id="work_-_bitediabetes">
	<g>
		<g>
			<path fill="#583F2D" d="M84.567,6.193c0,0-0.643-4.228,5.217-3.656c0,0,2.144,0.036,1.644,1.967"/>
			<path fill="#583F2D" d="M4.123,93.609c0,0-3.966-1.357-1.526-6.717c0,0,1.207-1.096,2.149-0.32"/>
			<g>
				<path fill="#4B5C33" d="M65.736,68.25c-0.858-1.811-0.19-20.867-0.19-20.867c2.858-36.21,19.438-41.737,19.438-41.737
					c3.812-0.19,6.479-1.524,6.479-1.524s8.576-3.048,16.96,12.96c8.386,16.008,9.338,16.198,10.863,17.913
					c1.526,1.716,19.37,19.271,11.245,45.739c-6.671,21.725-31.137,21.963-31.137,21.963s3.073-29.871-34.518-34.304L65.736,68.25z"
					/>
			</g>
			<g>
				<path fill="#5C7140" d="M79.571,60.236c-0.287-2.071,0.008-15.98,0.008-15.98c2.744-34.758,6.524-38.609,6.524-38.609
					c3.658-0.183,5.455-1.906,5.455-1.906s8.69-2.555,16.739,12.812c8.049,15.365,8.964,15.549,10.428,17.196
					c1.464,1.646,20.474,19.153,10.792,43.904c-6.608,16.897-22.874,14.606-25.744,10.886c-2.87-3.723-2-13.057-20.867-21.345
					C79.285,64.953,79.571,60.236,79.571,60.236z"/>
			</g>
			<g>
				<path fill="#C5CA70" d="M66.719,130.95c-5.03,0-8.619-0.761-8.655-0.769c-9.956-2.14-20.609-6.363-20.716-6.405
					c-30.16-13.066-32.1-28.18-32.222-29.979c0.936-3.418,0.72-6.23,0.652-6.881c0.043-0.735,0.866-7.835,16.425-10.228
					c16.226-2.493,18.363-3.462,20.25-4.317c0.192-0.087,0.38-0.173,0.585-0.259c0.101-0.042,0.247-0.106,0.434-0.19
					c6.355-2.829,12.912-4.264,19.486-4.264c9.163,0,17.731,2.848,25.467,8.463c17.218,12.498,10.433,33.445,10.136,34.331
					C95.301,119.794,87.123,130.95,66.719,130.95C66.718,130.95,66.72,130.95,66.719,130.95z"/>
				<g>
					<path fill="#5C7140" d="M62.958,69.225c8.826,0,17.084,2.747,24.547,8.164c16.255,11.799,9.851,31.724,9.582,32.531
						c-3.098,8.879-10.881,19.464-30.368,19.464c-4.839,0-8.292-0.727-8.328-0.734c-9.503-2.042-19.699-6.027-20.423-6.312
						C9.805,110.123,6.984,96.128,6.712,93.927c0.857-3.301,0.731-6.01,0.642-6.994c0.056-0.392,0.345-1.696,1.783-3.214
						c1.738-1.835,5.456-4.274,13.304-5.481c16.438-2.526,18.584-3.499,20.659-4.439c0.179-0.081,0.354-0.161,0.541-0.239
						c0.11-0.046,0.267-0.115,0.469-0.205C50.263,70.613,56.604,69.225,62.958,69.225 M62.958,66.091
						c-11.085,0-19.285,4.058-20.526,4.577c-2.116,0.888-2.605,1.728-20.467,4.473C4.104,77.887,4.209,86.986,4.209,86.986
						s0.397,2.957-0.658,6.623c0,0-0.111,17.185,33.217,31.622c0,0,10.767,4.29,20.964,6.481c0,0,3.704,0.804,8.986,0.804
						c10.39,0,26.888-3.109,33.326-21.564c0,0,7.693-22.748-10.7-36.099C80.068,68.119,70.792,66.091,62.958,66.091L62.958,66.091z"
						/>
				</g>
			</g>
			<g>
				<path fill="#F0ED82" d="M91.353,108.543c0,0,5.305-15.687-7.302-24.865c-15.356-11.185-30.734-3.445-32.188-2.83
					c-1.455,0.611-1.791,1.191-14.05,3.103c-12.261,1.911-12.199,8.184-12.199,8.184s-0.471,1.654-0.459,4.568
					c0,0-0.12,12.042,22.736,21.954c0,0,13.035,4.397,14.4,4.24C62.292,122.896,84.657,127.737,91.353,108.543z"/>
			</g>
			<g>
				<path fill="#996A34" d="M47.29,98.219c0,0,3.549-9.338,17.616-11.745c14.067-2.403,17.408,8.611,17.486,12.138
					c0.131,5.871-2.087,17.486-15.528,17.486C66.864,116.098,50.422,117.01,47.29,98.219z"/>
			</g>
			<g>
				<path fill="#D49443" d="M50.556,98.227c0,0,3.016-7.934,14.963-9.977c11.951-2.043,14.787,7.314,14.854,10.309
					c0.111,4.987-1.773,14.854-13.19,14.854C67.183,113.412,53.217,114.188,50.556,98.227z"/>
			</g>
			<path fill="#F3AC5D" d="M58.333,93.7c0,0,12.099-8.396,16.075-0.731c0,0-2.172,2.594-4.097,2.054S66.657,91.435,58.333,93.7z"/>
			<circle fill="#4B5C33" cx="93.822" cy="10.933" r="1.215"/>
			<circle fill="#4B5C33" cx="97.61" cy="9.22" r="0.75"/>
			<circle fill="#4B5C33" cx="92.321" cy="7.647" r="1.001"/>
		</g>
		<g>
			<path fill="#222222" d="M148.725,43.753c11.783,0,22.247-3.876,22.247-3.876l-4.961,32.865h0.387
				c2.636-8.526,7.831-13.487,14.497-13.487c7.75,0,12.168,5.271,12.168,13.643c0,14.261-11.395,26.664-27.827,26.664
				c-14.495,0-17.596-6.897-17.596-14.029c0-2.096,0.157-3.953,0.465-6.124l4.418-31.005c0.467-3.023-0.774-3.953-3.565-3.953
				L148.725,43.753z M163.531,93.981c0,2.403,0.231,4.96,1.938,4.96c4.494,0,9.3-20.542,9.3-30.461c0-3.256-0.93-4.107-2.015-4.107
				C168.8,64.373,163.531,79.486,163.531,93.981z"/>
			<path fill="#222222" d="M216.056,98.011c0,0-3.722-0.232-11.55-0.232c-7.751,0-13.1,0.232-13.1,0.232l0.078-0.697
				c3.023,0,4.728-2.093,5.195-5.425l3.332-24.108c0.465-3.021-0.696-4.107-3.488-4.107l-0.233-0.618
				c11.781,0,22.167-3.8,22.167-3.8l-4.96,35.114c-0.309,2.324,0.93,2.944,2.636,2.944L216.056,98.011z M202.025,51.119
				c0-3.801,2.015-6.821,6.434-8.218c6.122-2.015,14.029-3.023,22.554-3.023c12.945,0,15.813,4.573,15.039,10.154l-1.473,10.773
				h4.728l-0.078,0.698H244.5l-4.107,29.687c-0.31,2.479,0.93,3.565,2.558,3.565c1.239,0,2.791-0.465,4.186-1.395l0.155,0.309
				c-3.102,3.722-8.526,5.893-14.029,5.893c-6.59,0-10.851-2.482-9.69-10.852l3.798-27.362h-2.945l0.077-0.544
				c10.155-0.387,20.542-6.976,20.542-12.71c0-3.257-2.792-7.441-14.263-7.441c-5.039,0-11.705,0.31-18.37,1.782
				c5.038,0,7.596,3.024,7.596,6.664c0,4.729-3.488,8.45-10,8.45C204.582,57.55,202.025,54.76,202.025,51.119z"/>
			<path fill="#222222" d="M274.904,95.221c4.107,0,7.129-1.317,10.385-3.409l0.312,0.388c-4.419,4.881-10.93,7.363-19.069,7.363
				c-13.099,0-19.688-6.588-19.688-16.512c0-13.02,11.937-23.795,28.059-23.795c10.618,0,15.735,5.037,15.735,10.077
				c0,5.116-4.885,10.387-16.898,10.387c-2.48,0-5.733-0.232-8.37-0.854c-0.156,0.932-0.232,2.404-0.232,3.645
				C265.138,90.415,268.47,95.221,274.904,95.221z M276.995,63.673c0-2.713-0.929-3.797-2.091-3.797
				c-2.558,0-7.675,6.122-9.457,18.37C271.027,77.703,276.995,70.107,276.995,63.673z"/>
			<path fill="#222222" d="M316.031,99.927c-2.756,0-5.307-0.586-7.65-1.76c-2.346-1.171-4.373-2.714-6.08-4.629
				c-1.711-1.91-3.035-4.091-3.979-6.538c-0.945-2.448-1.414-4.973-1.414-7.573c0-2.755,0.457-5.379,1.377-7.878
				c0.92-2.498,2.189-4.693,3.822-6.58c1.633-1.885,3.568-3.39,5.814-4.514c2.244-1.122,4.691-1.682,7.342-1.682
				c1.785,0,3.471,0.256,5.051,0.765c1.578,0.511,3.045,1.212,4.398,2.104c1.348,0.892,2.572,1.926,3.67,3.098
				c1.096,1.174,2.027,2.398,2.793,3.674V43.323h2.602V95.03c0,1.124,0.459,1.686,1.375,1.686v2.445
				c-0.154,0.05-0.357,0.077-0.611,0.077c-0.916,0-1.682-0.344-2.295-1.033c-0.613-0.688-0.918-1.464-0.918-2.332v-4.82
				c-0.816,1.328-1.797,2.538-2.945,3.633c-1.146,1.099-2.385,2.03-3.711,2.794c-1.326,0.765-2.727,1.364-4.205,1.798
				C318.988,99.709,317.508,99.927,316.031,99.927z M316.334,97.479c1.48,0,3.061-0.306,4.742-0.919
				c1.686-0.61,3.254-1.439,4.707-2.484c1.453-1.046,2.676-2.271,3.67-3.674c0.994-1.401,1.57-2.866,1.723-4.396V72.312
				c-0.564-1.528-1.391-2.969-2.486-4.322c-1.096-1.351-2.361-2.524-3.787-3.519c-1.428-0.996-2.943-1.784-4.551-2.371
				c-1.609-0.585-3.176-0.881-4.705-0.881c-2.445,0-4.666,0.525-6.654,1.57s-3.672,2.422-5.047,4.13
				c-1.377,1.708-2.449,3.646-3.215,5.813c-0.764,2.169-1.146,4.397-1.146,6.693c0,2.396,0.434,4.681,1.299,6.846
				c0.869,2.17,2.053,4.082,3.559,5.737c1.504,1.658,3.275,2.983,5.318,3.977C311.797,96.981,313.988,97.479,316.334,97.479z"/>
			<path fill="#222222" d="M342.945,49.748v-6.425h2.602v6.425H342.945z M342.945,99.161V59.386h2.602v39.775H342.945z"/>
			<path fill="#222222" d="M365.402,99.927c-1.834,0-3.545-0.319-5.125-0.955c-1.58-0.64-2.957-1.505-4.131-2.601
				c-1.172-1.098-2.09-2.384-2.754-3.863c-0.664-1.479-0.994-3.085-0.994-4.821c0-1.681,0.408-3.223,1.225-4.626
				c0.814-1.402,1.949-2.614,3.404-3.634c1.451-1.02,3.184-1.81,5.199-2.37c2.016-0.562,4.223-0.842,6.617-0.842
				c2.246,0,4.498,0.18,6.768,0.534c2.273,0.356,4.322,0.894,6.16,1.607v-4.283c0-3.979-1.137-7.153-3.404-9.525
				c-2.273-2.371-5.314-3.557-9.141-3.557c-1.938,0-4.002,0.421-6.195,1.262s-4.387,2.054-6.58,3.635l-1.221-1.913
				c5.096-3.468,9.816-5.201,14.15-5.201c4.637,0,8.299,1.376,10.979,4.131c2.676,2.753,4.014,6.528,4.014,11.322V95.03
				c0,1.124,0.457,1.686,1.375,1.686v2.445c-0.15,0.05-0.293,0.077-0.418,0.077c-0.129,0-0.244,0-0.346,0
				c-0.867,0-1.596-0.319-2.18-0.955c-0.588-0.639-0.881-1.416-0.881-2.333v-3.52c-1.834,2.397-4.207,4.245-7.111,5.545
				C371.908,99.277,368.77,99.927,365.402,99.927z M365.707,97.709c1.887,0,3.787-0.255,5.701-0.766
				c1.912-0.511,3.633-1.212,5.16-2.103c1.531-0.894,2.781-1.925,3.748-3.1c0.971-1.172,1.455-2.419,1.455-3.746v-7.496
				c-3.979-1.531-8.211-2.296-12.697-2.296c-2.094,0-4.004,0.229-5.738,0.688c-1.732,0.46-3.223,1.098-4.475,1.914
				c-1.248,0.813-2.217,1.797-2.904,2.945c-0.689,1.145-1.035,2.436-1.035,3.861c0,1.428,0.279,2.754,0.842,3.977
				c0.559,1.227,1.326,2.296,2.295,3.214c0.967,0.917,2.104,1.631,3.404,2.142S364.178,97.709,365.707,97.709z"/>
			<path fill="#222222" d="M409.625,99.927c-3.162,0-6.115-0.841-8.869-2.523c-2.756-1.685-4.922-3.798-6.504-6.351v8.108h-2.449
				V43.323h2.602v25.091c1.938-2.857,4.221-5.178,6.848-6.964c2.623-1.784,5.648-2.676,9.062-2.676c2.91,0,5.496,0.612,7.766,1.835
				c2.268,1.225,4.182,2.805,5.736,4.742c1.557,1.94,2.754,4.145,3.594,6.62c0.842,2.474,1.264,4.959,1.264,7.456
				c0,2.704-0.486,5.292-1.453,7.763c-0.969,2.476-2.32,4.656-4.053,6.54c-1.736,1.888-3.764,3.394-6.08,4.515
				C414.766,99.365,412.279,99.927,409.625,99.927z M409.246,97.479c2.445,0,4.705-0.522,6.77-1.568
				c2.064-1.045,3.838-2.41,5.314-4.093c1.48-1.682,2.639-3.605,3.479-5.774c0.842-2.169,1.266-4.372,1.266-6.617
				c0-2.345-0.396-4.613-1.186-6.808c-0.793-2.191-1.889-4.131-3.289-5.813c-1.404-1.685-3.098-3.034-5.088-4.057
				c-1.988-1.018-4.184-1.529-6.58-1.529c-1.781,0-3.469,0.307-5.047,0.92c-1.58,0.609-3.021,1.428-4.322,2.446
				c-1.299,1.022-2.473,2.193-3.518,3.518c-1.045,1.329-1.924,2.731-2.641,4.208v13.846c0.152,1.528,0.727,2.982,1.723,4.359
				c0.996,1.378,2.221,2.589,3.67,3.635c1.455,1.045,3.021,1.861,4.705,2.447C406.186,97.187,407.764,97.479,409.246,97.479z"/>
			<path fill="#222222" d="M452.506,99.927c-2.703,0-5.229-0.549-7.574-1.644c-2.346-1.097-4.395-2.602-6.156-4.515
				c-1.758-1.912-3.135-4.129-4.127-6.654c-0.996-2.523-1.494-5.213-1.494-8.069c0-2.804,0.484-5.432,1.455-7.878
				c0.967-2.449,2.32-4.591,4.051-6.427c1.736-1.835,3.75-3.29,6.043-4.359c2.297-1.072,4.795-1.606,7.496-1.606
				c2.754,0,5.305,0.534,7.65,1.606c2.348,1.069,4.385,2.535,6.121,4.398c1.734,1.861,3.096,4.042,4.09,6.54
				c0.996,2.5,1.492,5.152,1.492,7.956c0,0.101,0,0.306,0,0.612s-0.025,0.484-0.074,0.533H435.83
				c0.203,2.449,0.777,4.732,1.721,6.847c0.945,2.119,2.168,3.94,3.674,5.471c1.506,1.529,3.236,2.741,5.201,3.634
				c1.961,0.891,4.039,1.338,6.234,1.338c1.428,0,2.842-0.192,4.244-0.574s2.715-0.93,3.938-1.646
				c1.225-0.712,2.297-1.567,3.215-2.562c0.92-0.993,1.658-2.076,2.217-3.251l2.371,0.611c-0.561,1.378-1.377,2.668-2.443,3.864
				c-1.072,1.197-2.338,2.219-3.789,3.059c-1.451,0.841-3.02,1.505-4.703,1.987C456.025,99.685,454.291,99.927,452.506,99.927z
				 M468.953,78.203c-0.154-2.497-0.689-4.795-1.607-6.885s-2.131-3.901-3.631-5.43c-1.504-1.53-3.227-2.717-5.164-3.558
				c-1.939-0.841-4.029-1.263-6.271-1.263c-2.244,0-4.336,0.435-6.275,1.301c-1.938,0.867-3.633,2.065-5.086,3.595
				c-1.453,1.53-2.627,3.341-3.52,5.433c-0.889,2.091-1.412,4.358-1.568,6.807H468.953z"/>
			<path fill="#222222" d="M495.365,97.328c-0.104,0.049-0.357,0.188-0.766,0.418s-0.953,0.486-1.645,0.766
				c-0.688,0.283-1.479,0.523-2.369,0.727c-0.895,0.203-1.875,0.307-2.945,0.307c-1.99,0-3.709-0.573-5.164-1.722
				c-1.455-1.147-2.182-2.766-2.182-4.857V61.679h-5.66v-2.293h5.66V45.695h2.602v13.691h9.406v2.293h-9.406v30.905
				c0.102,1.479,0.664,2.6,1.684,3.366c1.021,0.766,2.191,1.146,3.52,1.146c0.814,0,1.592-0.089,2.332-0.268
				c0.74-0.178,1.391-0.383,1.951-0.612c0.561-0.23,1.02-0.443,1.377-0.65c0.357-0.203,0.561-0.332,0.609-0.383L495.365,97.328z"/>
			<path fill="#222222" d="M515.605,99.927c-2.703,0-5.229-0.549-7.574-1.644c-2.346-1.097-4.398-2.602-6.158-4.515
				c-1.76-1.912-3.137-4.129-4.129-6.654c-0.994-2.523-1.49-5.213-1.49-8.069c0-2.804,0.482-5.432,1.451-7.878
				c0.969-2.449,2.322-4.591,4.053-6.427c1.736-1.835,3.748-3.29,6.043-4.359c2.297-1.072,4.793-1.606,7.496-1.606
				c2.754,0,5.307,0.534,7.652,1.606c2.344,1.069,4.381,2.535,6.119,4.398c1.734,1.861,3.096,4.042,4.092,6.54
				c0.992,2.5,1.488,5.152,1.488,7.956c0,0.101,0,0.306,0,0.612s-0.025,0.484-0.074,0.533H498.93
				c0.203,2.449,0.775,4.732,1.721,6.847c0.943,2.119,2.166,3.94,3.672,5.471c1.506,1.529,3.236,2.741,5.199,3.634
				c1.965,0.891,4.041,1.338,6.236,1.338c1.426,0,2.842-0.192,4.244-0.574s2.715-0.93,3.941-1.646
				c1.223-0.712,2.293-1.567,3.211-2.562c0.918-0.993,1.656-2.076,2.217-3.251l2.373,0.611c-0.562,1.378-1.379,2.668-2.447,3.864
				c-1.072,1.197-2.334,2.219-3.787,3.059c-1.453,0.841-3.018,1.505-4.705,1.987C519.123,99.685,517.389,99.927,515.605,99.927z
				 M532.051,78.203c-0.156-2.497-0.689-4.795-1.607-6.885c-0.916-2.09-2.129-3.901-3.633-5.43c-1.504-1.53-3.227-2.717-5.164-3.558
				c-1.939-0.841-4.027-1.263-6.27-1.263c-2.246,0-4.334,0.435-6.273,1.301c-1.939,0.867-3.637,2.065-5.086,3.595
				c-1.455,1.53-2.627,3.341-3.521,5.433c-0.891,2.091-1.414,4.358-1.566,6.807H532.051z"/>
			<path fill="#222222" d="M553.209,99.927c-3.061,0-5.918-0.512-8.57-1.529c-2.652-1.021-4.998-2.602-7.035-4.742l1.451-1.76
				c2.143,1.938,4.332,3.392,6.576,4.36c2.246,0.969,4.748,1.453,7.498,1.453c3.725,0,6.73-0.789,9.025-2.371
				c2.297-1.58,3.443-3.799,3.443-6.655c0-1.326-0.293-2.435-0.879-3.327c-0.588-0.892-1.441-1.656-2.564-2.295
				c-1.123-0.637-2.512-1.198-4.168-1.684c-1.656-0.482-3.557-0.98-5.697-1.49c-2.195-0.512-4.096-1.009-5.699-1.493
				c-1.605-0.483-2.947-1.057-4.018-1.722c-1.068-0.659-1.859-1.502-2.369-2.522c-0.514-1.019-0.766-2.32-0.766-3.902
				c0-1.989,0.381-3.697,1.146-5.125c0.768-1.427,1.797-2.612,3.098-3.557c1.303-0.943,2.803-1.645,4.512-2.104
				c1.713-0.458,3.533-0.688,5.473-0.688c3.211,0,5.977,0.534,8.299,1.606c2.32,1.069,4.016,2.422,5.088,4.054l-1.76,1.3
				c-1.123-1.529-2.768-2.701-4.936-3.52c-2.166-0.812-4.475-1.223-6.922-1.223c-1.58,0-3.057,0.166-4.436,0.498
				c-1.377,0.331-2.588,0.866-3.633,1.604c-1.047,0.741-1.875,1.672-2.488,2.794c-0.613,1.121-0.916,2.447-0.916,3.977
				c0,1.224,0.201,2.244,0.609,3.061c0.406,0.816,1.059,1.49,1.951,2.026c0.893,0.535,2.016,0.994,3.369,1.377
				c1.35,0.383,2.99,0.802,4.932,1.263c2.447,0.561,4.617,1.123,6.502,1.683c1.883,0.561,3.492,1.225,4.818,1.987
				c1.326,0.766,2.334,1.71,3.021,2.831c0.689,1.123,1.031,2.55,1.031,4.283c0,1.785-0.354,3.378-1.068,4.781
				c-0.715,1.402-1.723,2.616-3.023,3.633c-1.301,1.021-2.883,1.798-4.742,2.332C557.504,99.658,555.451,99.927,553.209,99.927z"/>
		</g>
	</g>
</g>
</svg>
