<?xml version="1.0" encoding="utf-8"?>
<!-- Generator: Adobe Illustrator 16.0.0, SVG Export Plug-In . SVG Version: 6.00 Build 0)  -->
<!DOCTYPE svg PUBLIC "-//W3C//DTD SVG 1.1//EN" "http://www.w3.org/Graphics/SVG/1.1/DTD/svg11.dtd">
<svg version="1.1" id="Layer_1" xmlns="http://www.w3.org/2000/svg" xmlns:xlink="http://www.w3.org/1999/xlink" x="0px" y="0px"
	 width="917.954px" height="193.492px" viewBox="0 0 917.954 193.492" enable-background="new 0 0 917.954 193.492"
	 xml:space="preserve">
<g id="Layer_1_1_">
</g>
<g>
	<rect x="10.893" y="140.625" fill="none" width="169.34" height="44.324"/>
	<g enable-background="new    ">
		<path fill="#454646" d="M47.094,153.98l1.278-5.938c0.12-0.526,0.18-0.973,0.18-1.339c0-0.457-0.124-0.814-0.373-1.072
			s-0.634-0.386-1.154-0.386c-0.641,0-1.243,0.191-1.806,0.574c-0.563,0.384-1.039,0.922-1.425,1.613
			c-0.386,0.692-0.682,1.511-0.888,2.455l-0.875,4.093H41.19l2.849-13.353h0.824l-0.738,3.527c-0.252,1.144-0.44,1.942-0.566,2.394
			h0.052c0.446-0.646,0.979-1.148,1.6-1.506s1.277-0.536,1.97-0.536c0.709,0,1.258,0.186,1.647,0.558
			c0.389,0.372,0.583,0.896,0.583,1.57c0,0.4-0.069,0.921-0.206,1.562l-1.27,5.784H47.094z"/>
		<path fill="#454646" d="M53.616,144.652l-1.304,5.99c-0.126,0.606-0.189,1.059-0.189,1.355c0,0.424,0.136,0.76,0.408,1.009
			c0.271,0.248,0.667,0.373,1.188,0.373c0.629,0,1.223-0.188,1.78-0.562c0.558-0.374,1.027-0.909,1.408-1.604
			c0.38-0.695,0.665-1.494,0.854-2.398l0.901-4.162h0.841l-1.982,9.328h-0.687l0.24-1.759h-0.051
			c-0.956,1.264-2.108,1.896-3.458,1.896c-0.75,0-1.317-0.178-1.703-0.532s-0.579-0.872-0.579-1.554
			c0-0.343,0.062-0.829,0.188-1.459l1.287-5.921H53.616z"/>
		<path fill="#454646" d="M66.256,153.98l1.262-5.784c0.143-0.715,0.214-1.178,0.214-1.39c0-1.041-0.44-1.562-1.321-1.562
			c-0.606,0-1.179,0.192-1.716,0.579c-0.538,0.386-0.993,0.925-1.364,1.617c-0.372,0.692-0.658,1.514-0.858,2.463l-0.858,4.076
			h-0.841l1.982-9.328h0.687l-0.283,1.803h0.051c0.458-0.646,0.977-1.133,1.558-1.459s1.188-0.489,1.824-0.489
			c0.606,0,1.073,0.191,1.398,0.575c0.326,0.383,0.498,0.94,0.515,1.673h0.051c0.44-0.738,0.958-1.297,1.553-1.678
			c0.595-0.38,1.23-0.57,1.905-0.57c0.669,0,1.191,0.176,1.566,0.527c0.375,0.353,0.562,0.857,0.562,1.515
			c0,0.166-0.007,0.328-0.021,0.485s-0.07,0.499-0.167,1.025l-1.305,5.921h-0.858l1.278-5.835c0.143-0.687,0.215-1.19,0.215-1.511
			c0-0.44-0.123-0.782-0.369-1.025s-0.586-0.364-1.021-0.364c-0.898,0-1.692,0.393-2.381,1.18c-0.689,0.786-1.171,1.823-1.446,3.11
			l-0.936,4.445H66.256z"/>
		<path fill="#454646" d="M80.801,144.506c1.327,0,2.125,0.626,2.394,1.879h0.052l0.506-1.733h0.687l-1.965,9.328h-0.704
			l0.386-2.352h-0.051c-0.481,0.812-1.016,1.437-1.605,1.871s-1.267,0.652-2.034,0.652c-1.607,0-2.411-1.07-2.411-3.21
			c0-1.127,0.214-2.202,0.644-3.227c0.429-1.023,1.002-1.814,1.72-2.372C79.138,144.786,79.932,144.506,80.801,144.506z
			 M78.665,153.379c0.509,0,1.017-0.178,1.523-0.532s0.961-0.829,1.364-1.425c0.403-0.595,0.711-1.253,0.922-1.974
			c0.212-0.721,0.317-1.33,0.317-1.827c0-0.452-0.074-0.857-0.223-1.215c-0.149-0.357-0.369-0.641-0.661-0.85
			c-0.292-0.208-0.655-0.312-1.09-0.312c-0.709,0-1.35,0.234-1.922,0.703c-0.572,0.47-1.042,1.172-1.407,2.106
			c-0.366,0.936-0.549,1.867-0.549,2.794c0,0.869,0.143,1.509,0.429,1.918S78.087,153.379,78.665,153.379z"/>
		<path fill="#454646" d="M91.459,153.98l1.278-5.938c0.12-0.526,0.18-0.973,0.18-1.339c0-0.457-0.124-0.814-0.373-1.072
			s-0.634-0.386-1.154-0.386c-0.641,0-1.243,0.191-1.806,0.574c-0.563,0.384-1.039,0.92-1.425,1.609
			c-0.386,0.689-0.682,1.509-0.888,2.459l-0.875,4.093h-0.841l1.982-9.328h0.704l-0.317,1.896h0.052
			c0.938-1.361,2.128-2.042,3.57-2.042c0.744,0,1.301,0.183,1.673,0.549c0.372,0.366,0.558,0.893,0.558,1.579
			c0,0.4-0.069,0.921-0.206,1.562l-1.27,5.784H91.459z"/>
		<path fill="#454646" d="M105.396,144.489c0.395,0,0.747,0.04,1.055,0.12l-0.18,0.799c-0.269-0.086-0.592-0.129-0.97-0.129
			c-0.538,0-1.05,0.183-1.536,0.549s-0.924,0.916-1.312,1.647c-0.389,0.732-0.675,1.525-0.858,2.377l-0.858,4.128h-0.841
			l1.982-9.328h0.687l-0.249,1.751h0.052c0.417-0.538,0.769-0.926,1.055-1.163s0.591-0.422,0.914-0.554
			C104.659,144.555,105.012,144.489,105.396,144.489z"/>
		<path fill="#454646" d="M107.223,153.98h-0.841l1.982-9.328h0.824L107.223,153.98z M108.733,142.258
			c0-0.314,0.063-0.566,0.189-0.756c0.125-0.188,0.297-0.283,0.515-0.283c0.326,0,0.489,0.206,0.489,0.618
			c0,0.326-0.063,0.584-0.189,0.772s-0.289,0.283-0.489,0.283c-0.166,0-0.293-0.056-0.382-0.167
			C108.778,142.614,108.733,142.458,108.733,142.258z"/>
		<path fill="#454646" d="M119.245,144.652l-0.146,0.679l-2.085,0.094c0.149,0.16,0.273,0.4,0.374,0.721s0.15,0.646,0.15,0.979
			c0,0.624-0.156,1.214-0.468,1.772c-0.312,0.558-0.735,0.974-1.27,1.248c-0.535,0.274-1.146,0.412-1.832,0.412
			c-0.361,0-0.581-0.025-0.661-0.077c-0.458,0.188-0.812,0.397-1.064,0.626c-0.252,0.229-0.377,0.461-0.377,0.695
			s0.09,0.419,0.27,0.554c0.181,0.135,0.505,0.225,0.974,0.271l1.039,0.094c1.979,0.178,2.969,0.933,2.969,2.266
			c0,0.641-0.186,1.206-0.558,1.695c-0.372,0.488-0.907,0.865-1.604,1.128c-0.698,0.263-1.531,0.395-2.498,0.395
			c-1.064,0-1.897-0.206-2.501-0.617c-0.604-0.412-0.906-0.993-0.906-1.742c0-1.351,0.884-2.306,2.652-2.866
			c-0.446-0.24-0.669-0.592-0.669-1.056c0-0.703,0.546-1.281,1.639-1.733c-0.406-0.206-0.722-0.508-0.948-0.905
			s-0.339-0.848-0.339-1.352c0-0.635,0.153-1.219,0.459-1.751c0.306-0.531,0.729-0.949,1.27-1.252
			c0.541-0.304,1.131-0.455,1.772-0.455c0.395,0,0.815,0.06,1.261,0.18H119.245z M109.926,155.756c0,0.578,0.232,1.007,0.695,1.287
			s1.104,0.421,1.922,0.421c1.162,0,2.068-0.214,2.72-0.64c0.652-0.427,0.979-1.012,0.979-1.755c0-0.486-0.179-0.859-0.537-1.12
			c-0.357-0.26-0.982-0.425-1.875-0.493l-1.373-0.129c-0.898,0.258-1.544,0.585-1.939,0.982
			C110.123,154.708,109.926,155.19,109.926,155.756z M112.251,147.878c0,0.641,0.167,1.127,0.502,1.459
			c0.334,0.332,0.805,0.498,1.412,0.498c0.503,0,0.944-0.106,1.321-0.317c0.378-0.212,0.671-0.538,0.88-0.979
			c0.208-0.44,0.313-0.924,0.313-1.45c0-0.595-0.16-1.057-0.48-1.386s-0.77-0.494-1.347-0.494c-0.532,0-0.993,0.124-1.382,0.369
			c-0.389,0.246-0.689,0.578-0.901,0.996C112.357,146.992,112.251,147.427,112.251,147.878z"/>
		<path fill="#454646" d="M125.287,153.98l1.278-5.938c0.12-0.526,0.18-0.973,0.18-1.339c0-0.457-0.124-0.814-0.373-1.072
			s-0.634-0.386-1.154-0.386c-0.641,0-1.243,0.191-1.806,0.574c-0.563,0.384-1.039,0.922-1.425,1.613
			c-0.386,0.692-0.682,1.511-0.888,2.455l-0.875,4.093h-0.841l2.849-13.353h0.824l-0.738,3.527c-0.252,1.144-0.44,1.942-0.566,2.394
			h0.052c0.446-0.646,0.979-1.148,1.6-1.506s1.277-0.536,1.97-0.536c0.709,0,1.258,0.186,1.647,0.558
			c0.389,0.372,0.583,0.896,0.583,1.57c0,0.4-0.069,0.921-0.206,1.562l-1.27,5.784H125.287z"/>
		<path fill="#454646" d="M134.494,144.652l-0.155,0.695h-2.428l-1.159,5.449c-0.126,0.566-0.188,1.035-0.188,1.407
			c0,0.795,0.36,1.192,1.081,1.192c0.389,0,0.824-0.074,1.304-0.223v0.738c-0.578,0.16-1.064,0.24-1.458,0.24
			c-0.566,0-1.004-0.156-1.313-0.468c-0.309-0.312-0.463-0.766-0.463-1.36c0-0.417,0.083-1.007,0.249-1.768l1.107-5.209h-1.562
			l0.12-0.575l1.579-0.146l0.832-2.171h0.472l-0.472,2.196H134.494z"/>
		<path fill="#454646" d="M139.943,151.449c0,0.823-0.295,1.48-0.884,1.969c-0.589,0.489-1.39,0.734-2.402,0.734
			c-0.99,0-1.862-0.215-2.618-0.644v-0.919c0.423,0.264,0.861,0.467,1.313,0.609c0.452,0.144,0.875,0.215,1.27,0.215
			c0.79,0,1.393-0.164,1.811-0.493c0.418-0.329,0.626-0.797,0.626-1.403c0-0.24-0.044-0.452-0.133-0.635
			c-0.089-0.184-0.232-0.359-0.429-0.528c-0.197-0.168-0.576-0.413-1.137-0.733c-0.847-0.458-1.419-0.874-1.716-1.248
			c-0.298-0.375-0.446-0.831-0.446-1.369c0-0.732,0.282-1.331,0.845-1.798c0.563-0.466,1.306-0.699,2.227-0.699
			c0.429,0,0.882,0.05,1.36,0.15c0.478,0.1,0.879,0.232,1.206,0.398l-0.3,0.756c-0.778-0.366-1.533-0.55-2.265-0.55
			c-0.664,0-1.196,0.151-1.596,0.455c-0.401,0.303-0.601,0.698-0.601,1.185c0,0.314,0.049,0.566,0.146,0.755s0.271,0.385,0.52,0.588
			c0.249,0.203,0.59,0.422,1.025,0.656c0.652,0.36,1.114,0.656,1.386,0.888c0.271,0.232,0.472,0.479,0.601,0.743
			C139.879,150.793,139.943,151.1,139.943,151.449z"/>
	</g>
	<g enable-background="new    ">
		<path fill="#454646" d="M70.793,176.576h-0.807l2.866-13.353h0.806L70.793,176.576z"/>
		<path fill="#454646" d="M79.031,167.102c1.327,0,2.125,0.626,2.394,1.879h0.052l0.506-1.733h0.687l-1.965,9.328H80l0.386-2.352
			h-0.051c-0.481,0.812-1.016,1.437-1.605,1.871s-1.267,0.652-2.034,0.652c-1.607,0-2.411-1.07-2.411-3.21
			c0-1.127,0.214-2.202,0.644-3.227c0.429-1.023,1.002-1.814,1.72-2.372C77.368,167.381,78.161,167.102,79.031,167.102z
			 M76.894,175.975c0.509,0,1.017-0.178,1.523-0.532s0.961-0.829,1.364-1.425c0.403-0.595,0.711-1.253,0.922-1.974
			c0.212-0.721,0.317-1.33,0.317-1.827c0-0.452-0.074-0.857-0.223-1.215c-0.149-0.357-0.369-0.641-0.661-0.85
			c-0.292-0.208-0.655-0.312-1.09-0.312c-0.709,0-1.35,0.234-1.922,0.703c-0.572,0.47-1.042,1.172-1.407,2.106
			c-0.366,0.936-0.549,1.867-0.549,2.794c0,0.869,0.143,1.509,0.429,1.918S76.316,175.975,76.894,175.975z"/>
		<path fill="#454646" d="M90.324,176.576l-0.515-5.887c-0.08-1.281-0.12-2.042-0.12-2.282h-0.052
			c-0.194,0.526-0.606,1.355-1.235,2.488l-3.055,5.681h-1.004l-0.171-9.328h0.789l0.112,7.046l-0.026,1.347h0.052
			c0.349-0.767,0.778-1.616,1.287-2.549l3.201-5.844h0.661l0.549,5.844c0.08,0.842,0.12,1.69,0.12,2.549h0.051l0.206-0.523
			l0.867-2.025l2.746-5.844h0.824l-4.359,9.328H90.324z"/>
		<path fill="#454646" d="M96.142,167.248H97l0.704,4.703c0.292,2.008,0.449,3.292,0.472,3.853h0.094
			c0.246-0.601,0.778-1.65,1.596-3.149l2.986-5.406h0.884l-6.119,11.07c-0.412,0.727-0.762,1.235-1.051,1.527
			c-0.289,0.292-0.615,0.523-0.979,0.695c-0.363,0.171-0.782,0.257-1.257,0.257c-0.389,0-0.758-0.06-1.107-0.18v-0.79
			c0.406,0.155,0.798,0.232,1.176,0.232c0.458,0,0.878-0.142,1.261-0.425s0.755-0.754,1.116-1.412s0.646-1.184,0.858-1.579
			L96.142,167.248z"/>
		<path fill="#454646" d="M107.005,176.748c-0.99,0-1.762-0.313-2.317-0.939c-0.555-0.627-0.832-1.501-0.832-2.622
			c0-1.035,0.203-2.028,0.609-2.978s0.965-1.705,1.678-2.266s1.498-0.841,2.355-0.841c0.652,0,1.173,0.175,1.562,0.523
			c0.389,0.349,0.583,0.824,0.583,1.425c0,1.035-0.468,1.824-1.403,2.368c-0.936,0.544-2.324,0.815-4.167,0.815h-0.283
			c-0.034,0.252-0.051,0.531-0.051,0.841c0,0.943,0.211,1.663,0.635,2.158s1.033,0.742,1.828,0.742c0.755,0,1.544-0.209,2.368-0.627
			v0.807C108.771,176.55,107.915,176.748,107.005,176.748z M108.396,167.84c-0.75,0-1.446,0.33-2.089,0.991
			c-0.644,0.66-1.108,1.543-1.395,2.646h0.42c2.958,0,4.437-0.771,4.437-2.316c0-0.384-0.124-0.699-0.373-0.948
			S108.813,167.84,108.396,167.84z"/>
		<path fill="#454646" d="M117.063,167.084c0.395,0,0.747,0.04,1.055,0.12l-0.18,0.799c-0.269-0.086-0.592-0.129-0.97-0.129
			c-0.538,0-1.05,0.183-1.536,0.549s-0.924,0.916-1.312,1.647c-0.389,0.732-0.675,1.525-0.858,2.377l-0.858,4.128h-0.841
			l1.982-9.328h0.687l-0.249,1.751h0.052c0.417-0.538,0.769-0.926,1.055-1.163s0.591-0.422,0.914-0.554
			C116.326,167.151,116.679,167.084,117.063,167.084z"/>
	</g>
	<rect x="194.169" y="140.625" fill="none" width="169.34" height="44.324"/>
	<g enable-background="new    ">
		<path fill="#454646" d="M231.039,158.202c-0.275,0-0.566-0.054-0.875-0.163v-0.772c0.303,0.092,0.589,0.138,0.858,0.138
			c0.503,0,0.887-0.151,1.15-0.455c0.263-0.303,0.478-0.835,0.644-1.596l2.111-10.006h-1.759l0.12-0.575l1.759-0.12l0.3-1.373
			c0.2-0.961,0.533-1.658,1-2.094c0.466-0.435,1.117-0.652,1.952-0.652c0.417,0,0.892,0.089,1.424,0.267l-0.214,0.687
			c-0.498-0.154-0.918-0.231-1.262-0.231c-0.549,0-0.988,0.152-1.317,0.459c-0.329,0.306-0.571,0.816-0.725,1.531l-0.301,1.407
			h2.128l-0.137,0.695h-2.128l-2.163,10.212c-0.188,0.921-0.486,1.592-0.892,2.012C232.306,157.992,231.749,158.202,231.039,158.202
			z"/>
		<path fill="#454646" d="M242.692,144.472c1.03,0,1.826,0.311,2.39,0.931c0.563,0.621,0.845,1.478,0.845,2.57
			c0,1.127-0.205,2.181-0.613,3.162c-0.409,0.981-0.968,1.729-1.678,2.244s-1.527,0.772-2.454,0.772
			c-1.053,0-1.853-0.313-2.398-0.939c-0.546-0.627-0.82-1.523-0.82-2.69c0-1.093,0.209-2.117,0.626-3.072s0.981-1.69,1.69-2.205
			C240.99,144.729,241.794,144.472,242.692,144.472z M242.624,145.209c-0.709,0-1.347,0.225-1.914,0.674s-1.018,1.093-1.356,1.931
			c-0.337,0.839-0.506,1.727-0.506,2.665c0,1.956,0.807,2.935,2.42,2.935c0.727,0,1.372-0.222,1.935-0.665s1.013-1.096,1.348-1.956
			c0.334-0.861,0.502-1.807,0.502-2.837c0-0.881-0.209-1.559-0.626-2.033C244.008,145.448,243.407,145.209,242.624,145.209z"/>
		<path fill="#454646" d="M252.887,144.489c0.395,0,0.747,0.04,1.055,0.12l-0.18,0.799c-0.269-0.086-0.592-0.129-0.97-0.129
			c-0.538,0-1.05,0.183-1.536,0.549s-0.924,0.916-1.312,1.647c-0.389,0.732-0.675,1.525-0.858,2.377l-0.858,4.128h-0.841
			l1.982-9.328h0.687l-0.249,1.751h0.052c0.417-0.538,0.769-0.926,1.055-1.163s0.591-0.422,0.914-0.554
			C252.15,144.555,252.503,144.489,252.887,144.489z"/>
		<path fill="#454646" d="M259.323,153.98l1.262-5.784c0.143-0.715,0.214-1.178,0.214-1.39c0-1.041-0.44-1.562-1.321-1.562
			c-0.606,0-1.179,0.192-1.716,0.579c-0.538,0.386-0.993,0.925-1.364,1.617c-0.372,0.692-0.658,1.514-0.858,2.463l-0.858,4.076
			h-0.841l1.982-9.328h0.687l-0.283,1.803h0.051c0.458-0.646,0.977-1.133,1.558-1.459s1.188-0.489,1.824-0.489
			c0.606,0,1.073,0.191,1.398,0.575c0.326,0.383,0.498,0.94,0.515,1.673h0.051c0.44-0.738,0.958-1.297,1.553-1.678
			c0.595-0.38,1.23-0.57,1.905-0.57c0.669,0,1.191,0.176,1.566,0.527c0.375,0.353,0.562,0.857,0.562,1.515
			c0,0.166-0.007,0.328-0.021,0.485s-0.07,0.499-0.167,1.025l-1.305,5.921h-0.858l1.278-5.835c0.143-0.687,0.215-1.19,0.215-1.511
			c0-0.44-0.123-0.782-0.369-1.025s-0.586-0.364-1.021-0.364c-0.898,0-1.692,0.393-2.381,1.18c-0.689,0.786-1.171,1.823-1.446,3.11
			l-0.936,4.445H259.323z"/>
		<path fill="#454646" d="M272.271,154.152c-0.99,0-1.762-0.313-2.317-0.939c-0.555-0.627-0.832-1.501-0.832-2.622
			c0-1.035,0.203-2.028,0.609-2.978s0.965-1.705,1.678-2.266s1.498-0.841,2.355-0.841c0.652,0,1.173,0.175,1.562,0.523
			c0.389,0.349,0.583,0.824,0.583,1.425c0,1.035-0.468,1.824-1.403,2.368c-0.936,0.544-2.324,0.815-4.167,0.815h-0.283
			c-0.034,0.252-0.051,0.531-0.051,0.841c0,0.943,0.211,1.663,0.635,2.158s1.033,0.742,1.828,0.742c0.755,0,1.544-0.209,2.368-0.627
			v0.807C274.037,153.955,273.181,154.152,272.271,154.152z M273.662,145.245c-0.75,0-1.446,0.33-2.089,0.991
			c-0.644,0.66-1.108,1.543-1.395,2.646h0.42c2.958,0,4.437-0.771,4.437-2.316c0-0.384-0.124-0.699-0.373-0.948
			S274.08,145.245,273.662,145.245z"/>
		<path fill="#454646" d="M282.329,144.489c0.395,0,0.747,0.04,1.055,0.12l-0.18,0.799c-0.269-0.086-0.592-0.129-0.97-0.129
			c-0.538,0-1.05,0.183-1.536,0.549s-0.924,0.916-1.312,1.647c-0.389,0.732-0.675,1.525-0.858,2.377l-0.858,4.128h-0.841
			l1.982-9.328h0.687l-0.249,1.751h0.052c0.417-0.538,0.769-0.926,1.055-1.163s0.591-0.422,0.914-0.554
			C281.592,144.555,281.945,144.489,282.329,144.489z"/>
		<path fill="#454646" d="M295.476,142.061c-1.127,0-2.132,0.299-3.016,0.896c-0.884,0.598-1.585,1.469-2.103,2.613
			c-0.518,1.144-0.777,2.405-0.777,3.784c0,1.287,0.316,2.276,0.948,2.969c0.632,0.692,1.541,1.038,2.725,1.038
			c0.801,0,1.67-0.146,2.609-0.438v0.807c-0.893,0.28-1.796,0.421-2.712,0.421c-1.441,0-2.545-0.415-3.312-1.244
			c-0.767-0.83-1.15-2.003-1.15-3.519c0-1.521,0.299-2.918,0.896-4.188c0.598-1.271,1.412-2.246,2.441-2.927s2.18-1.021,3.45-1.021
			c1.013,0,1.891,0.194,2.634,0.583l-0.386,0.772c-0.314-0.172-0.67-0.306-1.068-0.403
			C296.258,142.109,295.865,142.061,295.476,142.061z"/>
		<path fill="#454646" d="M300.796,141.434h3.252c1.087,0,1.918,0.24,2.493,0.721c0.575,0.48,0.862,1.17,0.862,2.068
			c0,0.875-0.257,1.588-0.772,2.137c-0.515,0.549-1.241,0.904-2.18,1.064v0.034c0.715,0.177,1.254,0.502,1.618,0.974
			s0.545,1.057,0.545,1.755c0,1.173-0.402,2.099-1.206,2.776s-1.921,1.017-3.351,1.017h-3.921L300.796,141.434z M300.333,147.792
			l-1.159,5.415h2.935c1.15,0,2.035-0.25,2.656-0.751c0.621-0.5,0.931-1.234,0.931-2.201c0-0.829-0.258-1.447-0.772-1.854
			c-0.515-0.406-1.302-0.609-2.36-0.609H300.333z M300.496,147.021h2.385c1.179,0,2.074-0.232,2.686-0.695
			c0.612-0.464,0.918-1.145,0.918-2.043c0-0.681-0.223-1.196-0.669-1.549c-0.446-0.352-1.102-0.527-1.965-0.527h-2.334
			L300.496,147.021z"/>
		<path fill="#454646" d="M315.822,142.061c-1.127,0-2.132,0.299-3.016,0.896c-0.884,0.598-1.585,1.469-2.103,2.613
			c-0.518,1.144-0.777,2.405-0.777,3.784c0,1.287,0.316,2.276,0.948,2.969c0.632,0.692,1.541,1.038,2.725,1.038
			c0.801,0,1.67-0.146,2.609-0.438v0.807c-0.893,0.28-1.796,0.421-2.712,0.421c-1.441,0-2.545-0.415-3.312-1.244
			c-0.767-0.83-1.15-2.003-1.15-3.519c0-1.521,0.299-2.918,0.896-4.188c0.598-1.271,1.412-2.246,2.441-2.927s2.18-1.021,3.45-1.021
			c1.013,0,1.891,0.194,2.634,0.583l-0.386,0.772c-0.314-0.172-0.67-0.306-1.068-0.403
			C316.604,142.109,316.211,142.061,315.822,142.061z"/>
	</g>
	<g enable-background="new    ">
		<path fill="#454646" d="M205.298,167.084c0.395,0,0.747,0.04,1.055,0.12l-0.18,0.799c-0.269-0.086-0.592-0.129-0.97-0.129
			c-0.538,0-1.05,0.183-1.536,0.549s-0.924,0.916-1.312,1.647c-0.389,0.732-0.675,1.525-0.858,2.377l-0.858,4.128h-0.841
			l1.982-9.328h0.687l-0.249,1.751h0.052c0.417-0.538,0.769-0.926,1.055-1.163s0.591-0.422,0.914-0.554
			C204.561,167.151,204.914,167.084,205.298,167.084z"/>
		<path fill="#454646" d="M209.657,176.748c-0.99,0-1.762-0.313-2.317-0.939c-0.555-0.627-0.832-1.501-0.832-2.622
			c0-1.035,0.203-2.028,0.609-2.978s0.965-1.705,1.678-2.266s1.498-0.841,2.355-0.841c0.652,0,1.173,0.175,1.562,0.523
			c0.389,0.349,0.583,0.824,0.583,1.425c0,1.035-0.468,1.824-1.403,2.368c-0.936,0.544-2.324,0.815-4.167,0.815h-0.283
			c-0.034,0.252-0.051,0.531-0.051,0.841c0,0.943,0.211,1.663,0.635,2.158s1.033,0.742,1.828,0.742c0.755,0,1.544-0.209,2.368-0.627
			v0.807C211.422,176.55,210.566,176.748,209.657,176.748z M211.047,167.84c-0.75,0-1.446,0.33-2.089,0.991
			c-0.644,0.66-1.108,1.543-1.395,2.646h0.42c2.958,0,4.437-0.771,4.437-2.316c0-0.384-0.124-0.699-0.373-0.948
			S211.465,167.84,211.047,167.84z"/>
		<path fill="#454646" d="M219.714,174.044c0,0.823-0.295,1.48-0.884,1.969c-0.589,0.489-1.39,0.734-2.402,0.734
			c-0.99,0-1.862-0.215-2.618-0.644v-0.919c0.423,0.264,0.861,0.467,1.313,0.609c0.452,0.144,0.875,0.215,1.27,0.215
			c0.79,0,1.393-0.164,1.811-0.493c0.418-0.329,0.626-0.797,0.626-1.403c0-0.24-0.044-0.452-0.133-0.635
			c-0.089-0.184-0.232-0.359-0.429-0.528c-0.197-0.168-0.576-0.413-1.137-0.733c-0.847-0.458-1.419-0.874-1.716-1.248
			c-0.298-0.375-0.446-0.831-0.446-1.369c0-0.732,0.282-1.331,0.845-1.798c0.563-0.466,1.306-0.699,2.227-0.699
			c0.429,0,0.882,0.05,1.36,0.15c0.478,0.1,0.879,0.232,1.206,0.398l-0.3,0.756c-0.778-0.366-1.533-0.55-2.265-0.55
			c-0.664,0-1.196,0.151-1.596,0.455c-0.401,0.303-0.601,0.698-0.601,1.185c0,0.314,0.049,0.566,0.146,0.755s0.271,0.385,0.52,0.588
			c0.249,0.203,0.59,0.422,1.025,0.656c0.652,0.36,1.114,0.656,1.386,0.888c0.271,0.232,0.472,0.479,0.601,0.743
			C219.65,173.389,219.714,173.696,219.714,174.044z"/>
		<path fill="#454646" d="M226.648,167.248l-0.155,0.695h-2.428l-1.159,5.449c-0.126,0.566-0.188,1.035-0.188,1.407
			c0,0.795,0.36,1.192,1.081,1.192c0.389,0,0.824-0.074,1.304-0.223v0.738c-0.578,0.16-1.064,0.24-1.458,0.24
			c-0.566,0-1.004-0.156-1.313-0.468c-0.309-0.312-0.463-0.766-0.463-1.36c0-0.417,0.083-1.007,0.249-1.768l1.107-5.209h-1.562
			l0.12-0.575l1.579-0.146l0.832-2.171h0.472l-0.472,2.196H226.648z"/>
		<path fill="#454646" d="M231.599,167.102c1.327,0,2.125,0.626,2.394,1.879h0.052l0.506-1.733h0.687l-1.965,9.328h-0.704
			l0.386-2.352h-0.051c-0.481,0.812-1.016,1.437-1.605,1.871s-1.267,0.652-2.034,0.652c-1.607,0-2.411-1.07-2.411-3.21
			c0-1.127,0.214-2.202,0.644-3.227c0.429-1.023,1.002-1.814,1.72-2.372C229.936,167.381,230.729,167.102,231.599,167.102z
			 M229.462,175.975c0.509,0,1.017-0.178,1.523-0.532s0.961-0.829,1.364-1.425c0.403-0.595,0.711-1.253,0.922-1.974
			c0.212-0.721,0.317-1.33,0.317-1.827c0-0.452-0.074-0.857-0.223-1.215c-0.149-0.357-0.369-0.641-0.661-0.85
			c-0.292-0.208-0.655-0.312-1.09-0.312c-0.709,0-1.35,0.234-1.922,0.703c-0.572,0.47-1.042,1.172-1.407,2.106
			c-0.366,0.936-0.549,1.867-0.549,2.794c0,0.869,0.143,1.509,0.429,1.918S228.885,175.975,229.462,175.975z"/>
		<path fill="#454646" d="M238.971,167.248l-1.304,5.99c-0.126,0.606-0.189,1.059-0.189,1.355c0,0.424,0.136,0.76,0.408,1.009
			c0.271,0.248,0.667,0.373,1.188,0.373c0.629,0,1.223-0.188,1.78-0.562c0.558-0.374,1.027-0.909,1.408-1.604
			c0.38-0.695,0.665-1.494,0.854-2.398l0.901-4.162h0.841l-1.982,9.328h-0.687l0.24-1.759h-0.051
			c-0.956,1.264-2.108,1.896-3.458,1.896c-0.75,0-1.317-0.178-1.703-0.532s-0.579-0.872-0.579-1.554
			c0-0.343,0.062-0.829,0.188-1.459l1.287-5.921H238.971z"/>
		<path fill="#454646" d="M251.628,167.084c0.395,0,0.747,0.04,1.055,0.12l-0.18,0.799c-0.269-0.086-0.592-0.129-0.97-0.129
			c-0.538,0-1.05,0.183-1.536,0.549s-0.924,0.916-1.312,1.647c-0.389,0.732-0.675,1.525-0.858,2.377l-0.858,4.128h-0.841
			l1.982-9.328h0.687l-0.249,1.751h0.052c0.417-0.538,0.769-0.926,1.055-1.163s0.591-0.422,0.914-0.554
			C250.891,167.151,251.244,167.084,251.628,167.084z"/>
		<path fill="#454646" d="M257.583,167.102c1.327,0,2.125,0.626,2.394,1.879h0.052l0.506-1.733h0.687l-1.965,9.328h-0.704
			l0.386-2.352h-0.051c-0.481,0.812-1.016,1.437-1.605,1.871s-1.267,0.652-2.034,0.652c-1.607,0-2.411-1.07-2.411-3.21
			c0-1.127,0.214-2.202,0.644-3.227c0.429-1.023,1.002-1.814,1.72-2.372C255.92,167.381,256.713,167.102,257.583,167.102z
			 M255.446,175.975c0.509,0,1.017-0.178,1.523-0.532s0.961-0.829,1.364-1.425c0.403-0.595,0.711-1.253,0.922-1.974
			c0.212-0.721,0.317-1.33,0.317-1.827c0-0.452-0.074-0.857-0.223-1.215c-0.149-0.357-0.369-0.641-0.661-0.85
			c-0.292-0.208-0.655-0.312-1.09-0.312c-0.709,0-1.35,0.234-1.922,0.703c-0.572,0.47-1.042,1.172-1.407,2.106
			c-0.366,0.936-0.549,1.867-0.549,2.794c0,0.869,0.143,1.509,0.429,1.918S254.869,175.975,255.446,175.975z"/>
		<path fill="#454646" d="M268.241,176.576l1.278-5.938c0.12-0.526,0.18-0.973,0.18-1.339c0-0.457-0.124-0.814-0.373-1.072
			s-0.634-0.386-1.154-0.386c-0.641,0-1.243,0.191-1.806,0.574c-0.563,0.384-1.039,0.92-1.425,1.609
			c-0.386,0.689-0.682,1.509-0.888,2.459l-0.875,4.093h-0.841l1.982-9.328h0.704l-0.317,1.896h0.052
			c0.938-1.361,2.128-2.042,3.57-2.042c0.744,0,1.301,0.183,1.673,0.549c0.372,0.366,0.558,0.893,0.558,1.579
			c0,0.4-0.069,0.921-0.206,1.562l-1.27,5.784H268.241z"/>
		<path fill="#454646" d="M277.449,167.248l-0.155,0.695h-2.428l-1.159,5.449c-0.126,0.566-0.188,1.035-0.188,1.407
			c0,0.795,0.36,1.192,1.081,1.192c0.389,0,0.824-0.074,1.304-0.223v0.738c-0.578,0.16-1.064,0.24-1.458,0.24
			c-0.566,0-1.004-0.156-1.313-0.468c-0.309-0.312-0.463-0.766-0.463-1.36c0-0.417,0.083-1.007,0.249-1.768l1.107-5.209h-1.562
			l0.12-0.575l1.579-0.146l0.832-2.171h0.472l-0.472,2.196H277.449z"/>
		<path fill="#454646" d="M277.483,172.268l0.154-0.772h3.922l-0.137,0.772H277.483z"/>
		<path fill="#454646" d="M288.295,167.084c0.395,0,0.747,0.04,1.055,0.12l-0.18,0.799c-0.269-0.086-0.592-0.129-0.97-0.129
			c-0.538,0-1.05,0.183-1.536,0.549s-0.924,0.916-1.312,1.647c-0.389,0.732-0.675,1.525-0.858,2.377l-0.858,4.128h-0.841
			l1.982-9.328h0.687l-0.249,1.751h0.052c0.417-0.538,0.769-0.926,1.055-1.163s0.591-0.422,0.914-0.554
			C287.559,167.151,287.912,167.084,288.295,167.084z"/>
		<path fill="#454646" d="M292.654,176.748c-0.99,0-1.762-0.313-2.317-0.939c-0.555-0.627-0.832-1.501-0.832-2.622
			c0-1.035,0.203-2.028,0.609-2.978s0.965-1.705,1.678-2.266s1.498-0.841,2.355-0.841c0.652,0,1.173,0.175,1.562,0.523
			c0.389,0.349,0.583,0.824,0.583,1.425c0,1.035-0.468,1.824-1.403,2.368c-0.936,0.544-2.324,0.815-4.167,0.815h-0.283
			c-0.034,0.252-0.051,0.531-0.051,0.841c0,0.943,0.211,1.663,0.635,2.158s1.033,0.742,1.828,0.742c0.755,0,1.544-0.209,2.368-0.627
			v0.807C294.419,176.55,293.564,176.748,292.654,176.748z M294.044,167.84c-0.75,0-1.446,0.33-2.089,0.991
			c-0.644,0.66-1.108,1.543-1.395,2.646h0.42c2.958,0,4.437-0.771,4.437-2.316c0-0.384-0.124-0.699-0.373-0.948
			S294.462,167.84,294.044,167.84z"/>
		<path fill="#454646" d="M298.962,176.576l-1.476-9.328h0.867l0.927,6.308c0.148,0.943,0.243,1.671,0.283,2.18h0.051
			c0.292-0.658,0.661-1.391,1.107-2.197l3.484-6.29h0.875l-5.149,9.328H298.962z"/>
		<path fill="#454646" d="M305.767,176.576h-0.841l1.982-9.328h0.824L305.767,176.576z M307.277,164.854
			c0-0.314,0.063-0.566,0.189-0.756c0.125-0.188,0.297-0.283,0.515-0.283c0.326,0,0.489,0.206,0.489,0.618
			c0,0.326-0.063,0.584-0.189,0.772s-0.289,0.283-0.489,0.283c-0.166,0-0.293-0.056-0.382-0.167
			C307.321,165.209,307.277,165.054,307.277,164.854z"/>
		<path fill="#454646" d="M312.374,176.748c-0.99,0-1.762-0.313-2.317-0.939c-0.555-0.627-0.832-1.501-0.832-2.622
			c0-1.035,0.203-2.028,0.609-2.978s0.965-1.705,1.678-2.266s1.498-0.841,2.355-0.841c0.652,0,1.173,0.175,1.562,0.523
			c0.389,0.349,0.583,0.824,0.583,1.425c0,1.035-0.468,1.824-1.403,2.368c-0.936,0.544-2.324,0.815-4.167,0.815h-0.283
			c-0.034,0.252-0.051,0.531-0.051,0.841c0,0.943,0.211,1.663,0.635,2.158s1.033,0.742,1.828,0.742c0.755,0,1.544-0.209,2.368-0.627
			v0.807C314.139,176.55,313.284,176.748,312.374,176.748z M313.764,167.84c-0.75,0-1.446,0.33-2.089,0.991
			c-0.644,0.66-1.108,1.543-1.395,2.646h0.42c2.958,0,4.437-0.771,4.437-2.316c0-0.384-0.124-0.699-0.373-0.948
			S314.182,167.84,313.764,167.84z"/>
		<path fill="#454646" d="M323.504,176.576l-0.515-5.887c-0.08-1.281-0.12-2.042-0.12-2.282h-0.052
			c-0.194,0.526-0.606,1.355-1.235,2.488l-3.055,5.681h-1.004l-0.171-9.328h0.789l0.112,7.046l-0.026,1.347h0.052
			c0.349-0.767,0.778-1.616,1.287-2.549l3.201-5.844h0.661l0.549,5.844c0.08,0.842,0.12,1.69,0.12,2.549h0.051l0.206-0.523
			l0.867-2.025l2.746-5.844h0.824l-4.359,9.328H323.504z"/>
		<path fill="#454646" d="M332.291,176.748c-0.99,0-1.762-0.313-2.317-0.939c-0.555-0.627-0.832-1.501-0.832-2.622
			c0-1.035,0.203-2.028,0.609-2.978s0.965-1.705,1.678-2.266s1.498-0.841,2.355-0.841c0.652,0,1.173,0.175,1.562,0.523
			c0.389,0.349,0.583,0.824,0.583,1.425c0,1.035-0.468,1.824-1.403,2.368c-0.936,0.544-2.324,0.815-4.167,0.815h-0.283
			c-0.034,0.252-0.051,0.531-0.051,0.841c0,0.943,0.211,1.663,0.635,2.158s1.033,0.742,1.828,0.742c0.755,0,1.544-0.209,2.368-0.627
			v0.807C334.056,176.55,333.201,176.748,332.291,176.748z M333.681,167.84c-0.75,0-1.446,0.33-2.089,0.991
			c-0.644,0.66-1.108,1.543-1.395,2.646h0.42c2.958,0,4.437-0.771,4.437-2.316c0-0.384-0.124-0.699-0.373-0.948
			S334.099,167.84,333.681,167.84z"/>
		<path fill="#454646" d="M342.349,167.084c0.395,0,0.747,0.04,1.055,0.12l-0.18,0.799c-0.269-0.086-0.592-0.129-0.97-0.129
			c-0.538,0-1.05,0.183-1.536,0.549s-0.924,0.916-1.312,1.647c-0.389,0.732-0.675,1.525-0.858,2.377l-0.858,4.128h-0.841
			l1.982-9.328h0.687l-0.249,1.751h0.052c0.417-0.538,0.769-0.926,1.055-1.163s0.591-0.422,0.914-0.554
			C341.612,167.151,341.965,167.084,342.349,167.084z"/>
	</g>
	<rect x="376.19" y="140.625" fill="none" width="169.34" height="44.324"/>
	<g enable-background="new    ">
		<path fill="#454646" d="M432.619,144.652l-0.155,0.695h-2.428l-1.159,5.449c-0.126,0.566-0.188,1.035-0.188,1.407
			c0,0.795,0.36,1.192,1.081,1.192c0.389,0,0.824-0.074,1.304-0.223v0.738c-0.578,0.16-1.064,0.24-1.458,0.24
			c-0.566,0-1.004-0.156-1.313-0.468c-0.309-0.312-0.463-0.766-0.463-1.36c0-0.417,0.083-1.007,0.249-1.768l1.107-5.209h-1.562
			l0.12-0.575l1.579-0.146l0.832-2.171h0.472l-0.472,2.196H432.619z"/>
		<path fill="#454646" d="M434.318,153.98l-1.476-9.328h0.867l0.927,6.308c0.148,0.943,0.243,1.671,0.283,2.18h0.051
			c0.292-0.658,0.661-1.391,1.107-2.197l3.484-6.29h0.875l-5.149,9.328H434.318z"/>
		<path fill="#454646" d="M442.771,158.202c-0.355,0-0.678-0.054-0.97-0.163v-0.789c0.269,0.126,0.592,0.188,0.97,0.188
			c0.469,0,0.836-0.147,1.103-0.441c0.266-0.295,0.473-0.803,0.622-1.523l2.283-10.821h0.824l-2.3,10.907
			c-0.2,0.943-0.505,1.62-0.914,2.029C443.979,157.998,443.439,158.202,442.771,158.202z M447.198,142.258
			c0-0.314,0.063-0.566,0.189-0.756c0.125-0.188,0.297-0.283,0.515-0.283c0.326,0,0.489,0.206,0.489,0.618
			c0,0.326-0.063,0.584-0.189,0.772s-0.289,0.283-0.489,0.283c-0.166,0-0.293-0.056-0.382-0.167
			C447.243,142.614,447.198,142.458,447.198,142.258z"/>
		<path fill="#454646" d="M451.541,144.652l-1.304,5.99c-0.126,0.606-0.189,1.059-0.189,1.355c0,0.424,0.136,0.76,0.408,1.009
			c0.271,0.248,0.667,0.373,1.188,0.373c0.629,0,1.223-0.188,1.78-0.562c0.558-0.374,1.027-0.909,1.408-1.604
			c0.38-0.695,0.665-1.494,0.854-2.398l0.901-4.162h0.841l-1.982,9.328h-0.687l0.24-1.759h-0.051
			c-0.956,1.264-2.108,1.896-3.458,1.896c-0.75,0-1.317-0.178-1.703-0.532s-0.579-0.872-0.579-1.554
			c0-0.343,0.062-0.829,0.188-1.459l1.287-5.921H451.541z"/>
		<path fill="#454646" d="M464.635,153.98l1.279-5.938c0.119-0.526,0.18-0.973,0.18-1.339c0-0.457-0.124-0.814-0.373-1.072
			s-0.634-0.386-1.154-0.386c-0.641,0-1.242,0.191-1.807,0.574c-0.562,0.384-1.038,0.92-1.424,1.609
			c-0.387,0.689-0.683,1.509-0.889,2.459l-0.875,4.093h-0.841l1.981-9.328h0.704l-0.317,1.896h0.052
			c0.938-1.361,2.128-2.042,3.569-2.042c0.744,0,1.302,0.183,1.674,0.549c0.371,0.366,0.558,0.893,0.558,1.579
			c0,0.4-0.069,0.921-0.206,1.562l-1.27,5.784H464.635z"/>
		<path fill="#454646" d="M470.205,149.887l5.226-5.235h1.073l-4.067,4.025l2.549,5.303h-0.91l-2.266-4.797l-1.759,1.613
			l-0.687,3.184h-0.824l2.832-13.353h0.824l-1.425,6.693l-0.601,2.566H470.205z"/>
		<path fill="#454646" d="M477.482,153.98h-0.841l1.982-9.328h0.823L477.482,153.98z M478.993,142.258
			c0-0.314,0.062-0.566,0.188-0.756c0.126-0.188,0.298-0.283,0.515-0.283c0.326,0,0.489,0.206,0.489,0.618
			c0,0.326-0.063,0.584-0.188,0.772c-0.127,0.188-0.289,0.283-0.489,0.283c-0.166,0-0.294-0.056-0.382-0.167
			C479.037,142.614,478.993,142.458,478.993,142.258z"/>
		<path fill="#454646" d="M484.088,154.152c-0.989,0-1.762-0.313-2.316-0.939c-0.555-0.627-0.832-1.501-0.832-2.622
			c0-1.035,0.203-2.028,0.609-2.978s0.965-1.705,1.678-2.266c0.712-0.561,1.497-0.841,2.355-0.841c0.652,0,1.172,0.175,1.562,0.523
			c0.389,0.349,0.583,0.824,0.583,1.425c0,1.035-0.467,1.824-1.402,2.368s-2.324,0.815-4.166,0.815h-0.283
			c-0.035,0.252-0.052,0.531-0.052,0.841c0,0.943,0.212,1.663,0.635,2.158s1.032,0.742,1.828,0.742c0.755,0,1.544-0.209,2.368-0.627
			v0.807C485.854,153.955,484.999,154.152,484.088,154.152z M485.479,145.245c-0.75,0-1.445,0.33-2.09,0.991
			c-0.643,0.66-1.107,1.543-1.395,2.646h0.421c2.958,0,4.437-0.771,4.437-2.316c0-0.384-0.124-0.699-0.373-0.948
			S485.897,145.245,485.479,145.245z"/>
	</g>
	<rect x="555.7" y="140.625" fill="none" width="169.342" height="44.324"/>
	<g enable-background="new    ">
		<path fill="#454646" d="M600.241,154.118c-0.646,0-1.18-0.169-1.597-0.507c-0.417-0.337-0.694-0.812-0.832-1.425h-0.052
			l-0.472,1.794h-0.687l2.806-13.353h0.815c-0.75,3.593-1.213,5.741-1.391,6.444h0.052c0.532-0.893,1.102-1.549,1.708-1.969
			c0.605-0.421,1.268-0.631,1.982-0.631c1.607,0,2.411,1.072,2.411,3.218c0,1.161-0.218,2.248-0.652,3.261s-1.01,1.794-1.725,2.343
			C601.893,153.842,601.104,154.118,600.241,154.118z M602.385,145.245c-0.52,0-1.035,0.176-1.545,0.527
			c-0.509,0.352-0.968,0.837-1.377,1.454c-0.408,0.618-0.713,1.291-0.914,2.017c-0.199,0.727-0.3,1.316-0.3,1.769
			c0,0.737,0.183,1.316,0.55,1.737c0.365,0.421,0.84,0.631,1.424,0.631c0.709,0,1.35-0.237,1.922-0.712
			c0.572-0.476,1.041-1.176,1.408-2.103c0.365-0.927,0.549-1.856,0.549-2.789c0-0.87-0.141-1.509-0.42-1.918
			C603.401,145.449,602.969,145.245,602.385,145.245z"/>
		<path fill="#454646" d="M611.448,144.506c1.326,0,2.125,0.626,2.394,1.879h0.052l0.506-1.733h0.688l-1.966,9.328h-0.704
			l0.387-2.352h-0.051c-0.481,0.812-1.016,1.437-1.605,1.871s-1.268,0.652-2.033,0.652c-1.607,0-2.412-1.07-2.412-3.21
			c0-1.127,0.215-2.202,0.645-3.227c0.428-1.023,1.002-1.814,1.72-2.372S610.578,144.506,611.448,144.506z M609.311,153.379
			c0.509,0,1.017-0.178,1.523-0.532c0.506-0.354,0.961-0.829,1.363-1.425c0.404-0.595,0.711-1.253,0.923-1.974
			s0.317-1.33,0.317-1.827c0-0.452-0.074-0.857-0.223-1.215s-0.369-0.641-0.661-0.85c-0.292-0.208-0.655-0.312-1.09-0.312
			c-0.71,0-1.351,0.234-1.922,0.703c-0.572,0.47-1.042,1.172-1.407,2.106c-0.366,0.936-0.549,1.867-0.549,2.794
			c0,0.869,0.143,1.509,0.428,1.918C608.301,153.175,608.733,153.379,609.311,153.379z"/>
		<path fill="#454646" d="M621.668,144.489c0.395,0,0.746,0.04,1.055,0.12l-0.18,0.799c-0.27-0.086-0.592-0.129-0.971-0.129
			c-0.537,0-1.049,0.183-1.535,0.549s-0.924,0.916-1.312,1.647c-0.39,0.732-0.676,1.525-0.859,2.377l-0.857,4.128h-0.842
			l1.982-9.328h0.688l-0.25,1.751h0.053c0.417-0.538,0.769-0.926,1.055-1.163s0.591-0.422,0.914-0.554
			C620.931,144.555,621.284,144.489,621.668,144.489z"/>
		<path fill="#454646" d="M626.293,154.118c-0.646,0-1.18-0.169-1.597-0.507c-0.417-0.337-0.694-0.812-0.832-1.425h-0.052
			l-0.472,1.794h-0.687l2.806-13.353h0.815c-0.75,3.593-1.213,5.741-1.391,6.444h0.052c0.532-0.893,1.102-1.549,1.708-1.969
			c0.605-0.421,1.268-0.631,1.982-0.631c1.607,0,2.411,1.072,2.411,3.218c0,1.161-0.218,2.248-0.652,3.261s-1.01,1.794-1.725,2.343
			C627.946,153.842,627.157,154.118,626.293,154.118z M628.438,145.245c-0.52,0-1.035,0.176-1.545,0.527
			c-0.509,0.352-0.968,0.837-1.377,1.454c-0.408,0.618-0.713,1.291-0.914,2.017c-0.199,0.727-0.3,1.316-0.3,1.769
			c0,0.737,0.183,1.316,0.55,1.737c0.365,0.421,0.84,0.631,1.424,0.631c0.709,0,1.35-0.237,1.922-0.712
			c0.572-0.476,1.041-1.176,1.408-2.103c0.365-0.927,0.549-1.856,0.549-2.789c0-0.87-0.141-1.509-0.42-1.918
			C629.454,145.449,629.022,145.245,628.438,145.245z"/>
		<path fill="#454646" d="M633.373,153.98h-0.841l1.982-9.328h0.823L633.373,153.98z M634.883,142.258
			c0-0.314,0.062-0.566,0.188-0.756c0.126-0.188,0.298-0.283,0.515-0.283c0.326,0,0.489,0.206,0.489,0.618
			c0,0.326-0.063,0.584-0.188,0.772c-0.127,0.188-0.289,0.283-0.489,0.283c-0.166,0-0.294-0.056-0.382-0.167
			C634.927,142.614,634.883,142.458,634.883,142.258z"/>
		<path fill="#454646" d="M639.98,154.152c-0.989,0-1.762-0.313-2.317-0.939c-0.555-0.627-0.832-1.501-0.832-2.622
			c0-1.035,0.203-2.028,0.609-2.978s0.965-1.705,1.678-2.266s1.498-0.841,2.355-0.841c0.652,0,1.173,0.175,1.562,0.523
			c0.389,0.349,0.583,0.824,0.583,1.425c0,1.035-0.468,1.824-1.403,2.368s-2.324,0.815-4.166,0.815h-0.283
			c-0.034,0.252-0.051,0.531-0.051,0.841c0,0.943,0.211,1.663,0.635,2.158c0.423,0.495,1.032,0.742,1.828,0.742
			c0.754,0,1.544-0.209,2.367-0.627v0.807C641.745,153.955,640.889,154.152,639.98,154.152z M641.37,145.245
			c-0.749,0-1.445,0.33-2.089,0.991c-0.644,0.66-1.108,1.543-1.395,2.646h0.421c2.957,0,4.436-0.771,4.436-2.316
			c0-0.384-0.123-0.699-0.373-0.948C642.122,145.369,641.788,145.245,641.37,145.245z"/>
		<path fill="#454646" d="M654.104,144.506c1.316,0,2.114,0.626,2.395,1.879h0.035c0.068-0.377,0.477-2.297,1.227-5.758h0.85
			l-2.832,13.353h-0.703l0.386-2.352h-0.052c-0.99,1.683-2.202,2.523-3.639,2.523c-1.607,0-2.41-1.07-2.41-3.21
			c0-1.104,0.203-2.162,0.613-3.175c0.408-1.013,0.974-1.81,1.694-2.39C652.388,144.796,653.201,144.506,654.104,144.506z
			 M651.967,153.379c0.51,0,1.021-0.179,1.532-0.536c0.513-0.357,0.97-0.838,1.373-1.442c0.403-0.604,0.708-1.264,0.914-1.981
			c0.206-0.719,0.309-1.317,0.309-1.798c0-0.721-0.176-1.298-0.527-1.729c-0.353-0.432-0.834-0.647-1.446-0.647
			c-0.709,0-1.35,0.237-1.922,0.712s-1.041,1.169-1.407,2.081s-0.55,1.85-0.55,2.811
			C650.243,152.536,650.818,153.379,651.967,153.379z"/>
		<path fill="#454646" d="M663.776,144.472c1.029,0,1.826,0.311,2.39,0.931c0.563,0.621,0.845,1.478,0.845,2.57
			c0,1.127-0.204,2.181-0.613,3.162c-0.408,0.981-0.968,1.729-1.678,2.244c-0.709,0.515-1.527,0.772-2.453,0.772
			c-1.053,0-1.854-0.313-2.398-0.939c-0.547-0.627-0.82-1.523-0.82-2.69c0-1.093,0.209-2.117,0.627-3.072
			c0.417-0.955,0.98-1.69,1.689-2.205C662.074,144.729,662.877,144.472,663.776,144.472z M663.708,145.209
			c-0.71,0-1.348,0.225-1.914,0.674s-1.018,1.093-1.355,1.931c-0.338,0.839-0.507,1.727-0.507,2.665c0,1.956,0.807,2.935,2.42,2.935
			c0.727,0,1.372-0.222,1.935-0.665c0.564-0.443,1.014-1.096,1.348-1.956c0.335-0.861,0.502-1.807,0.502-2.837
			c0-0.881-0.209-1.559-0.626-2.033C665.091,145.448,664.491,145.209,663.708,145.209z"/>
		<path fill="#454646" d="M669.311,153.98h-0.807l2.866-13.353h0.806L669.311,153.98z"/>
		<path fill="#454646" d="M673.387,153.98h-0.807l2.866-13.353h0.806L673.387,153.98z"/>
	</g>
	<g enable-background="new    ">
		<path fill="#454646" d="M609.765,176.748c-0.995,0-1.78-0.316-2.355-0.948s-0.862-1.509-0.862-2.631
			c0-1.104,0.21-2.138,0.631-3.102c0.42-0.964,0.988-1.699,1.703-2.205c0.715-0.507,1.545-0.76,2.488-0.76
			c0.767,0,1.456,0.123,2.068,0.369l-0.24,0.772c-0.612-0.27-1.236-0.403-1.871-0.403c-0.738,0-1.402,0.22-1.995,0.66
			c-0.592,0.44-1.057,1.076-1.394,1.905c-0.338,0.829-0.507,1.745-0.507,2.746c0,0.904,0.21,1.601,0.63,2.09
			c0.422,0.488,1.018,0.733,1.79,0.733c0.405,0,0.782-0.037,1.128-0.111c0.347-0.074,0.723-0.206,1.129-0.396v0.79
			C611.444,176.584,610.663,176.748,609.765,176.748z"/>
		<path fill="#454646" d="M618.852,167.068c1.03,0,1.826,0.311,2.391,0.931c0.562,0.621,0.845,1.478,0.845,2.57
			c0,1.127-0.204,2.181-0.613,3.162s-0.968,1.729-1.678,2.244s-1.527,0.772-2.454,0.772c-1.053,0-1.853-0.313-2.398-0.939
			c-0.547-0.627-0.82-1.523-0.82-2.69c0-1.093,0.209-2.117,0.627-3.072s0.98-1.69,1.69-2.205
			C617.151,167.325,617.954,167.068,618.852,167.068z M618.784,167.805c-0.709,0-1.348,0.225-1.914,0.674s-1.018,1.093-1.355,1.931
			c-0.338,0.839-0.506,1.727-0.506,2.665c0,1.956,0.807,2.935,2.42,2.935c0.727,0,1.371-0.222,1.935-0.665s1.013-1.096,1.348-1.956
			c0.335-0.861,0.502-1.807,0.502-2.837c0-0.881-0.209-1.559-0.626-2.033C620.168,168.043,619.567,167.805,618.784,167.805z"/>
		<path fill="#454646" d="M624.387,176.576h-0.807l2.867-13.353h0.806L624.387,176.576z"/>
		<path fill="#454646" d="M628.463,176.576h-0.807l2.867-13.353h0.806L628.463,176.576z"/>
		<path fill="#454646" d="M635.106,176.748c-0.99,0-1.762-0.313-2.317-0.939c-0.555-0.627-0.832-1.501-0.832-2.622
			c0-1.035,0.202-2.028,0.608-2.978s0.966-1.705,1.678-2.266c0.713-0.561,1.498-0.841,2.355-0.841c0.652,0,1.174,0.175,1.562,0.523
			s0.584,0.824,0.584,1.425c0,1.035-0.469,1.824-1.403,2.368c-0.936,0.544-2.324,0.815-4.167,0.815h-0.283
			c-0.033,0.252-0.051,0.531-0.051,0.841c0,0.943,0.211,1.663,0.635,2.158s1.033,0.742,1.828,0.742c0.755,0,1.545-0.209,2.368-0.627
			v0.807C636.871,176.55,636.015,176.748,635.106,176.748z M636.496,167.84c-0.749,0-1.446,0.33-2.089,0.991
			c-0.645,0.66-1.109,1.543-1.395,2.646h0.42c2.958,0,4.437-0.771,4.437-2.316c0-0.384-0.124-0.699-0.373-0.948
			S636.914,167.84,636.496,167.84z"/>
		<path fill="#454646" d="M643.137,176.748c-0.995,0-1.78-0.316-2.355-0.948c-0.574-0.632-0.861-1.509-0.861-2.631
			c0-1.104,0.209-2.138,0.63-3.102s0.988-1.699,1.704-2.205c0.715-0.507,1.544-0.76,2.488-0.76c0.766,0,1.455,0.123,2.068,0.369
			l-0.24,0.772c-0.613-0.27-1.236-0.403-1.871-0.403c-0.738,0-1.403,0.22-1.996,0.66c-0.592,0.44-1.057,1.076-1.394,1.905
			c-0.338,0.829-0.507,1.745-0.507,2.746c0,0.904,0.211,1.601,0.631,2.09c0.421,0.488,1.018,0.733,1.789,0.733
			c0.406,0,0.783-0.037,1.129-0.111s0.723-0.206,1.129-0.396v0.79C644.817,176.584,644.036,176.748,643.137,176.748z"/>
		<path fill="#454646" d="M652.612,167.248l-0.155,0.695h-2.429l-1.158,5.449c-0.126,0.566-0.188,1.035-0.188,1.407
			c0,0.795,0.36,1.192,1.081,1.192c0.389,0,0.824-0.074,1.305-0.223v0.738c-0.578,0.16-1.064,0.24-1.459,0.24
			c-0.566,0-1.004-0.156-1.312-0.468c-0.31-0.312-0.464-0.766-0.464-1.36c0-0.417,0.083-1.007,0.249-1.768l1.106-5.209h-1.562
			l0.12-0.575l1.579-0.146l0.832-2.171h0.473l-0.473,2.196H652.612z"/>
		<path fill="#454646" d="M657.511,167.068c1.03,0,1.826,0.311,2.39,0.931c0.563,0.621,0.846,1.478,0.846,2.57
			c0,1.127-0.205,2.181-0.613,3.162c-0.41,0.981-0.969,1.729-1.678,2.244c-0.71,0.515-1.527,0.772-2.455,0.772
			c-1.053,0-1.852-0.313-2.398-0.939c-0.546-0.627-0.819-1.523-0.819-2.69c0-1.093,0.209-2.117,0.626-3.072
			c0.418-0.955,0.981-1.69,1.691-2.205C655.809,167.325,656.613,167.068,657.511,167.068z M657.442,167.805
			c-0.709,0-1.347,0.225-1.913,0.674s-1.019,1.093-1.356,1.931c-0.337,0.839-0.506,1.727-0.506,2.665
			c0,1.956,0.807,2.935,2.42,2.935c0.727,0,1.371-0.222,1.936-0.665c0.562-0.443,1.012-1.096,1.348-1.956
			c0.334-0.861,0.502-1.807,0.502-2.837c0-0.881-0.209-1.559-0.627-2.033S658.226,167.805,657.442,167.805z"/>
		<path fill="#454646" d="M667.706,167.084c0.395,0,0.747,0.04,1.056,0.12l-0.181,0.799c-0.269-0.086-0.592-0.129-0.969-0.129
			c-0.538,0-1.051,0.183-1.537,0.549s-0.924,0.916-1.312,1.647c-0.389,0.732-0.675,1.525-0.857,2.377l-0.858,4.128h-0.841
			l1.982-9.328h0.686l-0.248,1.751h0.051c0.418-0.538,0.77-0.926,1.056-1.163s0.591-0.422,0.914-0.554
			C666.969,167.151,667.323,167.084,667.706,167.084z"/>
	</g>
	<rect x="737.721" y="140.625" fill="none" width="169.34" height="44.324"/>
	<g enable-background="new    ">
		<path fill="#454646" d="M807.766,153.98l1.262-5.784c0.143-0.715,0.214-1.178,0.214-1.39c0-1.041-0.44-1.562-1.321-1.562
			c-0.606,0-1.179,0.192-1.717,0.579c-0.537,0.386-0.992,0.925-1.363,1.617c-0.373,0.692-0.658,1.514-0.859,2.463l-0.857,4.076
			h-0.842l1.982-9.328h0.688l-0.283,1.803h0.051c0.458-0.646,0.977-1.133,1.558-1.459s1.188-0.489,1.823-0.489
			c0.607,0,1.073,0.191,1.398,0.575c0.326,0.383,0.498,0.94,0.516,1.673h0.051c0.441-0.738,0.959-1.297,1.554-1.678
			c0.595-0.38,1.229-0.57,1.905-0.57c0.67,0,1.191,0.176,1.566,0.527c0.374,0.353,0.562,0.857,0.562,1.515
			c0,0.166-0.007,0.328-0.021,0.485s-0.069,0.499-0.167,1.025l-1.305,5.921h-0.857l1.277-5.835c0.144-0.687,0.215-1.19,0.215-1.511
			c0-0.44-0.123-0.782-0.369-1.025s-0.586-0.364-1.021-0.364c-0.898,0-1.692,0.393-2.382,1.18c-0.689,0.786-1.171,1.823-1.445,3.11
			l-0.936,4.445H807.766z"/>
		<path fill="#454646" d="M822.26,144.472c1.029,0,1.826,0.311,2.389,0.931c0.564,0.621,0.846,1.478,0.846,2.57
			c0,1.127-0.205,2.181-0.613,3.162c-0.409,0.981-0.969,1.729-1.678,2.244s-1.527,0.772-2.454,0.772
			c-1.053,0-1.853-0.313-2.398-0.939c-0.546-0.627-0.819-1.523-0.819-2.69c0-1.093,0.209-2.117,0.626-3.072s0.981-1.69,1.69-2.205
			C820.557,144.729,821.362,144.472,822.26,144.472z M822.191,145.209c-0.71,0-1.347,0.225-1.913,0.674s-1.019,1.093-1.356,1.931
			c-0.337,0.839-0.507,1.727-0.507,2.665c0,1.956,0.807,2.935,2.42,2.935c0.727,0,1.372-0.222,1.936-0.665s1.013-1.096,1.348-1.956
			c0.334-0.861,0.502-1.807,0.502-2.837c0-0.881-0.209-1.559-0.627-2.033S822.975,145.209,822.191,145.209z"/>
		<path fill="#454646" d="M832.436,153.98l1.262-5.784c0.144-0.715,0.215-1.178,0.215-1.39c0-1.041-0.44-1.562-1.321-1.562
			c-0.606,0-1.179,0.192-1.716,0.579c-0.539,0.386-0.993,0.925-1.365,1.617c-0.371,0.692-0.658,1.514-0.857,2.463l-0.858,4.076
			h-0.841l1.982-9.328h0.686l-0.283,1.803h0.052c0.458-0.646,0.978-1.133,1.558-1.459s1.188-0.489,1.824-0.489
			c0.605,0,1.072,0.191,1.398,0.575c0.326,0.383,0.498,0.94,0.515,1.673h0.052c0.439-0.738,0.958-1.297,1.553-1.678
			c0.596-0.38,1.23-0.57,1.905-0.57c0.669,0,1.191,0.176,1.565,0.527c0.375,0.353,0.562,0.857,0.562,1.515
			c0,0.166-0.008,0.328-0.021,0.485s-0.07,0.499-0.167,1.025l-1.305,5.921h-0.858l1.279-5.835c0.143-0.687,0.215-1.19,0.215-1.511
			c0-0.44-0.123-0.782-0.369-1.025s-0.587-0.364-1.021-0.364c-0.898,0-1.691,0.393-2.381,1.18c-0.689,0.786-1.172,1.823-1.446,3.11
			l-0.936,4.445H832.436z"/>
	</g>
	<g>
		<path fill="none" stroke="#222222" stroke-width="1.2553" stroke-miterlimit="10" d="M100.583,77.479h28.622
			c0,0,12.302,2.511,12.302-11.298V40.99h-28.371l0,0v-5.021c-19.079-7.029-35.148-0.25-35.148-0.25v5.523h-28.37v25.357
			c0,13.809,12.302,11.298,12.302,11.298h28.621v3.263h10.546v-4.936H90.552v1.265"/>
		
			<line fill="none" stroke="#222222" stroke-width="1.2553" stroke-linecap="round" stroke-miterlimit="10" x1="53.007" y1="43.751" x2="53.007" y2="48.146"/>
		
			<line fill="none" stroke="#222222" stroke-width="1.2553" stroke-linecap="round" stroke-miterlimit="10" x1="53.007" y1="50.531" x2="53.007" y2="54.925"/>
		
			<line fill="none" stroke="#222222" stroke-width="1.2553" stroke-linecap="round" stroke-miterlimit="10" x1="53.007" y1="57.309" x2="53.007" y2="61.703"/>
		
			<line fill="none" stroke="#222222" stroke-width="1.2553" stroke-linecap="round" stroke-miterlimit="10" x1="53.007" y1="64.088" x2="53.007" y2="68.482"/>
		
			<line fill="none" stroke="#222222" stroke-width="1.2553" stroke-linecap="round" stroke-miterlimit="10" x1="137.993" y1="43.626" x2="137.993" y2="48.021"/>
		
			<line fill="none" stroke="#222222" stroke-width="1.2553" stroke-linecap="round" stroke-miterlimit="10" x1="137.993" y1="50.405" x2="137.993" y2="54.798"/>
		
			<line fill="none" stroke="#222222" stroke-width="1.2553" stroke-linecap="round" stroke-miterlimit="10" x1="137.993" y1="57.184" x2="137.993" y2="61.578"/>
		
			<line fill="none" stroke="#222222" stroke-width="1.2553" stroke-linecap="round" stroke-miterlimit="10" x1="137.993" y1="63.963" x2="137.993" y2="68.357"/>
		
			<line fill="none" stroke="#222222" stroke-width="1.2553" stroke-linecap="round" stroke-miterlimit="10" x1="70.644" y1="74.398" x2="66.25" y2="74.398"/>
		
			<line fill="none" stroke="#222222" stroke-width="1.2553" stroke-linecap="round" stroke-miterlimit="10" x1="63.866" y1="74.398" x2="59.471" y2="74.398"/>
		
			<line fill="none" stroke="#222222" stroke-width="1.2553" stroke-linecap="round" stroke-miterlimit="10" x1="84.202" y1="74.398" x2="79.808" y2="74.398"/>
		
			<line fill="none" stroke="#222222" stroke-width="1.2553" stroke-linecap="round" stroke-miterlimit="10" x1="77.423" y1="74.398" x2="73.03" y2="74.398"/>
		
			<line fill="none" stroke="#222222" stroke-width="1.2553" stroke-linecap="round" stroke-miterlimit="10" x1="97.759" y1="74.398" x2="93.366" y2="74.398"/>
		
			<line fill="none" stroke="#222222" stroke-width="1.2553" stroke-linecap="round" stroke-miterlimit="10" x1="90.981" y1="74.398" x2="86.587" y2="74.398"/>
		
			<line fill="none" stroke="#222222" stroke-width="1.2553" stroke-linecap="round" stroke-miterlimit="10" x1="111.317" y1="74.398" x2="106.923" y2="74.398"/>
		
			<line fill="none" stroke="#222222" stroke-width="1.2553" stroke-linecap="round" stroke-miterlimit="10" x1="104.538" y1="74.398" x2="100.144" y2="74.398"/>
		
			<line fill="none" stroke="#222222" stroke-width="1.2553" stroke-linecap="round" stroke-miterlimit="10" x1="124.875" y1="74.398" x2="120.481" y2="74.398"/>
		
			<line fill="none" stroke="#222222" stroke-width="1.2553" stroke-linecap="round" stroke-miterlimit="10" x1="118.095" y1="74.398" x2="113.702" y2="74.398"/>
		
			<line fill="none" stroke="#222222" stroke-width="1.2553" stroke-linecap="round" stroke-miterlimit="10" x1="131.653" y1="74.398" x2="127.259" y2="74.398"/>
		<path fill="none" stroke="#222222" stroke-width="1.2553" stroke-linecap="round" stroke-miterlimit="10" d="M53.656,71.337
			c0.284,0.992,0.857,2.145,2.803,2.743"/>
		<path fill="none" stroke="#222222" stroke-width="1.2553" stroke-linecap="round" stroke-miterlimit="10" d="M137.301,71.127
			c-0.284,0.993-0.856,2.146-2.803,2.743"/>
		<path fill="none" stroke="#222222" stroke-width="1.2553" stroke-miterlimit="10" d="M81.148,41.744h28.829V38.23
			c0,0-14.478-3.85-28.787-0.084L81.148,41.744z"/>
		<g>
			<g>
				<path fill="none" stroke="#222222" stroke-width="1.2553" stroke-miterlimit="10" d="M50.456,71.976v32.449
					c0,0,0.166,4.687,5.522,4.352v-1.673h4.185v2.009v2.344h-4.185v-2.68"/>
				
					<line fill="none" stroke="#222222" stroke-width="1.2553" stroke-miterlimit="10" x1="95.312" y1="109.113" x2="60.163" y2="109.113"/>
			</g>
			<g>
				<path fill="none" stroke="#222222" stroke-width="1.2553" stroke-miterlimit="10" d="M140.418,71.997v32.45
					c0,0-0.166,4.686-5.522,4.354v-1.676h-4.185v2.01v2.343h4.185V108.8"/>
				
					<line fill="none" stroke="#222222" stroke-width="1.2553" stroke-miterlimit="10" x1="95.312" y1="109.134" x2="130.711" y2="109.134"/>
			</g>
		</g>
	</g>
	<g>
		
			<ellipse fill="none" stroke="#222222" stroke-width="1.2553" stroke-linecap="round" stroke-miterlimit="10" cx="250.102" cy="27.29" rx="16.999" ry="17.144"/>
		<path fill="none" stroke="#222222" stroke-width="1.2553" stroke-linecap="round" stroke-miterlimit="10" d="M225.008,109.332
			V70.147c0,0-0.709-18.366,14.976-18.366h17.201c0,0,9.41-1.021,15.685,4.896l18.011,15.307l14.471-16.939
			c0,0,4.653-6.733,9.308-2.855"/>
		<path fill="none" stroke="#222222" stroke-width="1.2553" stroke-linecap="round" stroke-miterlimit="10" d="M314.872,52.371
			c4.722,3.793-1.459,8.959-1.459,8.959L295.94,82.187c0,0-4.128,3.691-8.196,0.717c0,0-10.929-8.164-12.04-8.675
			c-1.114-0.51-2.229-0.407-2.229,1.837v33.879H225.21"/>
		
			<line fill="none" stroke="#222222" stroke-width="1.2553" stroke-linecap="round" stroke-miterlimit="10" x1="288.958" y1="44.229" x2="336.315" y2="44.229"/>
		<path fill="none" stroke="#222222" stroke-width="1.2553" stroke-linecap="round" stroke-miterlimit="10" d="M293.208,39.126
			h39.059c0,0-0.407-18.447-19.249-18.955l0.022-0.023c-0.136,0-0.261,0.01-0.396,0.012c-0.14-0.002-0.27-0.012-0.414-0.012
			l-0.026,0.025c-18.791,0.539-19.198,18.955-19.198,18.955"/>
		<path fill="none" stroke="#222222" stroke-width="1.2553" stroke-linecap="round" stroke-miterlimit="10" d="M316.875,17.417
			c0,0,0.303-5.357-4.098-5.357l-0.282,0.014c-4.401,0-4.099,5.357-4.099,5.357"/>
	</g>
	<g>
		<path fill="none" stroke="#222222" stroke-width="1.2553" stroke-linecap="round" stroke-miterlimit="10" d="M459.335,35.042
			c5.021,0,7.029,2.008,7.029,2.008l33.309,2.207c0,0,2.678,0.836,2.678,4.018c0,3.18,3.014,20.42-0.334,55.736
			c0,0,1.172,1.842-6.529,1.506l2.178,8.704c0,0-1.006,2.511-5.021,1.505l-1.674-10.042c0,0-9.707,1.841-32.302,2.009"/>
		<path fill="none" stroke="#222222" stroke-width="1.2553" stroke-linecap="round" stroke-miterlimit="10" d="M459.838,102.695
			c-22.599-0.168-29.395-2.01-29.395-2.01l-1.676,10.043c-4.016,1.004-5.021-1.507-5.021-1.507l2.178-8.704
			c-7.701,0.336-6.528-1.506-6.528-1.506s-3.579-59.086,1.274-59.418l31.133-2.512c0,0,2.009-2.008,7.029-2.008"/>
		<path fill="none" stroke="#222222" stroke-width="1.2553" stroke-linecap="round" stroke-miterlimit="10" d="M489.965,69.218
			c0,14.697-2.242,26.613-15.209,26.613h-37.058c-12.965,0-15.354-11.916-15.354-26.613l0,0c0-14.697,2.39-26.612,15.354-26.612
			h37.058C487.723,42.606,489.965,54.521,489.965,69.218L489.965,69.218z"/>
		
			<circle fill="none" stroke="#222222" stroke-width="1.2553" stroke-linecap="round" stroke-miterlimit="10" cx="496.327" cy="75.244" r="2.511"/>
		
			<circle fill="none" stroke="#222222" stroke-width="1.2553" stroke-linecap="round" stroke-miterlimit="10" cx="496.327" cy="82.943" r="2.511"/>
		
			<circle fill="none" stroke="#222222" stroke-width="1.2553" stroke-linecap="round" stroke-miterlimit="10" cx="496.327" cy="90.641" r="2.511"/>
		
			<line fill="none" stroke="#222222" stroke-width="1.2553" stroke-linecap="round" stroke-miterlimit="10" x1="454.482" y1="35.408" x2="432.221" y2="10.134"/>
		
			<line fill="none" stroke="#222222" stroke-width="1.2553" stroke-linecap="round" stroke-miterlimit="10" x1="462.348" y1="35.074" x2="472.557" y2="19.341"/>
		<circle fill="#222222" cx="431.886" cy="9.464" r="1.505"/>
		<path fill="#222222" d="M474.063,19.341c0,0.83-0.674,1.505-1.506,1.505s-1.508-0.675-1.508-1.505
			c0-0.834,0.676-1.508,1.508-1.508S474.063,18.507,474.063,19.341z"/>
	</g>
	<path fill="none" stroke="#222222" stroke-width="1.2553" stroke-linecap="round" stroke-miterlimit="10" d="M595.055,115.566
		c0,0,22.645-12.152,22.645-32.036c0,0,0.922-4.419-21.91-2.395c0,0-4.418,0.369-4.234-3.865c0,0-2.576-1.29-1.289-2.395
		c0,0-2.023-1.104,0.186-2.209l-0.186-3.314c0,0-2.211,0.184-2.945-0.185c-0.736-0.369,2.508-3.499,4.051-6.627
		c0,0-4.973-1.474-5.893-2.946c-0.92-1.473,4.422,1.658,6.074,0.369l0.736-7.182c0,0-2.023,0.185-4.234,0.737
		c-4.012,1.003,9.943-42.899,49.527-25.04c0.068,0.031,10.141-10.365,11.246-11.239c5.637-4.458,12.779-8.417,20.211-7.862
		c6.365,0.473,12.752,4.688,13.674,11.365c1.1,8-3.883,12.625-8.523,18.309c-2.654,3.25-5.346,6.48-7.963,9.763
		c-4.977,6.236-7.07,14.443-2.314,21.46c0,0,6.721,7.961,15.463,3.129c0,0,8.24-6.075,2.58-9.391
		c-6.258-1.473-9.021,5.066-9.941,4.053c-2.826-3.119,17.299-23.759,22.92-6.697c2.381,7.218-5.461,14.611-11.938,16.808
		c-11.527,3.911-23.424,0.658-27.92-11.217c-1.855-4.897-1.035-11.392,0.258-16.281c1.129-4.265,2.838-8.329,4.822-12.259
		c1.355-2.699,2.881-5.59,3.096-8.664c0.277-3.959-2.324-5.182-6.031-4.811c-1.547,0.154-17.422,6.098-16.691,7.033
		c0,0,10.494,13.441-1.473,31.484c0,0-4.234,7.731-9.574,11.6c0,0-13.072,19.883,7.549,32.402
		C637.03,107.464,623.04,121.642,595.055,115.566z"/>
	<g>
		
			<circle fill="none" stroke="#222222" stroke-width="1.2553" stroke-linecap="round" stroke-miterlimit="10" cx="873.868" cy="62.293" r="7.95"/>
		<g>
			<path fill="none" stroke="#222222" stroke-width="1.2553" stroke-linecap="round" stroke-miterlimit="10" d="M869.838,69.303
				c0,0-5.334,2.825-5.334,5.492s-0.471,15.221,0.312,17.574c0.783,2.354,5.414,2.196,9.021,2.196"/>
			<path fill="none" stroke="#222222" stroke-width="1.2553" stroke-linecap="round" stroke-miterlimit="10" d="M878.172,69.303
				c0,0,5.336,2.825,5.336,5.492s0.471,15.221-0.314,17.574c-0.785,2.354-5.432,2.196-9.039,2.196"/>
		</g>
		
			<line fill="none" stroke="#222222" stroke-width="1.2553" stroke-linecap="round" stroke-miterlimit="10" x1="868.321" y1="94.671" x2="868.321" y2="114.337"/>
		
			<line fill="none" stroke="#222222" stroke-width="1.2553" stroke-linecap="round" stroke-miterlimit="10" x1="880.247" y1="94.671" x2="880.247" y2="114.337"/>
		
			<circle fill="none" stroke="#222222" stroke-width="1.2553" stroke-linecap="round" stroke-miterlimit="10" cx="770.512" cy="56.017" r="7.95"/>
		<g>
			<path fill="none" stroke="#222222" stroke-width="1.2553" stroke-linecap="round" stroke-miterlimit="10" d="M766.483,63.027
				c0,0-5.334,2.824-5.334,5.492s-0.471,21.497,0.314,23.851c0.783,2.354,5.412,2.196,9.021,2.196"/>
			<path fill="none" stroke="#222222" stroke-width="1.2553" stroke-linecap="round" stroke-miterlimit="10" d="M774.817,63.027
				c0,0,5.336,2.824,5.336,5.492s0.471,21.497-0.314,23.851s-5.43,2.196-9.039,2.196"/>
		</g>
		<g>
			<path fill="none" stroke="#222222" stroke-width="1.2553" stroke-linecap="round" stroke-miterlimit="10" d="M798.055,48.172
				c0,0-6.742,3.569-6.742,6.94c0,3.371-5.158,21.102-4.168,24.076s11.406,4.08,15.967,4.08"/>
			<path fill="none" stroke="#222222" stroke-width="1.2553" stroke-linecap="round" stroke-miterlimit="10" d="M808.586,48.172
				c0,0,6.742,3.569,6.742,6.94c0,3.371,4.818,20.475,3.826,23.449c-0.99,2.973-11.086,4.707-15.646,4.707"/>
		</g>
		
			<line fill="none" stroke="#222222" stroke-width="1.2553" stroke-linecap="round" stroke-miterlimit="10" x1="764.969" y1="94.671" x2="764.969" y2="114.337"/>
		
			<line fill="none" stroke="#222222" stroke-width="1.2553" stroke-linecap="round" stroke-miterlimit="10" x1="776.895" y1="94.671" x2="776.895" y2="114.337"/>
		<path fill="none" stroke="#222222" stroke-width="1.2553" stroke-linecap="round" stroke-miterlimit="10" d="M814.973,37.345
			c0,6.355-5.154,11.508-11.51,11.508c-6.354,0-11.506-5.152-11.506-11.508c0-6.355,3.283-9.095,3.975-8.577
			C809.95,39.228,814.973,35.253,814.973,37.345z"/>
		
			<circle fill="none" stroke="#222222" stroke-width="1.2553" stroke-linecap="round" stroke-miterlimit="10" cx="840.288" cy="32.115" r="11.507"/>
		<path fill="none" stroke="#222222" stroke-width="1.2553" stroke-linecap="round" stroke-miterlimit="10" d="M802.627,21.445
			c-17.262,0.627-14.227,19.248-14.227,19.248s-0.629,4.705-1.57,5.857l10.145,1.465"/>
		<path fill="none" stroke="#222222" stroke-width="1.2553" stroke-linecap="round" stroke-miterlimit="10" d="M802.94,21.445
			c17.262,0.626,14.227,19.248,14.227,19.248s0.629,4.705,1.57,5.856l-10.146,1.466"/>
		
			<line fill="none" stroke="#222222" stroke-width="1.2553" stroke-linecap="round" stroke-miterlimit="10" x1="797.395" y1="83.165" x2="797.395" y2="114.337"/>
		
			<line fill="none" stroke="#222222" stroke-width="1.2553" stroke-linecap="round" stroke-miterlimit="10" x1="808.588" y1="83.478" x2="808.588" y2="114.234"/>
		<g>
			
				<line fill="none" stroke="#222222" stroke-width="1.2553" stroke-linecap="round" stroke-miterlimit="10" x1="834.917" y1="83.165" x2="834.917" y2="114.337"/>
			
				<line fill="none" stroke="#222222" stroke-width="1.2553" stroke-linecap="round" stroke-miterlimit="10" x1="846.108" y1="83.478" x2="846.108" y2="114.234"/>
		</g>
		<g>
			<path fill="none" stroke="#222222" stroke-width="1.2553" stroke-linecap="round" stroke-miterlimit="10" d="M833.729,41.529
				c0,0-8.68,4.598-8.68,8.938c0,4.342-0.768,24.77,0.51,28.599c1.275,3.83,8.811,3.575,14.682,3.575"/>
			<path fill="none" stroke="#222222" stroke-width="1.2553" stroke-linecap="round" stroke-miterlimit="10" d="M847.292,41.529
				c0,0,8.684,4.598,8.684,8.938c0,4.342,0.766,24.77-0.512,28.599c-1.275,3.83-8.838,3.575-14.709,3.575"/>
		</g>
		<path fill="none" stroke="#222222" stroke-width="1.2553" stroke-linecap="round" stroke-miterlimit="10" d="M837.358,46.237
			c0.314-0.941,5.492-0.784,5.648,0c0.156,0.784-1.568,4.551-1.568,4.551h-2.512C838.926,50.788,837.043,47.178,837.358,46.237z"/>
		<polygon fill="none" stroke="#222222" stroke-width="1.2553" stroke-linecap="round" stroke-miterlimit="10" points="
			838.848,53.115 836.024,67.001 839.633,70.532 843.243,66.923 841.516,53.036 		"/>
	</g>
</g>
</svg>
