<?xml version="1.0" encoding="utf-8"?>
<!-- Generator: Adobe Illustrator 16.0.0, SVG Export Plug-In . SVG Version: 6.00 Build 0)  -->
<!DOCTYPE svg PUBLIC "-//W3C//DTD SVG 1.1//EN" "http://www.w3.org/Graphics/SVG/1.1/DTD/svg11.dtd">
<svg version="1.1" xmlns="http://www.w3.org/2000/svg" xmlns:xlink="http://www.w3.org/1999/xlink" x="0px" y="0px" width="1140px"
	 height="1355px" viewBox="0 0 1140 1355" enable-background="new 0 0 1140 1355" xml:space="preserve">
<g id="Layer_1">
</g>
<g id="Illustration">
	<circle fill="none" stroke="#A1519F" stroke-width="1.5" stroke-miterlimit="10" cx="1046.549" cy="596.605" r="21.949"/>
	<circle fill="none" stroke="#A1519F" stroke-width="1.5" stroke-miterlimit="10" cx="740.358" cy="482.685" r="24.334"/>
	<path fill="none" stroke="#A1519F" stroke-width="1.5" stroke-miterlimit="10" d="M110.615,332.41
		c11.555-5.992,24.68-9.376,38.594-9.376c31.391,0,59.01,16.448,73.416,41.966"/>
	<path fill="none" stroke="#A1519F" stroke-width="1.5" stroke-miterlimit="10" d="M462.689,654.543
		c-4.044,4.689-10.029,7.657-16.706,7.657c-12.179,0-22.052-9.871-22.052-22.049c0-12.179,9.873-22.053,22.052-22.053
		c12.177,0,22.05,9.874,22.05,22.053c0,4.952-1.633,9.523-4.39,13.203"/>
	<circle fill="none" stroke="#A1519F" stroke-width="1.5" stroke-miterlimit="10" cx="98.049" cy="903.395" r="14.588"/>
	<circle fill="none" stroke="#A1519F" stroke-width="1.5" stroke-miterlimit="10" cx="915.25" cy="259.079" r="14.168"/>
	<path fill="none" stroke="#A1519F" stroke-width="1.5" stroke-miterlimit="10" d="M896.185,853.745
		c-25.719-5.263-45.064-28.019-45.064-55.29c0-31.166,25.269-56.438,56.438-56.438c26.187,0,48.211,17.84,54.58,42.028"/>
	<path fill="none" stroke="#A1519F" stroke-width="1.5" stroke-miterlimit="10" d="M319.156,152.469
		c-8.586-3.293-13.919-11.576-13.919-21.255c0-12.889,10.448-23.337,23.338-23.337c3.203,0,6.257,0.646,9.036,1.814"/>
	<path fill="none" stroke="#A1519F" stroke-width="1.5" stroke-miterlimit="10" d="M469.726,234.4
		c-4.169,6.357-11.359,10.555-19.528,10.555c-12.89,0-23.338-10.447-23.338-23.336c0-12.89,10.448-23.337,23.338-23.337
		c12.887,0,23.336,10.447,23.336,23.337c0,4.315-1.171,8.357-3.213,11.824"/>
	<path fill="none" stroke="#A1519F" stroke-width="1.5" stroke-miterlimit="10" d="M914.254,244.728
		c19.791,0,34.839,14.047,34.839,33.84c0,19.795-16.048,35.84-35.839,35.84c-9.378,0.001-17.914-3.6-24.303-9.496"/>
	<path fill="none" stroke="#A1519F" stroke-width="1.5" stroke-miterlimit="10" d="M757.844,433.525
		c23.287,0,42.167,18.879,42.167,42.167c0,23.289-18.88,42.168-42.167,42.168c-21.44,0-39.145-16.002-41.819-36.714"/>
	<path fill="none" stroke="#A1519F" stroke-width="1.5" stroke-miterlimit="10" d="M891.418,307.183
		c-13.354-10.563-21.923-26.911-21.923-45.261c0-31.853,25.822-57.676,57.679-57.676c31.853,0,57.675,25.823,57.675,57.676
		c0,23.891-14.523,44.388-35.226,53.144"/>
	<path fill="none" stroke="#A1519F" stroke-width="1.5" stroke-miterlimit="10" d="M724.467,442.734
		c-4.484,1.59-9.311,2.457-14.339,2.457c-23.683,0-42.88-19.198-42.88-42.879c0-23.682,19.197-42.879,42.88-42.879
		c5.463,0,10.689,1.021,15.494,2.885"/>
	<circle fill="none" stroke="#A1519F" stroke-width="1.5" stroke-miterlimit="10" cx="708.92" cy="320.582" r="13.124"/>
	<circle fill="none" stroke="#A1519F" stroke-width="1.5" stroke-miterlimit="10" cx="716.834" cy="566.984" r="14.79"/>
	<path fill="none" stroke="#A1519F" stroke-width="1.5" stroke-miterlimit="10" d="M346.705,77.889
		c5.714,0,10.345,4.631,10.345,10.345c0,5.713-4.631,10.346-10.345,10.346s-10.345-4.633-10.345-10.346
		c0-5.305,3.992-9.676,9.137-10.275"/>
	<path fill="none" stroke="#A1519F" stroke-width="1.5" stroke-miterlimit="10" d="M691.346,39.724
		c0.98,1.605,1.668,3.425,1.979,5.397c1.273,8.069-4.236,15.643-12.305,16.916s-15.642-4.237-16.915-12.306
		c-1.272-8.069,4.236-15.642,12.304-16.914c5.24-0.827,10.271,1.206,13.504,4.943"/>
	<circle fill="none" stroke="#A1519F" stroke-width="1.5" stroke-miterlimit="10" cx="416.479" cy="325.709" r="35.458"/>
	<circle fill="none" stroke="#A1519F" stroke-width="1.6388" stroke-miterlimit="10" cx="708.92" cy="393.302" r="34.03"/>
	<path fill="none" stroke="#A1519F" stroke-width="1.5" stroke-miterlimit="10" d="M706.988,356.505"/>
	<path fill="none" stroke="#A1519F" stroke-width="1.5" stroke-miterlimit="10" d="M697.398,314.29
		c5.936-11.258,18.2-18.465,31.679-17.314c17.972,1.535,31.295,17.346,29.761,35.315c-1.535,17.972-17.346,31.295-35.317,29.761"/>
	<path fill="none" stroke="#A1519F" stroke-width="1.5" stroke-miterlimit="10" d="M318.969,152.406
		c20.257,4.145,34.435,21.812,34.435,43.293c0,24.552-19.904,44.454-44.453,44.454c-24.551,0-44.454-19.902-44.454-44.454
		c0-15.294,4.369-24.617,16.129-32.616"/>
	<path fill="none" stroke="#A1519F" stroke-width="1.5" stroke-miterlimit="10" d="M750.649,408.834
		c0,11.246-5.499,21.566-13.649,28.083"/>
	<path fill="none" stroke="#A1519F" stroke-width="1.5" stroke-miterlimit="10" d="M357.126,210.345
		c-0.495-3.146-0.752-6.372-0.752-9.659c0-34.064,27.615-61.68,61.681-61.68c34.063,0,61.681,27.615,61.681,61.68
		c0,12.765-3.877,24.623-10.518,34.462"/>
	<path fill="none" stroke="#A1519F" stroke-width="1.5" stroke-miterlimit="10" d="M380.999,247.651
		c-12.5-8.445-21.379-21.843-23.822-37.377"/>
	<path fill="none" stroke="#A1519F" stroke-width="1.5" stroke-miterlimit="10" d="M306.672,644.026
		c-20.936,2.7-40.1-12.082-42.8-33.021c-2.7-20.937,12.083-40.098,33.02-42.798s40.1,12.082,42.8,33.018
		c2.649,20.535-11.52,39.36-31.815,42.626"/>
	<path fill="none" stroke="#A1519F" stroke-width="1.5" stroke-miterlimit="10" d="M396.892,494.187
		c0,20.565-16.672,37.234-37.234,37.234s-37.232-16.669-37.232-37.234c0-20.563,16.67-37.232,37.232-37.232"/>
	<path fill="none" stroke="#A1519F" stroke-width="1.5" stroke-miterlimit="10" d="M84.781,1089.783
		c-30.275-2.16-53.068-28.455-50.907-58.73c2.159-30.277,28.454-53.07,58.729-50.91c16.166,1.154,30.198,9.188,39.438,21.033"/>
	<path fill="none" stroke="#A1519F" stroke-width="1.5" stroke-miterlimit="10" d="M270.658,245.193
		c-2.988,0.836-6.139,1.282-9.394,1.282c-19.23,0-34.821-15.59-34.821-34.821"/>
	<path fill="none" stroke="#A1519F" stroke-width="1.5" stroke-miterlimit="10" d="M191.838,239.223
		c16.094,6.807,27.387,22.742,27.387,41.314c0,24.763-20.076,44.838-44.839,44.838c-24.761,0-44.837-20.075-44.837-44.838
		c0-8.509,2.37-16.465,6.486-23.243"/>
	<circle fill="none" stroke="#A1519F" stroke-width="1.5" stroke-miterlimit="10" cx="770.104" cy="224.301" r="30.284"/>
	<circle fill="none" stroke="#A1519F" stroke-width="1.5" stroke-miterlimit="10" cx="1003.64" cy="364.507" r="26.949"/>
	<path fill="none" stroke="#A1519F" stroke-width="1.4959" stroke-miterlimit="10" d="M396.999,495.17
		c0,35.925-29.122,65.046-65.045,65.046c-35.921,0-65.044-29.121-65.044-65.046c0-25.196,14.329-47.046,35.279-57.849"/>
	<path fill="none" stroke="#A1519F" stroke-width="1.5" stroke-miterlimit="10" d="M1042.339,713.053
		c7.778-8.5,12.524-19.82,12.524-32.251c0-16.61-7.836-33.671-22.463-42.294c-12.123-7.148-27.056-5.574-38.67-14.121
		c-11.882-8.741-18.883-23.396-18.883-38.055c0-26.393,21.395-47.787,47.787-47.787c26.392,0,47.788,21.395,47.788,47.787
		c0,8.399-2.167,16.293-5.972,23.152"/>
	<path fill="none" stroke="#A1519F" stroke-width="1.5" stroke-miterlimit="10" d="M848.75,581.625
		c-16.495-15.594-27.142-37.579-27.142-62.071c0-47.241,38.297-85.536,85.538-85.536c47.237,0,85.535,38.295,85.535,85.536
		c0,13.293-3.032,25.878-8.442,37.1"/>
	<path fill="none" stroke="#A1519F" stroke-width="1.5" stroke-miterlimit="10" d="M886.875,414
		c4.917-2.5,17.402-3.813,26.568-3.813c49.869,0,90.299,40.729,90.299,90.972c0,22.672-8.231,43.404-21.849,59.334"/>
	<path fill="none" stroke="#A1519F" stroke-width="1.5" stroke-miterlimit="10" d="M754.7,433.602
		c1.042-0.05,2.09-0.075,3.144-0.075c35.869,0,64.95,29.078,64.95,64.95c0,35.873-29.081,64.953-64.95,64.953
		c-35.872,0-64.951-29.08-64.951-64.953C692.893,463.659,720.289,435.24,754.7,433.602"/>
	<path fill="none" stroke="#A1519F" stroke-width="1.5" stroke-miterlimit="10" d="M724.094,604.744
		c1.35-0.429,2.716-0.824,4.099-1.191c47.054-12.46,95.302,15.583,107.761,62.639c6.76,25.528,1.6,51.405-12.05,71.73"/>
	<path fill="none" stroke="#A1519F" stroke-width="1.5" stroke-miterlimit="10" d="M357.101,641.247
		c1.082-0.052,2.17-0.077,3.264-0.077c37.223,0,67.398,30.174,67.398,67.398s-30.176,67.4-67.398,67.4
		c-37.226,0-67.398-30.176-67.398-67.4C292.966,672.438,321.394,642.948,357.101,641.247"/>
	<path fill="none" stroke="#A1519F" stroke-width="1.5" stroke-miterlimit="10" d="M693.624,493.269
		c0,75.629-61.31,136.935-136.932,136.935c-75.627,0-128.02-47.51-134.688-116.788"/>
	<path fill="none" stroke="#A1519F" stroke-width="1.5" stroke-miterlimit="10" d="M384.913,446.686
		c25.266,21.384,39.807,53.82,38.57,89.471c-2.143,61.779-53.961,110.122-115.738,107.98c-0.541-0.019-1.082-0.041-1.621-0.067"/>
	<path fill="none" stroke="#A1519F" stroke-width="1.5" stroke-miterlimit="10" d="M357.302,442.146
		c17.467,12.587,31.496,30.34,39.498,52.063c21.369,58.006-8.334,122.349-66.337,143.717c-6.217,2.29-17.486,4.955-23.791,6.099"/>
	<path fill="none" stroke="#A1519F" stroke-width="1.5" stroke-miterlimit="10" d="M478.626,521.036"/>
	<path fill="none" stroke="#A1519F" stroke-width="1.5" stroke-miterlimit="10" d="M518.333,464.916
		c-6.468-10.691-3.227-24.909,7.464-31.375"/>
	<path fill="none" stroke="#A1519F" stroke-width="1.5" stroke-miterlimit="10" d="M518.073,465.639
		c8.371-7.583,21.305-6.944,28.889,1.426"/>
	<path fill="none" stroke="#A1519F" stroke-width="1.5" stroke-miterlimit="10" d="M581.039,471.078
		c6.327-7.609,17.623-8.648,25.231-2.322"/>
	<path fill="none" stroke="#A1519F" stroke-width="1.5" stroke-miterlimit="10" d="M547.374,305.307
		c18.122,38.892,14.61,67.692-7.868,113.352"/>
	<path fill="none" stroke="#A1519F" stroke-width="1.5" stroke-miterlimit="10" d="M500.609,542.762"/>
	<path fill="none" stroke="#A1519F" stroke-width="1.5" stroke-miterlimit="10" d="M612.021,542.762"/>
	<path fill="none" stroke="#A1519F" stroke-width="1.5" stroke-miterlimit="10" d="M501.333,543.417
		c-0.744,14.208,14.396,25.106,32.583,25.711"/>
	<path fill="none" stroke="#A1519F" stroke-width="1.5" stroke-miterlimit="10" d="M533.438,568.938
		c12.243,10.909,32.79,10.817,45.875,0"/>
	<path fill="none" stroke="#A1519F" stroke-width="1.5" stroke-miterlimit="10" d="M500.609,542.762
		c13.583,0.646,32.057-3.845,36.974-9.262"/>
	<path fill="none" stroke="#A1519F" stroke-width="1.5" stroke-miterlimit="10" d="M536.917,534.166
		c1.918-2.169,4.814-3.447,8.398-3.448c5.854,0,10.599,3.78,10.599,8.443l0.002,38.256"/>
	<path fill="none" stroke="#A1519F" stroke-width="1.5" stroke-miterlimit="10" d="M611.312,543.125
		c0.743,14.208-14.29,25.353-32.479,25.958"/>
	<path fill="none" stroke="#A1519F" stroke-width="1.5" stroke-miterlimit="10" d="M612.021,542.762
		c-13.584,0.646-27.184-2.598-38.104-10.596"/>
	<path fill="none" stroke="#A1519F" stroke-width="1.5" stroke-miterlimit="10" d="M574.333,532.458
		c-1.875-1.5-4.072-1.74-7.018-1.74c-5.254,0-10.559,3.371-11.398,7.366"/>
	<circle fill="none" stroke="#A1519F" stroke-width="1.5" stroke-miterlimit="10" cx="416.479" cy="430.341" r="26.116"/>
	<path fill="none" stroke="#A1519F" stroke-width="1.5" stroke-miterlimit="10" d="M750.625,409.25
		c0-16.037,13.445-30.179,29.485-30.179c16.037,0,29.039,13.004,29.039,29.041c0,16.038-13.002,29.039-29.039,29.039"/>
	<circle fill="none" stroke="#A1519F" stroke-width="1.5" stroke-miterlimit="10" cx="464.875" cy="302.157" r="18.335"/>
	<path fill="none" stroke="#A1519F" stroke-width="1.5" stroke-miterlimit="10" d="M280.5,163.167
		c4.333-3.167,10.502-5.409,16.549-5.409c13.809,0,25.004,10.638,25.004,23.759c0,13.12-11.195,23.757-25.004,23.757v-24.026"/>
	<path fill="none" stroke="#A1519F" stroke-width="1.5" stroke-miterlimit="10" d="M408.899,288.667
		c26.646,0,48.248,21.601,48.248,48.246c0,26.646-21.603,48.247-48.248,48.247"/>
	<path fill="none" stroke="#A1519F" stroke-width="1.5" stroke-miterlimit="10" d="M412.413,456.186
		c-24.668-0.333-38.846-15.957-38.846-35.547s15.879-35.47,35.469-35.47"/>
	<path fill="none" stroke="#A1519F" stroke-width="1.5" stroke-miterlimit="10" d="M607.582,282.097
		c12.546-18.051,33.434-29.867,57.082-29.867c25.324,0,42.79,11.67,56.683,29.453"/>
	<path fill="none" stroke="#A1519F" stroke-width="1.5" stroke-miterlimit="10" d="M720.245,280.268l0.75,1.062
		c14.375,16.812,34.488,30.759,64.959,30.759c41.822,0,76.457-30.789,82.47-70.938"/>
	<circle fill="none" stroke="#A1519F" stroke-width="1.5" stroke-miterlimit="10" cx="870.833" cy="349.479" r="46.125"/>
	<path fill="none" stroke="#A1519F" stroke-width="1.5" stroke-miterlimit="10" d="M870.834,511.191"/>
	<path fill="none" stroke="#A1519F" stroke-width="1.5" stroke-miterlimit="10" d="M886.875,414
		c-30.136,16.613-67.409,5.233-84.021-24.903c-16.613-30.137-5.65-68.034,24.487-84.646c30.135-16.613,68.033-5.649,84.645,24.487"
		/>
	<path fill="none" stroke="#A1519F" stroke-width="1.5" stroke-miterlimit="10" d="M848.312,581.188
		c29.646,22.108,51.974,56.268,51.974,96.719c0,63.838-51.749,115.588-115.588,115.588c-28.967,0-55.445-10.654-75.729-28.26"/>
	<path fill="none" stroke="#A1519F" stroke-width="1.5" stroke-miterlimit="10" d="M259.75,400.583
		c-20.956-13.055-33.811-37.627-30.771-63.777c4.2-36.138,36.9-62.028,73.038-57.827c36.138,4.2,62.028,36.9,57.827,73.038"/>
	<circle fill="none" stroke="#A1519F" stroke-width="1.5" stroke-miterlimit="10" cx="374.972" cy="371.152" r="24.451"/>
	<path fill="none" stroke="#A1519F" stroke-width="1.5" stroke-miterlimit="10" d="M723.819,604.801
		c-10.131,5.737-23.151,5.125-32.833-2.557c-12.743-10.111-14.876-28.638-4.767-41.38c10.111-12.742,28.638-14.876,41.38-4.766"/>
	<path fill="none" stroke="#A1519F" stroke-width="1.5" stroke-miterlimit="10" d="M296.782,390.046
		c-21.482,0-38.899-17.417-38.899-38.899c0-21.484,17.417-38.9,38.899-38.9c15.59,0,29.038,9.171,35.243,22.412"/>
	<path fill="none" stroke="#A1519F" stroke-width="1.5" stroke-miterlimit="10" d="M331.898,334.727
		c5.954,10.803,9.341,23.219,9.341,36.426c0,29.547-16.957,55.135-41.67,67.561"/>
	
		<line fill="none" stroke="#A1519F" stroke-width="1.5301" stroke-miterlimit="10" x1="708.919" y1="307.459" x2="708.919" y2="427.236"/>
	
		<line fill="none" stroke="#A1519F" stroke-width="1.5" stroke-linecap="round" stroke-miterlimit="10" x1="416.479" y1="139.976" x2="416.479" y2="430.34"/>
	
		<line fill="none" stroke="#A1519F" stroke-width="1.5" stroke-miterlimit="10" x1="558.245" y1="1230.684" x2="558.245" y2="1353.352"/>
	
		<line fill="none" stroke="#A1519F" stroke-width="1.5" stroke-linecap="round" stroke-miterlimit="10" x1="870.834" y1="303.355" x2="870.834" y2="547.894"/>
	
		<line fill="none" stroke="#A1519F" stroke-width="1.5" stroke-linecap="round" stroke-miterlimit="10" x1="1003.619" y1="337.893" x2="1003.619" y2="646.704"/>
	<path fill="none" stroke="#A1519F" stroke-width="1.5" stroke-miterlimit="10" d="M766.043,103.929
		c-0.909,13.893-12.729,24.606-26.729,24.056c-14.219-0.56-25.296-12.542-24.736-26.766c0.56-14.222,12.544-25.297,26.764-24.737
		c14.229,0.56,25.299,12.542,24.739,26.764"/>
	<path fill="none" stroke="#A1519F" stroke-width="1.5" stroke-miterlimit="10" d="M293.65,389.929
		c-11.221-1.226-19.953-10.737-19.953-22.285c0-12.386,10.034-22.418,22.412-22.418c12.395,0,22.424,10.032,22.424,22.418
		c0,12.379-10.029,22.418-22.424,22.418"/>
	<path fill="none" stroke="#A1519F" stroke-width="1.5" stroke-miterlimit="10" d="M296.4,192.068
		c-3.131-0.348-5.386-3.17-5.038-6.302c0.348-3.133,3.167-5.39,6.298-5.042c3.137,0.349,5.392,3.169,5.043,6.303
		c-0.309,2.782-2.568,4.874-5.267,5.063"/>
	<path fill="none" stroke="#A1519F" stroke-width="1.5" stroke-miterlimit="10" d="M424.278,423.896c0,4.307-3.49,7.799-7.801,7.799
		c-4.307,0-7.798-3.492-7.798-7.799c0-4.309,3.491-7.8,7.798-7.8C420.788,416.097,424.278,419.588,424.278,423.896z"/>
	<path fill="none" stroke="#A1519F" stroke-width="1.5" stroke-miterlimit="10" d="M293.477,521.227
		c-11.949-1.884-21.087-12.228-21.087-24.706c0-13.814,11.198-25.011,25.011-25.011c13.814,0,25.012,11.196,25.012,25.011"/>
	<g>
		<path fill="none" stroke="#A1519F" stroke-width="1.5" stroke-miterlimit="10" d="M688.308,36.172
			c3.479,3.392,5.93,7.895,6.744,13.061c2.01,12.731-6.685,24.681-19.414,26.689c-9.548,1.506-18.658-3.007-23.464-10.728"/>
		<path fill="none" stroke="#A1519F" stroke-width="1.5" stroke-miterlimit="10" d="M364.5,101
			c-2.336,6.922-9.218,11.854-16.926,11.854c-9.667,0-17.503-7.835-17.503-17.501c0-9.667,7.836-17.503,17.503-17.503"/>
		<path fill="none" stroke="#A1519F" stroke-width="1.4945" stroke-miterlimit="10" d="M766.129,102.44
			c0,25.228-20.45,45.677-45.677,45.677c-25.225,0-45.675-20.449-45.675-45.677c0-25.226,20.45-45.675,45.675-45.675
			c24.153,0,43.928,18.747,45.567,42.483"/>
		<path fill="none" stroke="#A1519F" stroke-width="1.5" stroke-miterlimit="10" d="M800.258,222.776
			c0,25.474-20.65,46.124-46.124,46.124c-16.366,0-29.78-6.884-37.967-19.733l-4.667-12.833c-1.334-4-3.833-17.867-3.833-23
			c0-46.06,36.674-85.82,82.732-85.82c46.056,0,83.396,37.337,83.396,83.396s-37.34,83.396-83.396,83.396
			c-25.654,0-48.603-11.583-63.9-29.805l1.517,1.805c-13.475-17.246-32.081-31.305-56.642-31.305
			c-30.889,0-56.924,20.788-64.874,49.139"/>
		<path fill="none" stroke="#A1519F" stroke-width="1.5" stroke-miterlimit="10" d="M370.662,88.101
			c22.611-13.164,50.308-18.346,77.934-12.571c28.335,5.924,51.812,22.287,67.251,44.229l-0.45-0.697
			c11.827,17.506,18.733,38.609,18.733,61.327c0,60.581-49.111,109.69-109.69,109.69c-28.946,0-55.274-11.214-74.878-29.533
			l0.309,0.284c-14.631-12.567-33.552-19.58-54.352-19.58c-46.188,0-84.473,37.45-83.63,83.628
			c0.611,33.497,20.567,62.455,47.861,75.706"/>
		<circle fill="none" stroke="#A1519F" stroke-width="1.5" stroke-miterlimit="10" cx="777.617" cy="219.246" r="68.392"/>
	</g>
	<path fill="none" stroke="#A1519F" stroke-width="1.5" stroke-miterlimit="10" d="M1080.454,899.418
		c0,18.725-15.18,33.906-33.907,33.906c-18.723,0-33.902-15.182-33.902-33.906c0-18.721,15.18-33.902,33.902-33.902
		C1065.274,865.516,1080.454,880.697,1080.454,899.418z"/>
	<path fill="none" stroke="#A1519F" stroke-width="1.5" stroke-miterlimit="10" d="M983.896,1053.947
		c1.733-0.227,3.513-0.294,5.322-0.186c15.386,0.92,27.111,14.139,26.191,29.52c-0.92,15.383-14.138,27.109-29.523,26.189
		c-8.599-0.515-16.055-4.871-20.798-11.302"/>
	<path fill="none" stroke="#A1519F" stroke-width="1.5" stroke-miterlimit="10" d="M1079.971,898.105
		c0,29.578-23.979,53.553-53.553,53.553c-29.573,0-53.55-23.975-53.55-53.553c0-20.744,11.795-38.732,29.046-47.627"/>
	<path fill="none" stroke="#A1519F" stroke-width="1.5" stroke-miterlimit="10" d="M1035.015,782.729
		c0.668,3.693,1.018,7.5,1.018,11.387c0,25.746-15.327,47.915-37.353,57.875"/>
	<path fill="none" stroke="#A1519F" stroke-width="1.5" stroke-miterlimit="10" d="M1039.815,716.125
		c-7.918,10.963-20.808,18.098-35.363,18.098c-24.075,0-43.593-19.518-43.593-43.592c0-24.076,19.518-43.593,43.593-43.593"/>
	<path fill="none" stroke="#A1519F" stroke-width="1.5" stroke-linecap="round" stroke-miterlimit="10" d="M1029.062,354.908
		c4.706,22.454-4.598,46.468-25.11,59.491c-26.426,16.777-61.45,8.955-78.229-17.472c-16.779-26.426-8.958-61.452,17.47-78.23
		c18.814-11.945,41.984-11.422,59.828-0.594"/>
	<path fill="none" stroke="#A1519F" stroke-width="1.5" stroke-miterlimit="10" d="M1004.512,315.687
		c0,3.814-3.092,6.908-6.91,6.908c-3.814,0-6.906-3.094-6.906-6.908c0-3.817,3.092-6.908,6.906-6.908
		C1001.42,308.778,1004.512,311.869,1004.512,315.687z"/>
	<path fill="none" stroke="#A1519F" stroke-width="1.5" stroke-miterlimit="10" d="M871.24,517.869
		c8.041,0.293,14.463,6.898,14.463,15.008c0,8.291-6.721,15.017-15.021,15.017c-8.292,0-15.013-6.726-15.013-15.017
		c0-8.195,6.558-14.852,14.711-15.014"/>
	<path fill="none" stroke="#A1519F" stroke-width="1.5" stroke-miterlimit="10" d="M987.815,973.939
		c-1.05,67.201-56.381,120.828-123.582,119.775c-67.2-1.051-120.825-56.379-119.772-123.578
		c1.049-67.201,56.377-120.826,123.577-119.775C935.24,851.41,988.864,906.74,987.815,973.939z"/>
	<path fill="none" stroke="#A1519F" stroke-width="1.5" stroke-miterlimit="10" d="M1138.633,752.264
		c0,30.902-25.048,55.949-55.948,55.949s-55.948-25.047-55.948-55.949c0-15.449,6.263-29.438,16.387-39.562"/>
	<path fill="none" stroke="#A1519F" stroke-width="1.5" stroke-miterlimit="10" d="M102.926,835.475
		c70.254,5.014,123.144,66.029,118.131,136.283c-5.012,70.254-66.027,123.143-136.281,118.131"/>
	<path fill="none" stroke="#A1519F" stroke-width="1.5" stroke-miterlimit="10" d="M103.613,835.645
		c-29.22-1.218-53.895,21.483-55.112,50.703c-1.218,29.219,21.482,53.893,50.702,55.11"/>
	<path fill="none" stroke="#A1519F" stroke-width="1.5" stroke-miterlimit="10" d="M404.843,657.687
		c-7.752-7.296-12.59-17.65-12.59-29.136c0-22.096,17.911-40.01,40.008-40.01s40.01,17.914,40.01,40.01
		c0,10.238-3.846,19.58-10.172,26.656"/>
	<path fill="none" stroke="#A1519F" stroke-width="1.5" stroke-miterlimit="10" d="M803.519,1147.361
		c0-29.922,24.257-54.178,54.179-54.178c29.923,0,54.18,24.256,54.18,54.178"/>
	<path fill="none" stroke="#A1519F" stroke-width="1.5" stroke-miterlimit="10" d="M364.805,1183.59
		c6.652-6.018,15.474-9.682,25.15-9.682c20.717,0,37.51,16.793,37.51,37.508"/>
	<circle fill="none" stroke="#A1519F" stroke-width="1.5" stroke-miterlimit="10" cx="153.664" cy="1123.957" r="44.683"/>
	<path fill="none" stroke="#A1519F" stroke-width="1.5" stroke-miterlimit="10" d="M403.16,1116.666
		c7.863-42.906,45.443-75.42,90.62-75.42c50.884,0,92.132,41.249,92.132,92.135c0,39.691-25.099,73.521-60.292,86.482"/>
	<path fill="none" stroke="#A1519F" stroke-width="1.5" stroke-miterlimit="10" d="M364.082,1011.216
		c24.999,20.576,40.939,51.759,40.939,86.665c0,61.957-50.228,112.186-112.187,112.186"/>
	<path fill="none" stroke="#A1519F" stroke-width="1.5" stroke-miterlimit="10" d="M803.697,1141.943
		c-7.196,53.336-52.899,94.455-108.206,94.455c-60.305,0-109.192-48.887-109.192-109.193c0-60.305,48.888-109.191,109.192-109.191"
		/>
	
		<circle fill="none" stroke="#A1519F" stroke-width="1.5" stroke-linecap="round" stroke-miterlimit="10" cx="250.495" cy="552.643" r="20.5"/>
	
		<line fill="none" stroke="#A1519F" stroke-width="1.5" stroke-miterlimit="10" x1="214.411" y1="513.025" x2="214.411" y2="368.851"/>
	
		<line fill="none" stroke="#A1519F" stroke-width="1.5046" stroke-miterlimit="10" x1="359.245" y1="657.49" x2="359.245" y2="457.668"/>
	
		<line fill="none" stroke="#A1519F" stroke-width="1.5" stroke-miterlimit="10" x1="776.245" y1="861.49" x2="776.245" y2="580.018"/>
	
		<line fill="none" stroke="#A1519F" stroke-width="1.5" stroke-miterlimit="10" x1="97.912" y1="942.156" x2="97.912" y2="780.018"/>
	
		<line fill="none" stroke="#A1519F" stroke-width="1.5" stroke-miterlimit="10" x1="154.912" y1="1114.156" x2="154.912" y2="919.518"/>
	
		<line fill="none" stroke="#A1519F" stroke-width="1.5" stroke-miterlimit="10" x1="676.245" y1="1272.351" x2="676.245" y2="1087.518"/>
	<path fill="none" stroke="#A1519F" stroke-width="1.5093" stroke-miterlimit="10" d="M217.719,406.566
		c6.867-5.355,16.302-9.013,25.682-9.176c22.516-0.391,40.502,18.133,40.502,40.502c0,22.368-18.134,40.502-40.502,40.502
		c-2.796,0-5.526-0.284-8.163-0.823"/>
	<path fill="none" stroke="#A1519F" stroke-width="1.5" stroke-miterlimit="10" d="M202.076,241.226
		c-13.715,0-24.833-11.118-24.833-24.833s11.118-24.833,24.833-24.833c12.479,0,22.807,9.202,24.568,21.19"/>
	<circle fill="none" stroke="#A1519F" stroke-width="1.5" stroke-miterlimit="10" cx="201.245" cy="222.31" r="18.75"/>
	<path fill="none" stroke="#A1519F" stroke-width="1.5" stroke-miterlimit="10" d="M91.919,379.224
		c-1.303-3.873-2.009-8.02-2.009-12.331c0-21.355,17.312-38.667,38.668-38.667c21.354,0,38.666,17.312,38.666,38.667
		c0,17.808-11.695,32.786-28.078,37.275"/>
	<circle fill="none" stroke="#A1519F" stroke-width="1.5" stroke-miterlimit="10" cx="296.412" cy="509.56" r="12"/>
	<circle fill="none" stroke="#A1519F" stroke-width="1.5" stroke-miterlimit="10" cx="358.745" cy="476.893" r="20"/>
	<circle fill="none" stroke="#A1519F" stroke-width="1.5" stroke-miterlimit="10" cx="355.932" cy="422.16" r="10.602"/>
	<path fill="none" stroke="#A1519F" stroke-width="1.5" stroke-miterlimit="10" d="M775.958,436.371
		c-9.238-2.507-14.695-12.029-12.188-21.268c2.507-9.239,12.03-14.696,21.268-12.189c9.239,2.507,14.696,12.03,12.188,21.269
		c-2.396,8.829-12.068,14.039-20.908,12.311"/>
	<path fill="none" stroke="#A1519F" stroke-width="1.5" stroke-linecap="round" stroke-miterlimit="10" d="M243.371,521.977
		c-14.193,26.082-41.843,43.783-73.626,43.783c-46.263,0-83.767-37.504-83.767-83.767c0-35.336,22.239-65.518,53.188-77.825"/>
	<path fill="none" stroke="#A1519F" stroke-width="1.5" stroke-linecap="round" stroke-miterlimit="10" d="M211.043,536.804
		c-10.6-3.405-18.271-13.346-18.271-25.076c0-14.544,11.79-26.334,26.334-26.334s26.334,11.79,26.334,26.334
		c0,3.636-0.736,7.1-2.068,10.249"/>
	<path fill="none" stroke="#A1519F" stroke-width="1.5" stroke-miterlimit="10" d="M194.696,425.306
		c5.911,8.392,9.382,18.626,9.382,29.671c0,28.488-23.096,51.584-51.583,51.584c-28.489,0-51.584-23.096-51.584-51.584
		c0-14.535,4.041-26.351,13.714-35.727"/>
	
		<circle fill="none" stroke="#A1519F" stroke-width="1.5" stroke-linecap="round" stroke-miterlimit="10" cx="214.483" cy="525.125" r="12.1"/>
	<path fill="none" stroke="#A1519F" stroke-width="1.5" stroke-miterlimit="10" d="M217.714,359.551
		c4.752,4.232,8.265,9.933,9.76,16.58"/>
	<path fill="none" stroke="#A1519F" stroke-width="1.5" stroke-miterlimit="10" d="M217.719,406.566
		c-4.064,3.634-9.125,6.259-14.861,7.394c-17.065,3.376-33.639-7.722-37.015-24.788c-3.376-17.065,7.722-33.639,24.788-37.015
		c10.069-1.992,19.966,1.055,27.083,7.394"/>
	<circle fill="none" stroke="#A1519F" stroke-width="1.5" stroke-miterlimit="10" cx="214.411" cy="383.06" r="14.833"/>
	<circle fill="none" stroke="#A1519F" stroke-width="1.5" stroke-miterlimit="10" cx="237.952" cy="454.143" r="23.5"/>
	<circle fill="none" stroke="#A1519F" stroke-width="1.5" stroke-miterlimit="10" cx="167.58" cy="445.726" r="34"/>
	<path fill="none" stroke="#A1519F" stroke-width="1.5" stroke-linecap="round" stroke-miterlimit="10" d="M227.563,632.349
		c0.022,0.536,0.033,1.075,0.033,1.617c0,21.514-17.438,38.952-38.951,38.952c-21.512,0-38.95-17.438-38.95-38.952
		c0-14.477,7.897-27.108,19.618-33.822"/>
	<circle fill="none" stroke="#A1519F" stroke-width="1.5" stroke-miterlimit="10" cx="154.856" cy="270.494" r="22.499"/>
	<path fill="none" stroke="#A1519F" stroke-width="1.5" stroke-miterlimit="10" d="M357.507,657.558
		c0.947-0.044,1.9-0.067,2.857-0.067c32.594,0,59.018,26.423,59.018,59.018c0,32.596-26.424,59.02-59.018,59.02
		c-32.598,0-59.018-26.424-59.018-59.02C301.347,684.871,326.24,659.047,357.507,657.558"/>
	<path fill="none" stroke="#A1519F" stroke-width="1.5" stroke-miterlimit="10" d="M827.206,732.348
		c-7.617,13.426-20.419,23.895-36.521,28.158c-31.767,8.412-64.336-10.52-72.748-42.287c-8.411-31.766,10.521-64.336,42.286-72.747
		c4.417-1.17,8.85-1.811,13.23-1.962"/>
	<path fill="none" stroke="#A1519F" stroke-width="1.5" stroke-miterlimit="10" d="M107.16,537.186
		c4.174,9.92,5.532,21.149,3.281,32.5c-4.854,24.459-24.985,41.997-48.506,44.66"/>
	<path fill="none" stroke="#A1519F" stroke-width="1.5" stroke-miterlimit="10" d="M20.768,807.764
		c-11.751-8.472-19.401-22.277-19.4-37.871c0-25.766,20.888-46.653,46.653-46.653c2.211,0,4.386,0.153,6.515,0.451"/>
	<circle fill="none" stroke="#A1519F" stroke-width="1.5" stroke-miterlimit="10" cx="776.806" cy="689.349" r="45.538"/>
	<path fill="none" stroke="#A1519F" stroke-width="1.5" stroke-miterlimit="10" d="M947.474,757.834
		c9.256,8.066,15.104,19.941,15.104,33.184c0,24.3-19.7,44-44,44c-24.301,0-44-19.7-44-44c0-13.6,6.17-25.76,15.864-33.83"/>
	<path fill="none" stroke="#A1519F" stroke-width="1.5" stroke-linecap="round" stroke-miterlimit="10" d="M274.125,579.75
		c-5.156,5.376-11.176,7.601-19.213,7.601c-15.648,0-28.334-12.686-28.334-28.333c0-8.988,4.187-17,10.715-22.19"/>
	<circle fill="none" stroke="#A1519F" stroke-width="1.5" stroke-miterlimit="10" cx="994.102" cy="366.013" r="36.495"/>
	<path fill="none" stroke="#A1519F" stroke-width="1.5" stroke-miterlimit="10" d="M1067.8,789.413
		c-8.92-7.79-14.555-19.247-14.555-32.021c0-23.473,19.028-42.5,42.5-42.5s42.5,19.027,42.5,42.5"/>
	<circle fill="none" stroke="#A1519F" stroke-width="1.5" stroke-miterlimit="10" cx="1089.245" cy="764.018" r="33"/>
	<path fill="none" stroke="#A1519F" stroke-width="1.5" stroke-miterlimit="10" d="M1036.212,720.854
		c-13.364,20.607-37.159,33.602-63.42,31.953c-38.745-2.432-68.182-35.812-65.751-74.556c1.344-21.403,12.956-40.498,28.876-52.417"
		/>
	<path fill="none" stroke="#A1519F" stroke-width="1.5" stroke-miterlimit="10" d="M1003.619,647.018c11.046,0,20,8.954,20,20
		s-8.954,20-20,20s-20-8.954-20-20c0-10.277,7.752-18.744,17.727-19.873"/>
	<circle fill="none" stroke="#A1519F" stroke-width="1.5" stroke-miterlimit="10" cx="1046.549" cy="596.604" r="5.333"/>
	<circle fill="none" stroke="#A1519F" stroke-width="1.5" stroke-miterlimit="10" cx="112.549" cy="370.605" r="21.949"/>
	<circle fill="none" stroke="#A1519F" stroke-width="1.5" stroke-miterlimit="10" cx="103.549" cy="361.604" r="9.333"/>
	<path fill="none" stroke="#A1519F" stroke-width="1.5" stroke-miterlimit="10" d="M928.83,718.183
		c-8.374-3.542-14.251-11.835-14.251-21.499c0-12.887,10.446-23.333,23.333-23.333s23.333,10.446,23.333,23.333"/>
	<circle fill="none" stroke="#A1519F" stroke-width="1.5" stroke-miterlimit="10" cx="933.579" cy="704.684" r="14"/>
	<path fill="none" stroke="#A1519F" stroke-width="1.5" stroke-miterlimit="10" d="M936.251,625.5
		c-4.562,2.642-9.688,4.185-15.339,4.185c-17.121,0-31-13.879-31-31s13.879-31,31-31c10.7,0,20.135,5.421,25.705,13.667"/>
	<circle fill="none" stroke="#A1519F" stroke-width="1.5" stroke-miterlimit="10" cx="931.745" cy="590.018" r="17.333"/>
	<path fill="none" stroke="#A1519F" stroke-width="1.5" stroke-miterlimit="10" d="M919.625,506.125
		c24.75,11.25,39.62,36.746,39.62,65.56c0,22.041-8.04,40.592-23.328,54.149"/>
	<path fill="none" stroke="#A1519F" stroke-width="1.5" stroke-miterlimit="10" d="M920.25,506.375
		c-10.875-4.25-20.171-16.451-20.171-30.524c0-18.316,14.851-33.166,33.166-33.166c18.318,0,33.167,14.85,33.167,33.166
		c0,8.073-2.884,15.474-7.679,21.225"/>
	<path fill="none" stroke="#A1519F" stroke-width="1.5" stroke-miterlimit="10" d="M958.702,497.044
		c-4.21,4.666-10.304,7.599-17.082,7.599c-12.702,0-23-10.298-23-23c0-12.703,10.298-23,23-23s23,10.297,23,23
		c0,5.29-1.786,10.162-4.786,14.048"/>
	<path fill="none" stroke="#A1519F" stroke-width="1.5" stroke-miterlimit="10" d="M908.75,498.125
		c6.339,7.906,8.268,17.221,8.268,28.143c0,25.506-20.677,46.183-46.183,46.183c-25.508,0-46.185-20.677-46.185-46.183
		s20.677-46.184,46.185-46.184"/>
	<circle fill="none" stroke="#A1519F" stroke-width="1.5" stroke-miterlimit="10" cx="961.078" cy="642.956" r="11.167"/>
	<path fill="none" stroke="#A1519F" stroke-width="1.5" stroke-miterlimit="10" d="M954.902,633.748
		c7.167-5.757,16.27-9.2,26.177-9.2c20.816,0,38.08,15.206,41.297,35.113"/>
	<circle fill="none" stroke="#A1519F" stroke-width="1.5" stroke-miterlimit="10" cx="986.745" cy="816.518" r="16.5"/>
	<path fill="none" stroke="#A1519F" stroke-width="1.5" stroke-miterlimit="10" d="M971.216,822.373
		c-1.906-4.098-2.971-8.664-2.971-13.48c0-17.674,14.327-32,32-32s32,14.326,32,32c0,6.498-1.937,12.543-5.265,17.591"/>
	<circle fill="none" stroke="#A1519F" stroke-width="1.5" stroke-miterlimit="10" cx="776.245" cy="831.393" r="30"/>
	<path fill="none" stroke="#A1519F" stroke-width="1.5" stroke-miterlimit="10" d="M851.245,806.518c0,32.86-26.639,59.5-59.5,59.5
		c-13.864,0-26.621-4.742-36.737-12.693"/>
	<path fill="none" stroke="#A1519F" stroke-width="1.5" stroke-linecap="round" stroke-miterlimit="10" d="M170.186,703.287
		c-3.961,0.699-8.036,1.062-12.197,1.062c-38.514,0-69.734-31.221-69.734-69.733c0-38.514,31.221-69.734,69.734-69.734
		c37.752,0,68.496,29.999,69.697,67.457"/>
	<path fill="none" stroke="#A1519F" stroke-width="1.5" stroke-miterlimit="10" d="M298.537,842.458
		c-39.254-20.083-64.035-62.892-58.992-109.337c1.913-17.621,7.906-33.811,16.938-47.728"/>
	<circle fill="none" stroke="#A1519F" stroke-width="1.5" stroke-miterlimit="10" cx="264.952" cy="670.498" r="16.5"/>
	<path fill="none" stroke="#A1519F" stroke-width="1.5" stroke-miterlimit="10" d="M296.279,841.586
		c13.505,8.682,21.994,24.262,20.82,41.412c-1.717,25.07-23.433,44.002-48.503,42.285c-17.303-1.185-31.681-11.896-38.366-26.662"/>
	<path fill="none" stroke="#A1519F" stroke-width="1.5" stroke-miterlimit="10" d="M168.293,703.792
		c3.395-0.591,6.888-0.899,10.452-0.899c33.413,0,60.5,27.086,60.5,60.5c0,33.412-27.087,60.5-60.5,60.5
		c-25.5,0-47.315-15.777-56.219-38.102"/>
	
		<circle fill="none" stroke="#A1519F" stroke-width="1.5" stroke-linecap="round" stroke-miterlimit="10" cx="180.313" cy="617.364" r="20.333"/>
	<path fill="none" stroke="#A1519F" stroke-width="1.5" stroke-miterlimit="10" d="M60.26,723.902
		C40.668,722.379,25.245,706,25.245,686.018c0-20.987,17.013-38,38-38c15.387,0,28.638,9.145,34.613,22.296"/>
	<circle fill="none" stroke="#A1519F" stroke-width="1.5" stroke-miterlimit="10" cx="60.579" cy="705.352" r="18.667"/>
	<path fill="none" stroke="#A1519F" stroke-width="1.5" stroke-miterlimit="10" d="M357.464,442.271
		c-7.258-4.22-12.462-12.739-12.075-21.708"/>
	<path fill="none" stroke="#A1519F" stroke-width="1.5" stroke-miterlimit="10" d="M732.452,780.268
		c-46.617-23.777-78.541-72.24-78.541-128.161c0-34.002,11.804-65.248,31.538-89.863"/>
	<path fill="none" stroke="#A1519F" stroke-width="1.5" stroke-miterlimit="10" d="M544.461,765.08
		c20.351-23.396,50.341-38.188,83.784-38.188c20.666,0,40.012,5.646,56.58,15.482"/>
	<circle fill="none" stroke="#A1519F" stroke-width="1.5" stroke-miterlimit="10" cx="555.245" cy="771.018" r="12"/>
	<path fill="none" stroke="#A1519F" stroke-width="1.5" stroke-miterlimit="10" d="M560.042,782.361
		c-12.897,7.416-27.852,11.656-43.797,11.656c-48.601,0-88-39.399-88-88"/>
	<path fill="none" stroke="#A1519F" stroke-width="1.5" stroke-miterlimit="10" d="M911.769,1144.133
		c-0.999-4.883-1.523-9.938-1.523-15.115c0-41.422,33.578-75,75-75c1.095,0,2.185,0.023,3.268,0.069"/>
	<circle fill="none" stroke="#A1519F" stroke-width="1.5" stroke-miterlimit="10" cx="982.468" cy="1088.827" r="18.897"/>
	<path fill="none" stroke="#A1519F" stroke-width="1.5" stroke-miterlimit="10" d="M1009.485,973.732
		c7.924,8.633,12.76,20.145,12.76,32.785c0,26.785-21.714,48.5-48.5,48.5"/>
	<circle fill="none" stroke="#A1519F" stroke-width="1.5" stroke-miterlimit="10" cx="1013.578" cy="979.35" r="7.333"/>
	<circle fill="none" stroke="#A1519F" stroke-width="1.5" stroke-miterlimit="10" cx="250.245" cy="885.018" r="24"/>
	<path fill="none" stroke="#A1519F" stroke-width="1.5" stroke-miterlimit="10" d="M47.221,722.279
		c28.635,2.754,51.024,26.881,51.024,56.238"/>
	<circle fill="none" stroke="#A1519F" stroke-width="1.5" stroke-miterlimit="10" cx="98.049" cy="790.018" r="10"/>
	<path fill="none" stroke="#A1519F" stroke-width="1.5" stroke-miterlimit="10" d="M321.401,783.359
		c-4.853,1.213-9.929,1.855-15.157,1.855c-34.425,0-62.332-27.908-62.332-62.333c0-14.083,4.669-27.073,12.545-37.51"/>
	<circle fill="none" stroke="#A1519F" stroke-width="1.5" stroke-miterlimit="10" cx="320.579" cy="798.684" r="15.333"/>
	<path fill="none" stroke="#A1519F" stroke-width="1.5" stroke-miterlimit="10" d="M171.745,703.018
		c-33.966,0-61.5-27.534-61.5-61.5c0-26.719,17.038-49.457,40.843-57.944"/>
	<path fill="none" stroke="#A1519F" stroke-width="1.5" stroke-miterlimit="10" d="M687.438,650.963
		c4.481-27.211,27.584-48.442,56.214-49.549"/>
	<circle fill="none" stroke="#A1519F" stroke-width="1.5" stroke-miterlimit="10" cx="701.998" cy="657.54" r="16"/>
	<path fill="none" stroke="#A1519F" stroke-width="1.5" stroke-miterlimit="10" d="M62.074,614.148
		c-10.376,0.224-20.676-4.543-27.121-13.654c-10.313-14.578-6.856-34.756,7.721-45.069c14.578-10.314,34.758-6.857,45.07,7.721
		c3.344,4.727,5.241,10.043,5.779,15.419"/>
	<circle fill="none" stroke="#A1519F" stroke-width="1.5" stroke-miterlimit="10" cx="77.208" cy="579.158" r="16.655"/>
	<path fill="none" stroke="#A1519F" stroke-width="1.5" stroke-miterlimit="10" d="M185.776,846.27
		c9.263-11.224,23.28-18.377,38.969-18.377c27.891,0,50.5,22.609,50.5,50.5c0,3.486-0.354,6.89-1.026,10.177"/>
	<circle fill="none" stroke="#A1519F" stroke-width="1.5" stroke-miterlimit="10" cx="195.745" cy="852.518" r="11.5"/>
	<circle fill="none" stroke="#A1519F" stroke-width="1.5" stroke-miterlimit="10" cx="690.245" cy="1091.018" r="73"/>
	<path fill="none" stroke="#A1519F" stroke-width="1.5" stroke-miterlimit="10" d="M141.986,921.783
		c5.598-2.424,11.771-3.766,18.259-3.766c25.405,0,46,20.594,46,46c0,25.404-20.595,46-46,46c-14.699,0-27.788-6.895-36.21-17.626"
		/>
	<circle fill="none" stroke="#A1519F" stroke-width="1.5" stroke-miterlimit="10" cx="154.745" cy="951.518" r="32.5"/>
	<path fill="none" stroke="#A1519F" stroke-width="1.5" stroke-miterlimit="10" d="M125.176,995.002
		c8.041,7.486,13.069,18.164,13.069,30.016c0,22.643-18.356,41-41,41"/>
	<path fill="none" stroke="#A1519F" stroke-width="1.5" stroke-linecap="round" stroke-miterlimit="10" d="M249.732,622.592
		c-2.358,1.024-4.961,1.593-7.696,1.593c-10.677,0-19.333-8.656-19.333-19.333c0-10.679,8.656-19.334,19.333-19.334
		c1.335,0,2.638,0.135,3.896,0.393"/>
	<path fill="none" stroke="#A1519F" stroke-width="1.5" stroke-linecap="round" stroke-miterlimit="10" d="M247.732,623.305
		c-0.691,0.166-1.412,0.254-2.154,0.254c-5.062,0-9.166-4.104-9.166-9.166s4.104-9.167,9.166-9.167s9.167,4.104,9.167,9.167
		c0,3.791-2.301,7.043-5.583,8.438"/>
	<circle fill="none" stroke="#A1519F" stroke-width="1.5" stroke-miterlimit="10" cx="903.245" cy="777.017" r="23.333"/>
	<circle fill="none" stroke="#A1519F" stroke-width="1.5" stroke-miterlimit="10" cx="40.745" cy="774.518" r="38.5"/>
	<circle fill="none" stroke="#A1519F" stroke-width="1.5" stroke-miterlimit="10" cx="98.049" cy="1041.018" r="25"/>
	<circle fill="none" stroke="#A1519F" stroke-width="1.5" stroke-miterlimit="10" cx="326.745" cy="1060.393" r="61.5"/>
	<path fill="none" stroke="#A1519F" stroke-width="1.5" stroke-miterlimit="10" d="M290.075,1010.961
		c-6.728,3.854-14.521,6.057-22.83,6.057c-25.405,0-46-20.596-46-46c0-25.405,20.595-46,46-46s46,20.595,46,46"/>
	<path fill="none" stroke="#A1519F" stroke-width="1.5" stroke-miterlimit="10" d="M353.245,1040.518
		c0,21.263-17.237,38.5-38.5,38.5s-38.5-17.237-38.5-38.5c0-13.121,6.562-24.709,16.584-31.659"/>
	<circle fill="none" stroke="#A1519F" stroke-width="1.5" stroke-miterlimit="10" cx="351.245" cy="1050.018" r="10"/>
	<circle fill="none" stroke="#A1519F" stroke-width="1.5" stroke-miterlimit="10" cx="292.912" cy="969.35" r="20"/>
	<path fill="none" stroke="#A1519F" stroke-width="1.5" stroke-miterlimit="10" d="M308.208,1119.133
		c18.434,6.238,31.703,23.678,31.704,44.217c0,25.773-20.895,46.668-46.667,46.668c-25.773,0-46.667-20.895-46.667-46.668
		c0-9.664,2.938-18.643,7.971-26.09"/>
	<path fill="none" stroke="#A1519F" stroke-width="1.5" stroke-miterlimit="10" d="M231.578,1079.35
		c18.594,0,33.667,15.074,33.667,33.668c0,10.467-4.777,19.819-12.271,25.994"/>
	<path fill="none" stroke="#A1519F" stroke-width="1.5" stroke-miterlimit="10" d="M209.862,1138.744
		c-7.31-6.176-11.951-15.408-11.95-25.727c0-18.594,15.072-33.668,33.666-33.668"/>
	<path fill="none" stroke="#A1519F" stroke-width="1.5" stroke-miterlimit="10" d="M234.912,1079.35
		c-11.967,0-21.667-9.699-21.667-21.666s9.7-21.666,21.667-21.666c11.966,0,21.666,9.699,21.666,21.666"/>
	<circle fill="none" stroke="#A1519F" stroke-width="1.5" stroke-miterlimit="10" cx="222.245" cy="1121.352" r="21"/>
	<circle fill="none" stroke="#A1519F" stroke-width="1.5" stroke-miterlimit="10" cx="242.912" cy="1056.018" r="14"/>
	<circle fill="none" stroke="#A1519F" stroke-width="1.5" stroke-miterlimit="10" cx="302.745" cy="1146.518" r="27.5"/>
	<circle fill="none" stroke="#A1519F" stroke-width="1.5" stroke-miterlimit="10" cx="359.245" cy="582.893" r="12"/>
	<path fill="none" stroke="#A1519F" stroke-width="1.5" stroke-linecap="round" stroke-miterlimit="10" d="M870.368,472.006
		c-5.031-0.243-9.034-4.399-9.034-9.489c0-5.247,4.253-9.5,9.5-9.5s9.5,4.253,9.5,9.5c0,5.105-4.027,9.271-9.078,9.491"/>
	
		<circle fill="none" stroke="#A1519F" stroke-width="1.5" stroke-linecap="round" stroke-miterlimit="10" cx="870.834" cy="352.018" r="19"/>
	
		<circle fill="none" stroke="#A1519F" stroke-width="1.5" stroke-linecap="round" stroke-miterlimit="10" cx="1003.619" cy="439.018" r="13"/>
	<path fill="none" stroke="#A1519F" stroke-width="1.5" stroke-miterlimit="10" d="M85.032,742.23
		c-5.429-5.43-8.787-12.93-8.787-21.213c0-16.568,13.432-30,30-30s30,13.432,30,30c0,10.613-5.513,19.94-13.831,25.273"/>
	<path fill="none" stroke="#A1519F" stroke-width="1.5" stroke-miterlimit="10" d="M167.285,718.602
		c0.979-0.057,1.967-0.084,2.96-0.084c28.167,0,51,22.833,51,51c0,28.166-22.833,51-51,51s-51-22.834-51-51
		C119.245,742.344,140.496,720.135,167.285,718.602"/>
	<circle fill="none" stroke="#A1519F" stroke-width="1.5" stroke-miterlimit="10" cx="117.245" cy="734.018" r="13"/>
	<path fill="none" stroke="#A1519F" stroke-width="1.5" stroke-miterlimit="10" d="M133.547,803.715
		c-7.601-7.6-12.302-18.1-12.302-29.697c0-22.191,17.209-40.361,39.009-41.896"/>
	<circle fill="none" stroke="#A1519F" stroke-width="1.5" stroke-miterlimit="10" cx="161.245" cy="754.018" r="22"/>
	<path fill="none" stroke="#A1519F" stroke-width="1.5" stroke-miterlimit="10" d="M150.245,918.018c-11.599,0-21-9.402-21-21
		c0-11.599,9.401-21,21-21c7.586,0,14.231,4.021,17.923,10.049"/>
	<circle fill="none" stroke="#A1519F" stroke-width="1.5" stroke-miterlimit="10" cx="158.245" cy="891.018" r="11"/>
	<circle fill="none" stroke="#A1519F" stroke-width="1.5" stroke-miterlimit="10" cx="154.745" cy="1113.018" r="33"/>
	<circle fill="none" stroke="#A1519F" stroke-width="1.5" stroke-miterlimit="10" cx="155.245" cy="1046.893" r="10"/>
	<circle fill="none" stroke="#A1519F" stroke-width="1.5" stroke-miterlimit="10" cx="154.912" cy="1130.518" r="15.5"/>
	<path fill="none" stroke="#A1519F" stroke-width="1.5" stroke-miterlimit="10" d="M279.244,1250.017
		c-32.4,0-58.666-26.267-58.666-58.667c0-23.127,13.383-43.129,32.828-52.684"/>
	<circle fill="none" stroke="#A1519F" stroke-width="1.5" stroke-miterlimit="10" cx="278.578" cy="1235.351" r="15"/>
	<circle fill="none" stroke="#A1519F" stroke-width="1.5" stroke-miterlimit="10" cx="405.244" cy="1212.017" r="22.333"/>
	<path fill="none" stroke="#A1519F" stroke-width="1.5" stroke-miterlimit="10" d="M95.427,835.562
		c-5.003,1.223-10.202,1.964-15.548,2.167c-37.053,1.407-69.016-23.435-77.958-57.907"/>
	<circle fill="none" stroke="#A1519F" stroke-width="1.5" stroke-miterlimit="10" cx="504.579" cy="1163.018" r="60.667"/>
	<path fill="none" stroke="#A1519F" stroke-width="1.5" stroke-miterlimit="10" d="M676.688,1272.351
		c-7.787,2.595-16.117,3.999-24.775,3.999c-43.262,0-78.333-35.07-78.333-78.332c0-11.328,2.404-22.095,6.731-31.816"/>
	<circle fill="none" stroke="#A1519F" stroke-width="1.5" stroke-miterlimit="10" cx="676.245" cy="1259.35" r="13"/>
	<path fill="none" stroke="#A1519F" stroke-width="1.5" stroke-miterlimit="10" d="M625.788,1272.158
		c15.217,2.629,26.791,15.893,26.791,31.859c0,6.104-1.691,11.812-4.632,16.684"/>
	<path fill="none" stroke="#A1519F" stroke-width="1.5" stroke-miterlimit="10" d="M495.923,1223.561
		c-40.665-4.32-72.345-38.733-72.345-80.544c0-44.735,36.266-81,81-81"/>
	<circle fill="none" stroke="#A1519F" stroke-width="1.5" stroke-miterlimit="10" cx="511.412" cy="1061.85" r="6.833"/>
	<circle fill="none" stroke="#A1519F" stroke-width="1.5" stroke-miterlimit="10" cx="676.245" cy="1115.018" r="27"/>
	<path fill="none" stroke="#A1519F" stroke-width="1.5" stroke-miterlimit="10" d="M650.662,1106.064
		c3.161-24.289,23.932-43.047,49.083-43.047c27.338,0,49.5,22.162,49.5,49.5c0,19.771-11.591,36.835-28.349,44.768"/>
	<path fill="none" stroke="#A1519F" stroke-width="1.5" stroke-miterlimit="10" d="M771.044,1048.348
		c10.143,14.836,16.075,32.778,16.075,52.106c0,51.052-41.386,92.437-92.437,92.437"/>
	<circle fill="none" stroke="#A1519F" stroke-width="1.5" stroke-miterlimit="10" cx="676.245" cy="1192.518" r="17.5"/>
	<circle fill="none" stroke="#A1519F" stroke-width="1.5" stroke-miterlimit="10" cx="480.246" cy="1162.016" r="35.667"/>
	<circle fill="none" stroke="#A1519F" stroke-width="1.5" stroke-miterlimit="10" cx="865.245" cy="1167.018" r="24"/>
	<path fill="none" stroke="#A1519F" stroke-width="1.5" stroke-miterlimit="10" d="M775.244,580.047
		c56.561,1.328,102.001,47.593,102.001,104.471c0,57.713-46.786,104.5-104.5,104.5c-15.929,0-31.024-3.564-44.534-9.938"/>
	<circle fill="none" stroke="#A1519F" stroke-width="1.5" stroke-miterlimit="10" cx="776.245" cy="623.018" r="11"/>
	<path fill="none" stroke="#A1519F" stroke-width="1.5" stroke-miterlimit="10" d="M586.284,1241.314
		c9.93,11.182,15.961,25.904,15.961,42.035c0,22.574-11.811,42.391-29.59,53.605"/>
	<circle fill="none" stroke="#A1519F" stroke-width="1.5" stroke-miterlimit="10" cx="558.245" cy="1306.35" r="33.333"/>
	<path fill="none" stroke="#A1519F" stroke-width="1.5" stroke-miterlimit="10" d="M434.322,1253.576
		c8.711-15.643,25.414-26.226,44.59-26.226c28.167,0,51,22.833,51,51c0,7.042-1.428,13.75-4.008,19.852"/>
	<circle fill="none" stroke="#A1519F" stroke-width="1.5" stroke-miterlimit="10" cx="460.245" cy="1265.684" r="28.667"/>
	<circle fill="none" stroke="#A1519F" stroke-width="1.5" stroke-miterlimit="10" cx="558.245" cy="1241.547" r="10"/>
	<path fill="none" stroke="#A1519F" stroke-width="1.5" stroke-miterlimit="10" d="M1025.595,1171.672
		c-9.044,6.109-19.947,9.678-31.684,9.678c-31.295,0-56.666-25.37-56.666-56.666c0-25.928,17.414-47.79,41.185-54.526"/>
	<circle fill="none" stroke="#A1519F" stroke-width="1.5" stroke-miterlimit="10" cx="1003.995" cy="1147.268" r="32.25"/>
	<path fill="none" stroke="#A1519F" stroke-width="1.5" stroke-miterlimit="10" d="M1012.674,950.403
		c34.517,6.726,60.571,37.128,60.571,73.614c0,14.583-4.162,28.195-11.364,39.711"/>
	<circle fill="none" stroke="#A1519F" stroke-width="1.5" stroke-miterlimit="10" cx="1046.495" cy="1050.268" r="20.25"/>
	<path fill="none" stroke="#A1519F" stroke-width="1.5" stroke-miterlimit="10" d="M880.585,1149.16
		c7.988,10.469,12.733,23.545,12.733,37.729c0,34.379-27.869,62.248-62.247,62.248c-12.241,0-23.657-3.535-33.283-9.637"/>
	<circle fill="none" stroke="#A1519F" stroke-width="1.5" stroke-miterlimit="10" cx="786.284" cy="1257.551" r="21.039"/>
	<path fill="none" stroke="#A1519F" stroke-width="1.5" stroke-miterlimit="10" d="M773.167,1203.938
		c8.807-8.807,20.973-14.254,34.412-14.254c18.465,0,34.527,10.283,42.773,25.438"/>
	<circle fill="none" stroke="#A1519F" stroke-width="1.5" stroke-miterlimit="10" cx="834.579" cy="1221.35" r="16.667"/>
	<path fill="none" stroke="#A1519F" stroke-width="1.5" stroke-miterlimit="10" d="M856.118,1189.366
		c-15.703-5.915-26.873-21.077-26.873-38.849c0-22.92,18.58-41.5,41.5-41.5c21.877,0,39.8,16.926,41.387,38.396"/>
	<circle fill="none" stroke="#A1519F" stroke-width="1.5" stroke-miterlimit="10" cx="911.578" cy="1155.35" r="8"/>
	<path fill="none" stroke="#A1519F" stroke-width="1.5" stroke-miterlimit="10" d="M964.58,881.351c-17.121,0-31-13.88-31-31
		c0-10.442,5.163-19.679,13.075-25.296"/>
	<circle fill="none" stroke="#A1519F" stroke-width="1.5" stroke-miterlimit="10" cx="964.247" cy="868.684" r="12.333"/>
	<path fill="none" stroke="#A1519F" stroke-width="1.5" stroke-miterlimit="10" d="M1030.535,845.172
		c10.562-18.52,28.668-32.178,50.134-36.789"/>
	<circle fill="none" stroke="#A1519F" stroke-width="1.5" stroke-miterlimit="10" cx="1025.245" cy="854.018" r="9.667"/>
	<circle fill="none" stroke="#A1519F" stroke-width="1.5" stroke-miterlimit="10" cx="1042.245" cy="914.352" r="18.333"/>
	<path fill="none" stroke="#A1519F" stroke-width="1.5" stroke-miterlimit="10" d="M728.583,892.021
		c-1.709-3.411-2.671-7.261-2.671-11.337c0-13.99,11.342-25.333,25.333-25.333c13.992,0,25.334,11.343,25.334,25.333
		c0,5.99-2.08,11.496-5.557,15.832"/>
	<circle fill="none" stroke="#A1519F" stroke-width="1.5" stroke-miterlimit="10" cx="735.246" cy="887.018" r="8.333"/>
	<path fill="none" stroke="#A1519F" stroke-width="1.5" stroke-miterlimit="10" d="M226.667,211.167
		c0-8.744,7.089-15.833,15.833-15.833c8.745,0,15.833,7.089,15.833,15.833c0,3.279-0.998,6.325-2.705,8.852"/>
	<circle fill="none" stroke="#A1519F" stroke-width="1.5" stroke-miterlimit="10" cx="252.667" cy="223.667" r="4"/>
	<g id="draw-01" display="none">
		<path display="inline" fill="none" stroke="#A1519F" stroke-width="1.5" stroke-miterlimit="10" d="M515.458,120.274
			c20.363-20.362,48.496-32.957,79.568-32.957c62.142,0,112.524,50.379,112.524,112.523"/>
		<path display="inline" fill="none" stroke="#A1519F" stroke-width="1.5" stroke-miterlimit="10" d="M523.579,133.018
			c19.627-19.627,44.547-30.882,74.495-30.882c59.895,0,108.928,48.879,108.928,108.774"/>
		<path display="inline" fill="none" stroke="#A1519F" stroke-width="1.5" stroke-miterlimit="10" d="M353.084,182.667
			c1.476-39.978,33.796-72.016,74.135-72.016c41.277,0,74.741,33.462,74.741,74.739"/>
		<path display="inline" fill="none" stroke="#A1519F" stroke-width="1.5" stroke-miterlimit="10" d="M356.334,201.833
			c-3.92-13.447-3.617-26.517-3.617-42.038c0-84.605,68.587-153.19,153.192-153.19c64.611,0,120.029,38.101,142.523,93.976"/>
		<path display="inline" fill="none" stroke="#A1519F" stroke-width="1.5" stroke-miterlimit="10" d="M443.245,19.986
			c22.841-11.884,48.75-18.337,76.178-18.338c70.535,0,130.8,41.216,155.358,103.157"/>
	</g>
</g>
</svg>
