<?xml version="1.0" encoding="utf-8"?>
<!-- Generator: Adobe Illustrator 16.0.0, SVG Export Plug-In . SVG Version: 6.00 Build 0)  -->
<!DOCTYPE svg PUBLIC "-//W3C//DTD SVG 1.1//EN" "http://www.w3.org/Graphics/SVG/1.1/DTD/svg11.dtd">
<svg version="1.1" xmlns="http://www.w3.org/2000/svg" xmlns:xlink="http://www.w3.org/1999/xlink" x="0px" y="0px" width="301px"
	 height="83.666px" viewBox="0 0 301 83.666" enable-background="new 0 0 301 83.666" xml:space="preserve">
<g id="Layer_1">
</g>
<g id="PortfolioImg">
	<g>
		<g>
			<path fill="#0F0F0F" d="M33.796,2.966V41.03c-4.958-5.824-9.872-11.622-14.742-17.395C14.183,17.864,9.269,12.049,4.312,6.19
				C4.138,5.948,3.974,5.722,3.817,5.514S3.496,5.081,3.323,4.838C3.357,5.116,3.384,5.393,3.401,5.67
				c0.018,0.278,0.043,0.555,0.078,0.832v32.864H2.023V1.302c4.957,5.928,9.871,11.778,14.742,17.55
				c4.87,5.772,9.784,11.605,14.742,17.498c0.173,0.243,0.338,0.469,0.494,0.677c0.155,0.208,0.319,0.434,0.493,0.676
				c-0.034-0.277-0.061-0.555-0.077-0.832c-0.019-0.277-0.044-0.555-0.078-0.832V2.966H33.796z"/>
			<path fill="#0F0F0F" d="M48.487,23.35 M64.19,23.35 M56.211,4.906L48.487,23.35c-1.11,2.67-2.229,5.339-3.354,8.009
				c-1.127,2.67-2.262,5.339-3.406,8.008h-1.508c2.704-6.378,5.391-12.723,8.061-19.032c2.669-6.309,5.355-12.653,8.06-19.032
				c2.704,6.379,5.39,12.724,8.06,19.032c2.67,6.31,5.356,12.654,8.061,19.032h-1.456c-1.145-2.669-2.28-5.338-3.406-8.008
				C66.47,28.688,57.438,7.409,56.294,4.739"/>
			<path fill="#0F0F0F" d="M97.334,2.966V4.37H83.658v34.996h-1.456V4.37H68.578V2.966H97.334z"/>
			<path fill="#0F0F0F" d="M145.354,35.986l0.832,1.195c-1.387,0.798-2.869,1.431-4.446,1.898c-1.578,0.468-3.25,0.702-5.018,0.702
				c-2.566,0-4.976-0.485-7.229-1.456c-2.254-0.971-4.221-2.296-5.901-3.979c-1.683-1.681-3.009-3.647-3.979-5.901
				c-0.971-2.253-1.456-4.662-1.456-7.229c0-2.564,0.485-4.982,1.456-7.254c0.97-2.271,2.296-4.246,3.979-5.928
				c1.681-1.682,3.647-3.017,5.901-4.004c2.253-0.988,4.662-1.482,7.229-1.482c1.768,0,3.439,0.226,5.018,0.676
				c1.577,0.451,3.076,1.093,4.498,1.925c-0.208,0.347-0.485,0.745-0.832,1.195c-2.6-1.594-5.495-2.392-8.684-2.392
				c-2.358,0-4.576,0.46-6.656,1.378c-2.08,0.919-3.892,2.158-5.434,3.718c-1.543,1.561-2.766,3.389-3.666,5.486
				c-0.902,2.098-1.353,4.342-1.353,6.733c0,2.358,0.45,4.576,1.353,6.656c0.9,2.08,2.113,3.892,3.64,5.435
				c1.525,1.543,3.319,2.765,5.382,3.666s4.272,1.352,6.63,1.352c1.595,0,3.12-0.208,4.576-0.624S144.035,36.749,145.354,35.986z"/>
			<path fill="#0F0F0F" d="M229.242,39.366v-36.4h7.539c1.041,0,2.184,0.174,3.432,0.521s2.418,0.893,3.51,1.638
				c1.094,0.746,2.002,1.716,2.73,2.912s1.092,2.626,1.092,4.29c0,2.946-0.953,5.287-2.859,7.02
				c-1.906,1.734-4.646,2.601-8.217,2.601h-5.771v17.42H229.242z M230.697,20.542h5.668c1.906,0,3.484-0.26,4.732-0.78
				c1.248-0.52,2.244-1.187,2.99-2.002c0.744-0.813,1.266-1.698,1.561-2.651c0.293-0.953,0.441-1.881,0.441-2.782
				c0-1.04-0.244-2.045-0.729-3.017c-0.486-0.97-1.162-1.819-2.027-2.548c-0.867-0.728-1.891-1.308-3.068-1.742
				c-1.18-0.433-2.463-0.649-3.848-0.649h-5.721V20.542z"/>
			<path fill="#0F0F0F" d="M253.93,21.738v16.224h20.592v1.404h-22.049v-36.4h21.32V4.37H253.93v15.964"/>
			<path fill="#0F0F0F" d="M280.152,39.366v-36.4h7.541c1.039,0,2.184,0.174,3.432,0.521s2.418,0.893,3.51,1.638
				c1.092,0.746,2.002,1.716,2.73,2.912c0.727,1.196,1.092,2.626,1.092,4.29c0,2.462-0.668,4.507-2.002,6.136
				c-1.336,1.63-3.285,2.704-5.85,3.224c1.385,2.947,2.771,5.895,4.16,8.841c1.385,2.946,2.789,5.894,4.211,8.84h-1.561
				c-1.387-2.946-2.773-5.876-4.16-8.788s-2.773-5.841-4.16-8.788c-0.693,0.104-1.402,0.156-2.131,0.156h-5.355v17.42H280.152z
				 M281.609,20.542h5.668c1.906,0,3.482-0.26,4.73-0.78c1.248-0.52,2.244-1.187,2.99-2.002c0.746-0.813,1.266-1.698,1.561-2.651
				S297,13.228,297,12.326c0-1.04-0.242-2.045-0.727-3.017c-0.486-0.97-1.162-1.819-2.029-2.548
				c-0.867-0.728-1.889-1.308-3.068-1.742c-1.178-0.433-2.461-0.649-3.848-0.649h-5.719V20.542z"/>
			<path fill="#0F0F0F" d="M168.471,40.489c-0.339,0-0.68-0.01-1.021-0.027c-5.068-0.271-9.729-2.498-13.121-6.272
				c-3.392-3.774-5.112-8.644-4.842-13.712s2.497-9.728,6.272-13.12c3.774-3.393,8.632-5.11,13.712-4.842
				c10.461,0.557,18.52,9.521,17.963,19.984l-1.498-0.08c0.513-9.636-6.909-17.894-16.545-18.406
				c-4.668-0.249-9.152,1.335-12.629,4.459c-3.478,3.125-5.528,7.417-5.777,12.085s1.335,9.153,4.46,12.629
				c3.125,3.477,7.416,5.528,12.085,5.777c5.167,0.271,10.188-1.745,13.731-5.545l1.098,1.023
				C178.745,38.317,173.73,40.489,168.471,40.489z"/>
			<path fill="#0F0F0F" d="M223.946,21.842l-1.498-0.055c0.35-9.643-7.212-17.771-16.854-18.121
				c-3.974-0.143-7.768,1.02-10.969,3.366l-0.887-1.21c3.477-2.548,7.597-3.82,11.91-3.655
				C216.118,2.547,224.326,11.373,223.946,21.842z"/>
			<path fill="#0F0F0F" d="M204.978,40.155c-0.234,0-0.469-0.005-0.704-0.013c-9.89-0.358-17.927-8.375-18.298-18.25l1.498-0.057
				c0.342,9.095,7.745,16.478,16.854,16.808c4.652,0.177,9.128-1.491,12.551-4.675c3.423-3.185,5.4-7.51,5.569-12.181l1.499,0.054
				c-0.184,5.071-2.331,9.769-6.047,13.225C214.357,38.363,209.791,40.155,204.978,40.155z"/>
			<path fill="#0F0F0F" d="M175.148,38.113c-4.79,0-8.688-3.896-8.688-8.688c0-4.79,3.897-8.688,8.688-8.688
				s8.688,3.897,8.688,8.688C183.836,34.217,179.938,38.113,175.148,38.113z M175.148,22.238c-3.963,0-7.188,3.225-7.188,7.188
				c0,3.964,3.225,7.188,7.188,7.188s7.188-3.224,7.188-7.188C182.336,25.463,179.111,22.238,175.148,22.238z"/>
			<path fill="#0F0F0F" d="M198.398,21.905c-4.79,0-8.688-3.896-8.688-8.688c0-4.79,3.897-8.688,8.688-8.688
				s8.688,3.897,8.688,8.688C207.086,18.009,203.188,21.905,198.398,21.905z M198.398,6.03c-3.963,0-7.188,3.225-7.188,7.188
				c0,3.964,3.225,7.188,7.188,7.188s7.188-3.224,7.188-7.188C205.586,9.255,202.361,6.03,198.398,6.03z"/>
			<rect x="190.461" y="12.493" fill="#0F0F0F" width="107.5" height="1.45"/>
			<rect x="45.133" y="29.468" fill="#0F0F0F" width="137.953" height="1.5"/>
		</g>
	</g>
	<path fill="#0F0F0F" d="M4.513,67.88h2.484c0.732,0,1.423,0.125,2.073,0.374c0.65,0.25,1.22,0.607,1.708,1.075
		c0.487,0.468,0.874,1.029,1.158,1.685c0.285,0.656,0.427,1.395,0.427,2.218c0,0.6-0.104,1.215-0.312,1.845
		c-0.208,0.63-0.546,1.202-1.014,1.715s-1.074,0.935-1.821,1.265c-0.747,0.331-1.659,0.496-2.736,0.496H4.513V67.88z M5.777,69.084
		v8.248h1.067c0.6,0,1.159-0.096,1.677-0.29c0.519-0.193,0.969-0.47,1.35-0.831c0.381-0.36,0.681-0.792,0.899-1.296
		c0.219-0.503,0.328-1.069,0.328-1.7c0-0.63-0.109-1.199-0.328-1.708c-0.219-0.508-0.519-0.942-0.899-1.303s-0.831-0.638-1.35-0.831
		c-0.518-0.193-1.077-0.29-1.677-0.29H5.777z"/>
	<path fill="#0F0F0F" d="M15.352,78.552V67.88h6.571v1.205h-5.306v3.491h4.711v1.204h-4.711v3.567h5.519v1.205H15.352z"/>
	<path fill="#0F0F0F" d="M31.069,68.932c-0.121,0.152-0.241,0.305-0.357,0.457c-0.117,0.153-0.236,0.305-0.358,0.458
		c-0.082-0.081-0.188-0.17-0.32-0.267s-0.282-0.186-0.45-0.267c-0.167-0.081-0.355-0.15-0.563-0.206
		c-0.209-0.056-0.43-0.084-0.663-0.084c-0.59,0-1.027,0.167-1.312,0.503s-0.427,0.732-0.427,1.189c0,0.254,0.048,0.467,0.145,0.64
		s0.224,0.318,0.382,0.435c0.157,0.117,0.335,0.216,0.533,0.297s0.404,0.158,0.617,0.229c0.336,0.122,0.696,0.267,1.083,0.435
		c0.386,0.167,0.744,0.381,1.074,0.64s0.604,0.577,0.823,0.953s0.328,0.828,0.328,1.356c0,0.458-0.084,0.869-0.252,1.235
		c-0.167,0.366-0.396,0.679-0.686,0.938c-0.29,0.259-0.628,0.457-1.014,0.594c-0.387,0.137-0.793,0.206-1.22,0.206
		c-0.387,0-0.763-0.053-1.129-0.16c-0.365-0.107-0.701-0.244-1.006-0.412c-0.305-0.168-0.577-0.353-0.815-0.557
		c-0.239-0.203-0.425-0.406-0.557-0.61l0.793-0.792c0.132,0.143,0.29,0.292,0.473,0.45s0.381,0.302,0.595,0.435
		c0.213,0.132,0.447,0.239,0.701,0.32c0.254,0.082,0.528,0.122,0.823,0.122c0.264,0,0.519-0.038,0.762-0.114
		c0.244-0.076,0.46-0.188,0.648-0.335c0.188-0.147,0.338-0.333,0.449-0.556c0.112-0.224,0.168-0.483,0.168-0.778
		c0-0.406-0.099-0.737-0.297-0.991s-0.442-0.465-0.732-0.633c-0.289-0.167-0.592-0.302-0.907-0.404
		c-0.314-0.102-0.589-0.198-0.823-0.29c-0.183-0.071-0.401-0.167-0.655-0.29s-0.495-0.287-0.724-0.496
		c-0.229-0.208-0.425-0.467-0.587-0.777c-0.163-0.31-0.25-0.688-0.26-1.136c-0.01-0.335,0.036-0.671,0.138-1.006
		s0.269-0.64,0.503-0.915c0.233-0.274,0.544-0.498,0.93-0.671c0.387-0.173,0.859-0.259,1.418-0.259c0.406,0,0.828,0.071,1.266,0.213
		C30.043,68.175,30.531,68.475,31.069,68.932z"/>
	<path fill="#0F0F0F" d="M35.079,67.88h1.265v10.672h-1.265V67.88z"/>
	<path fill="#0F0F0F" d="M44.897,75.183v-1.205h2.104c0.295,0,0.49,0.074,0.587,0.221s0.145,0.379,0.145,0.694v3.019
		c-0.406,0.234-0.841,0.419-1.303,0.556c-0.463,0.137-0.953,0.206-1.472,0.206c-0.752,0-1.458-0.142-2.119-0.427
		s-1.237-0.673-1.73-1.167c-0.493-0.493-0.882-1.069-1.166-1.73c-0.284-0.661-0.427-1.367-0.427-2.119
		c0-0.752,0.143-1.461,0.427-2.126s0.673-1.245,1.166-1.738c0.493-0.493,1.069-0.884,1.73-1.174c0.661-0.29,1.367-0.435,2.119-0.435
		c0.519,0,1.009,0.066,1.472,0.198c0.462,0.132,0.901,0.32,1.318,0.564c-0.112,0.173-0.229,0.343-0.351,0.511
		c-0.122,0.167-0.239,0.338-0.351,0.511c-0.315-0.183-0.646-0.325-0.991-0.427c-0.346-0.102-0.711-0.152-1.098-0.152
		c-0.579,0-1.12,0.112-1.623,0.335c-0.504,0.224-0.945,0.531-1.327,0.922c-0.381,0.391-0.681,0.846-0.899,1.364
		c-0.219,0.519-0.327,1.067-0.327,1.646c0,0.58,0.108,1.128,0.327,1.646c0.219,0.519,0.519,0.968,0.899,1.35
		c0.382,0.381,0.823,0.684,1.327,0.907c0.503,0.224,1.044,0.335,1.623,0.335c0.528,0,1.031-0.091,1.51-0.274V75.64
		c0-0.173-0.019-0.292-0.054-0.358c-0.036-0.066-0.135-0.099-0.297-0.099H44.897z"/>
	<path fill="#0F0F0F" d="M60.722,67.88v11.16c-1.312-1.392-2.612-2.774-3.903-4.146s-2.592-2.754-3.902-4.147
		c-0.052-0.071-0.1-0.137-0.146-0.198s-0.094-0.127-0.145-0.198c0.01,0.082,0.018,0.163,0.022,0.244
		c0.006,0.082,0.013,0.163,0.023,0.244v7.714h-1.266v-11.16c1.312,1.423,2.612,2.833,3.903,4.23c1.29,1.398,2.592,2.808,3.902,4.231
		c0.051,0.071,0.1,0.137,0.145,0.198c0.046,0.061,0.094,0.127,0.146,0.198c-0.011-0.081-0.019-0.162-0.023-0.244
		s-0.013-0.163-0.022-0.244V67.88H60.722z"/>
	<path fill="#0F0F0F" d="M64.09,78.552V67.88h6.571v1.205h-5.306v3.491h4.711v1.204h-4.711v3.567h5.519v1.205H64.09z"/>
	<path fill="#0F0F0F" d="M73.847,78.552V67.88h2.516c0.346,0,0.729,0.054,1.151,0.16c0.422,0.107,0.815,0.277,1.182,0.511
		c0.365,0.234,0.671,0.534,0.914,0.899c0.244,0.366,0.366,0.808,0.366,1.327c0,0.762-0.19,1.4-0.571,1.913
		c-0.382,0.513-0.938,0.852-1.67,1.014l2.287,4.848h-1.372l-2.241-4.756h-0.259h-1.037v4.756H73.847z M75.112,72.576h1.326
		c0.447,0,0.816-0.059,1.105-0.175c0.29-0.117,0.521-0.262,0.693-0.435s0.295-0.366,0.366-0.58c0.071-0.213,0.106-0.417,0.106-0.609
		c0-0.224-0.059-0.44-0.175-0.648c-0.117-0.208-0.274-0.391-0.473-0.549s-0.438-0.282-0.717-0.374
		c-0.279-0.092-0.577-0.137-0.892-0.137h-1.342V72.576z"/>
	<g>
		<path fill="#0F0F0F" d="M90.617,76.443c-0.336,0-0.658-0.062-0.956-0.186c-0.298-0.124-0.563-0.299-0.786-0.522
			c-0.221-0.22-0.398-0.482-0.527-0.778c-0.131-0.301-0.197-0.63-0.197-0.979c0-0.348,0.066-0.677,0.197-0.979
			c0.127-0.293,0.303-0.556,0.521-0.78c0.222-0.229,0.485-0.41,0.782-0.539c0.611-0.266,1.348-0.258,1.943,0
			c0.296,0.129,0.56,0.308,0.786,0.534s0.405,0.489,0.533,0.785c0.131,0.302,0.198,0.631,0.198,0.979
			c0,0.349-0.066,0.678-0.198,0.979c-0.129,0.298-0.311,0.562-0.539,0.783c-0.226,0.22-0.491,0.394-0.788,0.517
			C91.289,76.381,90.962,76.443,90.617,76.443z M90.617,72.571c-0.191,0-0.364,0.035-0.53,0.107c-0.169,0.074-0.312,0.172-0.437,0.3
			c-0.126,0.13-0.228,0.283-0.303,0.455c-0.072,0.166-0.107,0.344-0.107,0.545c0,0.201,0.035,0.379,0.107,0.545
			c0.074,0.17,0.174,0.318,0.297,0.441c0.124,0.124,0.265,0.217,0.434,0.287c0.344,0.143,0.764,0.136,1.094,0
			c0.17-0.07,0.316-0.166,0.445-0.291c0.127-0.124,0.225-0.267,0.299-0.437c0.072-0.166,0.107-0.344,0.107-0.545
			c0-0.201-0.035-0.379-0.107-0.545c-0.075-0.172-0.174-0.319-0.304-0.449c-0.129-0.128-0.28-0.231-0.45-0.305
			C90.997,72.606,90.818,72.571,90.617,72.571z"/>
	</g>
	<path fill="#0F0F0F" d="M101.289,67.88h2.484c0.732,0,1.423,0.125,2.073,0.374c0.65,0.25,1.22,0.607,1.708,1.075
		c0.487,0.468,0.874,1.029,1.158,1.685c0.285,0.656,0.427,1.395,0.427,2.218c0,0.6-0.104,1.215-0.312,1.845
		c-0.208,0.63-0.546,1.202-1.014,1.715s-1.074,0.935-1.821,1.265c-0.747,0.331-1.659,0.496-2.736,0.496h-1.967V67.88z
		 M102.554,69.084v8.248h1.067c0.6,0,1.159-0.096,1.677-0.29c0.519-0.193,0.969-0.47,1.35-0.831c0.381-0.36,0.681-0.792,0.899-1.296
		c0.219-0.503,0.328-1.069,0.328-1.7c0-0.63-0.109-1.199-0.328-1.708c-0.219-0.508-0.519-0.942-0.899-1.303s-0.831-0.638-1.35-0.831
		c-0.518-0.193-1.077-0.29-1.677-0.29H102.554z"/>
	<path fill="#0F0F0F" d="M112.128,78.552V67.88h6.571v1.205h-5.306v3.491h4.711v1.204h-4.711v3.567h5.519v1.205H112.128z"/>
	<path fill="#0F0F0F" d="M130.01,67.88h1.266c-0.793,1.87-1.58,3.73-2.363,5.58c-0.782,1.85-1.57,3.709-2.363,5.58
		c-0.792-1.87-1.58-3.73-2.362-5.58c-0.783-1.85-1.57-3.71-2.363-5.58h1.266c0.559,1.321,1.112,2.63,1.661,3.926
		s1.103,2.604,1.662,3.926l0.137,0.503l0.138-0.503c0.559-1.321,1.113-2.63,1.662-3.926S129.451,69.201,130.01,67.88z"/>
	<path fill="#0F0F0F" d="M133.821,78.552V67.88h6.571v1.205h-5.306v3.491h4.711v1.204h-4.711v3.567h5.519v1.205H133.821z"/>
	<path fill="#0F0F0F" d="M143.746,78.552V67.88h1.266v9.467h5.519v1.205H143.746z"/>
	<path fill="#0F0F0F" d="M153.442,73.231c0-0.742,0.143-1.445,0.427-2.111c0.284-0.666,0.673-1.248,1.166-1.746
		s1.069-0.892,1.73-1.182c0.661-0.29,1.367-0.435,2.119-0.435c0.742,0,1.445,0.145,2.111,0.435c0.666,0.29,1.248,0.684,1.746,1.182
		s0.892,1.08,1.182,1.746c0.289,0.666,0.435,1.37,0.435,2.111c0,0.752-0.146,1.458-0.435,2.119c-0.29,0.661-0.684,1.238-1.182,1.73
		c-0.498,0.493-1.08,0.882-1.746,1.167s-1.369,0.427-2.111,0.427c-0.752,0-1.458-0.142-2.119-0.427s-1.237-0.673-1.73-1.167
		c-0.493-0.493-0.882-1.069-1.166-1.73C153.585,74.689,153.442,73.983,153.442,73.231z M154.708,73.231
		c0,0.59,0.108,1.141,0.327,1.654s0.519,0.96,0.899,1.342c0.382,0.381,0.826,0.684,1.334,0.907c0.509,0.224,1.052,0.335,1.632,0.335
		c0.579,0,1.123-0.112,1.631-0.335c0.508-0.223,0.953-0.526,1.334-0.907c0.381-0.381,0.681-0.829,0.899-1.342
		s0.328-1.064,0.328-1.654c0-0.589-0.109-1.141-0.328-1.654s-0.519-0.963-0.899-1.349s-0.826-0.691-1.334-0.915
		c-0.508-0.223-1.052-0.335-1.631-0.335c-0.58,0-1.123,0.112-1.632,0.335c-0.508,0.224-0.952,0.529-1.334,0.915
		c-0.381,0.386-0.681,0.836-0.899,1.349S154.708,72.642,154.708,73.231z"/>
	<path fill="#0F0F0F" d="M166.949,78.552V67.88h2.516c0.346,0,0.729,0.054,1.151,0.16c0.422,0.107,0.815,0.277,1.182,0.511
		c0.365,0.234,0.671,0.534,0.914,0.899c0.244,0.366,0.366,0.808,0.366,1.327c0,0.925-0.274,1.659-0.823,2.203
		c-0.549,0.544-1.342,0.816-2.378,0.816h-1.662v4.756H166.949z M168.215,72.576h1.326c0.447,0,0.816-0.059,1.105-0.175
		c0.29-0.117,0.521-0.262,0.693-0.435s0.295-0.366,0.366-0.58c0.071-0.213,0.106-0.417,0.106-0.609c0-0.224-0.059-0.44-0.175-0.648
		c-0.117-0.208-0.274-0.391-0.473-0.549s-0.438-0.282-0.717-0.374c-0.279-0.092-0.577-0.137-0.892-0.137h-1.342V72.576z"/>
	<path fill="#0F0F0F" d="M175.334,78.552V67.88h6.571v1.205H176.6v3.491h4.711v1.204H176.6v3.567h5.519v1.205H175.334z"/>
	<path fill="#0F0F0F" d="M185.091,78.552V67.88h2.516c0.346,0,0.729,0.054,1.151,0.16c0.422,0.107,0.815,0.277,1.182,0.511
		c0.365,0.234,0.671,0.534,0.914,0.899c0.244,0.366,0.366,0.808,0.366,1.327c0,0.762-0.19,1.4-0.571,1.913
		c-0.382,0.513-0.938,0.852-1.67,1.014l2.287,4.848h-1.372l-2.241-4.756h-0.259h-1.037v4.756H185.091z M186.356,72.576h1.326
		c0.447,0,0.816-0.059,1.105-0.175c0.29-0.117,0.521-0.262,0.693-0.435s0.295-0.366,0.366-0.58c0.071-0.213,0.106-0.417,0.106-0.609
		c0-0.224-0.059-0.44-0.175-0.648c-0.117-0.208-0.274-0.391-0.473-0.549s-0.438-0.282-0.717-0.374
		c-0.279-0.092-0.577-0.137-0.892-0.137h-1.342V72.576z"/>
	<g>
		<path fill="#0F0F0F" d="M201.861,76.443c-0.336,0-0.658-0.062-0.956-0.186c-0.298-0.124-0.563-0.299-0.786-0.522
			c-0.221-0.22-0.398-0.482-0.527-0.778c-0.131-0.301-0.197-0.63-0.197-0.979c0-0.348,0.066-0.677,0.197-0.979
			c0.127-0.293,0.303-0.556,0.521-0.78c0.222-0.229,0.485-0.41,0.782-0.539c0.611-0.266,1.348-0.258,1.943,0
			c0.296,0.129,0.56,0.308,0.786,0.534s0.405,0.489,0.533,0.785c0.131,0.302,0.198,0.631,0.198,0.979
			c0,0.349-0.066,0.678-0.198,0.979c-0.129,0.298-0.311,0.562-0.539,0.783c-0.226,0.22-0.491,0.394-0.788,0.517
			C202.533,76.381,202.207,76.443,201.861,76.443z M201.861,72.571c-0.191,0-0.364,0.035-0.53,0.107
			c-0.169,0.074-0.312,0.172-0.437,0.3c-0.126,0.13-0.228,0.283-0.303,0.455c-0.072,0.166-0.107,0.344-0.107,0.545
			c0,0.201,0.035,0.379,0.107,0.545c0.074,0.17,0.174,0.318,0.297,0.441c0.124,0.124,0.265,0.217,0.434,0.287
			c0.344,0.143,0.765,0.136,1.094,0c0.17-0.07,0.316-0.166,0.445-0.291c0.127-0.124,0.225-0.267,0.299-0.437
			c0.072-0.166,0.107-0.344,0.107-0.545c0-0.201-0.035-0.379-0.107-0.545c-0.075-0.172-0.174-0.319-0.304-0.449
			c-0.129-0.128-0.28-0.231-0.45-0.305C202.241,72.606,202.062,72.571,201.861,72.571z"/>
	</g>
	<path fill="#0F0F0F" d="M212.669,78.552V67.88h6.571v1.205h-5.306v3.491h4.711v1.204h-4.711v3.567h5.519v1.205H212.669z"/>
	<path fill="#0F0F0F" d="M222.457,67.88h2.484c0.732,0,1.423,0.125,2.073,0.374c0.65,0.25,1.22,0.607,1.708,1.075
		c0.487,0.468,0.874,1.029,1.158,1.685c0.285,0.656,0.427,1.395,0.427,2.218c0,0.6-0.104,1.215-0.312,1.845
		c-0.208,0.63-0.546,1.202-1.014,1.715s-1.074,0.935-1.821,1.265c-0.747,0.331-1.659,0.496-2.736,0.496h-1.967V67.88z
		 M223.722,69.084v8.248h1.067c0.6,0,1.159-0.096,1.677-0.29c0.519-0.193,0.969-0.47,1.35-0.831c0.381-0.36,0.681-0.792,0.899-1.296
		c0.219-0.503,0.328-1.069,0.328-1.7c0-0.63-0.109-1.199-0.328-1.708c-0.219-0.508-0.519-0.942-0.899-1.303s-0.831-0.638-1.35-0.831
		c-0.518-0.193-1.077-0.29-1.677-0.29H223.722z"/>
	<path fill="#0F0F0F" d="M237.244,78.674c-0.549,0-1.057-0.076-1.524-0.229c-0.467-0.152-0.874-0.378-1.22-0.678
		c-0.345-0.3-0.614-0.673-0.808-1.121s-0.29-0.96-0.29-1.54V67.88h1.266v7.181c0,0.386,0.063,0.729,0.19,1.029
		s0.306,0.551,0.534,0.754c0.229,0.204,0.5,0.358,0.815,0.465c0.314,0.107,0.66,0.16,1.036,0.16s0.722-0.053,1.037-0.16
		c0.315-0.106,0.587-0.261,0.815-0.465c0.229-0.203,0.409-0.455,0.541-0.754c0.133-0.3,0.198-0.643,0.198-1.029V67.88h1.266v7.227
		c0,0.579-0.099,1.092-0.297,1.54s-0.471,0.821-0.815,1.121c-0.346,0.3-0.753,0.526-1.22,0.678
		C238.302,78.598,237.793,78.674,237.244,78.674z"/>
	<path fill="#0F0F0F" d="M251.423,76.905l0.686,1.006c-0.406,0.234-0.841,0.419-1.303,0.556c-0.463,0.137-0.953,0.206-1.472,0.206
		c-0.752,0-1.458-0.142-2.119-0.427s-1.237-0.673-1.73-1.167c-0.493-0.493-0.882-1.069-1.166-1.73
		c-0.284-0.661-0.427-1.367-0.427-2.119c0-0.752,0.143-1.461,0.427-2.126s0.673-1.245,1.166-1.738
		c0.493-0.493,1.069-0.884,1.73-1.174c0.661-0.29,1.367-0.435,2.119-0.435c0.519,0,1.009,0.066,1.472,0.198
		c0.462,0.132,0.901,0.32,1.318,0.564c-0.112,0.173-0.229,0.343-0.351,0.511c-0.122,0.167-0.239,0.338-0.351,0.511
		c-0.315-0.183-0.646-0.325-0.991-0.427c-0.346-0.102-0.711-0.152-1.098-0.152c-0.579,0-1.12,0.112-1.623,0.335
		c-0.504,0.224-0.945,0.531-1.327,0.922c-0.381,0.391-0.681,0.846-0.899,1.364c-0.219,0.519-0.327,1.067-0.327,1.646
		c0,0.58,0.108,1.128,0.327,1.646c0.219,0.519,0.519,0.968,0.899,1.35c0.382,0.381,0.823,0.684,1.327,0.907
		c0.503,0.224,1.044,0.335,1.623,0.335C250.086,77.469,250.782,77.281,251.423,76.905z"/>
	<path fill="#0F0F0F" d="M264.305,78.552h-1.265c-0.295-0.701-0.593-1.405-0.893-2.111s-0.597-1.41-0.892-2.112h-3.354
		c-0.295,0.702-0.593,1.405-0.893,2.112s-0.597,1.41-0.892,2.111h-1.266c0.793-1.87,1.58-3.73,2.363-5.58
		c0.782-1.85,1.57-3.71,2.363-5.58c0.793,1.87,1.58,3.73,2.363,5.58C262.725,74.822,263.512,76.682,264.305,78.552z M259.716,70.7
		l-0.137-0.503c-0.143,0.508-0.32,1.001-0.534,1.479c-0.213,0.478-0.422,0.96-0.625,1.448h2.317
		c-0.173-0.406-0.343-0.811-0.511-1.212C260.06,71.511,259.889,71.107,259.716,70.7z"/>
	<path fill="#0F0F0F" d="M274.397,67.88v1.205h-3.567v9.467h-1.266v-9.467h-3.598V67.88H274.397z"/>
	<path fill="#0F0F0F" d="M276.104,73.231c0-0.742,0.143-1.445,0.427-2.111c0.284-0.666,0.673-1.248,1.166-1.746
		s1.069-0.892,1.73-1.182c0.661-0.29,1.367-0.435,2.119-0.435c0.742,0,1.445,0.145,2.111,0.435c0.666,0.29,1.248,0.684,1.746,1.182
		s0.892,1.08,1.182,1.746c0.289,0.666,0.435,1.37,0.435,2.111c0,0.752-0.146,1.458-0.435,2.119c-0.29,0.661-0.684,1.238-1.182,1.73
		c-0.498,0.493-1.08,0.882-1.746,1.167s-1.369,0.427-2.111,0.427c-0.752,0-1.458-0.142-2.119-0.427s-1.237-0.673-1.73-1.167
		c-0.493-0.493-0.882-1.069-1.166-1.73C276.247,74.689,276.104,73.983,276.104,73.231z M277.37,73.231
		c0,0.59,0.108,1.141,0.327,1.654s0.519,0.96,0.899,1.342c0.382,0.381,0.826,0.684,1.334,0.907c0.509,0.224,1.052,0.335,1.632,0.335
		c0.579,0,1.123-0.112,1.631-0.335c0.508-0.223,0.953-0.526,1.334-0.907c0.381-0.381,0.681-0.829,0.899-1.342
		s0.328-1.064,0.328-1.654c0-0.589-0.109-1.141-0.328-1.654s-0.519-0.963-0.899-1.349s-0.826-0.691-1.334-0.915
		c-0.508-0.223-1.052-0.335-1.631-0.335c-0.58,0-1.123,0.112-1.632,0.335c-0.508,0.224-0.952,0.529-1.334,0.915
		c-0.381,0.386-0.681,0.836-0.899,1.349S277.37,72.642,277.37,73.231z"/>
	<path fill="#0F0F0F" d="M289.611,78.552V67.88h2.516c0.346,0,0.729,0.054,1.151,0.16c0.422,0.107,0.815,0.277,1.182,0.511
		c0.365,0.234,0.671,0.534,0.914,0.899c0.244,0.366,0.366,0.808,0.366,1.327c0,0.762-0.19,1.4-0.571,1.913
		c-0.382,0.513-0.938,0.852-1.67,1.014l2.287,4.848h-1.372l-2.241-4.756h-0.259h-1.037v4.756H289.611z M290.877,72.576h1.326
		c0.447,0,0.816-0.059,1.105-0.175c0.29-0.117,0.521-0.262,0.693-0.435s0.295-0.366,0.366-0.58c0.071-0.213,0.106-0.417,0.106-0.609
		c0-0.224-0.059-0.44-0.175-0.648c-0.117-0.208-0.274-0.391-0.473-0.549s-0.438-0.282-0.717-0.374
		c-0.279-0.092-0.577-0.137-0.892-0.137h-1.342V72.576z"/>
</g>
</svg>
