<?xml version="1.0" encoding="utf-8"?>
<!-- Generator: Adobe Illustrator 16.0.0, SVG Export Plug-In . SVG Version: 6.00 Build 0)  -->
<!DOCTYPE svg PUBLIC "-//W3C//DTD SVG 1.1//EN" "http://www.w3.org/Graphics/SVG/1.1/DTD/svg11.dtd">
<svg version="1.1" id="Layer_3" xmlns="http://www.w3.org/2000/svg" xmlns:xlink="http://www.w3.org/1999/xlink" x="0px" y="0px"
	 width="320px" height="50px" viewBox="0 0 320 50" enable-background="new 0 0 320 50" xml:space="preserve">
<path fill="none" stroke="#333333" stroke-width="1.5" stroke-linecap="round" stroke-miterlimit="10" d="M50,43
	c0,0,15.46-36.666,15.667-36.667S81,43,81,43"/>
<line fill="none" stroke="#333333" stroke-width="1.5" stroke-linecap="round" stroke-miterlimit="10" x1="92.335" y1="43.332" x2="92.333" y2="5.999"/>
<line fill="none" stroke="#333333" stroke-width="1.5" stroke-linecap="round" stroke-miterlimit="10" x1="78.083" y1="5.999" x2="106.917" y2="5.999"/>
<path fill="none" stroke="#333333" stroke-width="1.5" stroke-linecap="round" stroke-miterlimit="10" d="M155.542,40.424
	C152.797,42.061,149.59,43,146.163,43c-10.125,0-18.333-8.209-18.333-18.333c0-10.125,8.208-18.333,18.333-18.333
	c3.387,0,6.559,0.918,9.282,2.52"/>
<path fill="none" stroke="#333333" stroke-width="1.5" stroke-linecap="round" stroke-miterlimit="10" d="M239,43.249V6.333h9
	l-0.414,0.003c0.083-0.002,0.166-0.004,0.249-0.004c4.511,0,8.167,3.656,8.167,8.167c0,4.51-3.656,8.167-8.167,8.167h-0.001h-8.667"
	/>
<polyline fill="none" stroke="#333333" stroke-width="1.5" stroke-linecap="round" stroke-miterlimit="10" points="282.75,6.25 
	262.75,6.25 262.75,42.75 283.25,42.75 "/>
<path fill="none" stroke="#333333" stroke-width="1.5" stroke-linecap="round" stroke-miterlimit="10" d="M290,43.083V6.333h9
	l-0.414,0.003c0.083-0.002,0.166-0.004,0.249-0.004c4.511,0,8.167,3.655,8.167,8.167c0,4.51-3.656,8.166-8.167,8.166h-0.001h-8.667"
	/>
<line fill="none" stroke="#333333" stroke-width="1.5" stroke-linecap="round" stroke-miterlimit="10" x1="298.252" y1="22.916" x2="307.75" y2="43.125"/>
<line fill="none" stroke="#333333" stroke-width="1.5" stroke-linecap="round" stroke-miterlimit="10" x1="199.835" y1="17.249" x2="306.002" y2="17.249"/>
<line fill="none" stroke="#333333" stroke-width="1.5" stroke-linecap="round" stroke-miterlimit="10" x1="190.668" y1="33.916" x2="54" y2="33.875"/>
<path fill="none" stroke="#333333" stroke-width="1.5" stroke-linecap="round" stroke-miterlimit="10" d="M203.109,10.453
	c1.5-1.188,3.312-1.188,4.422-1.219c4.485-0.126,8.125,3.638,8.125,8.125s-3.638,8.125-8.125,8.125s-8.125-3.638-8.125-8.125
	c0-2.335,0.985-4.44,2.562-5.922l-0.264,0.266c3.317-3.317,7.9-5.37,12.963-5.37c10.126,0,18.334,8.208,18.334,18.333
	c0,10.126-8.208,18.333-18.334,18.333c-10.125,0-18.333-8.207-18.333-18.333c0-10.125-8.208-18.333-18.334-18.333
	c-10.125,0-18.333,8.208-18.333,18.333c0,10.126,8.208,18.333,18.333,18.333c2.893,0,5.629-0.67,8.062-1.863l1.697-1.028
	c3.334-2.674,4.075-7.272,1.853-10.786c-2.413-3.811-7.457-4.945-11.269-2.533s-4.946,7.456-2.535,11.267
	c2.413,3.812,7.458,4.947,11.27,2.536c0.238-0.15,0.465-0.312,0.682-0.483"/>
<line fill="none" stroke="#333333" stroke-width="1.5" stroke-linecap="round" stroke-miterlimit="10" x1="11.499" y1="43.167" x2="11.499" y2="5.667"/>
<line fill="none" stroke="#333333" stroke-width="1.5" stroke-linecap="round" stroke-miterlimit="10" x1="42.333" y1="5.5" x2="42.041" y2="43.33"/>
<line fill="none" stroke="#333333" stroke-width="1.5" stroke-linecap="round" stroke-miterlimit="10" x1="11.501" y1="5.332" x2="41.876" y2="42.994"/>
</svg>
