<?xml version="1.0" encoding="utf-8"?>
<!-- Generator: Adobe Illustrator 16.0.0, SVG Export Plug-In . SVG Version: 6.00 Build 0)  -->
<!DOCTYPE svg PUBLIC "-//W3C//DTD SVG 1.1//EN" "http://www.w3.org/Graphics/SVG/1.1/DTD/svg11.dtd">
<svg version="1.1" xmlns="http://www.w3.org/2000/svg" xmlns:xlink="http://www.w3.org/1999/xlink" x="0px" y="0px"
	 width="917.954px" height="193.491px" viewBox="0 0 917.954 193.491" enable-background="new 0 0 917.954 193.491"
	 xml:space="preserve">
<g id="Layer_1">
</g>
<g id="work_-_bitediabetes">
	<g id="ABOUT">
		<g>
			<rect x="10.893" y="140.624" fill="none" width="169.34" height="44.325"/>
			<text transform="matrix(1 0 0 1 40.5381 153.98)"><tspan x="0" y="0" fill="#454646" font-family="'OpenSansLight-Italic'" font-size="17.5744">human rights  </tspan><tspan x="28.796" y="22.596" fill="#454646" font-family="'OpenSansLight-Italic'" font-size="17.5744">lawyer</tspan></text>
			<rect x="194.169" y="140.624" fill="none" width="169.34" height="44.325"/>
			<text transform="matrix(1 0 0 1 232.1631 153.98)"><tspan x="0" y="0" fill="#454646" font-family="'OpenSansLight-Italic'" font-size="17.5744">former CBC  </tspan><tspan x="-32.984" y="22.596" fill="#454646" font-family="'OpenSansLight-Italic'" font-size="17.5744">restaurant-reviewer</tspan></text>
			<rect x="376.19" y="140.624" fill="none" width="169.34" height="44.325"/>
			<text transform="matrix(1 0 0 1 426.6636 153.98)" fill="#454646" font-family="'OpenSansLight-Italic'" font-size="17.5744">tv junkie</text>
			<rect x="555.7" y="140.624" fill="none" width="169.342" height="44.325"/>
			<text transform="matrix(1 0 0 1 595.9497 153.98)"><tspan x="0" y="0" fill="#454646" font-family="'OpenSansLight-Italic'" font-size="17.5744">barbie doll </tspan><tspan x="9.722" y="22.596" fill="#454646" font-family="'OpenSansLight-Italic'" font-size="17.5744">collector</tspan></text>
			<rect x="737.721" y="140.624" fill="none" width="169.34" height="44.325"/>
			<text transform="matrix(1 0 0 1 801.6646 153.98)" fill="#454646" font-family="'OpenSansLight-Italic'" font-size="17.5744">mom</text>
			<g>
				<path fill="none" stroke="#222222" stroke-width="1.2553" stroke-miterlimit="10" d="M100.583,77.479h28.622
					c0,0,12.302,2.511,12.302-11.298V40.99h-28.371l0,0v-5.021c-19.079-7.029-35.148-0.25-35.148-0.25v5.523h-28.37v25.357
					c0,13.809,12.302,11.298,12.302,11.298h28.621v3.263h10.546v-4.936H90.552v1.265"/>
				
					<line fill="none" stroke="#222222" stroke-width="1.2553" stroke-linecap="round" stroke-miterlimit="10" x1="53.007" y1="43.751" x2="53.007" y2="48.146"/>
				
					<line fill="none" stroke="#222222" stroke-width="1.2553" stroke-linecap="round" stroke-miterlimit="10" x1="53.007" y1="50.531" x2="53.007" y2="54.925"/>
				
					<line fill="none" stroke="#222222" stroke-width="1.2553" stroke-linecap="round" stroke-miterlimit="10" x1="53.007" y1="57.309" x2="53.007" y2="61.703"/>
				
					<line fill="none" stroke="#222222" stroke-width="1.2553" stroke-linecap="round" stroke-miterlimit="10" x1="53.007" y1="64.088" x2="53.007" y2="68.482"/>
				
					<line fill="none" stroke="#222222" stroke-width="1.2553" stroke-linecap="round" stroke-miterlimit="10" x1="137.993" y1="43.626" x2="137.993" y2="48.021"/>
				
					<line fill="none" stroke="#222222" stroke-width="1.2553" stroke-linecap="round" stroke-miterlimit="10" x1="137.993" y1="50.405" x2="137.993" y2="54.798"/>
				
					<line fill="none" stroke="#222222" stroke-width="1.2553" stroke-linecap="round" stroke-miterlimit="10" x1="137.993" y1="57.184" x2="137.993" y2="61.578"/>
				
					<line fill="none" stroke="#222222" stroke-width="1.2553" stroke-linecap="round" stroke-miterlimit="10" x1="137.993" y1="63.963" x2="137.993" y2="68.357"/>
				
					<line fill="none" stroke="#222222" stroke-width="1.2553" stroke-linecap="round" stroke-miterlimit="10" x1="70.644" y1="74.398" x2="66.25" y2="74.398"/>
				
					<line fill="none" stroke="#222222" stroke-width="1.2553" stroke-linecap="round" stroke-miterlimit="10" x1="63.866" y1="74.398" x2="59.471" y2="74.398"/>
				
					<line fill="none" stroke="#222222" stroke-width="1.2553" stroke-linecap="round" stroke-miterlimit="10" x1="84.202" y1="74.398" x2="79.808" y2="74.398"/>
				
					<line fill="none" stroke="#222222" stroke-width="1.2553" stroke-linecap="round" stroke-miterlimit="10" x1="77.423" y1="74.398" x2="73.03" y2="74.398"/>
				
					<line fill="none" stroke="#222222" stroke-width="1.2553" stroke-linecap="round" stroke-miterlimit="10" x1="97.759" y1="74.398" x2="93.366" y2="74.398"/>
				
					<line fill="none" stroke="#222222" stroke-width="1.2553" stroke-linecap="round" stroke-miterlimit="10" x1="90.981" y1="74.398" x2="86.587" y2="74.398"/>
				
					<line fill="none" stroke="#222222" stroke-width="1.2553" stroke-linecap="round" stroke-miterlimit="10" x1="111.317" y1="74.398" x2="106.923" y2="74.398"/>
				
					<line fill="none" stroke="#222222" stroke-width="1.2553" stroke-linecap="round" stroke-miterlimit="10" x1="104.538" y1="74.398" x2="100.144" y2="74.398"/>
				
					<line fill="none" stroke="#222222" stroke-width="1.2553" stroke-linecap="round" stroke-miterlimit="10" x1="124.875" y1="74.398" x2="120.481" y2="74.398"/>
				
					<line fill="none" stroke="#222222" stroke-width="1.2553" stroke-linecap="round" stroke-miterlimit="10" x1="118.095" y1="74.398" x2="113.702" y2="74.398"/>
				
					<line fill="none" stroke="#222222" stroke-width="1.2553" stroke-linecap="round" stroke-miterlimit="10" x1="131.653" y1="74.398" x2="127.259" y2="74.398"/>
				<path fill="none" stroke="#222222" stroke-width="1.2553" stroke-linecap="round" stroke-miterlimit="10" d="M53.656,71.337
					c0.284,0.992,0.857,2.145,2.803,2.743"/>
				<path fill="none" stroke="#222222" stroke-width="1.2553" stroke-linecap="round" stroke-miterlimit="10" d="M137.301,71.127
					c-0.284,0.993-0.856,2.146-2.803,2.743"/>
				<path fill="none" stroke="#222222" stroke-width="1.2553" stroke-miterlimit="10" d="M81.148,41.744h28.829V38.23
					c0,0-14.478-3.85-28.787-0.084L81.148,41.744z"/>
				<g>
					<g>
						<path fill="none" stroke="#222222" stroke-width="1.2553" stroke-miterlimit="10" d="M50.456,71.976v32.45
							c0,0,0.166,4.686,5.522,4.351v-1.673h4.185v2.009v2.343h-4.185v-2.679"/>
						
							<line fill="none" stroke="#222222" stroke-width="1.2553" stroke-miterlimit="10" x1="95.312" y1="109.113" x2="60.163" y2="109.113"/>
					</g>
					<g>
						<path fill="none" stroke="#222222" stroke-width="1.2553" stroke-miterlimit="10" d="M140.418,71.997v32.45
							c0,0-0.166,4.686-5.522,4.353v-1.675h-4.185v2.01v2.342h4.185v-2.677"/>
						
							<line fill="none" stroke="#222222" stroke-width="1.2553" stroke-miterlimit="10" x1="95.312" y1="109.134" x2="130.711" y2="109.134"/>
					</g>
				</g>
			</g>
			<g>
				
					<ellipse fill="none" stroke="#222222" stroke-width="1.2553" stroke-linecap="round" stroke-miterlimit="10" cx="250.102" cy="27.29" rx="16.999" ry="17.144"/>
				<path fill="none" stroke="#222222" stroke-width="1.2553" stroke-linecap="round" stroke-miterlimit="10" d="M225.008,109.332
					V70.147c0,0-0.709-18.366,14.976-18.366h17.201c0,0,9.41-1.021,15.685,4.896l18.011,15.307l14.471-16.939
					c0,0,4.653-6.733,9.308-2.855"/>
				<path fill="none" stroke="#222222" stroke-width="1.2553" stroke-linecap="round" stroke-miterlimit="10" d="M314.872,52.371
					c4.722,3.793-1.459,8.959-1.459,8.959L295.94,82.187c0,0-4.128,3.691-8.196,0.717c0,0-10.929-8.164-12.04-8.675
					c-1.114-0.51-2.229-0.407-2.229,1.837v33.879H225.21"/>
				
					<line fill="none" stroke="#222222" stroke-width="1.2553" stroke-linecap="round" stroke-miterlimit="10" x1="288.958" y1="44.229" x2="336.315" y2="44.229"/>
				<path fill="none" stroke="#222222" stroke-width="1.2553" stroke-linecap="round" stroke-miterlimit="10" d="M293.208,39.126
					h39.059c0,0-0.407-18.447-19.249-18.955l0.022-0.023c-0.136,0-0.261,0.01-0.396,0.012c-0.14-0.002-0.27-0.012-0.414-0.012
					l-0.026,0.025c-18.791,0.539-19.198,18.955-19.198,18.955"/>
				<path fill="none" stroke="#222222" stroke-width="1.2553" stroke-linecap="round" stroke-miterlimit="10" d="M316.875,17.417
					c0,0,0.303-5.357-4.098-5.357l-0.282,0.014c-4.401,0-4.099,5.357-4.099,5.357"/>
			</g>
			<g>
				<path fill="none" stroke="#222222" stroke-width="1.2553" stroke-linecap="round" stroke-miterlimit="10" d="M459.335,35.042
					c5.021,0,7.028,2.008,7.028,2.008l33.309,2.207c0,0,2.678,0.836,2.678,4.018c0,3.18,3.014,20.42-0.334,55.736
					c0,0,1.172,1.842-6.529,1.506l2.178,8.704c0,0-1.006,2.511-5.021,1.505l-1.674-10.042c0,0-9.707,1.841-32.303,2.009"/>
				<path fill="none" stroke="#222222" stroke-width="1.2553" stroke-linecap="round" stroke-miterlimit="10" d="M459.838,102.695
					c-22.599-0.168-29.395-2.01-29.395-2.01l-1.675,10.043c-4.016,1.004-5.021-1.507-5.021-1.507l2.178-8.704
					c-7.701,0.336-6.529-1.506-6.529-1.506s-3.579-59.086,1.275-59.418l31.133-2.512c0,0,2.008-2.008,7.029-2.008"/>
				<path fill="none" stroke="#222222" stroke-width="1.2553" stroke-linecap="round" stroke-miterlimit="10" d="M489.965,69.218
					c0,14.697-2.242,26.613-15.209,26.613h-37.058c-12.965,0-15.354-11.916-15.354-26.613l0,0c0-14.697,2.389-26.612,15.354-26.612
					h37.058C487.723,42.606,489.965,54.521,489.965,69.218L489.965,69.218z"/>
				
					<circle fill="none" stroke="#222222" stroke-width="1.2553" stroke-linecap="round" stroke-miterlimit="10" cx="496.326" cy="75.244" r="2.511"/>
				
					<circle fill="none" stroke="#222222" stroke-width="1.2553" stroke-linecap="round" stroke-miterlimit="10" cx="496.326" cy="82.943" r="2.511"/>
				
					<circle fill="none" stroke="#222222" stroke-width="1.2553" stroke-linecap="round" stroke-miterlimit="10" cx="496.326" cy="90.641" r="2.511"/>
				
					<line fill="none" stroke="#222222" stroke-width="1.2553" stroke-linecap="round" stroke-miterlimit="10" x1="454.482" y1="35.408" x2="432.221" y2="10.134"/>
				
					<line fill="none" stroke="#222222" stroke-width="1.2553" stroke-linecap="round" stroke-miterlimit="10" x1="462.348" y1="35.074" x2="472.557" y2="19.341"/>
				<circle fill="#222222" cx="431.886" cy="9.464" r="1.505"/>
				<path fill="#222222" d="M474.063,19.341c0,0.83-0.674,1.505-1.506,1.505s-1.508-0.675-1.508-1.505
					c0-0.834,0.676-1.508,1.508-1.508S474.063,18.507,474.063,19.341z"/>
			</g>
			<path fill="none" stroke="#222222" stroke-width="1.2553" stroke-linecap="round" stroke-miterlimit="10" d="M595.055,115.566
				c0,0,22.645-12.152,22.645-32.036c0,0,0.922-4.419-21.91-2.394c0,0-4.418,0.369-4.234-3.865c0,0-2.578-1.29-1.289-2.395
				c0,0-2.025-1.104,0.184-2.209l-0.184-3.314c0,0-2.211,0.184-2.947-0.185s2.508-3.499,4.051-6.627c0,0-4.973-1.474-5.893-2.946
				c-0.918-1.473,4.422,1.658,6.076,0.369l0.736-7.182c0,0-2.023,0.185-4.234,0.737c-4.012,1.003,9.943-42.899,49.527-25.04
				c0.068,0.031,10.141-10.365,11.246-11.239c5.637-4.458,12.779-8.417,20.211-7.862c6.365,0.473,12.752,4.688,13.674,11.365
				c1.098,8-3.883,12.625-8.525,18.309c-2.654,3.25-5.344,6.48-7.961,9.763c-4.977,6.236-7.072,14.443-2.316,21.46
				c0,0,6.721,7.961,15.463,3.129c0,0,8.24-6.075,2.58-9.391c-6.258-1.473-9.02,5.066-9.941,4.053
				c-2.826-3.119,17.299-23.759,22.92-6.697c2.381,7.218-5.461,14.611-11.938,16.808c-11.527,3.911-23.424,0.658-27.92-11.217
				c-1.854-4.897-1.035-11.392,0.258-16.281c1.129-4.265,2.838-8.329,4.822-12.259c1.357-2.699,2.881-5.59,3.096-8.664
				c0.277-3.959-2.324-5.182-6.031-4.811c-1.547,0.154-17.422,6.098-16.691,7.033c0,0,10.494,13.441-1.473,31.484
				c0,0-4.234,7.731-9.574,11.6c0,0-13.072,19.883,7.549,32.403C637.03,107.465,623.04,121.642,595.055,115.566z"/>
			<g>
				
					<circle fill="none" stroke="#222222" stroke-width="1.2553" stroke-linecap="round" stroke-miterlimit="10" cx="873.867" cy="62.293" r="7.95"/>
				<g>
					<path fill="none" stroke="#222222" stroke-width="1.2553" stroke-linecap="round" stroke-miterlimit="10" d="M869.838,69.303
						c0,0-5.334,2.825-5.334,5.492s-0.471,15.221,0.312,17.574c0.785,2.354,5.414,2.196,9.023,2.196"/>
					<path fill="none" stroke="#222222" stroke-width="1.2553" stroke-linecap="round" stroke-miterlimit="10" d="M878.172,69.303
						c0,0,5.336,2.825,5.336,5.492s0.471,15.221-0.314,17.574c-0.785,2.354-5.432,2.196-9.039,2.196"/>
				</g>
				
					<line fill="none" stroke="#222222" stroke-width="1.2553" stroke-linecap="round" stroke-miterlimit="10" x1="868.321" y1="94.671" x2="868.321" y2="114.337"/>
				
					<line fill="none" stroke="#222222" stroke-width="1.2553" stroke-linecap="round" stroke-miterlimit="10" x1="880.247" y1="94.671" x2="880.247" y2="114.337"/>
				
					<circle fill="none" stroke="#222222" stroke-width="1.2553" stroke-linecap="round" stroke-miterlimit="10" cx="770.513" cy="56.017" r="7.95"/>
				<g>
					<path fill="none" stroke="#222222" stroke-width="1.2553" stroke-linecap="round" stroke-miterlimit="10" d="M766.483,63.027
						c0,0-5.334,2.824-5.334,5.492s-0.471,21.497,0.314,23.851c0.783,2.354,5.412,2.196,9.021,2.196"/>
					<path fill="none" stroke="#222222" stroke-width="1.2553" stroke-linecap="round" stroke-miterlimit="10" d="M774.817,63.027
						c0,0,5.336,2.824,5.336,5.492s0.471,21.497-0.314,23.851c-0.785,2.354-5.43,2.196-9.039,2.196"/>
				</g>
				<g>
					<path fill="none" stroke="#222222" stroke-width="1.2553" stroke-linecap="round" stroke-miterlimit="10" d="M798.055,48.172
						c0,0-6.742,3.569-6.742,6.94s-5.158,21.102-4.168,24.076s11.406,4.08,15.967,4.08"/>
					<path fill="none" stroke="#222222" stroke-width="1.2553" stroke-linecap="round" stroke-miterlimit="10" d="M808.586,48.172
						c0,0,6.742,3.569,6.742,6.94s4.818,20.475,3.826,23.449c-0.99,2.973-11.086,4.707-15.646,4.707"/>
				</g>
				
					<line fill="none" stroke="#222222" stroke-width="1.2553" stroke-linecap="round" stroke-miterlimit="10" x1="764.969" y1="94.671" x2="764.969" y2="114.337"/>
				
					<line fill="none" stroke="#222222" stroke-width="1.2553" stroke-linecap="round" stroke-miterlimit="10" x1="776.895" y1="94.671" x2="776.895" y2="114.337"/>
				<path fill="none" stroke="#222222" stroke-width="1.2553" stroke-linecap="round" stroke-miterlimit="10" d="M814.973,37.345
					c0,6.355-5.154,11.508-11.51,11.508c-6.354,0-11.506-5.152-11.506-11.508s3.283-9.095,3.975-8.577
					C809.95,39.228,814.973,35.253,814.973,37.345z"/>
				
					<circle fill="none" stroke="#222222" stroke-width="1.2553" stroke-linecap="round" stroke-miterlimit="10" cx="840.287" cy="32.115" r="11.507"/>
				<path fill="none" stroke="#222222" stroke-width="1.2553" stroke-linecap="round" stroke-miterlimit="10" d="M802.627,21.445
					c-17.262,0.627-14.227,19.248-14.227,19.248s-0.629,4.705-1.57,5.857l10.146,1.465"/>
				<path fill="none" stroke="#222222" stroke-width="1.2553" stroke-linecap="round" stroke-miterlimit="10" d="M802.94,21.445
					c17.262,0.626,14.227,19.248,14.227,19.248s0.629,4.705,1.57,5.856l-10.146,1.466"/>
				
					<line fill="none" stroke="#222222" stroke-width="1.2553" stroke-linecap="round" stroke-miterlimit="10" x1="797.395" y1="83.165" x2="797.395" y2="114.337"/>
				
					<line fill="none" stroke="#222222" stroke-width="1.2553" stroke-linecap="round" stroke-miterlimit="10" x1="808.588" y1="83.478" x2="808.588" y2="114.234"/>
				<g>
					
						<line fill="none" stroke="#222222" stroke-width="1.2553" stroke-linecap="round" stroke-miterlimit="10" x1="834.917" y1="83.165" x2="834.917" y2="114.337"/>
					
						<line fill="none" stroke="#222222" stroke-width="1.2553" stroke-linecap="round" stroke-miterlimit="10" x1="846.108" y1="83.478" x2="846.108" y2="114.234"/>
				</g>
				<g>
					<path fill="none" stroke="#222222" stroke-width="1.2553" stroke-linecap="round" stroke-miterlimit="10" d="M833.729,41.529
						c0,0-8.68,4.598-8.68,8.938c0,4.342-0.768,24.77,0.51,28.599c1.275,3.83,8.811,3.575,14.682,3.575"/>
					<path fill="none" stroke="#222222" stroke-width="1.2553" stroke-linecap="round" stroke-miterlimit="10" d="M847.292,41.529
						c0,0,8.684,4.598,8.684,8.938c0,4.342,0.764,24.77-0.512,28.599c-1.277,3.83-8.838,3.575-14.709,3.575"/>
				</g>
				<path fill="none" stroke="#222222" stroke-width="1.2553" stroke-linecap="round" stroke-miterlimit="10" d="M837.358,46.237
					c0.314-0.941,5.492-0.784,5.648,0s-1.568,4.551-1.568,4.551h-2.512C838.926,50.788,837.043,47.178,837.358,46.237z"/>
				<polygon fill="none" stroke="#222222" stroke-width="1.2553" stroke-linecap="round" stroke-miterlimit="10" points="
					838.848,53.115 836.024,67.001 839.633,70.532 843.243,66.923 841.516,53.036 				"/>
			</g>
		</g>
	</g>
</g>
</svg>
