<?xml version="1.0" encoding="utf-8"?>
<!-- Generator: Adobe Illustrator 16.0.0, SVG Export Plug-In . SVG Version: 6.00 Build 0)  -->
<!DOCTYPE svg PUBLIC "-//W3C//DTD SVG 1.1//EN" "http://www.w3.org/Graphics/SVG/1.1/DTD/svg11.dtd">
<svg version="1.1" xmlns="http://www.w3.org/2000/svg" xmlns:xlink="http://www.w3.org/1999/xlink" x="0px" y="0px" width="571px"
	 height="267px" viewBox="0 0 571 267" enable-background="new 0 0 571 267" xml:space="preserve">
<g id="Layer_1">
</g>
<g id="Isolation_Mode">
	<g>
		<path fill="none" stroke="#333333" stroke-width="1.4309" stroke-miterlimit="10" d="M225.327,257.337l5.981-85.271
			c0,0-1.868-7.854,10.472-7.484c12.343,0.375,133.896,0,133.896,0s7.104-1.867,5.984,8.604
			c-1.123,10.474-7.855,78.914-7.855,78.914s-0.373,3.366-7.48,2.991c0,0-133.521,2.994-136.139,2.994
			C227.571,258.085,225.327,257.337,225.327,257.337z"/>
		<path fill="none" stroke="#333333" stroke-width="1.4309" stroke-miterlimit="10" d="M225.327,257.337l-10.475-12.343
			c0,0-3.478-5.235,11.222-4.862"/>
		<path fill="none" stroke="#333333" stroke-width="1.4309" stroke-linecap="round" stroke-miterlimit="10" d="M201.174,39.306
			c0.562-29.174,25.246-32.54,25.246-32.54c47.685-1.682,38.522,22.065,38.522,22.065s-5.609,6.547-12.342,4.862
			c-6.731-1.682-22.995-9.258-22.995-9.258s-12.077-3.842-11.327,4.386"/>
		<path fill="none" stroke="#333333" stroke-width="1.4309" stroke-linecap="round" stroke-miterlimit="10" d="M254.45,84.698
			c-2.384,2.955-5.491,6.164-9.518,9.587c0,0-8.813,12.261-18.837,2.583c-2.105-2.032-4.265-5.031-6.409-9.317"/>
		<path fill="none" stroke="#333333" stroke-width="1.4309" stroke-linecap="round" stroke-miterlimit="10" d="M264.195,30.702
			c0,0,3.739,19.264-2.992,32.164c0,0,3.579,7.158-4.625,18.996"/>
		<path fill="none" stroke="#333333" stroke-width="1.4309" stroke-linecap="round" stroke-miterlimit="10" d="M208.033,45.357
			c0,0-5.221-9.495-9.004-3.899c-3.787,5.597,1.888,12.816,3.22,14.337"/>
		<path fill="none" stroke="#333333" stroke-width="1.4309" stroke-linecap="round" stroke-miterlimit="10" d="M202.248,55.794
			c0,0-1.508,9.565,0.611,15.675c0,0-4.489,13.465-8.976,11.968c0,0-1.7,22.584,16.626,33.806c0,0,13.844-0.642,22.612-7.766
			c0,0,6.714-5.891,5.754-9.592"/>
		<path fill="none" stroke="#333333" stroke-width="1.4309" stroke-miterlimit="10" d="M247.739,92.415
			c0,0,20.568-1.496,25.432,8.975c4.863,10.472,10.849,34.039,12.717,37.03c1.869,2.991,6.154,8.378,6.357,9.723
			c0.203,1.344-10.488,9.29-20.717,12.211c-10.231,2.925-15.8,4.477-15.8,4.477"/>
		<path fill="none" stroke="#333333" stroke-width="1.4309" stroke-miterlimit="10" d="M241.436,81.998
			c-0.375-0.158-2.84-2.709-7.625-1.058c-4.782,1.65-10.972-1.213-9.689-1.09c1.286,0.127,5.154-1.27,5.771-2.055
			c0.682-0.872,2.924-1.93,2.924-1.93c4.986-3.256,9.733,1.474,9.733,1.474s6.833-1.36,9.009,0.415
			c2.176,1.774,6.149,5.6,6.726,5.691c0.577,0.09-4.281,2.935-12.625-0.74c0,0-1.073-0.562-2.038-0.609
			C242.658,82.055,242.641,82.503,241.436,81.998z"/>
		<path fill="none" stroke="#333333" stroke-width="1.4309" stroke-linecap="round" stroke-miterlimit="10" d="M358.258,55.012
			c0,0-12.904,2.807-11.781,25.527c0,0,0.842,1.122-0.283,3.366c-1.119,2.243-5.609,7.011,0.562,19.354
			c6.17,12.342,7.664,19.439,22.127,14.719"/>
		<path fill="none" stroke="#333333" stroke-width="1.4309" stroke-linecap="round" stroke-miterlimit="10" d="M383.502,37.808
			c0,0-25.432-7.106-34.037,13.09c0,0-6.076,6.921-8.598,11.968c-2.334,4.668-8.139,20.845,1.402,42.638
			c7.127,16.283-9.543,9.203-11.504,8.417c-2.215-0.892,1.582,5.271,5.018,8.139c1.576,1.313,3.541,2.119,5.922,1.679"/>
		<path fill="none" stroke="#333333" stroke-width="1.4309" stroke-miterlimit="10" d="M335.783,122.059
			c0,0-5.297,8.408-0.809,15.422c4.488,7.012-2.525,10.1-3.365,10.66c0,0-6.74,11.48-3.453,16.963"/>
		<path fill="none" stroke="#333333" stroke-width="1.4309" stroke-miterlimit="10" d="M371.453,164.557
			c0,0-3.549-36.635-3.027-39.878c0.494-3.082-1.676-6.545,9.742-20.36c0,0,5.336-4.792,3.654-7.877
			c-1.684-3.09-4.727-7.331-3.883-8.45c0.842-1.124,8.582,1.617,9.705,2.739c1.121,1.121,3.654,3.884,3.654,3.884"/>
		<path fill="none" stroke="#333333" stroke-width="1.4309" stroke-miterlimit="10" d="M399.209,105.223
			c0,0-17.232,22.498-16.195,25.627c0,0,2.723,10.108,5.068,14.799"/>
		<path fill="none" stroke="#333333" stroke-width="1.4309" stroke-miterlimit="10" d="M391.795,115.315
			c0,0,0.641,13.082-1.602,15.605c-2.246,2.524-2.891,14.311-0.305,19.793"/>
		<path fill="none" stroke="#333333" stroke-width="1.4309" stroke-linecap="round" stroke-miterlimit="10" d="M403.416,119.808
			c0,0-5.047,10.939,2.246,15.991c7.293,5.049,6.453,15.147,5.049,18.232"/>
		<path fill="none" stroke="#333333" stroke-width="1.4309" stroke-miterlimit="10" d="M409.037,210.559
			c0,0-17.961,9.953-19.086,8.55c0,0-8.184-4.32-11.174-18.157"/>
		<path fill="none" stroke="#333333" stroke-width="1.4309" stroke-miterlimit="10" d="M387.26,143.73l16.18,45.649
			c0,0,3.807,11.722,4.566,21.922"/>
		<path fill="none" stroke="#333333" stroke-width="1.4309" stroke-miterlimit="10" d="M172.562,81.381
			c2.996-2.244,21.321,2.056,21.321,2.056"/>
		<path fill="none" stroke="#333333" stroke-width="1.4309" stroke-linecap="round" stroke-miterlimit="10" d="M160.349,84.03
			c0,0-0.176,2.31,6.886,3.658c7.062,1.35,5.979-3.306,5.979-3.306c-5.162-8.506,1.833-16.678,1.833-16.678
			c17.227-22.313,0.249-31.682,0.249-31.682c-6.092-13.376-28.991-18.549-28.991-18.549s-40.059-8.964-45.893,23.345"/>
		<path fill="none" stroke="#333333" stroke-width="1.4309" stroke-linecap="round" stroke-miterlimit="10" d="M169.451,88.163
			c0,0,8.87,49.992,16.455,54.379c0,0,4.955,3.987,7.951,3.188c2.991-0.801-3.39,5.136-12.963-0.904c0,0,6.94,13.895,12.152,14.422
			c5.212,0.527-16.593,1.142-21.15-15.435c0,0,3.209,15.384,17.866,22.826c0,0-11.001,3.884-17.783-5.766
			c0,0,9.117,12.627,10.81,13.228c1.693,0.595-16.707,5.381-22.97-11.188"/>
		<path fill="none" stroke="#333333" stroke-width="1.4309" stroke-linecap="round" stroke-miterlimit="10" d="M145.607,106.772
			c0,0,7.808,2.358,11.129-6.466c0,0,2.217-1.086,2.81-2.612c0.592-1.524,1.036-3.172,1.036-3.172s5.46-5.491,5.823-6.69"/>
		<path fill="none" stroke="#333333" stroke-width="1.4309" stroke-linecap="round" stroke-miterlimit="10" d="M173.755,35.336
			c0,0-20.82-13.499-52.816-2.596C88.944,43.644,96.182,52.647,96.182,52.647s3.266,7.41,1.996,11.61
			c-1.271,4.204-3.029,12.188,1.157,10.048c4.186-2.143,2.25-1.81,13.624-5.188c11.374-3.377,27.123-7.788,34.912-8.842
			c7.789-1.054,24.29-2.749,27.779-5.625c3.491-2.877,4.77-5.373,3.931-6.938c-0.837-1.564,0.592-1.525-5.516-5.599"/>
		<path fill="none" stroke="#333333" stroke-width="1.4309" stroke-linecap="round" stroke-miterlimit="10" d="M175.649,54.651
			c0,0,2.704,5.795,2.12,9.03"/>
		<path fill="none" stroke="#333333" stroke-width="1.4309" stroke-linecap="round" stroke-miterlimit="10" d="M141.557,61.643
			c0,0-2.542,44.838,20.97,108.823c0,0,3.074,6.301,6.535,6.561c0,0-15.349,1.784-21.951-18.432
			c-6.603-20.211-8.09-32.192-8.09-32.192"/>
		<path fill="none" stroke="#333333" stroke-width="1.4309" stroke-linecap="round" stroke-miterlimit="10" d="M126.935,108.497
			c0,0,8.333,42.459,11.161,45.672c0,0,3.884,11.003,14.097,15.795"/>
		<path fill="none" stroke="#333333" stroke-width="1.4309" stroke-linecap="round" stroke-miterlimit="10" d="M79.937,98.342
			c-2.548,3.321-5.365,17.186,10.747,26.685c0,0,19.3,4.655,24.216,10.072c4.915,5.419,11.504,13.96,16.047,18.875
			c4.546,4.913,10.316,7.051,11.241,7.461"/>
		<path fill="none" stroke="#333333" stroke-width="1.4309" stroke-linecap="round" stroke-miterlimit="10" d="M233.882,201.468"/>
		<path fill="none" stroke="#333333" stroke-width="1.4309" stroke-linecap="round" stroke-miterlimit="10" d="M229.786,200.877"/>
		<path fill="none" stroke="#333333" stroke-width="1.4309" stroke-linecap="round" stroke-miterlimit="10" d="M158.545,174.393
			c2.732,12.086,7.116,19.212,7.116,19.212s3.913,6.604,11.51,11.508"/>
		<path fill="none" stroke="#333333" stroke-width="1.4309" stroke-linecap="round" stroke-miterlimit="10" d="M50.708,182.53
			c0,0,32.564-5.504,34.254-6.166c1.688-0.662-1.922-21.275-2.95-23.945"/>
		<path fill="none" stroke="#333333" stroke-width="1.4309" stroke-linecap="round" stroke-miterlimit="10" d="M50.708,182.53
			c-0.926-4.098-2.59-10.715-3.502-15.376c-11.014-56.392,26.292-65.258,26.292-65.258c11.928-3.472,25.836-27.591,25.836-27.591"/>
		<path fill="none" stroke="#333333" stroke-width="1.4309" stroke-linecap="round" stroke-miterlimit="10" d="M142.185,162.184
			c0,0-0.43,16.568,2.193,25.938c3.835,13.702,10.968,21.513,11.966,21.375c13.502-1.855,30.349-6.302,34.803-6.302
			c7.009,0,27.236,7.534,28.863,11.601c3.653,9.134-2.803,8.892-2.803,8.892l-25.008-0.933c0,0-112.528,22.495-119.227,13.895l0,0
			c0,0-11.301-18.789-20.438-54.35"/>
		<path fill="none" stroke="#333333" stroke-width="1.4309" stroke-linecap="round" stroke-miterlimit="10" d="M156.344,209.497
			c-48.775,1.12-65.902,2.261-65.902,2.261s-2.056-18.267-8.907-34.481"/>
		<path fill="none" stroke="#333333" stroke-width="1.4309" stroke-linecap="round" stroke-miterlimit="10" d="M157.988,208.401"/>
		<path fill="none" stroke="#333333" stroke-width="1.4309" stroke-linecap="round" stroke-miterlimit="10" d="M142.917,181.272"/>
		<path fill="none" stroke="#333333" stroke-width="1.4309" stroke-linecap="round" stroke-miterlimit="10" d="M217.009,202.659"/>
		<path fill="none" stroke="#333333" stroke-width="1.4309" stroke-miterlimit="10" d="M105.989,92.788c0,0,0.75,20.944,8.23,33.662
			"/>
		<path fill="none" stroke="#333333" stroke-width="1.4309" stroke-miterlimit="10" d="M214.852,244.994l-0.748,5.611l10.474,12.714
			l142.868-3.738c0,0,3.742-0.749,6.359-7.481"/>
		<path fill="none" stroke="#333333" stroke-width="1.4309" stroke-linecap="round" stroke-miterlimit="10" d="M439.07,24.34
			c0,0-17.955,12.441-2.873,36.547c0,0-1.699,17.037,6.211,22.736c0,0,3.34,6.294,3.914,9.324c0.574,3.028,6.182,11.434,17.994,6.29
			c14.807-6.452,18.781-20.265,18.781-20.265"/>
		<path fill="none" stroke="#333333" stroke-width="1.4309" stroke-linecap="round" stroke-miterlimit="10" d="M467.416,19.993
			c-17.221-0.251-26.83,4.062-26.83,4.062c-3.141,2.439-19.338-8.991-14.154-7.939c5.184,1.05,18.182-3.439,18.182-3.439
			c41.086-10.726,49.043,0.6,49.043,0.6s6.973,2.652,7.207,4.914c0.246,2.26,10.67,16.355,2.467,34.984
			c0,0,0.188,16.119,0.805,18.403c0.615,2.282-3.227,3.933-3.227,3.933l-4.145-18.972"/>
		<path fill="none" stroke="#333333" stroke-width="1.4309" stroke-linecap="round" stroke-miterlimit="10" d="M486.232,44.315
			c0,0,6.1-8.266,10.17-0.91c4.068,7.355-4.594,21.085-7.625,21.662"/>
		<path fill="none" stroke="#333333" stroke-width="1.4309" stroke-linecap="round" stroke-miterlimit="10" d="M468.734,16.697
			c0,0-4.971,21.065,12.393,38.183"/>
		<path fill="none" stroke="#333333" stroke-width="1.4309" stroke-miterlimit="10" d="M450.262,98.77
			c0,0-14.777,7.944-16.527,10.986c-2.076,3.602-7.26,14.039-7.154,16.826"/>
		<path fill="none" stroke="#333333" stroke-width="1.4309" stroke-miterlimit="10" d="M504.135,71.578
			c0,0,11.127,14.882,11.412,16.396c0.285,1.517-28.676,42.168-28.676,42.168s-3.66,5.031-11.998-12.684
			c0,0,31.891-32.469,31.314-41.867"/>
		<path fill="none" stroke="#333333" stroke-width="1.4309" stroke-miterlimit="10" d="M458.678,101.014
			c0,0,5.889-1.121,8.416,0.562c2.428,1.619,6.172,11.293,6.326,15.047"/>
		<path fill="none" stroke="#333333" stroke-width="1.4309" stroke-miterlimit="10" d="M462.885,101.014
			c0,0-5.627,16.543-3.518,18.914c2.109,2.369,6.529,10.136,7.584,11.305c1.055,1.172,4.719-14.723,7.084-14.723"/>
		<path fill="none" stroke="#333333" stroke-width="1.4309" stroke-miterlimit="10" d="M406.223,189.657"/>
		<path fill="none" stroke="#333333" stroke-width="1.4309" stroke-miterlimit="10" d="M445.566,199.487"/>
		<path fill="none" stroke="#333333" stroke-width="1.4309" stroke-linecap="round" stroke-miterlimit="10" d="M440.965,203.994
			c0,0-5.93-29.059-2.258-65.969"/>
		<path fill="none" stroke="#333333" stroke-width="1.4309" stroke-miterlimit="10" d="M518.529,220.437
			c17.967-6.699,24.072-16.881,26.488-21.618c2.418-4.739-2.943-75.084-4.053-91.447c-1.805-7.6-25.418-19.398-25.418-19.398"/>
		<path fill="none" stroke="#333333" stroke-width="1.4309" stroke-linecap="round" stroke-miterlimit="10" d="M511.41,132.433
			c0,0,0.562,16.832,1.686,19.635s6.195,5.8,6.195,5.8"/>
		<path fill="none" stroke="#333333" stroke-width="1.4309" stroke-miterlimit="10" d="M493.717,196.688
			c-7.674,3.77-18.727,6.699-18.727,6.699c-8.525,2.893-23.576,3.799-23.576,3.799L440,203.716l-3.461-0.264
			c0,0-18.789,1.363-27.502,7.106c0,0-5.195,6.993-3.809,8.798c1.391,1.807,8.797,3.81,14.848,6.357s19.555,2.1,19.555,2.1
			l5.127-1.429l4.158,2.162c0,0,24.4,0.87,42.666-0.802c4.359-0.399,8.434-0.664,13.549-2.893"/>
		<path fill="none" stroke="#333333" stroke-width="1.4309" stroke-linecap="round" stroke-miterlimit="10" d="M514.342,154.062
			c0,0,0.916,21.238,4.035,31.818c-2.436,0.607-4.873,1.446-9.59,5.021"/>
		<path fill="none" stroke="#333333" stroke-width="1.4309" stroke-miterlimit="10" d="M493.445,196.234
			c0,0.004,8.701,28.013,12.602,28.769c3.895,0.756,12.787-2.436,12.787-2.436l-11.521-34.065c0,0-3.855,1.352-7.516,2.993
			C496.131,193.141,492.662,195.072,493.445,196.234z"/>
		<path fill="none" stroke="#333333" stroke-width="1.4309" stroke-miterlimit="10" d="M333.01,119.528c0,0-6.172,1.684-8.412,6.734
			c-2.246,5.049-6.854,38.842-6.854,38.842"/>
		
			<line fill="none" stroke="#333333" stroke-width="1.4309" stroke-miterlimit="10" x1="289.246" y1="151.402" x2="291.352" y2="164.375"/>
		
			<line fill="none" stroke="#333333" stroke-width="1.4309" stroke-miterlimit="10" x1="221.287" y1="221.554" x2="227.317" y2="221.554"/>
		
			<line fill="none" stroke="#333333" stroke-width="1.4309" stroke-linecap="round" stroke-miterlimit="10" x1="64.447" y1="221.273" x2="5.494" y2="221.351"/>
		
			<line fill="none" stroke="#333333" stroke-width="1.4309" stroke-linecap="round" stroke-miterlimit="10" x1="564.506" y1="221.351" x2="519.137" y2="221.653"/>
		<path fill="none" stroke="#333333" stroke-width="1.4309" stroke-linecap="round" stroke-miterlimit="10" d="M361.119,119.657
			c0,0,7.334,14.976,7.801,17.999"/>
		<path fill="none" stroke="#333333" stroke-width="1.4309" stroke-linecap="round" stroke-miterlimit="10" d="M250.494,164.308
			c0,0-5.044-9.613-4.982-13.379"/>
		<path fill="none" stroke="#333333" stroke-width="1.4309" stroke-linecap="round" stroke-miterlimit="10" d="M419.957,175.679
			c0,0,12.787,2.513,14.195-11.264c-0.686-1.941-2.246,2.891-5.291,2.891c-3.043,0-4.414-5.328-4.414-5.328
			c-3.045-10.962,0.533-20.323,0.533-20.323c5.482-19.411-4.49-43.009-4.49-43.009c-4.209-14.307-4.73-24.275-4.73-24.275
			c0-17.674-8.975-37.31-28.891-36.562c-22.129,0.831-27.678,17.204-27.678,17.204s11.689,1.123,20.385,17.672
			c8.693,16.55,17.953,36.467,24.963,33.943c0,0,5.277-1.26,4.182-7.289"/>
		<path fill="none" stroke="#333333" stroke-width="1.4309" stroke-linecap="round" stroke-miterlimit="10" d="M424.525,176.022
			c0,0,1.939,13.813,0,20.551c-1.943,6.735-1.715,8.904-1.715,8.904"/>
		
			<line fill="none" stroke="#333333" stroke-width="1.4309" stroke-linecap="round" stroke-miterlimit="10" x1="247.778" y1="159.009" x2="246.408" y2="164.033"/>
	</g>
</g>
</svg>
