<?xml version="1.0" encoding="utf-8"?>
<!-- Generator: Adobe Illustrator 16.0.0, SVG Export Plug-In . SVG Version: 6.00 Build 0)  -->
<!DOCTYPE svg PUBLIC "-//W3C//DTD SVG 1.1//EN" "http://www.w3.org/Graphics/SVG/1.1/DTD/svg11.dtd">
<svg version="1.1" id="Layer_1" xmlns="http://www.w3.org/2000/svg" xmlns:xlink="http://www.w3.org/1999/xlink" x="0px" y="0px"
	 width="359px" height="256px" viewBox="0 0 359 256" enable-background="new 0 0 359 256" xml:space="preserve">
<g>
	<path fill="none" stroke="#3A3A3A" stroke-width="1.5" stroke-linecap="round" stroke-miterlimit="10" d="M160.07,93.703
		c0,0,30.82-11.39,42.21-10.72c11.39,0.67,109.21-7.37,121.271,0.67c12.06,8.04,10.049,3.35,12.06,8.04
		c2.01,4.69-2.011,54.939-4.021,58.959c-2.01,4.02,11.391-2.01,19.43,41.54l-10.719-2.681c0,0,0.67,35.511-30.15,32.83
		c0,0-16.75-0.67-22.78-24.79c0,0-104.521,19.431-121.94,3.351c0,0,0.67,5.359-15.41,6.029c0,0,0,36.181-38.86,38.86
		c0,0-21.44,4.69-36.18-26.13c0,0-20.1,0.67-25.46-22.78c-3.397-2.146-10.633-4.791-12.598-8.226
		c-3.198-5.602,4.779-16.72,9.92-9.207c-1.653-2.415,6.976-9.762,8.388-10.497l-5.04,1.13c0,0-6.7-10.72,20.77-18.09l0.67-14.74
		c0,0,4.466-5.357,11.39,6.03c0,0-0.67-16.08,8.71-16.08s70.35-4.02,70.35-4.02l-2.68-21.44l-5.36-3.35L160.07,93.703z"/>
	<path fill="none" stroke="#3A3A3A" stroke-width="1.5" stroke-linecap="round" stroke-miterlimit="10" d="M103.739,184.621
		c-3.27,1.813-6.201,4.182-8.504,6.951c-4.112,4.943-7.407,11.55-7.212,18.113c0.2,6.735,6.617,19.242,13.087,22.036
		c0.001,0,29.479,12.729,39.529-22.777c1.63-5.76-1.308-15.483-4.796-19.967C127.848,178.699,114.095,178.877,103.739,184.621z"/>
	<path fill="none" stroke="#3A3A3A" stroke-width="1.5" stroke-linecap="round" stroke-miterlimit="10" d="M299.596,197.354
		c0.999,3.969,2.932,7.724,5.686,10.776c9.169,10.166,19.632,4.498,26.979-5.219c0,0,10.72-22.109-12.728-32.159
		c-3.72-1.595-10.419,1.362-13.166,3.623C299.457,180.065,297.535,189.163,299.596,197.354z"/>
	<path fill="none" stroke="#3A3A3A" stroke-width="1.5" stroke-linecap="round" stroke-miterlimit="10" d="M208.98,91.693
		c0,0,43.55-0.67,45.561,0c2.01,0.67,4.02,30.15,0,30.82c-4.021,0.67-42.211,2.01-45.561,0.67
		C205.631,121.843,208.98,91.693,208.98,91.693z"/>
	<path fill="none" stroke="#3A3A3A" stroke-width="1.5" stroke-linecap="round" stroke-miterlimit="10" d="M269.28,91.693
		c0,0,32.83-2.01,34.17,0.67c1.34,2.68,0.67,26.8-0.67,28.81c-1.34,2.01-36.181,4.02-35.51,1.34
		C267.94,119.833,269.28,91.693,269.28,91.693z"/>
	<path fill="none" stroke="#3A3A3A" stroke-width="1.5" stroke-linecap="round" stroke-miterlimit="10" d="M167.44,121.843
		c0,0,24.79-6.03,32.159,0.67l-0.67-28.81c0,0-22.109,1.34-32.159,7.37L167.44,121.843z"/>
	<path fill="none" stroke="#3A3A3A" stroke-width="1.5" stroke-linecap="round" stroke-miterlimit="10" d="M88.38,137.252
		c0,0,8.264,15.413,1.564,24.123c0,0-5.584-11.393-6.254-14.743C83.021,143.282,88.38,137.252,88.38,137.252z"/>
	<path fill="none" stroke="#3A3A3A" stroke-width="1.5" stroke-linecap="round" stroke-miterlimit="10" d="M88.73,136.452
		c7.502,0,14.191,8.964,17.583,14.869c-4.453,4.524-10.648,8.266-16.583,10.631"/>
	<path fill="none" stroke="#3A3A3A" stroke-width="1.5" stroke-linecap="round" stroke-miterlimit="10" d="M164.76,130.552
		c0,0,7.37,4.69,3.35,44.221"/>
	
		<line fill="none" stroke="#3A3A3A" stroke-width="1.5" stroke-linecap="round" stroke-miterlimit="10" x1="205.631" y1="132.562" x2="204.961" y2="177.452"/>
	<path fill="none" stroke="#3A3A3A" stroke-width="1.5" stroke-linecap="round" stroke-miterlimit="10" d="M261.91,129.882"/>
	<path fill="none" stroke="#3A3A3A" stroke-width="1.5" stroke-linecap="round" stroke-miterlimit="10" d="M258.561,179.462
		c0,0,3.35-38.859,3.35-49.58"/>
	<path fill="none" stroke="#3A3A3A" stroke-width="1.5" stroke-linecap="round" stroke-miterlimit="10" d="M309.48,131.223
		l0.67,14.739c0,0-30.82,3.351-28.811,44.891"/>
	<path fill="none" stroke="#3A3A3A" stroke-width="1.5" stroke-linecap="round" stroke-miterlimit="10" d="M70.96,151.992
		c0,0,0.67,7.37,4.02,6.7s10.5-6.74,10.5-6.74"/>
	<path fill="none" stroke="#3A3A3A" stroke-width="1.5" stroke-linecap="round" stroke-miterlimit="10" d="M75.65,135.912
		c0,0,6.03,13.4-0.67,22.78"/>
	<path fill="none" stroke="#3A3A3A" stroke-width="1.5" stroke-linecap="round" stroke-miterlimit="10" d="M103.121,183.482"/>
	<path fill="none" stroke="#3A3A3A" stroke-width="1.5" stroke-linecap="round" stroke-miterlimit="10" d="M54.21,169.412
		c-2.64,2.86,8.015-8.903,9.38,1.34c1.34,10.05,6.03,11.391,6.03,11.391l8.04,2.01c0,0,36.85-65.66,95.81,12.06
		c0,0,25.459,8.71,107.87-5.359"/>
	<path fill="none" stroke="#3A3A3A" stroke-width="1.5" stroke-linecap="round" stroke-miterlimit="10" d="M46.84,179.462
		c0,0,8.71,8.04,13.4,10.721c4.69,2.68,11.39,2.68,11.39,2.68l5.36,4.02l-1.34,13.4l-10.05-4.69l-16.08-8.71"/>
	<path fill="none" stroke="#3A3A3A" stroke-width="1.5" stroke-linecap="round" stroke-miterlimit="10" d="M64.93,177.452
		c0,0-6.03,6.7-4.69,12.73"/>
	<path fill="none" stroke="#3A3A3A" stroke-width="1.5" stroke-linecap="round" stroke-miterlimit="10" d="M112.5,193.532
		c0,0,18.677,1.578,11.39,18.76c-6.251,14.74-20.049,3.857-21.44-0.67C101.559,208.72,97.76,200.902,112.5,193.532z"/>
	<path fill="none" stroke="#3A3A3A" stroke-width="1.5" stroke-linecap="round" stroke-miterlimit="10" d="M67.61,41.778
		c0,0,29.48-23.555,58.29-18.462l-1.34,5.729c0,0-16.08-7.003-55.61,19.098L67.61,41.778z"/>
	
		<line fill="none" stroke="#3A3A3A" stroke-width="1.5" stroke-linecap="round" stroke-miterlimit="10" x1="124.561" y1="28.043" x2="124.561" y2="124.523"/>
	<path fill="none" stroke="#3A3A3A" stroke-width="1.5" stroke-linecap="round" stroke-miterlimit="10" d="M125.23,24.606
		c0,0,15.592-8.352,56.941,8.993l0.678,51.394"/>
	<path fill="none" stroke="#3A3A3A" stroke-width="1.5" stroke-linecap="round" stroke-miterlimit="10" d="M131.93,32.733
		c0,0,31.49,0,42.88,9.38l-0.67,24.12c0,0-12.06,31.49-43.55,32.83l1.149-56.939L131.93,32.733z"/>
	
		<line fill="none" stroke="#3A3A3A" stroke-width="1.5" stroke-linecap="round" stroke-miterlimit="10" x1="168.78" y1="39.433" x2="131.739" y2="42.123"/>
	
		<line fill="none" stroke="#3A3A3A" stroke-width="1.5" stroke-linecap="round" stroke-miterlimit="10" x1="132.601" y1="51.493" x2="173.47" y2="49.483"/>
	
		<line fill="none" stroke="#3A3A3A" stroke-width="1.5" stroke-linecap="round" stroke-miterlimit="10" x1="173.47" y1="58.863" x2="130.92" y2="60.873"/>
	
		<line fill="none" stroke="#3A3A3A" stroke-width="1.5" stroke-linecap="round" stroke-miterlimit="10" x1="130.92" y1="70.253" x2="172.8" y2="68.913"/>
	
		<line fill="none" stroke="#3A3A3A" stroke-width="1.5" stroke-linecap="round" stroke-miterlimit="10" x1="131.93" y1="80.303" x2="166.101" y2="79.633"/>
	
		<line fill="none" stroke="#3A3A3A" stroke-width="1.5" stroke-linecap="round" stroke-miterlimit="10" x1="138.63" y1="32.733" x2="137.96" y2="97.723"/>
	
		<line fill="none" stroke="#3A3A3A" stroke-width="1.5" stroke-linecap="round" stroke-miterlimit="10" x1="148.01" y1="34.743" x2="147.34" y2="94.373"/>
	<polyline fill="none" stroke="#3A3A3A" stroke-width="1.5" stroke-linecap="round" stroke-miterlimit="10" points="156.05,35.413 
		155.38,89.683 131.26,89.013 	"/>
	
		<line fill="none" stroke="#3A3A3A" stroke-width="1.5" stroke-linecap="round" stroke-miterlimit="10" x1="164.09" y1="38.093" x2="163.42" y2="81.643"/>
	<path fill="none" stroke="#3A3A3A" stroke-width="1.5" stroke-linecap="round" stroke-miterlimit="10" d="M66.94,49.483"/>
	<polyline fill="none" stroke="#3A3A3A" stroke-width="1.5" stroke-linecap="round" stroke-miterlimit="10" points="34.78,185.492 
		13.34,186.162 9.32,46.803 67.61,41.443 	"/>
	<path fill="none" stroke="#3A3A3A" stroke-width="1.5" stroke-linecap="round" stroke-miterlimit="10" d="M60.24,50.823
		c0,0,1.023,7.985,1.793,17.431c1.795,22.01-1.408,59.219-42.663,62.969l-0.592-66.335l-0.078-8.705L60.24,50.823"/>
	
		<line fill="none" stroke="#3A3A3A" stroke-width="1.5" stroke-linecap="round" stroke-miterlimit="10" x1="61.25" y1="61.542" x2="18.779" y2="64.888"/>
	
		<line fill="none" stroke="#3A3A3A" stroke-width="1.5" stroke-linecap="round" stroke-miterlimit="10" x1="62.25" y1="72.263" x2="20.71" y2="73.603"/>
	
		<line fill="none" stroke="#3A3A3A" stroke-width="1.5" stroke-linecap="round" stroke-miterlimit="10" x1="61.581" y1="82.312" x2="18.701" y2="82.312"/>
	
		<line fill="none" stroke="#3A3A3A" stroke-width="1.5" stroke-linecap="round" stroke-miterlimit="10" x1="60.24" y1="93.033" x2="18.701" y2="91.022"/>
	
		<line fill="none" stroke="#3A3A3A" stroke-width="1.5" stroke-linecap="round" stroke-miterlimit="10" x1="58.23" y1="101.743" x2="19.371" y2="99.733"/>
	
		<line fill="none" stroke="#3A3A3A" stroke-width="1.5" stroke-linecap="round" stroke-miterlimit="10" x1="54.21" y1="109.113" x2="19.371" y2="108.443"/>
	
		<line fill="none" stroke="#3A3A3A" stroke-width="1.5" stroke-linecap="round" stroke-miterlimit="10" x1="50.86" y1="116.483" x2="19.371" y2="116.483"/>
	
		<line fill="none" stroke="#3A3A3A" stroke-width="1.5" stroke-linecap="round" stroke-miterlimit="10" x1="40.811" y1="124.523" x2="19.371" y2="123.183"/>
	
		<line fill="none" stroke="#3A3A3A" stroke-width="1.5" stroke-linecap="round" stroke-miterlimit="10" x1="25.4" y1="56.853" x2="26.74" y2="129.882"/>
	
		<line fill="none" stroke="#3A3A3A" stroke-width="1.5" stroke-linecap="round" stroke-miterlimit="10" x1="33.44" y1="54.843" x2="33.44" y2="127.873"/>
	
		<line fill="none" stroke="#3A3A3A" stroke-width="1.5" stroke-linecap="round" stroke-miterlimit="10" x1="44.831" y1="53.503" x2="43.49" y2="123.183"/>
	
		<line fill="none" stroke="#3A3A3A" stroke-width="1.5" stroke-linecap="round" stroke-miterlimit="10" x1="54.21" y1="51.823" x2="54.21" y2="111.792"/>
	<polyline fill="none" stroke="#3A3A3A" stroke-width="1.5" stroke-linecap="round" stroke-miterlimit="10" points="121.21,23.353 
		188.881,16.653 190.221,83.653 	"/>
	<path fill="none" stroke="#3A3A3A" stroke-width="1.5" stroke-linecap="round" stroke-miterlimit="10" d="M71.63,137.252
		l-2.68-89.109c0,0,25.46-20.1,51.59-20.1"/>
	<polyline fill="none" stroke="#3A3A3A" stroke-width="1.5" stroke-linecap="round" stroke-miterlimit="10" points="261.91,9.953 
		7.98,33.403 9.32,46.803 	"/>
	<path fill="none" stroke="#3A3A3A" stroke-width="1.5" stroke-linecap="round" stroke-miterlimit="10" d="M325.785,192.64
		c0,5.426-4.094,9.825-9.142,9.825c-5.046,0-8.726-3.507-8.726-8.933c0-5.428,3.68-10.72,8.726-10.72
		C321.691,182.812,325.785,187.212,325.785,192.64z"/>
</g>
</svg>
