<?xml version="1.0" encoding="utf-8"?>
<!-- Generator: Adobe Illustrator 16.0.0, SVG Export Plug-In . SVG Version: 6.00 Build 0)  -->
<!DOCTYPE svg PUBLIC "-//W3C//DTD SVG 1.1//EN" "http://www.w3.org/Graphics/SVG/1.1/DTD/svg11.dtd">
<svg version="1.1" xmlns="http://www.w3.org/2000/svg" xmlns:xlink="http://www.w3.org/1999/xlink" x="0px" y="0px" width="398px"
	 height="172px" viewBox="0 0 398 172" enable-background="new 0 0 398 172" xml:space="preserve">
<g id="Layer_1">
</g>
<g id="Isolation_Mode">
	<g>
		<g>
			<path fill="#010101" d="M108.854,52.956l0.043,0.055C108.897,53.01,108.897,52.982,108.854,52.956z"/>
		</g>
		<g>
			<path fill="#010101" d="M64.901,29.473c-0.16-1.706,0.809-2.786,2.905-3.243c-0.352-1.473-1.173-2.577-2.462-3.317
				c-1.29-0.733-2.889-1.016-4.801-0.832c-2.929,0.277-5.173,1.675-6.738,4.188c-1.562,2.52-2.163,5.713-1.796,9.591
				c0.375,4.011,1.507,7.077,3.399,9.194c1.891,2.123,4.322,3.042,7.294,2.758c1.867-0.176,3.443-0.861,4.722-2.06
				c1.28-1.196,2.088-2.758,2.42-4.683c0.286-1.53,0.458-2.409,0.521-2.632c0.388-0.894,1.026-1.388,1.92-1.472
				c0.721-0.067,1.339,0.108,1.848,0.533c0.511,0.428,0.804,1.001,0.869,1.726c0.101,1.065-0.12,2.377-0.658,3.934
				c-0.54,1.557-1.23,2.871-2.069,3.941c-2.255,2.921-5.376,4.576-9.367,4.953c-4.329,0.413-7.965-0.79-10.908-3.609
				c-2.942-2.816-4.645-6.72-5.113-11.71c-0.496-5.284,0.475-9.646,2.915-13.082c2.439-3.438,5.931-5.371,10.473-5.804
				c3.396-0.323,6.309,0.336,8.732,1.977c2.424,1.64,3.771,3.891,4.037,6.745c0.147,1.578-0.163,2.92-0.939,4.026
				c-0.775,1.106-1.841,1.724-3.198,1.851c-1.064,0.104-1.974-0.134-2.734-0.707C65.413,31.165,64.986,30.411,64.901,29.473z"/>
			<path fill="#010101" d="M94.906,49.008c-4.456,0.423-8.168-0.781-11.134-3.618c-2.963-2.835-4.69-6.855-5.177-12.058
				c-0.487-5.197,0.468-9.475,2.874-12.824c2.405-3.347,5.879-5.236,10.425-5.668c4.624-0.439,8.418,0.727,11.379,3.498
				c2.958,2.774,4.682,6.762,5.168,11.963c0.489,5.201-0.499,9.512-2.962,12.93C103.018,46.647,99.493,48.574,94.906,49.008z
				 M92.417,19.05c-2.973,0.28-5.21,1.548-6.711,3.799c-1.502,2.252-2.158,5.301-1.968,9.154l0.078,0.832
				c0.375,4.009,1.511,7.074,3.401,9.194c1.891,2.121,4.342,3.037,7.358,2.751c3.097-0.293,5.423-1.665,6.97-4.112
				c1.545-2.447,2.128-5.7,1.751-9.748C102.496,22.392,98.866,18.436,92.417,19.05z"/>
			<path fill="#010101" d="M125.49,11.646c4.2-0.4,7.496,0.942,9.886,4.026l-0.608-6.457c-0.16-1.705-0.298-2.746-0.421-3.12
				c-0.336-1.302-0.993-1.908-1.969-1.815c-0.34,0.031-0.811,0.142-1.414,0.33c-0.604,0.186-1.074,0.294-1.416,0.327
				c-1.569,0.148-2.417-0.458-2.548-1.823c-0.132-1.407,0.863-2.212,2.989-2.412c0.337-0.034,0.955-0.049,1.855-0.049
				c1.371-0.001,2.076-0.005,2.117-0.007c0.385-0.039,0.932-0.142,1.644-0.32c0.711-0.174,1.258-0.278,1.643-0.315
				c1.187-0.112,1.859,0.686,2.021,2.392l0.067,0.705c-0.029,0.134,0.032,1.27,0.193,3.41c0.024,0.255,0.113,1.904,0.269,4.945
				c0.115,2.146,0.228,3.773,0.332,4.883l0.587,6.279l1.007,10.694c0.307,2.816,0.6,4.554,0.881,5.216
				c0.279,0.665,0.831,0.957,1.649,0.877c0.563-0.053,0.989-0.135,1.289-0.25c0.686-0.15,1.157-0.239,1.415-0.263
				c1.597-0.153,2.465,0.476,2.595,1.88c0.138,1.451-0.749,2.268-2.662,2.449c-0.423,0.04-1.075,0.048-1.955,0.025
				c-0.881-0.026-1.533-0.017-1.957,0.024c-0.127,0.01-0.612,0.1-1.455,0.265c-0.495,0.178-0.938,0.283-1.32,0.321
				c-1.145,0.108-1.787-0.605-1.931-2.14l-0.033-0.322l-0.099-1.085c-1.961,3.241-5.079,5.065-9.355,5.471
				c-4.32,0.411-7.94-0.833-10.862-3.742c-2.919-2.904-4.619-6.916-5.1-12.031c-0.484-5.156,0.42-9.407,2.721-12.746
				C117.842,13.932,121.16,12.056,125.49,11.646z M136.775,33.347c0.04-1.42-0.044-3.24-0.256-5.457
				c-0.265-2.858-0.554-4.789-0.864-5.789c-0.585-2.097-1.66-3.67-3.224-4.728c-1.846-1.244-3.875-1.763-6.1-1.55
				c-2.991,0.286-5.228,1.635-6.706,4.058c-1.475,2.42-2.027,5.592-1.66,9.512c0.383,4.052,1.558,7.158,3.527,9.315
				c1.971,2.155,4.476,3.085,7.511,2.797c2.307-0.216,4.167-1.069,5.583-2.561C135.997,37.457,136.725,35.591,136.775,33.347z"/>
			<path fill="#010101" d="M178.412,21c0.152,1.621,0.14,2.623-0.041,3.005c-0.176,0.383-0.773,0.623-1.792,0.718l-20.251,1.926
				c-0.552,0.055-0.903,0.16-1.061,0.325c-0.156,0.169-0.216,0.423-0.186,0.763c0.302,3.197,1.505,5.77,3.616,7.722
				c2.11,1.947,4.586,2.791,7.432,2.52c1.869-0.179,3.531-0.852,4.982-2.021c1.453-1.173,2.339-2.567,2.655-4.19l0.402-1.91
				c0.202-1.049,0.854-1.626,1.958-1.731c1.568-0.149,2.435,0.585,2.584,2.202c0.26,2.776-0.91,5.367-3.509,7.789
				c-2.603,2.418-5.686,3.799-9.249,4.139c-4.459,0.425-8.144-0.743-11.058-3.497c-2.916-2.758-4.612-6.67-5.087-11.744
				c-0.488-5.203,0.516-9.558,3.015-13.062c2.498-3.506,5.996-5.475,10.497-5.903c3.991-0.379,7.405,0.65,10.247,3.09
				C176.41,13.576,178.026,16.867,178.412,21z M155.141,21.54c0.058,0.595,0.553,0.847,1.487,0.76l15.218-1.449
				c0.89-0.082,1.312-0.424,1.254-1.021c-0.213-2.26-1.245-4.141-3.1-5.645c-1.855-1.499-3.928-2.141-6.22-1.925
				c-2.378,0.229-4.461,1.298-6.252,3.209C155.734,17.383,154.94,19.404,155.141,21.54z"/>
		</g>
		<g>
			<g>
				<path fill="#231F20" d="M97.735,125.96c0.933,6.139,0.809,11.705-0.368,16.742c-1.179,5.036-3.167,9.481-5.981,13.301
					c-2.813,3.818-6.313,6.981-10.517,9.442c-4.203,2.457-8.883,4.169-14.051,5.1c-1.994,0.357-4.232,0.442-6.717,0.243
					c-2.486-0.196-5.035-0.551-7.643-1.057c-2.609-0.509-5.147-1.103-7.607-1.793c-2.46-0.688-4.665-1.367-6.599-2.031
					c-0.599-11.809-0.896-17.717-1.497-29.508c3.896,1.862,8.075,3.072,12.524,3.629c4.449,0.558,8.707,0.486,12.78-0.203
					c0.772-0.127,1.704-0.322,2.79-0.579c1.088-0.256,2.099-0.644,3.042-1.163c0.939-0.518,1.7-1.183,2.287-1.991
					c0.585-0.812,0.779-1.86,0.588-3.155c-0.13-0.87-0.483-1.581-1.061-2.121c-0.578-0.542-1.279-0.939-2.106-1.204
					c-0.826-0.265-1.745-0.423-2.75-0.472c-1.003-0.049-1.98-0.043-2.93,0.015c-0.948,0.061-1.834,0.153-2.65,0.285
					c-0.815,0.131-1.469,0.232-1.958,0.312c-3.516,0.563-6.833,0.371-9.944-0.582c-3.115-0.956-5.91-2.536-8.376-4.736
					c-2.464-2.199-4.544-4.952-6.218-8.241c-1.677-3.292-2.813-6.963-3.404-11.013c-0.812-5.555-0.548-10.67,0.793-15.346
					c1.338-4.673,3.436-8.787,6.276-12.338c2.839-3.552,6.256-6.457,10.233-8.713c3.973-2.253,8.192-3.694,12.645-4.304
					c1.983-0.27,4.037-0.466,6.152-0.577c2.116-0.113,4.24-0.092,6.368,0.067c2.122,0.158,4.213,0.444,6.262,0.862
					c2.047,0.414,4.021,1.017,5.914,1.791c0.78,11.767,1.16,17.429,1.917,28.689c-2.859-0.662-5.833-1.139-8.921-1.433
					c-3.087-0.295-6.062-0.244-8.926,0.157c-0.522,0.073-1.2,0.181-2.022,0.317c-0.823,0.139-1.684,0.333-2.576,0.578
					c-0.893,0.24-1.789,0.546-2.688,0.911c-0.899,0.363-1.688,0.796-2.361,1.295c-0.674,0.5-1.187,1.108-1.538,1.82
					c-0.354,0.718-0.439,1.517-0.273,2.393c0.194,1.016,0.65,1.8,1.376,2.335c0.723,0.539,1.608,0.909,2.655,1.116
					c1.047,0.201,2.179,0.283,3.396,0.249c1.211-0.038,2.407-0.13,3.583-0.277c1.173-0.15,2.265-0.312,3.265-0.484
					c1.002-0.168,1.855-0.235,2.488-0.259c3.141-0.128,6.25,0.104,8.997,1.034c2.749,0.932,5.171,2.346,7.261,4.233
					c2.092,1.883,3.828,4.236,5.208,7.059C96.234,119.179,97.193,122.375,97.735,125.96z"/>
				<path fill="#231F20" d="M176.904,97.653c0.997,5.973,0.878,11.812-0.35,17.771c-1.228,5.955-3.63,11.642-7.222,17.052
					c3.799,3.42,5.691,5.137,9.484,8.653c-7.344,8.307-11.014,12.653-18.394,21.611c-2.946-6.321-4.413-9.33-7.346-15.22
					c-1.396,0.709-2.82,1.335-4.266,1.873c-1.445,0.536-2.916,0.982-4.413,1.341c-3.679,0.881-7.303,1.168-10.861,0.859
					c-3.558-0.31-6.982-1.125-10.269-2.439c-3.286-1.312-6.373-3.113-9.255-5.394c-2.883-2.278-5.476-4.949-7.779-8.006
					c-2.301-3.056-4.235-6.476-5.799-10.253c-1.569-3.774-2.679-7.811-3.329-12.104c-0.645-4.245-0.809-8.454-0.489-12.62
					c0.317-4.158,1.065-8.163,2.238-11.99c1.173-3.83,2.744-7.42,4.706-10.755c1.96-3.341,4.261-6.317,6.897-8.917
					c2.633-2.603,5.573-4.74,8.803-6.397c3.23-1.658,6.723-2.721,10.46-3.18c5.971-0.733,11.589-0.267,16.866,1.314
					c5.277,1.579,9.979,4.153,14.112,7.576c4.136,3.423,7.606,7.639,10.421,12.556C173.937,85.899,175.859,91.413,176.904,97.653z
					 M149.462,104.327c-0.307-1.9-0.861-3.712-1.667-5.433c-0.808-1.722-1.819-3.207-3.039-4.455
					c-1.22-1.246-2.645-2.185-4.276-2.803c-1.631-0.619-3.428-0.785-5.391-0.484c-1.924,0.293-3.604,0.935-5.026,1.924
					c-1.424,0.997-2.588,2.253-3.479,3.766s-1.499,3.232-1.817,5.145c-0.317,1.91-0.312,3.926,0.019,6.033
					c0.308,1.981,0.874,3.883,1.695,5.698c0.823,1.817,1.855,3.395,3.098,4.724c1.242,1.33,2.691,2.318,4.342,2.96
					c1.648,0.643,3.453,0.76,5.412,0.366c1.881-0.379,3.533-1.139,4.955-2.273c1.424-1.133,2.568-2.495,3.438-4.081
					c0.871-1.591,1.457-3.337,1.76-5.251C149.791,108.254,149.78,106.313,149.462,104.327z"/>
				<path fill="#231F20" d="M241.948,47.444c2.571,2.029,1.331,26.634,2.438,39.919c1.077,12.902,2.226,25.809,3.315,38.715
					c-9.146,3.146-13.704,4.743-22.824,7.957c-0.214-4.081-0.317-6.038-0.521-9.844c-0.601,1.113-1.345,2.146-2.228,3.099
					c-0.885,0.948-1.85,1.792-2.906,2.515c-1.059,0.729-2.178,1.342-3.352,1.844c-1.17,0.501-2.315,0.861-3.4,1.111
					c-2.54,0.586-5.057,0.682-7.48,0.183c-2.427-0.496-4.724-1.397-6.888-2.69c-2.167-1.288-4.187-2.91-6.069-4.84
					c-1.881-1.929-3.544-4.021-4.993-6.268c-1.444-2.25-2.662-4.588-3.638-7.019c-0.971-2.429-1.66-4.831-2.06-7.204
					c-0.59-3.504-1.133-7.137-1.635-10.939c-0.499-3.805-0.899-7.665-1.202-11.632c-0.299-3.961-0.489-7.978-0.577-12.079
					c-0.087-4.097-0.603-11.37,0.229-12.203c1.112-1.118,9.34-0.601,14.021-0.942c4.683-0.341,13.451-1.921,13.916-1.483
					c0.644,0.595-0.555,7.709-0.823,11.387c-0.271,3.679-0.456,7.256-0.558,10.771c-0.099,3.515-0.072,6.951,0.091,10.339
					c0.162,3.389,0.536,6.745,1.128,10.102c0.134,0.774,0.366,1.87,0.694,3.294c0.327,1.422,0.776,2.809,1.341,4.151
					c0.565,1.341,1.27,2.48,2.112,3.4c0.842,0.917,1.868,1.243,3.073,0.973c1.427-0.316,2.604-1.212,3.522-2.652
					c0.916-1.439,1.631-3.25,2.142-5.418c0.514-2.165,0.854-4.589,1.01-7.278c0.158-2.69,0.204-5.466,0.136-8.366
					c-0.071-2.9-0.235-5.838-0.489-8.851c-0.252-3.007-0.546-5.901-0.873-8.672c-0.328-2.77-0.659-5.331-0.976-7.648
					c-0.317-2.313-0.576-4.173-0.78-5.51c-0.137-0.862-0.285-1.705-0.452-2.539c-0.17-0.832-0.655-2.455-0.568-2.578
					c0.353-0.486,4.919-0.424,7.346-0.667c2.427-0.241,4.874-0.508,7.332-0.8c1.896-0.227,3.802-0.466,5.708-0.715
					C238.117,48.113,241.687,47.237,241.948,47.444z"/>
				<path fill="#231F20" d="M328.799,101.827c-11.429,3.879-17.078,5.905-28.279,10.095c-2.273-4.934-3.398-7.161-5.639-11.427
					c-5.26,1.168-7.883,1.76-13.104,2.951c-0.282,4.933-0.413,7.521-0.667,13.161c-11.856,1.686-17.74,2.561-29.48,4.291
					c3.03-25.215,6.924-50.299,9.831-75.53c12.629-2.271,18.972-3.415,31.803-5.76C303.614,61.442,316.69,80.995,328.799,101.827z
					 M289.93,86.352c-3.047-6.03-4.563-8.91-7.623-15.322c-0.396,6.959-0.604,10.176-1.003,17.002
					C284.748,87.358,286.472,87.023,289.93,86.352z"/>
				<path fill="#231F20" d="M392.304,59.022c0.844,3.655,0.836,6.89-0.002,9.983c-0.832,3.089-2.328,6.046-4.482,8.894
					c-2.15,2.854-4.873,5.58-8.156,8.107c-3.275,2.528-6.943,4.888-11.006,7.009c-4.055,2.119-8.424,4-13.098,5.593
					c-4.674,1.594-9.508,2.916-14.496,3.948c-1.861,0.385-3.684,0.719-5.475,0.998c-1.791,0.285-3.625,0.529-5.5,0.739
					c-3.36-20.735-7.348-41.346-10.568-62.104c4.113-1.97,8.431-3.586,12.979-4.801c4.547-1.217,9.131-2.144,13.766-2.766
					c5.766-0.771,11.248-0.629,16.418,0.343c5.17,0.969,9.824,2.738,13.924,5.074c4.1,2.335,7.525,5.214,10.258,8.412
					C389.597,51.653,391.41,55.159,392.304,59.022z M353.976,80.849c2.355-0.685,4.453-1.586,6.285-2.688
					c1.834-1.104,3.363-2.322,4.578-3.65c1.221-1.326,2.072-2.723,2.557-4.2c0.484-1.474,0.549-2.959,0.199-4.481
					c-0.346-1.494-0.912-2.871-1.701-4.132c-0.791-1.265-1.846-2.339-3.168-3.208c-1.322-0.868-2.945-1.499-4.859-1.874
					c-1.918-0.371-4.176-0.41-6.768-0.104C352.281,67.051,352.812,70.838,353.976,80.849z"/>
			</g>
		</g>
		<g>
			<g>
				
					<linearGradient id="SVGID_1_" gradientUnits="userSpaceOnUse" x1="96.6968" y1="183.8042" x2="96.6968" y2="76.6338" gradientTransform="matrix(0.9998 0.0211 -0.0211 0.9998 -26.25 -19.0127)">
					<stop  offset="0" style="stop-color:#98247F"/>
					<stop  offset="1" style="stop-color:#53438E"/>
				</linearGradient>
				<path fill="url(#SVGID_1_)" stroke="#010101" stroke-width="1.7166" stroke-miterlimit="10" d="M101.804,121.858
					c0.93,6.141,0.805,11.707-0.37,16.745c-1.178,5.031-3.167,9.481-5.982,13.296c-2.813,3.821-6.312,6.983-10.517,9.442
					c-4.203,2.457-8.883,4.169-14.052,5.103c-1.992,0.358-4.229,0.442-6.716,0.243c-2.487-0.196-5.032-0.55-7.643-1.058
					c-2.609-0.506-5.146-1.102-7.605-1.793c-2.462-0.688-4.667-1.368-6.601-2.032c-0.598-11.805-0.897-17.714-1.497-29.505
					c3.896,1.862,8.074,3.068,12.525,3.627c4.448,0.558,8.708,0.488,12.779-0.199c0.771-0.131,1.703-0.326,2.79-0.583
					c1.086-0.254,2.099-0.646,3.04-1.162c0.941-0.518,1.702-1.181,2.289-1.995c0.585-0.807,0.78-1.858,0.588-3.147
					c-0.13-0.875-0.484-1.582-1.061-2.126c-0.578-0.539-1.279-0.941-2.106-1.205c-0.826-0.264-1.743-0.423-2.748-0.472
					c-1.004-0.046-1.98-0.041-2.929,0.015c-0.952,0.061-1.836,0.154-2.653,0.287c-0.814,0.131-1.469,0.232-1.961,0.312
					c-3.514,0.562-6.83,0.37-9.94-0.581c-3.116-0.953-5.913-2.537-8.377-4.733c-2.467-2.204-4.543-4.956-6.22-8.248
					c-1.675-3.289-2.81-6.962-3.404-11.011c-0.811-5.555-0.543-10.669,0.795-15.347c1.338-4.672,3.437-8.785,6.276-12.336
					c2.839-3.551,6.256-6.458,10.233-8.713c3.975-2.252,8.189-3.694,12.646-4.305c1.983-0.272,4.036-0.463,6.153-0.576
					c2.116-0.115,4.238-0.091,6.366,0.069c2.123,0.158,4.213,0.441,6.262,0.856c2.047,0.418,4.022,1.021,5.913,1.794
					c0.78,11.764,1.161,17.429,1.919,28.688c-2.86-0.659-5.833-1.139-8.92-1.43c-3.089-0.293-6.063-0.246-8.928,0.157
					c-0.522,0.073-1.201,0.18-2.021,0.318c-0.825,0.136-1.687,0.329-2.578,0.573c-0.894,0.243-1.789,0.547-2.688,0.913
					c-0.9,0.362-1.688,0.798-2.362,1.296c-0.673,0.499-1.185,1.108-1.538,1.819c-0.353,0.72-0.438,1.518-0.272,2.395
					c0.194,1.019,0.649,1.8,1.374,2.335c0.725,0.538,1.61,0.91,2.657,1.112c1.047,0.2,2.178,0.286,3.396,0.252
					c1.212-0.037,2.408-0.13,3.581-0.277c1.175-0.15,2.267-0.311,3.267-0.484c1.002-0.17,1.857-0.235,2.49-0.26
					c3.139-0.126,6.247,0.103,8.995,1.034c2.749,0.932,5.169,2.345,7.26,4.232c2.092,1.886,3.829,4.239,5.209,7.059
					C100.3,115.079,101.259,118.275,101.804,121.858z"/>
				
					<linearGradient id="SVGID_2_" gradientUnits="userSpaceOnUse" x1="170.8179" y1="173.5815" x2="170.8179" y2="70.5923" gradientTransform="matrix(0.9998 0.0211 -0.0211 0.9998 -26.25 -19.0127)">
					<stop  offset="0" style="stop-color:#98247F"/>
					<stop  offset="1" style="stop-color:#53438E"/>
				</linearGradient>
				<path fill="url(#SVGID_2_)" stroke="#010101" stroke-width="1.7166" stroke-miterlimit="10" d="M180.968,93.552
					c1,5.972,0.878,11.812-0.349,17.767c-1.229,5.959-3.631,11.644-7.221,17.055c3.799,3.419,5.693,5.133,9.486,8.654
					c-7.344,8.304-11.016,12.653-18.396,21.609c-2.943-6.32-4.412-9.33-7.345-15.219c-1.396,0.713-2.82,1.337-4.266,1.874
					c-1.444,0.535-2.917,0.982-4.415,1.339c-3.678,0.88-7.299,1.166-10.859,0.858c-3.558-0.309-6.982-1.123-10.269-2.437
					c-3.285-1.312-6.372-3.116-9.253-5.395c-2.882-2.277-5.478-4.948-7.78-8.004c-2.302-3.055-4.235-6.477-5.8-10.254
					c-1.569-3.775-2.678-7.812-3.329-12.102c-0.645-4.248-0.81-8.456-0.491-12.619c0.319-4.164,1.067-8.167,2.24-11.995
					c1.172-3.829,2.744-7.419,4.704-10.753c1.961-3.341,4.263-6.314,6.899-8.92c2.635-2.601,5.573-4.74,8.805-6.396
					c3.229-1.655,6.719-2.721,10.458-3.178c5.972-0.733,11.59-0.268,16.867,1.312c5.274,1.578,9.976,4.154,14.11,7.575
					c4.136,3.426,7.609,7.642,10.422,12.556C178,81.797,179.925,87.311,180.968,93.552z M153.527,100.226
					c-0.305-1.901-0.86-3.715-1.666-5.435c-0.806-1.718-1.821-3.206-3.04-4.452c-1.219-1.248-2.643-2.186-4.274-2.806
					c-1.63-0.618-3.427-0.784-5.391-0.484c-1.925,0.294-3.604,0.936-5.026,1.927c-1.424,0.994-2.587,2.249-3.479,3.765
					c-0.893,1.513-1.5,3.232-1.817,5.145c-0.318,1.908-0.31,3.924,0.02,6.033c0.309,1.981,0.874,3.883,1.695,5.698
					c0.82,1.814,1.854,3.396,3.097,4.726c1.242,1.328,2.69,2.312,4.342,2.957c1.648,0.643,3.453,0.762,5.412,0.367
					c1.88-0.379,3.534-1.143,4.956-2.272c1.421-1.135,2.566-2.497,3.438-4.085c0.867-1.588,1.456-3.337,1.759-5.246
					C153.857,104.152,153.846,102.209,153.527,100.226z"/>
				
					<linearGradient id="SVGID_3_" gradientUnits="userSpaceOnUse" x1="245.2446" y1="143.5259" x2="245.2446" y2="56.5649" gradientTransform="matrix(0.9998 0.0211 -0.0211 0.9998 -26.25 -19.0127)">
					<stop  offset="0" style="stop-color:#98247F"/>
					<stop  offset="1" style="stop-color:#53438E"/>
				</linearGradient>
				<path fill="url(#SVGID_3_)" stroke="#010101" stroke-width="1.7166" stroke-miterlimit="10" d="M246.013,43.339
					c2.571,2.03,1.331,26.637,2.44,39.923c1.076,12.902,2.223,25.809,3.313,38.715c-9.146,3.146-13.702,4.742-22.823,7.958
					c-0.213-4.085-0.318-6.039-0.523-9.845c-0.603,1.112-1.343,2.147-2.228,3.097c-0.884,0.948-1.849,1.79-2.905,2.517
					c-1.059,0.725-2.174,1.341-3.35,1.841c-1.172,0.503-2.317,0.862-3.402,1.111c-2.539,0.587-5.054,0.682-7.479,0.184
					c-2.427-0.496-4.724-1.395-6.89-2.688c-2.164-1.291-4.188-2.91-6.066-4.842c-1.882-1.927-3.549-4.021-4.992-6.269
					c-1.449-2.244-2.665-4.588-3.641-7.017c-0.97-2.429-1.659-4.831-2.061-7.206c-0.59-3.502-1.133-7.136-1.633-10.938
					s-0.901-7.668-1.201-11.63c-0.302-3.965-0.491-7.979-0.578-12.077c-0.089-4.101-0.604-11.376,0.229-12.21
					c1.111-1.114,9.338-0.597,14.021-0.938c4.681-0.34,13.449-1.922,13.916-1.483c0.641,0.598-0.561,7.712-0.827,11.388
					c-0.269,3.678-0.454,7.258-0.556,10.771c-0.102,3.511-0.072,6.948,0.092,10.336c0.161,3.388,0.535,6.747,1.124,10.101
					c0.137,0.777,0.371,1.873,0.698,3.297c0.325,1.425,0.771,2.808,1.339,4.148c0.565,1.341,1.269,2.479,2.112,3.401
					c0.841,0.917,1.869,1.242,3.071,0.976c1.431-0.317,2.607-1.212,3.526-2.653c0.915-1.441,1.628-3.254,2.144-5.42
					c0.512-2.165,0.849-4.59,1.007-7.277c0.16-2.69,0.204-5.468,0.134-8.37c-0.07-2.898-0.231-5.837-0.488-8.847
					c-0.252-3.01-0.545-5.903-0.872-8.672c-0.332-2.769-0.661-5.332-0.978-7.65c-0.313-2.312-0.572-4.17-0.78-5.507
					c-0.134-0.862-0.284-1.709-0.45-2.54c-0.167-0.832-0.657-2.457-0.566-2.581c0.353-0.484,4.915-0.42,7.344-0.663
					c2.429-0.24,4.871-0.508,7.332-0.801c1.899-0.227,3.799-0.464,5.71-0.714C242.187,44.011,245.752,43.136,246.013,43.339z"/>
				
					<linearGradient id="SVGID_4_" gradientUnits="userSpaceOnUse" x1="323.1177" y1="129.8262" x2="323.1177" y2="47.6787" gradientTransform="matrix(0.9998 0.0211 -0.0211 0.9998 -26.25 -19.0127)">
					<stop  offset="0" style="stop-color:#98247F"/>
					<stop  offset="1" style="stop-color:#53438E"/>
				</linearGradient>
				<path fill="url(#SVGID_4_)" stroke="#010101" stroke-width="1.7166" stroke-miterlimit="10" d="M332.867,97.724
					c-11.435,3.879-17.077,5.904-28.28,10.096c-2.271-4.935-3.396-7.159-5.639-11.427c-5.259,1.168-7.88,1.758-13.104,2.948
					c-0.282,4.934-0.416,7.525-0.668,13.167c-11.855,1.681-17.737,2.556-29.479,4.288c3.03-25.214,6.921-50.3,9.827-75.53
					c12.631-2.271,18.976-3.415,31.804-5.759C307.682,57.34,320.758,76.889,332.867,97.724z M293.996,82.25
					c-3.046-6.028-4.562-8.911-7.622-15.322c-0.398,6.961-0.604,10.177-1.003,17.001C288.812,83.254,290.539,82.918,293.996,82.25z"
					/>
				
					<linearGradient id="SVGID_5_" gradientUnits="userSpaceOnUse" x1="387.8887" y1="111.5703" x2="387.8887" y2="40.916" gradientTransform="matrix(0.9998 0.0211 -0.0211 0.9998 -26.25 -19.0127)">
					<stop  offset="0" style="stop-color:#98247F"/>
					<stop  offset="1" style="stop-color:#53438E"/>
				</linearGradient>
				<path fill="url(#SVGID_5_)" stroke="#010101" stroke-width="1.7166" stroke-miterlimit="10" d="M396.371,54.92
					c0.84,3.654,0.838,6.892,0.002,9.982c-0.836,3.087-2.334,6.047-4.484,8.897s-4.877,5.577-8.158,8.104
					c-3.275,2.525-6.945,4.889-11.002,7.007c-4.061,2.121-8.428,4.004-13.104,5.594c-4.67,1.592-9.506,2.915-14.494,3.953
					c-1.861,0.383-3.689,0.714-5.475,0.996c-1.789,0.28-3.625,0.529-5.502,0.737c-3.359-20.737-7.346-41.346-10.565-62.105
					c4.111-1.97,8.435-3.582,12.979-4.801c4.543-1.215,9.133-2.143,13.768-2.764c5.764-0.771,11.244-0.629,16.416,0.341
					c5.17,0.971,9.822,2.741,13.922,5.074c4.102,2.338,7.531,5.215,10.256,8.414C393.664,47.55,395.478,51.055,396.371,54.92z
					 M358.042,76.749c2.355-0.685,4.453-1.589,6.283-2.692c1.836-1.1,3.363-2.322,4.582-3.648c1.215-1.324,2.072-2.722,2.555-4.198
					c0.486-1.476,0.549-2.961,0.197-4.483c-0.342-1.493-0.91-2.869-1.697-4.133c-0.789-1.265-1.848-2.34-3.172-3.207
					c-1.318-0.869-2.941-1.497-4.859-1.873c-1.916-0.374-4.176-0.411-6.766-0.103C356.349,62.95,356.88,66.737,358.042,76.749z"/>
			</g>
		</g>
		<path fill="#98247F" d="M22.735,47.108l-7.39-6.144l6.119-7.414l7.384,6.136L22.735,47.108z M34.846,39.112l6.476-7.859
			c0.751-0.906,0.372-1.957-0.539-2.715c-0.899-0.741-1.995-0.922-2.745-0.015l-6.473,7.858l-7.382-6.128l6.467-7.858
			c0.757-0.914,0.379-1.96-0.527-2.711c-0.909-0.754-2.003-0.933-2.748-0.018l-6.472,7.866l-7.654-6.367
			c-0.908-0.755-2.12-0.514-2.868,0.394c-0.76,0.915-0.767,2.155,0.144,2.902l7.653,6.364l-6.106,7.409l-7.657-6.352
			c-0.909-0.754-2.121-0.52-2.866,0.395c-0.751,0.905-0.754,2.147,0.144,2.897l7.657,6.36l-6.33,7.693
			c-0.748,0.904-0.516,2.127,0.384,2.88c0.909,0.75,2.147,0.756,2.898-0.156l6.331-7.693l7.38,6.137L13.68,58.08
			c-0.743,0.919-0.514,2.136,0.4,2.888c0.899,0.754,2.139,0.754,2.889-0.155l6.332-7.681l7.822,6.498
			c0.914,0.755,1.945,0.368,2.697-0.54c0.75-0.908,0.934-2.004,0.019-2.765l-7.821-6.5l6.12-7.416l7.813,6.504
			c0.904,0.754,1.946,0.367,2.697-0.538c0.752-0.908,0.927-2.005,0.017-2.76L34.846,39.112z"/>
	</g>
</g>
</svg>
